<?xml version="1.0" encoding="UTF-8"?><svg xmlns="http://www.w3.org/2000/svg" width="785.4545" height="600" viewBox="0 0 785.4545 600"><defs><style>.h,.i,.j,.k,.l,.m,.n,.o,.p{stroke-miterlimit:10;}.h,.i,.j,.k,.l,.n,.o,.p{fill:none;}.h,.i,.k{stroke-width:2.25px;}.h,.i,.k,.l,.m,.n,.o,.p{stroke-linecap:round;}.h,.m,.p{stroke:#723bbb;}.i,.o{stroke:#d2d2d2;}.j{stroke-width:18.3887px;}.j,.l{stroke:#fff;}.k{stroke:#0aae95;}.l{stroke-width:8.9589px;}.m{fill:#b699dc;stroke-width:4px;}.n{stroke:#000;stroke-width:6.9362px;}.o{stroke-width:1.3679px;}.q{fill:#50239f;}.q,.r,.s,.t{stroke-width:0px;}.r{fill:#474747;}.s{fill:#723bbb;}.t{fill:#fff;}.p{stroke-width:1.2384px;}</style></defs><g id="c"><rect class="q" x="260.6601" y="56.9985" width="264.1343" height="497.8025" rx="39.6406" ry="39.6406"/><rect class="j" x="260.6601" y="56.9985" width="264.1343" height="497.8025" rx="39.6406" ry="39.6406"/><rect class="n" x="260.6601" y="56.9985" width="264.1343" height="497.8025" rx="39.6406" ry="39.6406"/><rect class="t" x="331.3139" y="382.3394" width="136.1825" height="72.2585" rx="10.8444" ry="10.8444" transform="translate(-70.2919 756.1447) rotate(-82.0485)"/><path class="i" d="m387.8608,389.6516v-.001s8.4324,4.7558,8.4324,4.7558c-.1632,1.4134-.1595,4.3756-.5996,7.3387-.1319.8892-.3036,1.7785-.5317,2.626-.2281.8476-.5127,1.6539-.8701,2.3764,0,0-2.6268,6.0058-9.806,7.6262"/><path class="k" d="m381.077,413.8918l-.0003.002c-6.4492-3.4902-7.3671-9.956-7.3671-9.956-.1507-.7919-.2087-1.645-.2009-2.5226.0074-.8777.0803-1.7804.1916-2.6725.3702-2.9727,1.1673-5.8255,1.3894-7.2309l9.3574-2.3037v.0005s-.6484,4.7349-.6484,4.7349c-.1385,1.0142.5378,2.1957,1.552,2.3342l1.7638.2408c1.5051.2055,2.5587,1.5922,2.3532,3.0973h0c-.2055,1.5051-1.5922,2.5587-3.0973,2.3532l-3.7881-.5171c-1.5051-.2055-2.8918.8481-3.0973,2.3532h0c-.2055,1.5051.8481,2.8919,2.3532,3.0973l1.7638.2408c1.0142.1385,1.7242,1.0729,1.5857,2.0872l-.7022,5.1435.0008-.0002"/><path class="i" d="m410.5877,453.2205l-.0003.002c-6.4492-3.4902-7.3671-9.956-7.3671-9.956-.1507-.7919-.2087-1.645-.2009-2.5226.0074-.8777.0803-1.7804.1916-2.6725.3702-2.9727,1.1673-5.8255,1.3894-7.2309l9.3574-2.3037v.0005"/><path class="h" d="m417.3715,428.9803v-.001s8.4324,4.7558,8.4324,4.7558c-.1632,1.4134-.1595,4.3756-.5996,7.3387-.1319.8892-.3036,1.7785-.5317,2.626-.2281.8476-.5127,1.6539-.8701,2.3764,0,0-2.6268,6.0058-9.806,7.6262l.7022-5.1435c.1385-1.0142-.5715-1.9487-1.5857-2.0872l-1.7638-.2408c-1.5051-.2055-2.5587-1.5922-2.3532-3.0973h0c.2055-1.5051,1.5922-2.5587,3.0973-2.3532l3.7881.5171c1.5051.2055,2.8918-.8481,3.0973-2.3532h0c.2055-1.5051-.8481-2.8918-2.3532-3.0973l-1.7638-.2408c-1.0142-.1385-1.7242-1.0729-1.5857-2.0872l.6801-4.9816-.0073.0032"/><path class="p" d="m405.3252,401.7062c1.5046.0117,3.0327.2727,4.5293.8096,5.5408,1.9878,9.0159,7.1711,9.0938,12.7297"/><polygon class="s" points="415.581 413.7799 418.1394 420.0704 422.3088 414.7096 415.581 413.7799"/><path class="p" d="m393.1076,442.5094c-1.5044-.0115-3.0327-.2727-4.5291-.8093-5.541-1.9878-9.0161-7.1711-9.094-12.7297"/><polygon class="s" points="382.852 430.4359 380.2934 424.1454 376.1242 429.5062 382.852 430.4359"/><circle class="t" cx="490.4046" cy="81.6936" r="3.3036"/><circle class="t" cx="490.4046" cy="90.1624" r="3.3036"/><circle class="t" cx="490.4046" cy="98.6313" r="3.3036"/><line class="m" x1="289.6442" y1="315.8877" x2="493.7081" y2="315.8877"/></g><g id="f"><rect class="t" x="334.1805" y="122.8784" width="73.6119" height="131.8893" rx="11.1343" ry="11.1343" transform="translate(-17.2889 38.7319) rotate(-5.8406)"/><path class="q" d="m390.9609,120.5497c5.6399-.0002,10.4766,4.2698,11.063,10.0022l11.155,109.0515c.6257,6.1174-3.8262,11.5837-9.9436,12.2095l-51.0767,5.2249c-.385.0393-.7678.0586-1.1465.0586-5.6401,0-10.4766-4.2698-11.0632-10.002l-11.155-109.0518c-.6257-6.1174,3.8262-11.5837,9.9436-12.2095l51.0769-5.2249c.385-.0393.7676-.0586,1.1465-.0586m.0002-4c-.5156,0-1.0383.0266-1.5537.0793l-51.0769,5.2249c-4.0215.4114-7.6423,2.364-10.1951,5.4985-2.5527,3.1345-3.7322,7.0757-3.3208,11.0972l11.155,109.0518c.7932,7.7505,7.26,13.595,15.0425,13.595.5156,0,1.0381-.0266,1.5535-.0793l51.0767-5.2249c8.3018-.8491,14.365-8.2939,13.5159-16.5957l-11.155-109.0515c-.7927-7.7505-7.2595-13.5952-15.042-13.5952h0Z"/><rect class="t" x="359.1821" y="184.2252" width="131.8893" height="73.6119" rx="11.1343" ry="11.1343" transform="translate(142.0331 607.613) rotate(-81.2554)"/><path class="q" d="m408.0722,151.8192c.5632,0,1.1328.0427,1.7068.1311l50.7466,7.8057c6.0779.9348,10.2471,6.6199,9.312,12.6975l-16.6655,108.3464c-.8467,5.5039-5.5896,9.4431-10.9912,9.4431-.563,0-1.1323-.0425-1.7063-.1309l-50.7466-7.8057c-6.0779-.9351-10.2471-6.6199-9.3123-12.6978l16.6658-108.3464c.8464-5.5039,5.5891-9.4426,10.9907-9.4431m.001-4h-.0012c-7.5154.0005-13.8003,5.3984-14.9441,12.835l-16.6658,108.3464c-1.2686,8.248,4.4097,15.9905,12.6577,17.2595l50.7466,7.8057c.7656.1177,1.5442.1772,2.3145.1772,7.5156,0,13.8008-5.3979,14.9448-12.835l16.6655-108.3464c.6145-3.9954-.3635-7.9912-2.7542-11.251-2.3909-3.26-5.908-5.3936-9.9033-6.0083l-50.7466-7.8057c-.7659-.1177-1.5444-.1775-2.314-.1775h0Z"/><rect class="t" x="369.7008" y="183.5575" width="43.8707" height="43.6953" rx="21.8476" ry="21.8476"/><rect class="l" x="369.7008" y="183.5575" width="43.8707" height="43.6953" rx="21.8476" ry="21.8476"/><rect class="o" x="369.7008" y="183.5575" width="43.8707" height="43.6953" rx="21.8476" ry="21.8476"/><path class="i" d="m369.8744,159.0913v-.001s9.4848,2.5006,9.4848,2.5006c.2024,1.4274.9652,4.3301,1.2933,7.3477.0986.9055.1582,1.8212.1519,2.7105-.0064.8893-.0787,1.7527-.2438,2.5526,0,0-1.0356,6.5607-7.6578,9.9893"/><path class="h" d="m369.4377,184.5921l.0002.002c-7.2166-1.7682-9.7737-7.8713-9.7737-7.8713-.3507-.7377-.6262-1.559-.8435-2.4214-.2177-.8623-.3776-1.7659-.4972-2.6689-.3991-3.009-.3489-6.0098-.4915-7.4444l8.5824-4.6567v.0005s.5782,4.8076.5782,4.8076c.1242,1.0297,1.09,2.0146,2.1197,1.8903l1.7907-.2161c1.5281-.1844,2.9163.9049,3.1007,2.433h0c.1844,1.5281-.9049,2.9163-2.433,3.1007l-3.8459.464c-1.5281.1844-2.6174,1.5726-2.433,3.1007h0c.1844,1.5281,1.5726,2.6174,3.1007,2.433l1.7907-.2161c1.0297-.1242,1.9652.6098,2.0894,1.6395l.6301,5.222.0007-.0004"/><path class="i" d="m432.0681,199.3823v-.001s8.5884,4.8188,8.5884,4.8188c-.1628,1.4382-.1524,4.4513-.5935,7.4665-.1322.9048-.3049,1.8098-.535,2.6725-.2302.8627-.5178,1.6835-.8798,2.4193,0,0-2.6586,6.1152-9.9579,7.7796"/><path class="k" d="m425.2218,224.0553l-.0003.002c-6.5681-3.5358-7.5164-10.111-7.5164-10.111-.155-.8052-.216-1.6729-.21-2.5656.0056-.8928.0777-1.8113.1889-2.7189.3699-3.0248,1.1744-5.9285,1.3971-7.3586l9.5135-2.3643-.0024.0176-.6465,4.8008c-.1386,1.032.552,2.2324,1.584,2.3709l1.7947.241c1.5315.2056,2.6064,1.6139,2.4007,3.1454h0c-.2056,1.5315-1.6139,2.6064-3.1454,2.4007l-3.8545-.5176c-1.5315-.2056-2.9398.8692-3.1454,2.4007h0c-.2056,1.5315.8692,2.9398,2.4007,3.1454l1.7947.241c1.032.1386,1.7563,1.0875,1.6177,2.1196l-.7027,5.2336.0008-.0002"/><g id="g"><path class="r" d="m392.5881,210.2776l.0105-1.8452c.0003-.051.0418-.092.0928-.0917l5.6492.0322c.051.0003.0925-.0408.0928-.0917l.0106-1.8681-.0096.0088,1.9536.0111-.0095-.0089-.0105,1.848c-.0003.051.0408.0925.0917.0928l3.691.021c.051.0003.092.0418.0917.0928l-.0543,9.5296c-.0003.051-.0418.092-.0928.0917l-9.5098-.0541c-.051-.0003-.092-.0418-.0917-.0928l.0209-3.6723c.0003-.051-.0408-.0925-.0917-.0928l-1.7649-.01c-.051-.0003-.092-.0418-.0917-.0928l.0107-1.8715-.0096.0088,1.8341.0104c.051.0003.0925-.0408.0928-.0917l.0101-1.7691c.0003-.051-.0408-.0925-.0917-.0928l-1.8341-.0104.0095.0089Zm3.9065.1246l-.0319,5.6091c-.0003.051.0408.0925.0917.0928l5.6091.0319c.051.0003.0925-.0408.0928-.0917l.0319-5.6091c.0003-.051-.0408-.0925-.0917-.0928l-5.6091-.0319c-.051-.0003-.0925.0408-.0928.0917Z"/><path class="r" d="m386.7333,212.1802l-.0105,1.8489c-.0003.051-.0418.092-.0928.0917l-1.7372-.0099c-.051-.0003-.0925.0408-.0928.0917l-.0099,1.7422c-.0003.051.0408.0925.0917.0928l3.6771.0209c.051.0003.0925-.0408.0928-.0917l.0098-1.7156c.0003-.051.0418-.092.0928-.0917l1.7519.01c.051.0003.092.0418.0917.0928l-.0099,1.7308c-.0003.051.0408.0925.0917.0928l1.7587.01c.051.0003.092.0418.0917.0928l-.01,1.755c-.0003.051-.0418.092-.0928.0917l-9.5037-.0541c-.051-.0003-.092-.0418-.0917-.0928l.01-1.7502c.0003-.051-.0408-.0925-.0917-.0928l-1.8716-.0107.0091.0093c.0036-.6508.0072-1.3017.0107-1.9525l-.0096.0088,1.8345.0104c.051.0003.0925-.0408.0928-.0917l.0211-3.7137c.0003-.051-.0408-.0925-.0917-.0928l-1.8345-.0104.0095.0089.0105-1.8478c.0003-.051.0418-.092.0928-.0917l1.7365.0099c.051.0003.0925-.0408.0928-.0917l.01-1.7495c.0003-.051-.0408-.0925-.0917-.0928l-3.6618-.0208c-.051-.0003-.092-.0418-.0917-.0928l.01-1.7585c.0003-.051.0418-.092.0928-.0917l9.5092.0541c.051.0003.092.0418.0917.0928l-.0105,1.8357.0096-.0088-3.7795-.0215c-.051-.0003-.0925.0408-.0928.0917l-.0322,5.6583c-.0003.051.0408.0925.0917.0928l1.8349.0104-.0095-.0089Z"/><path class="r" d="m390.7218,194.7018c-.0038.6507-.0076,1.3013-.0114,1.952l.0093-.0091-1.8476-.0105c-.051-.0003-.0925.0408-.0928.0917l-.0321,5.636c-.0003.051-.0418.092-.0928.0917l-9.5296-.0543c-.051-.0003-.092-.0418-.0917-.0928l.0541-9.5044c.0003-.051.0418-.092.0928-.0917l9.5059.0541c.051.0003.092.0418.0917.0928l-.01,1.7502c-.0003.051.0408.0925.0917.0928l1.8716.0107-.0091-.0093Zm-9.6442,5.7595l5.609.0319c.051.0003.0925-.0408.0928-.0917l.0319-5.6088c.0003-.051-.0408-.0925-.0917-.0928l-5.609-.0319c-.051-.0003-.0925.0408-.0928.0917l-.0319,5.6088c-.0003.051.0408.0925.0917.0928Z"/><path class="r" d="m398.4551,204.477l.0105-1.8484c.0003-.051-.0408-.0925-.0917-.0928l-3.6913-.021c-.051-.0003-.092-.0418-.0917-.0928l.0543-9.5301c.0003-.051.0418-.092.0928-.0917l9.4937.0541c.051.0003.092.0418.0917.0928l-.0541,9.5072c-.0003.051-.0418.092-.0928.0917l-3.6832-.021c-.051-.0003-.0925.0408-.0928.0917l-.0107,1.8713.0096-.0088-1.9536-.0111.0095.0089Zm-1.8716-9.632l-.0319,5.6091c-.0003.051.0408.0925.0917.0928l5.6085.0319c.051.0003.0925-.0408.0928-.0917l.0319-5.6091c.0003-.051-.0408-.0925-.0917-.0928l-5.6085-.0319c-.051-.0003-.0925.0408-.0928.0917Z"/><path class="r" d="m398.4441,206.4129c-2.4515-.0125-4.903-.0251-7.3544-.0372-.1403-.0007-.2806.0024-.4213.0034-.0004-.0004.0103.0091.0103.0091l.0216-3.7967c.0003-.051.0418-.092.0928-.0917l1.7306.0099c.051.0003.092.0418.0917.0928l-.01,1.7491c-.0003.051.0411.0925.0921.0928,1.9414.0111,3.8495.0219,5.7576.0328l-.0095-.0089-.0111,1.9536.0096-.0088Z"/><path class="r" d="m390.7104,196.6537l1.8351.0104c.051.0003.092.0418.0917.0928l-.0209,3.6792c-.0003.051-.0418.092-.0928.0917l-1.7336-.0099c-.051-.0003-.092-.0419-.0917-.0929.0072-1.2625.0144-2.5215.0215-3.7806,0,0-.0093.0091-.0093.0091Z"/><path class="r" d="m400.3897,204.488l3.7788.0215c.051.0003.092.0418.0917.0928l-.01,1.7513c-.0003.051-.0418.092-.0928.0917l-3.7788-.0215s.0095.0089.0095.0089l.0111-1.9536-.0096.0088Z"/><path class="r" d="m388.7001,208.3021l-.0216,3.7969c-.0003.051-.0423.092-.0933.0917-.6255-.0036-1.2387-.0071-1.8518-.0105l.0095.0089.0216-3.7969c.0003-.051.0418-.092.0928-.0917l1.8523.0105-.0095-.0089Z"/><path class="r" d="m380.8985,214.0917l-1.8349-.0104c-.051-.0003-.092-.0418-.0917-.0928l.021-3.6959c.0003-.051.0418-.092.0928-.0917l1.8349.0104-.0095-.0089-.0222,3.8982.0096-.0088Z"/><path class="r" d="m390.7309,194.711l.0104-1.8344c.0003-.051.0418-.092.0928-.0917l1.7346.0099c.051.0003.092.0418.0917.0928l-.0099,1.7329c-.0003.051-.042.092-.093.0917-.613-.0035-1.2245-.007-1.8359-.0104,0,0,.0091.0093.0091.0093Z"/><path class="r" d="m388.7111,206.3662c.6556.0071,1.3111.0142,1.9671.0216.0004.0003-.0103-.0091-.0099-.0087-.0031.6039-.0065,1.2075-.0101,1.841-.0003.051-.0426.0929-.0936.0926-.6397-.0036-1.2521-.0071-1.8645-.0106l.0095.0089.0111-1.9536-.0096.0088Z"/><path class="r" d="m392.5771,212.2135l-1.8345-.0104c-.051-.0003-.092-.0418-.0917-.0928l.01-1.7513c.0003-.051.0418-.092.0928-.0917l1.8345.0104s-.0095-.0089-.0095-.0089l-.0111,1.9536.0096-.0088Z"/><path class="r" d="m380.8786,216.0349l-.0104,1.8344c-.0003.051-.0418.092-.0928.0917l-1.7347-.0099c-.051-.0003-.092-.0418-.0917-.0928l.0099-1.7329c.0003-.051.042-.092.093-.0917.6131.0035,1.2245.007,1.8359.0104,0,0-.0091-.0093-.0091-.0093Z"/><rect class="r" x="398.4233" y="212.2709" width="1.9044" height="1.9059" rx=".0923" ry=".0923" transform="translate(183.8813 611.379) rotate(-89.6738)"/><rect class="r" x="382.952" y="196.634" width="1.9105" height="1.9048" rx=".0923" ry=".0923" transform="translate(184.1384 580.3625) rotate(-89.6738)"/><rect class="r" x="398.5145" y="196.7227" width="1.9047" height="1.9044" rx=".0923" ry=".0923" transform="translate(199.5208 596.0098) rotate(-89.6738)"/></g></g></svg>