<svg viewBox="0 0 512 512" xmlns="http://www.w3.org/2000/svg" xmlns:xlink="http://www.w3.org/1999/xlink"><defs><path id="a" d="m452.6 238.6-262.5.4c-5.1 0-9.6 4.1-10.2 9.2l-1.1 10.5-16.4 155.7c-.5 4.9 3 8.8 7.9 8.8l263.2-.4c4.9 0 9.3-4 9.8-8.9l16.4-155.7 1.1-10.5c.5-5-3.1-9.1-8.2-9.1z"/><clipPath id="b"><use xlink:href="#e"/></clipPath><clipPath id="c"><use xlink:href="#f"/></clipPath><clipPath id="d"><use xlink:href="#g"/></clipPath><path id="e" d="m446.2 238.6-262.5.4c-5.1 0-9.6 4.1-10.2 9.2l-1.1 10.5-16.4 155.7c-.5 4.9 3 8.8 7.9 8.8l263.2-.4c4.9 0 9.3-4 9.8-8.9l16.4-155.7 1.1-10.5c.5-5-3.2-9.1-8.2-9.1z"/><path id="f" d="m378.7 273.7-153.5.3c-3.8 0-7.3 3.1-7.7 6.9l-.9 7.9-10.3 95.2c-.4 3.7 2.3 6.7 5.9 6.7l154-.3c3.7 0 7-3 7.4-6.7l10.3-95.2.9-7.9c.4-3.8-2.3-6.9-6.1-6.9z"/><path id="g" d="m439.7 422.8h-7.3l-374.7.6h-7.3v7.3c0 3.8 3.1 6.8 6.8 6.8l375.7-.6c3.8 0 6.8-3.1 6.8-6.8z"/></defs><path d="m485.3 256c0 126.7-102.7 229.3-229.3 229.3-126.7 0-229.3-102.6-229.3-229.3s102.6-229.3 229.3-229.3 229.3 102.6 229.3 229.3" fill="#00e8cc"/><path d="m28.1 427.8.5 12.9c0 3.8 3.1 6.8 6.8 6.8l374.1-.6c3.8 0 6.8-3.1 6.8-6.8v-6.3h-5.9c4.7-.2 8.9-4.1 9.4-8.9l15.4-147 1.1-10.5c.5-5.1-3.1-9.2-8.2-9.2h-6.4l-255.6.4h-6.4c-5.1 0-9.6 4.1-10.2 9.2l-1.1 10.5-16.9 136.5c-.5 4.7 2.8 8.6 7.4 8.8l-7.7 4-103.1.2z" fill="#50239f" opacity=".11"/><use fill="#f7f7f7" xlink:href="#a"/><use fill="none" stroke="#f7f7f7" stroke-linejoin="round" stroke-miterlimit="10" stroke-width="2.066" xlink:href="#a"/><use fill="#00e8cc" xlink:href="#e"/><path clip-path="url(#b)" d="m448.4 222.5-268 3.4c-5.1 0-16.4 17.2-16.9 22.3l-1.1 6.7 295.1-.5 16-10c.5-5-20-21.9-25.1-21.9z" fill="#00e8cc" stroke="#fff" stroke-miterlimit="10" stroke-width="2.182"/><g clip-path="url(#b)"><use fill="#00e8cc" xlink:href="#f"/><path clip-path="url(#c)" d="m378.7 273.7-153.5.3c-3.8 0-7.3 3.1-7.7 6.9l-.9 7.9 167.4-.3.9-7.9c.3-3.8-2.4-6.9-6.2-6.9z" fill="#fff" stroke="#fff" stroke-miterlimit="10" stroke-width="1.033"/><use fill="none" stroke="#fff" stroke-linecap="round" stroke-miterlimit="10" stroke-width="2.182" xlink:href="#f"/><g fill="#00e8cc"><ellipse cx="375.9" cy="281.9" rx="2.7" ry="2.4" transform="matrix(.7251701 -.68856977 .68856977 .7251701 -90.808047 336.277905)"/><path d="m326.8 300h15.1c2.1 0 3.1 1.7 2.9 3.8l-6.2 56.9c-.2 2-2 3.7-4.1 3.7h-14.7m-55.4.1h-14.7c-2 0-3.5-1.6-3.3-3.7l6.2-56.9c.2-2.1 2.1-3.8 4.2-3.8h14.6" stroke="#fff" stroke-linecap="round" stroke-miterlimit="10" stroke-width="2.182"/><ellipse cx="362.7" cy="281.9" rx="2.7" ry="2.4" transform="matrix(.7251701 -.68856977 .68856977 .7251701 -94.43707 327.227607)"/><ellipse cx="348.2" cy="282" rx="2.7" ry="2.4" transform="matrix(.7251701 -.68856977 .68856977 .7251701 -98.436841 317.252421)"/></g></g><use fill="none" stroke="#fafafa" stroke-linejoin="round" stroke-miterlimit="10" stroke-width="2.066" xlink:href="#e"/><use fill="#f7f7f7" xlink:href="#g"/><g clip-path="url(#d)"><path d="m439.7 422.8v7.3c0 3.8-3 6.8-6.8 6.8l-153.2.2c-3.8 0-6.8-3-6.8-6.8v-7.3zm0-3-166.9.2c-1.7 0-3.1 1.4-3.1 3.1v7.3c0 5.4 4.4 9.9 9.9 9.9l153.2-.2c5.4 0 9.9-4.4 9.9-9.9v-7.4c0-.8-.3-1.6-.9-2.2-.6-.5-1.3-.8-2.1-.8z" fill="#00e8cc"/></g><use fill="none" stroke="#f7f7f7" stroke-linejoin="round" stroke-miterlimit="10" stroke-width="2.066" xlink:href="#g"/><path d="m429.3 416.3c1.5-1.5 2.6-3.5 2.8-5.7l15.8-149.5 1.1-10.1c.5-4.9-3-8.8-7.9-8.8l-257 .4c-2.2 0-4.3.8-6 2.2-2 1.6 249.5 173.2 251.2 171.5z" fill="#f7f7f7" fill-opacity=".24"/><ellipse cx="311" cy="248.4" fill="#50239f" rx="2.8" ry="2.5" transform="matrix(.7251701 -.68856977 .68856977 .7251701 -85.592288 282.381676)"/><path d="m291 228.3-32.4-24.7m49.3 20.2-14-35.6m-9.6 60.4h-40.2" style="stroke-linecap:round;stroke-miterlimit:10;fill:none;stroke:#50239f;stroke-width:4.186;stroke-linejoin:round"/><path d="m28.7 61.4 90.8-22.5c4.8-1.2 9.7 1.7 10.9 6.6l45.8 184.5c1.2 4.7-1.7 9.4-6.3 10.5l-91.4 22.7c-5.8 1.4-11.7-2.1-13.1-7.9l-44.8-180.3c-1.5-6 2.1-12.1 8.1-13.6z" fill="#50239f" opacity=".11"/><path d="m49.4 34.5 90.8-22.5c4.8-1.2 9.7 1.7 10.9 6.6l45.7 184.5c1.2 4.7-1.7 9.4-6.3 10.5l-91.4 22.7c-5.8 1.4-11.7-2.1-13.1-7.9l-44.7-180.4c-1.5-6 2.1-12 8.1-13.5z" fill="#fff"/><path d="m53.7 35.5 85.5-21.2c4.7-1.2 9.4 1.7 10.6 6.4l44.1 177.7c.7 2.8-1 5.7-3.9 6.4l-92.2 22.9c-2.8.7-5.7-1-6.4-3.9l-44.1-177.7c-1.1-4.7 1.7-9.4 6.4-10.6z" fill="#50239f"/><g fill="#fff"><path d="m110.7 118.2c-1.1.3-2.2.6-3.5.9-.3-1.2-.6-2.3-.9-3.5-3.7.9-7.1 1.8-10.8 2.7.6 2.4 1.2 4.7 1.8 7.1 2.4-.6 4.7-1.2 7.1-1.8.3 1.3.6 2.4.9 3.4-2.4.6-4.7 1.2-7 1.7-.3-1.2-.6-2.4-.9-3.5l-7.2 1.8v-.1l.9 3.6h-.1c1.1-.3 2.3-.6 3.6-.9.3 1.2.6 2.3.9 3.5 3.6-.9 7.1-1.8 10.7-2.6.9 3.6 1.8 7.1 2.7 10.8-1.1.3-2.3.6-3.5.9.3 1.2.6 2.3.9 3.7 1.3-.3 2.4-.6 3.5-.9.3 1.2.6 2.3.8 3.4-4.8 1.2-9.4 2.3-14.1 3.5-.6-2.4-1.2-4.7-1.7-7 3.6-.9 7.2-1.8 10.7-2.6-.3-1.1-.6-2.3-.9-3.6-2.4.6-4.7 1.2-7.1 1.8-.3-1.2-.6-2.3-.9-3.5-1.2.3-2.3.6-3.6.9.3 1.1.5 2.2.8 3.4-1.2.3-2.3.6-3.5.9.9 3.6 1.8 7.1 2.7 10.8-1.3.3-2.4.6-3.6.9.6 2.4 1.2 4.7 1.8 7.1 1.1-.3 2.2-.5 3.4-.9-.3-1.1-.5-2.2-.8-3.3 1.2-.3 2.3-.6 3.5-.9.3 1.1.5 2.2.8 3.4 1.3-.3 2.4-.6 3.6-.9-.3-1.1-.5-2.1-.8-3.3 1.2-.3 2.3-.6 3.6-.9.3 1.1.5 2.2.8 3.3 1.2-.3 2.3-.6 3.5-.9-.3-1.1-.5-2.1-.8-3.4 1.3-.3 2.4-.6 3.6-.9.3 1.1.5 2.1.9 3.5 2.5-.6 4.8-1.2 7.2-1.8v.1c-.6-2.3-1.2-4.6-1.8-7.2 1.3-.3 2.3-.6 3.6-.9-.3-1.3-.6-2.4-.9-3.6-2.3.6-4.5 1.1-6.9 1.7-.6-2.4-1.2-4.7-1.8-7.3 1.1-.3 2.3-.6 3.5-.9v.1c-.3-1.2-.6-2.3-.9-3.7-1.3.3-2.4.6-3.4.8-.3-1.3-.6-2.4-.9-3.5 2.4-.6 4.8-1.2 7.1-1.7-.3-1.2-.6-2.4-1-3.6h.1c-2.4.6-4.7 1.2-7.1 1.8-.3-1.3-.6-2.4-.9-3.7 1.2-.3 2.3-.6 3.4-.9-.6-1.1-.8-2.2-1.1-3.3zm19.9-12.7c-2.1-8.4-4.1-16.6-6.2-24.9 8.4-2.1 16.6-4.1 24.9-6.2 2.1 8.3 4.1 16.5 6.2 24.9-8.5 2.2-16.7 4.2-24.9 6.2zm20.4-8.8c-1.5-5.9-2.9-11.7-4.4-17.7-5.8 1.4-11.7 2.9-17.7 4.4 1.4 5.8 2.9 11.7 4.4 17.7 5.9-1.5 11.7-2.9 17.7-4.4zm-70.6 21.3c-2.1-8.4-4.1-16.6-6.2-24.9 8.4-2.1 16.6-4.1 24.9-6.2 2.1 8.4 4.1 16.6 6.2 24.9-8.4 2.1-16.7 4.2-24.9 6.2zm16-26.6c-5.9 1.5-11.7 2.9-17.7 4.4 1.4 5.8 2.9 11.7 4.4 17.7 5.8-1.4 11.7-2.9 17.7-4.4-1.5-5.9-2.9-11.8-4.4-17.7zm46.5 64.3c-2.1-8.4-4.1-16.6-6.2-24.9 8.3-2.1 16.6-4.1 24.9-6.2 2.1 8.3 4.1 16.5 6.2 24.9-8.3 2.1-16.6 4.2-24.9 6.2zm20.5-8.8c-1.5-5.9-2.9-11.7-4.4-17.7-5.8 1.4-11.7 2.9-17.7 4.4 1.5 5.9 2.9 11.8 4.4 17.7 5.9-1.5 11.7-2.9 17.7-4.4z"/><path d="m135.8 112c-.3-1.1-.6-2.3-.9-3.6l-7.2 1.8v-.1c.3 1.1.6 2.2.9 3.6-1.2.3-2.3.6-3.6.9.3 1.3.6 2.4.9 3.5-1.2.3-2.3.6-3.5.9-.6-2.3-1.1-4.6-1.7-7-3.7.9-7.1 1.8-10.8 2.7.3 1.2.6 2.3.9 3.5h-.1c1.2-.3 2.3-.6 3.6-.9.6 2.6 1.2 4.9 1.8 7.2h-.1c2.4-.6 4.7-1.2 7.3-1.8.3 1.3.6 2.4.9 3.6 1.3-.3 2.4-.6 3.6-.9v.1c-.3-1.2-.6-2.3-.9-3.6 1.4-.3 2.5-.6 3.6-.9v.1c-.3-1.2-.6-2.3-.9-3.6 1.4-.3 2.5-.6 3.6-.9v.1c-.3-1.2-.6-2.3-.9-3.6 1.3-.6 2.4-.9 3.5-1.1z"/><path d="m127.7 110.2c-1.2-4.7-2.3-9.4-3.5-14.3-4.7 1.2-9.4 2.3-14.3 3.5-.3-1.3-.6-2.5-.9-3.6h.1c-1.1.3-2.3.6-3.5.9.6 2.2 1.1 4.5 1.7 7 2.3-.6 4.5-1.1 7-1.7.6 2.4 1.2 4.7 1.8 7.1 1.2-.3 2.3-.6 3.6-.9-.3-1.1-.5-2.2-.8-3.3 1.2-.3 2.3-.6 3.5-.9.6 2.3 1.1 4.5 1.7 7.1 1.3-.4 2.5-.7 3.6-.9zm-12.5 25.9c.3 1.1.6 2.3.9 3.6 2.4-.6 4.7-1.2 7.1-1.8.3 1.2.6 2.3.9 3.5 2.4-.6 4.7-1.2 7.3-1.8-.3-1.1-.6-2.3-.9-3.5-1.2.3-2.3.6-3.5.9-.3-1.3-.6-2.4-.9-3.4 1.2-.3 2.3-.6 3.4-.9.3 1.2.6 2.4.9 3.5 1.1-.3 2.3-.6 3.6-.9-.9-3.7-1.8-7.3-2.7-10.8h.1l-3.6.9v-.1c.3 1.2.6 2.3.9 3.6-2.6.6-4.9 1.2-7.2 1.8.3 1.2.6 2.3.9 3.6-2.6.7-4.9 1.3-7.2 1.8zm-25.1-8.9c-.3-1.1-.6-2.3-.9-3.6 1.2-.3 2.3-.6 3.5-.9-.3-1.2-.6-2.3-.9-3.5-2.2.6-4.5 1.1-7 1.7.3 1 .5 2.1.8 3.4-1.3.3-2.4.6-3.6.9.9 3.6 1.8 7.1 2.6 10.6 2.3-.6 4.6-1.1 7.1-1.7-.3-1.1-.6-2.3-.9-3.5h.1c-1.2.3-2.3.6-3.5.9-.3-1.3-.6-2.4-.9-3.6 1.4-.3 2.5-.5 3.6-.7zm30.4 30.4c2.3-.6 4.6-1.1 7.1-1.8.3 1.2.6 2.3.9 3.5 1.3-.3 2.4-.6 3.6-.9-.6-2.4-1.2-4.7-1.8-7.1h.1c-1.2.3-2.3.6-3.6.9-.3-1.4-.6-2.5-.9-3.6h.1c-1.1.3-2.2.6-3.5.9.3 1.1.5 2.2.9 3.5-1.4.4-2.5.8-3.7 1.1v-.1c.2 1.3.5 2.5.8 3.6zm40.3-36.7c-.6-2.4-1.1-4.6-1.7-7-3.5.9-6.9 1.7-10.5 2.6.6 2.2 1.1 4.5 1.7 6.9 1-.3 2.1-.5 3.4-.8-.3-1.1-.5-2.2-.8-3.4 1.2-.3 2.3-.6 3.5-.9.3 1.1.5 2.2.8 3.4 1.2-.2 2.3-.5 3.6-.8zm-4.5-17.7c-2.4.6-4.6 1.1-6.9 1.7.6 2.3 1.1 4.6 1.7 6.9 2.2-.6 4.5-1.1 6.9-1.7-.5-2.2-1.1-4.5-1.7-6.9z"/><path d="m108.1 92.2c.3 1.2.6 2.5 1 3.7h-.1c2.3-.6 4.6-1.1 7-1.7-.9-3.7-1.8-7.1-2.7-10.7-1.1.3-2.2.5-3.4.8.6 2.3 1.1 4.6 1.8 7.1-1.3.3-2.5.6-3.6.8zm25.9 58.2c.6 2.4 1.2 4.7 1.8 7.2 1.1-.3 2.2-.5 3.3-.8-.6-2.2-1.1-4.5-1.8-7.1-1 .2-2.2.5-3.3.7zm-25.9-58.1c-.6-2.3-1.1-4.6-1.8-7.1-1.1.3-2.2.6-3.4.9.6 2.3 1.1 4.5 1.7 7 1.2-.3 2.3-.6 3.5-.8zm13.3-7.1c-1.2.3-2.2.6-3.4.8.6 2.3 1.1 4.6 1.7 6.9 1.1-.3 2.2-.5 3.4-.8-.5-2.2-1.1-4.5-1.7-6.9zm21.6 25-7.2 1.8v-.1l.9 3.6h-.1c2.3-.6 4.6-1.1 7.2-1.8-.3-1.2-.6-2.3-.8-3.5zm-10.1 36.6c1.2-.3 2.3-.6 3.6-.9-.3-1.1-.5-2.2-.8-3.3-1.1.3-2.1.5-3.5.9.2 1.1.5 2.2.7 3.3zm-3.5 1c-.3-1.1-.6-2.2-.9-3.5-1.2.3-2.2.6-3.5.9.3 1.2.6 2.3.9 3.5h-.1c1.3-.3 2.5-.6 3.6-.9zm.9 3.6c1.2-.3 2.5-.6 3.7-1v.1c-.3-1.2-.7-2.4-1-3.6h.1c-1.2.3-2.4.6-3.6 1v-.1c.3 1.2.6 2.4.8 3.6zm-33.9 16c1.2-.3 2.2-.5 3.3-.8-.3-1.1-.5-2.2-.9-3.4-1.1.3-2.1.5-3.3.8.4 1.1.6 2.2.9 3.4zm24.1-9.7c-1.1.3-2.2.6-3.5.9.3 1.1.6 2.2.9 3.4 1.1-.3 2.2-.5 3.4-.9-.3-1.2-.5-2.3-.8-3.4zm-6.4 5.2c-.3-1.2-.6-2.2-.8-3.4-1.1.3-2.2.5-3.4.8.3 1.1.5 2.2.8 3.4 1.1-.2 2.2-.5 3.4-.8zm-7.2 1.8c-.3-1.2-.6-2.2-.8-3.4-1.1.3-2.2.5-3.4.8.3 1.1.5 2.2.8 3.4 1.1-.2 2.2-.5 3.4-.8zm28-41.1c.3 1.1.6 2.2.9 3.5 1.1-.3 2.2-.6 3.4-.9-.3-1.1-.5-2.2-.9-3.4-1.1.3-2.3.6-3.4.8zm0 .1-.9-3.6h.1l-3.6.9v-.1l.9 3.6h-.1c1.2-.3 2.4-.6 3.6-.8zm-.9-3.7c1.1-.3 2.3-.6 3.6-.9l-.9-3.6h.1l-3.6.9v-.1c.2 1.3.5 2.6.8 3.7zm8.9-9.8c1.1-.3 2.2-.6 3.5-.9-.3-1.1-.6-2.2-.9-3.4-1.1.3-2.2.5-3.4.9.3 1.1.6 2.3.8 3.4zm-33.9.7c1.2-.3 2.2-.5 3.4-.8-.3-1.1-.5-2.2-.8-3.4-1 .3-2.1.5-3.4.8.3 1.1.5 2.2.8 3.4zm12.5 19.9c-.3-1.1-.6-2.3-.9-3.6-1.3.3-2.5.6-3.6.9.3 1.1.6 2.3.9 3.6zm14.5-34.2c3.6-.9 7-1.7 10.5-2.6-.9-3.5-1.7-7-2.6-10.5-3.4.9-6.9 1.7-10.5 2.6.8 3.4 1.7 6.9 2.6 10.5zm-39.7 9.8c-.9-3.5-1.7-6.9-2.6-10.5-3.5.9-7 1.7-10.6 2.6.9 3.5 1.7 6.9 2.6 10.5 3.6-.9 7.1-1.7 10.6-2.6zm62.6 37.8c-.9-3.6-1.7-7-2.6-10.5-3.5.9-7 1.7-10.5 2.6.9 3.4 1.7 6.9 2.6 10.5 3.4-.9 6.9-1.7 10.5-2.6z"/><path d="m110.7 118.2c-1.1.3-2.2.6-3.5.9-.3-1.2-.6-2.3-.9-3.5-3.7.9-7.1 1.8-10.8 2.7.6 2.4 1.2 4.7 1.8 7.1 2.4-.6 4.7-1.2 7.1-1.8.3 1.3.6 2.4.9 3.4-2.4.6-4.7 1.2-7 1.7-.3-1.2-.6-2.4-.9-3.5l-7.2 1.8v-.1l.9 3.6h-.1c1.1-.3 2.3-.6 3.6-.9.3 1.2.6 2.3.9 3.5 3.6-.9 7.1-1.8 10.7-2.6.9 3.6 1.8 7.1 2.7 10.8-1.1.3-2.3.6-3.5.9.3 1.2.6 2.3.9 3.7 1.3-.3 2.4-.6 3.5-.9.3 1.2.6 2.3.8 3.4-4.8 1.2-9.4 2.3-14.1 3.5-.6-2.4-1.2-4.7-1.7-7 3.6-.9 7.2-1.8 10.7-2.6-.3-1.1-.6-2.3-.9-3.6-2.4.6-4.7 1.2-7.1 1.8-.3-1.2-.6-2.3-.9-3.5-1.2.3-2.3.6-3.6.9.3 1.1.5 2.2.8 3.4-1.2.3-2.3.6-3.5.9.9 3.6 1.8 7.1 2.7 10.8-1.3.3-2.4.6-3.6.9.6 2.4 1.2 4.7 1.8 7.1 1.1-.3 2.2-.5 3.4-.9-.3-1.1-.5-2.2-.8-3.3 1.2-.3 2.3-.6 3.5-.9.3 1.1.5 2.2.8 3.4 1.3-.3 2.4-.6 3.6-.9-.3-1.1-.5-2.1-.8-3.3 1.2-.3 2.3-.6 3.6-.9.3 1.1.5 2.2.8 3.3 1.2-.3 2.3-.6 3.5-.9-.3-1.1-.5-2.1-.8-3.4 1.3-.3 2.4-.6 3.6-.9.3 1.1.5 2.1.9 3.5 2.5-.6 4.8-1.2 7.2-1.8v.1c-.6-2.3-1.2-4.6-1.8-7.2 1.3-.3 2.3-.6 3.6-.9-.3-1.3-.6-2.4-.9-3.6-2.3.6-4.5 1.1-6.9 1.7-.6-2.4-1.2-4.7-1.8-7.3 1.1-.3 2.3-.6 3.5-.9v.1c-.3-1.2-.6-2.3-.9-3.7-1.3.3-2.4.6-3.4.8-.3-1.3-.6-2.4-.9-3.5 2.4-.6 4.8-1.2 7.1-1.7-.3-1.2-.6-2.4-1-3.6h.1c-2.4.6-4.7 1.2-7.1 1.8-.3-1.3-.6-2.4-.9-3.7 1.2-.3 2.3-.6 3.4-.9-.6-1.1-.8-2.2-1.1-3.3zm19.9-12.7c-2.1-8.4-4.1-16.6-6.2-24.9 8.4-2.1 16.6-4.1 24.9-6.2 2.1 8.3 4.1 16.5 6.2 24.9-8.5 2.2-16.7 4.2-24.9 6.2zm20.4-8.8c-1.5-5.9-2.9-11.7-4.4-17.7-5.8 1.4-11.7 2.9-17.7 4.4 1.4 5.8 2.9 11.7 4.4 17.7 5.9-1.5 11.7-2.9 17.7-4.4zm-70.6 21.3c-2.1-8.4-4.1-16.6-6.2-24.9 8.4-2.1 16.6-4.1 24.9-6.2 2.1 8.4 4.1 16.6 6.2 24.9-8.4 2.1-16.7 4.2-24.9 6.2zm16-26.6c-5.9 1.5-11.7 2.9-17.7 4.4 1.4 5.8 2.9 11.7 4.4 17.7 5.8-1.4 11.7-2.9 17.7-4.4-1.5-5.9-2.9-11.8-4.4-17.7zm46.5 64.3c-2.1-8.4-4.1-16.6-6.2-24.9 8.3-2.1 16.6-4.1 24.9-6.2 2.1 8.3 4.1 16.5 6.2 24.9-8.3 2.1-16.6 4.2-24.9 6.2zm20.5-8.8c-1.5-5.9-2.9-11.7-4.4-17.7-5.8 1.4-11.7 2.9-17.7 4.4 1.5 5.9 2.9 11.8 4.4 17.7 5.9-1.5 11.7-2.9 17.7-4.4z"/><path d="m135.8 112c-.3-1.1-.6-2.3-.9-3.6l-7.2 1.8v-.1c.3 1.1.6 2.2.9 3.6-1.2.3-2.3.6-3.6.9.3 1.3.6 2.4.9 3.5-1.2.3-2.3.6-3.5.9-.6-2.3-1.1-4.6-1.7-7-3.7.9-7.1 1.8-10.8 2.7.3 1.2.6 2.3.9 3.5h-.1c1.2-.3 2.3-.6 3.6-.9.6 2.6 1.2 4.9 1.8 7.2h-.1c2.4-.6 4.7-1.2 7.3-1.8.3 1.3.6 2.4.9 3.6 1.3-.3 2.4-.6 3.6-.9v.1c-.3-1.2-.6-2.3-.9-3.6 1.4-.3 2.5-.6 3.6-.9v.1c-.3-1.2-.6-2.3-.9-3.6 1.4-.3 2.5-.6 3.6-.9v.1c-.3-1.2-.6-2.3-.9-3.6 1.3-.6 2.4-.9 3.5-1.1z"/><path d="m127.7 110.2c-1.2-4.7-2.3-9.4-3.5-14.3-4.7 1.2-9.4 2.3-14.3 3.5-.3-1.3-.6-2.5-.9-3.6h.1c-1.1.3-2.3.6-3.5.9.6 2.2 1.1 4.5 1.7 7 2.3-.6 4.5-1.1 7-1.7.6 2.4 1.2 4.7 1.8 7.1 1.2-.3 2.3-.6 3.6-.9-.3-1.1-.5-2.2-.8-3.3 1.2-.3 2.3-.6 3.5-.9.6 2.3 1.1 4.5 1.7 7.1 1.3-.4 2.5-.7 3.6-.9zm-12.5 25.9c.3 1.1.6 2.3.9 3.6 2.4-.6 4.7-1.2 7.1-1.8.3 1.2.6 2.3.9 3.5 2.4-.6 4.7-1.2 7.3-1.8-.3-1.1-.6-2.3-.9-3.5-1.2.3-2.3.6-3.5.9-.3-1.3-.6-2.4-.9-3.4 1.2-.3 2.3-.6 3.4-.9.3 1.2.6 2.4.9 3.5 1.1-.3 2.3-.6 3.6-.9-.9-3.7-1.8-7.3-2.7-10.8h.1l-3.6.9v-.1c.3 1.2.6 2.3.9 3.6-2.6.6-4.9 1.2-7.2 1.8.3 1.2.6 2.3.9 3.6-2.6.7-4.9 1.3-7.2 1.8zm-25.1-8.9c-.3-1.1-.6-2.3-.9-3.6 1.2-.3 2.3-.6 3.5-.9-.3-1.2-.6-2.3-.9-3.5-2.2.6-4.5 1.1-7 1.7.3 1 .5 2.1.8 3.4-1.3.3-2.4.6-3.6.9.9 3.6 1.8 7.1 2.6 10.6 2.3-.6 4.6-1.1 7.1-1.7-.3-1.1-.6-2.3-.9-3.5h.1c-1.2.3-2.3.6-3.5.9-.3-1.3-.6-2.4-.9-3.6 1.4-.3 2.5-.5 3.6-.7zm30.4 30.4c2.3-.6 4.6-1.1 7.1-1.8.3 1.2.6 2.3.9 3.5 1.3-.3 2.4-.6 3.6-.9-.6-2.4-1.2-4.7-1.8-7.1h.1c-1.2.3-2.3.6-3.6.9-.3-1.4-.6-2.5-.9-3.6h.1c-1.1.3-2.2.6-3.5.9.3 1.1.5 2.2.9 3.5-1.4.4-2.5.8-3.7 1.1v-.1c.2 1.3.5 2.5.8 3.6zm40.3-36.7c-.6-2.4-1.1-4.6-1.7-7-3.5.9-6.9 1.7-10.5 2.6.6 2.2 1.1 4.5 1.7 6.9 1-.3 2.1-.5 3.4-.8-.3-1.1-.5-2.2-.8-3.4 1.2-.3 2.3-.6 3.5-.9.3 1.1.5 2.2.8 3.4 1.2-.2 2.3-.5 3.6-.8zm-4.5-17.7c-2.4.6-4.6 1.1-6.9 1.7.6 2.3 1.1 4.6 1.7 6.9 2.2-.6 4.5-1.1 6.9-1.7-.5-2.2-1.1-4.5-1.7-6.9z"/><path d="m108.1 92.2c.3 1.2.6 2.5 1 3.7h-.1c2.3-.6 4.6-1.1 7-1.7-.9-3.7-1.8-7.1-2.7-10.7-1.1.3-2.2.5-3.4.8.6 2.3 1.1 4.6 1.8 7.1-1.3.3-2.5.6-3.6.8zm25.9 58.2c.6 2.4 1.2 4.7 1.8 7.2 1.1-.3 2.2-.5 3.3-.8-.6-2.2-1.1-4.5-1.8-7.1-1 .2-2.2.5-3.3.7zm-25.9-58.1c-.6-2.3-1.1-4.6-1.8-7.1-1.1.3-2.2.6-3.4.9.6 2.3 1.1 4.5 1.7 7 1.2-.3 2.3-.6 3.5-.8zm13.3-7.1c-1.2.3-2.2.6-3.4.8.6 2.3 1.1 4.6 1.7 6.9 1.1-.3 2.2-.5 3.4-.8-.5-2.2-1.1-4.5-1.7-6.9zm21.6 25-7.2 1.8v-.1l.9 3.6h-.1c2.3-.6 4.6-1.1 7.2-1.8-.3-1.2-.6-2.3-.8-3.5zm-10.1 36.6c1.2-.3 2.3-.6 3.6-.9-.3-1.1-.5-2.2-.8-3.3-1.1.3-2.1.5-3.5.9.2 1.1.5 2.2.7 3.3zm-3.5 1c-.3-1.1-.6-2.2-.9-3.5-1.2.3-2.2.6-3.5.9.3 1.2.6 2.3.9 3.5h-.1c1.3-.3 2.5-.6 3.6-.9zm.9 3.6c1.2-.3 2.5-.6 3.7-1v.1c-.3-1.2-.7-2.4-1-3.6h.1c-1.2.3-2.4.6-3.6 1v-.1c.3 1.2.6 2.4.8 3.6zm-33.9 16c1.2-.3 2.2-.5 3.3-.8-.3-1.1-.5-2.2-.9-3.4-1.1.3-2.1.5-3.3.8.4 1.1.6 2.2.9 3.4zm24.1-9.7c-1.1.3-2.2.6-3.5.9.3 1.1.6 2.2.9 3.4 1.1-.3 2.2-.5 3.4-.9-.3-1.2-.5-2.3-.8-3.4zm-6.4 5.2c-.3-1.2-.6-2.2-.8-3.4-1.1.3-2.2.5-3.4.8.3 1.1.5 2.2.8 3.4 1.1-.2 2.2-.5 3.4-.8zm-7.2 1.8c-.3-1.2-.6-2.2-.8-3.4-1.1.3-2.2.5-3.4.8.3 1.1.5 2.2.8 3.4 1.1-.2 2.2-.5 3.4-.8zm28-41.1c.3 1.1.6 2.2.9 3.5 1.1-.3 2.2-.6 3.4-.9-.3-1.1-.5-2.2-.9-3.4-1.1.3-2.3.6-3.4.8zm0 .1-.9-3.6h.1l-3.6.9v-.1l.9 3.6h-.1c1.2-.3 2.4-.6 3.6-.8zm-.9-3.7c1.1-.3 2.3-.6 3.6-.9l-.9-3.6h.1l-3.6.9v-.1c.2 1.3.5 2.6.8 3.7zm8.9-9.8c1.1-.3 2.2-.6 3.5-.9-.3-1.1-.6-2.2-.9-3.4-1.1.3-2.2.5-3.4.9.3 1.1.6 2.3.8 3.4zm-33.9.7c1.2-.3 2.2-.5 3.4-.8-.3-1.1-.5-2.2-.8-3.4-1 .3-2.1.5-3.4.8.3 1.1.5 2.2.8 3.4zm12.5 19.9c-.3-1.1-.6-2.3-.9-3.6-1.3.3-2.5.6-3.6.9.3 1.1.6 2.3.9 3.6zm14.5-34.2c3.6-.9 7-1.7 10.5-2.6-.9-3.5-1.7-7-2.6-10.5-3.4.9-6.9 1.7-10.5 2.6.8 3.4 1.7 6.9 2.6 10.5zm-39.7 9.8c-.9-3.5-1.7-6.9-2.6-10.5-3.5.9-7 1.7-10.6 2.6.9 3.5 1.7 6.9 2.6 10.5 3.6-.9 7.1-1.7 10.6-2.6zm62.6 37.8c-.9-3.6-1.7-7-2.6-10.5-3.5.9-7 1.7-10.5 2.6.9 3.4 1.7 6.9 2.6 10.5 3.4-.9 6.9-1.7 10.5-2.6z"/><circle cx="139.5" cy="21.4" r="2.6" stroke="#50239f" stroke-linejoin="round" stroke-miterlimit="10" stroke-width="1.637"/></g><path d="m138 222.3 12.3-3" style="fill:#d5ebf6;stroke:#2f54a1;stroke-linecap:round;stroke-linejoin:round;stroke-miterlimit:10;stroke-width:1.637"/><path d="m46 58.8 3.2 13m.8 3.1 3.2 13" style="stroke-linecap:round;stroke-miterlimit:10;fill:none;stroke:#50239f;stroke-linejoin:round;stroke-width:2.242"/><path d="m94.8 224.9-44.1-177.8c-1.1-4.5 1.6-9 6.1-10.1l81.8-20.3" fill="#fff" fill-opacity=".24"/><path d="m115.6 27.7-31.9 7.9" style="fill:none;stroke:#50239f;stroke-linecap:round;stroke-linejoin:round;stroke-miterlimit:10;stroke-width:1.943"/></svg>