<?xml version="1.0" encoding="UTF-8"?><svg xmlns="http://www.w3.org/2000/svg" width="785.4545" height="600" viewBox="0 0 785.4545 600"><defs><style>.j{stroke:#fff;stroke-width:18.3887px;}.j,.k,.l,.m,.n,.o,.p{fill:none;}.j,.k,.l,.n{stroke-miterlimit:10;}.k{stroke-width:2.25px;}.k,.l,.n{stroke:#000;}.l{stroke-width:6.9362px;}.l,.m,.o,.p{stroke-linecap:round;}.m{stroke-width:4px;}.m,.o,.p{stroke-linejoin:round;}.m,.p{stroke:#9e9e9e;}.n{stroke-width:1.8px;}.q,.r,.s,.t,.u,.v{stroke-width:0px;}.o{stroke:#0aae95;stroke-width:28px;}.r{fill:#0aae95;}.s{fill:#ccb8e7;}.t{fill:#9064c9;}.u{fill:#b699dc;}.v{fill:#fff;}.p{stroke-width:12px;}</style></defs><g id="c"><rect class="r" x="260.6601" y="56.9985" width="264.1343" height="497.8025" rx="39.6406" ry="39.6406"/><rect class="j" x="260.6601" y="56.9985" width="264.1343" height="497.8025" rx="39.6406" ry="39.6406"/><rect class="l" x="260.6601" y="56.9985" width="264.1343" height="497.8025" rx="39.6406" ry="39.6406"/><circle class="v" cx="490.4046" cy="81.6936" r="3.3036"/><circle class="v" cx="490.4046" cy="90.1624" r="3.3036"/><circle class="v" cx="490.4046" cy="98.6313" r="3.3036"/><path class="v" d="m266.4163,112.2708h251.4283v398.5182c0,21.3698-17.3495,38.7193-38.7193,38.7193h-173.9897c-21.3698,0-38.7193-17.3495-38.7193-38.7193V112.2708h0Z"/><line class="p" x1="376.8662" y1="147.0043" x2="450.5166" y2="147.0043"/><line class="m" x1="373.5418" y1="173.5073" x2="487.101" y2="173.5073"/><line class="m" x1="373.5418" y1="187.176" x2="487.101" y2="187.176"/><path class="u" d="m350.3138,167.8729c0,6.7-1.79,12.98-4.9299,18.4001-3.23,5.5898-7.8901,10.25-13.48,13.48-5.4102,3.1299-11.7002,4.9199-18.4001,4.9199s-12.98-1.79-18.3999-4.9299c-5.5801-3.22-10.24-7.8801-13.47-13.47-3.1401-5.4202-4.9302-11.7002-4.9302-18.4001s1.79-12.98,4.9302-18.3999c3.23-5.5901,7.8899-10.25,13.47-13.47,5.4199-3.1401,11.7-4.9302,18.3999-4.9302s12.99,1.79,18.4001,4.9202c5.5898,3.23,10.25,7.8899,13.48,13.48,3.1399,5.4199,4.9299,11.7,4.9299,18.3999Z"/><path class="t" d="m295.1038,136.003v13.47h-13.47c3.23-5.5901,7.8899-10.25,13.47-13.47Z"/><path class="u" d="m313.5037,131.0728v18.4001h-18.3999v-13.47c5.4199-3.1401,11.7-4.9302,18.3999-4.9302Z"/><path class="u" d="m295.1038,149.473v18.3999h-18.4001c0-6.7,1.79-12.98,4.9302-18.3999h13.47Z"/><rect class="s" x="295.1056" y="149.472" width="18.4015" height="18.4015"/><path class="t" d="m331.9039,135.993v13.48h-18.4001v-18.4001c6.7,0,12.99,1.79,18.4001,4.9202Z"/><path class="u" d="m345.3839,149.473h-13.48v-13.48c5.5898,3.23,10.25,7.8899,13.48,13.48Z"/><rect class="u" x="313.5072" y="149.472" width="18.4015" height="18.4015"/><path class="t" d="m350.3138,167.8729h-18.4099v-18.3999h13.48c3.1399,5.4199,4.9299,11.7,4.9299,18.3999Z"/><path class="t" d="m295.1038,167.8729v18.4001h-13.47c-3.1401-5.4202-4.9302-11.7002-4.9302-18.4001h18.4001Z"/><rect class="u" x="295.1056" y="167.8736" width="18.4015" height="18.4015"/><path class="u" d="m295.1038,186.273v13.47c-5.5801-3.22-10.24-7.8801-13.47-13.47h13.47Z"/><path class="t" d="m313.5037,186.273v18.3999c-6.7,0-12.98-1.79-18.3999-4.9299v-13.47h18.3999Z"/><rect class="s" x="313.5072" y="167.8736" width="18.4015" height="18.4015"/><path class="u" d="m350.3138,167.8729c0,6.7-1.79,12.98-4.9299,18.4001h-13.48v-18.4001h18.4099Z"/><path class="u" d="m331.9039,186.273v13.48c-5.4102,3.1299-11.7002,4.9199-18.4001,4.9199v-18.3999h18.4001Z"/><path class="t" d="m345.3839,186.273c-3.23,5.5898-7.8901,10.25-13.48,13.48v-13.48h13.48Z"/><line class="o" x1="445.142" y1="484.6781" x2="488.3018" y2="484.6781"/></g><g id="d"><g id="e"><path class="k" d="m479.6125,516.7188c.1148.8706.2546,1.738.3669,2.6089.0326.2525.1198.3981.3631.5223.5223.2665,1.0194.5844,1.5156.8989.1512.0958.267.1123.4338.0438.8547-.3507,1.715-.6878,2.5737-1.0287.5339-.2119.7268-.1461,1.0116.3441.7368,1.2679,1.4733,2.536,2.2092,3.8045.0741.1276.1436.2579.2153.3869,0,.0937,0,.1873,0,.281-.1108.1229-.2069.2645-.3348.3657-.7336.5802-1.4722,1.1541-2.2154,1.722-.1476.1128-.1996.2247-.1928.4189.0217.6159.0196,1.2333.0024,1.8494-.0052.186.0248.3057.1801.4231.7309.553,1.454,1.1164,2.1735,1.6842.1433.113.2587.2613.387.3933,0,.0937,0,.1873,0,.281-.8261,1.4341-1.6503,2.8693-2.4797,4.3015-.2247.388-.4372.4495-.9012.2682-.8708-.3403-1.7414-.6812-2.6062-1.0364-.1891-.0777-.3146-.0461-.4823.0596-.5054.3185-1.0201.625-1.5496.9011-.1951.1017-.2669.2225-.2941.421-.1245.9086-.2542,1.8165-.3886,2.7236-.0724.4891-.2368.631-.7201.6316-1.5174.002-3.0348.0021-4.5521-.0001-.4704-.0007-.6361-.1348-.71-.6121-.146-.943-.2715-1.8892-.4205-2.8318-.0164-.104-.1102-.226-.2028-.2828-.5335-.3272-1.0842-.6267-1.6141-.9595-.171-.1074-.2998-.1236-.4851-.0478-.8566.3504-1.7183.6884-2.581,1.0236-.5181.2013-.6942.1368-.9682-.3341-.7436-1.2777-1.4866-2.5559-2.228-3.8348-.3122-.5385-.2782-.7094.2085-1.0875.7172-.5572,1.4327-1.1168,2.1552-1.6671.1424-.1085.1804-.2149.1745-.3981-.0204-.6355-.0159-1.2723.0031-1.908.0049-.1625-.034-.2552-.1575-.3501-.7425-.5705-1.4803-1.147-2.218-1.7235-.4284-.3348-.4707-.5154-.2048-.9761.7672-1.329,1.5387-2.6554,2.3121-3.9808.2253-.386.4435-.4508.899-.2723.8792.3445,1.7583.6894,2.6326,1.046.1672.0682.2781.048.4313-.0474.5307-.3307,1.0741-.6419,1.6208-.9457.1342-.0746.2124-.1436.2339-.3064.1165-.8813.25-1.7603.3708-2.641.0455-.3318.1079-.6467.4473-.8133h5.1704c.2605.1527.3758.3838.415.681Zm1.2115,11.3092c.0055-2.3431-1.8786-4.2267-4.2261-4.2251-2.3317.0016-4.2062,1.8816-4.2041,4.2165.002,2.3407,1.8677,4.2046,4.2087,4.2047,2.3402,0,4.2162-1.8646,4.2216-4.1961Z"/></g><g id="f"><path class="q" d="m392.7333,529.3271c-3.2021,0-6.4041.0016-9.6062-.0035-.2172-.0003-.4458-.0164-.6493-.0844-.5772-.1931-.9335-.8004-.8476-1.3897.0911-.6255.5908-1.0893,1.2225-1.1341.0439-.0031.0881-.0034.1321-.0034,6.4923-.0002,12.9845-.0007,19.4768.0006.6878.0001,1.2018.403,1.3452,1.0406.1673.7436-.3771,1.4923-1.1373,1.5604-.1314.0118-.264.013-.3961.013-3.18.0007-6.3601.0005-9.5401.0005Z"/><path class="q" d="m382.2771,533.4567c0-.4989-.0037-.9979.0009-1.4968.0068-.7483.575-1.3258,1.2992-1.3273.7256-.0015,1.3006.5743,1.3061,1.3204.0059.8071.0004,1.6142.002,2.4213.0017.9043.582,1.4844,1.4883,1.4873.8292.0027,1.6586-.0071,2.4876.0071.5249.009.907.2789,1.1276.7484.2216.4717.1619.9311-.1516,1.347-.244.3236-.5811.4996-.9839.5033-1.0273.0092-2.0555.0287-3.0818-.0049-1.9001-.0621-3.4607-1.6754-3.4917-3.575-.0078-.4768-.0012-.9538-.0012-1.4308h-.0015Z"/><path class="q" d="m403.2024,533.4756c-.0241.6375.0046,1.2823-.0825,1.9112-.2379,1.7179-1.7681,3.0491-3.5022,3.0802-.9911.0177-1.9828.0109-2.9742.0025-.7311-.0062-1.3038-.5906-1.3025-1.306.0012-.71.5586-1.2845,1.2846-1.2964.8076-.0132,1.6156-.004,2.4234-.0051.9519-.0014,1.5192-.5695,1.5198-1.5217.0005-.8077-.0065-1.6155.0031-2.4232.008-.6734.5232-1.2171,1.1906-1.2803.6397-.0606,1.2369.3723,1.3845,1.0126.0277.12.03.2476.0308.3717.0033.4846.0014.9693.0014,1.4539.0077.0003.0155.0005.0232.0008Z"/><path class="q" d="m382.2544,522.5817c.0235-.6449-.0019-1.2961.0802-1.9335.2108-1.6375,1.7049-2.9972,3.3561-3.0577,1.0561-.0387,2.1148-.0254,3.1719-.0091.7093.0109,1.2599.6059,1.2544,1.3028-.0057.7074-.5737,1.2881-1.2911,1.2971-.815.0102-1.6303.0013-2.4455.0032-.9225.0021-1.4938.5758-1.4952,1.4998-.0012.8151.0051,1.6302-.0034,2.4452-.0065.6241-.467,1.1582-1.0621,1.2558-.6504.1067-1.2616-.2422-1.4664-.8526-.0502-.1498-.0701-.3154-.073-.4744-.0091-.4918-.0033-.9839-.0033-1.4759-.0075-.0003-.0151-.0005-.0226-.0008Z"/><path class="q" d="m398.2198,517.5466c.6446.028,1.2972.0018,1.9323.0946,1.6557.242,2.9718,1.7442,3.0166,3.4161.0275,1.0272.0176,2.0559.0045,3.0836-.0092.7232-.5966,1.2729-1.3115,1.2634-.7148-.0095-1.2829-.5699-1.2904-1.2915-.0085-.8223-.0011-1.6447-.0029-2.4671-.002-.8805-.5796-1.4577-1.4647-1.4609-.8225-.0029-1.645.0057-2.4674-.0029-.6788-.0072-1.2082-.5028-1.286-1.1823-.0717-.6272.3464-1.2259.9778-1.3843.1333-.0334.2759-.0388.4144-.0401.492-.0046.984-.0018,1.476-.0018.0004-.0089.0007-.0178.0011-.0267Z"/></g><g id="g"><path class="q" d="m317.8937,524.1229c-1.1301.05-2.2603.01-3.4502.01,0-1.51.04-2.8999,0-4.29-.1299-3.5698-3.52-5.9199-6.77-4.71-2.0601.77-3.26,2.6101-3.29,5.0801-.02,1.28,0,2.55,0,3.9199-1.2798,0-2.47.03-3.6599,0-.6399-.02-.8601.22-.8601.8601.0186,3.7441.0026,9.1363.0164,13.4378.0017.5175.4221.9321.9396.9321h17.1382c.5175,0,.9378-.4141.9396-.9316.0149-4.3613.0075-9.8758.0262-13.2784.01-.79-.24-1.0701-1.0298-1.03Zm-12.3901-5.3c.29-2.0098,2.3301-3.2798,4.3999-3.0598,1.9302.2,3.52,1.8699,3.5801,3.8499.05,1.47.01,2.9399.01,4.49h-8.04c0-1.78-.2-3.5598.05-5.28Zm12.45,19.51h-17.1599v-13.2h17.1599v13.2Z"/><path class="q" d="m309.8737,531.7377c.001.5698.0448,1.1448-.0203,1.707-.0077.0669-.0357.1314-.0752.1946-.1845.2948-.641.2897-.782-.0282-.0143-.0323-.023-.0648-.0241-.0975-.0408-1.1925-.0407-2.3878.0014-3.5802.0011-.0318.01-.0633.0248-.0946.1586-.3357.669-.328.825.009.0153.0331.0255.0668.0289.1011.058.5913.0206,1.1919.0216,1.7889Z"/><path class="n" d="m317.8937,524.1229c-1.1301.05-2.2603.01-3.4502.01,0-1.51.04-2.8999,0-4.29-.1299-3.5698-3.52-5.9199-6.77-4.71-2.0601.77-3.26,2.6101-3.29,5.0801-.02,1.28,0,2.55,0,3.9199-1.2798,0-2.47.03-3.6599,0-.6399-.02-.8601.22-.8601.8601.0186,3.7441.0026,9.1363.0164,13.4378.0017.5175.4221.9321.9396.9321h17.1382c.5175,0,.9378-.4141.9396-.9316.0149-4.3613.0075-9.8758.0262-13.2784.01-.79-.24-1.0701-1.0298-1.03Zm-12.3901-5.3c.29-2.0098,2.3301-3.2798,4.3999-3.0598,1.9302.2,3.52,1.8699,3.5801,3.8499.05,1.47.01,2.9399.01,4.49h-8.04c0-1.78-.2-3.5598.05-5.28Zm12.45,19.51h-17.1599v-13.2h17.1599v13.2Z"/><path class="n" d="m309.8737,531.7377c.001.5698.0448,1.1448-.0203,1.707-.0077.0669-.0357.1314-.0752.1946-.1845.2948-.641.2897-.782-.0282-.0143-.0323-.023-.0648-.0241-.0975-.0408-1.1925-.0407-2.3878.0014-3.5802.0011-.0318.01-.0633.0248-.0946.1586-.3357.669-.328.825.009.0153.0331.0255.0668.0289.1011.058.5913.0206,1.1919.0216,1.7889Z"/></g></g></svg>