<svg xmlns="http://www.w3.org/2000/svg" xmlns:xlink="http://www.w3.org/1999/xlink" width="200mm" height="200mm" viewBox="0 0 566.93 566.93"><defs><clipPath id="bade825d-e740-45ea-bba8-57bf4f06d00b"><circle cx="283.46" cy="-378.58" r="239.17" style="fill:#dce2f0"/></clipPath><clipPath id="fc908340-0222-415a-aeb4-ef9449696d79"><path d="M522.64,283.47c0,132.09-107.08,239.17-239.18,239.17S44.29,415.56,44.29,283.47,151.37,44.29,283.46,44.29,522.64,151.37,522.64,283.47" style="fill:none"/></clipPath></defs><g style="isolation:isolate"><g id="bba986d0-ef67-4ad3-b368-b27cd43c3bcd" data-name="3"><circle cx="283.46" cy="-378.58" r="239.17" style="fill:#dce2f0"/><g style="clip-path:url(#bade825d-e740-45ea-bba8-57bf4f06d00b)"><g style="mix-blend-mode:multiply"><path d="M155.54,130.1l-5.68-6.33L229.65,52a103.79,103.79,0,0,0,7.76-146.42l-34.87-38.77a111.47,111.47,0,0,1-28.62-81,111.42,111.42,0,0,1,37-77.47l38.94-35,5.69,6.32-38.95,35a103,103,0,0,0-34.2,71.6,103,103,0,0,0,26.44,74.82l34.87,38.77a112.32,112.32,0,0,1-8.4,158.44Z" style="fill:#d5ecf7"/></g><path d="M252.72-371.48l-38.94,35A107.94,107.94,0,0,0,205.7-184l34.87,38.76A108,108,0,0,1,232.49,7.18L152.7,78.94" style="fill:none;stroke:#0477bc;stroke-linejoin:round;stroke-width:8.50393700787402px"/></g></g><g id="f6b829de-c5ce-47cd-a568-0f3c32576f54" data-name="1"><path d="M283.46,44.29c-132.09,0-239.17,107.08-239.17,239.18S151.37,522.64,283.46,522.64,522.64,415.56,522.64,283.47a238.56,238.56,0,0,0-15.95-86.05L345.82,342.1a17.22,17.22,0,0,1-24.33-1.29l-12.1-13.46-20,18a9.53,9.53,0,0,1-13.47-.71l-1.69-1.88-11,9.87a5.72,5.72,0,0,1-3.81,1.46,5.66,5.66,0,0,1-4.23-1.89l-5.05-5.61-33.57,30.19A103.8,103.8,0,0,0,196.5,506.34q-6.27-2.46-12.35-5.23a112.34,112.34,0,0,1,26.79-130.68l33.57-30.19-4.89-5.43a5.71,5.71,0,0,1,.43-8.05l11-9.87-1.23-1.36a9.54,9.54,0,0,1,.72-13.47l20-18-12.12-13.47a17.23,17.23,0,0,1,1.29-24.33L429.2,93.81A238.15,238.15,0,0,0,283.46,44.29" style="fill:#dce2f0"/><g style="clip-path:url(#fc908340-0222-415a-aeb4-ef9449696d79)"><path d="M244.51,340.24l-33.57,30.19a112.34,112.34,0,0,0-26.79,130.68q6.09,2.77,12.35,5.23a103.8,103.8,0,0,1,20.12-129.59l33.57-30.19-5.68-6.32" style="fill:#b8d1e8"/><path d="M251,316.89l-11,9.87a5.71,5.71,0,0,0-.43,8.05l4.89,5.43,5.68,6.32,5.05,5.61a5.66,5.66,0,0,0,4.23,1.89,5.72,5.72,0,0,0,3.81-1.46l11-9.87L251,316.89" style="fill:#b8d1e8"/><path d="M270.48,284.09l-20,18a9.54,9.54,0,0,0-.72,13.47l1.23,1.36,23.23,25.84,1.69,1.88a9.53,9.53,0,0,0,13.47.71l20-18-38.91-43.26" style="fill:#b8d1e8"/><path d="M429.2,93.81,259.65,246.29a17.23,17.23,0,0,0-1.29,24.33l12.12,13.47,38.91,43.26,12.1,13.46a17.22,17.22,0,0,0,24.33,1.29L506.69,197.42A239.75,239.75,0,0,0,429.2,93.81" style="fill:#b8d1e8"/><path d="M250.83,288.46l-39,35a110.77,110.77,0,0,0-8.29,156.44l34.87,38.77a105.07,105.07,0,0,1-7.87,148.42L150.8,738.87l3.79,4.22,79.8-71.76a110.8,110.8,0,0,0,8.29-156.44l-34.87-38.76a105.1,105.1,0,0,1,7.86-148.43l39-35-3.79-4.21Z" style="fill:#0477bc"/><path d="M342.22,237l-26.15-29.07a9.54,9.54,0,0,0-13.47-.72l-52.09,46.85a9.54,9.54,0,0,0-.72,13.47l1.23,1.36-11,9.87a5.69,5.69,0,0,0-.43,8l15.62,17.37a5.69,5.69,0,0,0,8,.43l11-9.87,1.69,1.88a9.55,9.55,0,0,0,13.47.71l52.09-46.85A9.54,9.54,0,0,0,342.22,237Z" style="fill:#d5ecf7"/><path d="M342.22,237l1-.92L317.09,207a10.9,10.9,0,0,0-15.41-.82L249.59,253a10.9,10.9,0,0,0-.82,15.41l.31.34-10,8.95a7,7,0,0,0-.53,10l15.61,17.37a7.08,7.08,0,0,0,10,.53l9.95-8.95.77.86a10.92,10.92,0,0,0,15.41.81l52.09-46.85a10.9,10.9,0,0,0,.82-15.41l-1,.92-1,.92a8.15,8.15,0,0,1-.61,11.53L288.49,296.3a8.16,8.16,0,0,1-11.52-.61l-1.69-1.88a1.39,1.39,0,0,0-1.95-.11l-11,9.87a4.26,4.26,0,0,1-2.89,1.11,4.31,4.31,0,0,1-3.21-1.43l-15.62-17.37a4.31,4.31,0,0,1,.33-6.1l11-9.87A1.38,1.38,0,0,0,252,268l-1.22-1.36a8.15,8.15,0,0,1,.61-11.53l52.09-46.84a8.14,8.14,0,0,1,11.52.61l26.15,29.07Z" style="fill:#0477bc"/><path d="M658.94,12.49,345.82,294.1a17.23,17.23,0,0,1-24.33-1.29l-63.13-70.19a17.23,17.23,0,0,1,1.29-24.33L572.77-83.32A17.23,17.23,0,0,1,597.1-82l63.13,70.2A17.21,17.21,0,0,1,658.94,12.49Z" style="fill:#fff"/><path d="M658.94,12.49l-.92-1L344.9,293.08a15.87,15.87,0,0,1-22.39-1.19L259.39,221.7a15.85,15.85,0,0,1,1.18-22.39L573.69-82.29a15.8,15.8,0,0,1,10.6-4.07,15.81,15.81,0,0,1,11.79,5.25l63.13,70.2A15.74,15.74,0,0,1,663.27-.32,15.77,15.77,0,0,1,658,11.47h0l.92,1,.92,1A18.55,18.55,0,0,0,666-.32a18.45,18.45,0,0,0-4.77-12.43l-63.13-70.2a18.55,18.55,0,0,0-13.83-6.16,18.55,18.55,0,0,0-12.43,4.77L258.73,197.27a18.61,18.61,0,0,0-1.39,26.27l63.13,70.19a18.61,18.61,0,0,0,26.27,1.39L659.86,13.52h0Z" style="fill:#0477bc"/><path d="M588.87,49.7,420.7,200.76a6.28,6.28,0,0,1-8.87-.48L360.11,142.7a6.28,6.28,0,0,1,.47-8.87L528.75-17.23a6.28,6.28,0,0,1,8.87.48l51.72,57.57A6.29,6.29,0,0,1,588.87,49.7Z" style="fill:#d5ecf7"/><path d="M359.24,195.5A34.86,34.86,0,1,1,310,192.86,34.86,34.86,0,0,1,359.24,195.5Z" style="fill:#d5ecf7"/><path d="M308.4,241.17a33.49,33.49,0,1,1,47.29,2.54,1.37,1.37,0,1,0,1.83,2A36.24,36.24,0,1,0,306.35,243a1.38,1.38,0,0,0,2-1.84Z" style="fill:#0477bc"/></g><path d="M362.56,370.63l6.08,9.54a1.38,1.38,0,0,0,2.32-1.48l-6.08-9.54a1.38,1.38,0,0,0-2.32,1.48Zm-27.44-43,18.3,28.68a1.36,1.36,0,0,0,1.89.42,1.38,1.38,0,0,0,.42-1.9l-18.29-28.68a1.38,1.38,0,1,0-2.32,1.48Z" style="fill:#0477bc"/><path d="M171.64,193.39l-8-3.46a1.37,1.37,0,0,0-1.09,2.52l8,3.47a1.38,1.38,0,0,0,1.08-2.53Zm39.05,16.84-23.43-10.1a1.37,1.37,0,0,0-1.09,2.52l23.43,10.11a1.38,1.38,0,1,0,1.09-2.53Z" style="fill:#0477bc"/><path d="M126.81,281.49l-6.74,1.76a1.37,1.37,0,0,0,.69,2.66l6.75-1.75a1.38,1.38,0,0,0-.7-2.67Zm46.31-12-30.87,8a1.37,1.37,0,1,0,.69,2.66l30.87-8a1.38,1.38,0,1,0-.69-2.67Z" style="fill:#0477bc"/><path d="M294.79,397.83l-.53,11.3a1.38,1.38,0,0,0,2.75.13l.53-11.3a1.38,1.38,0,0,0-2.75-.13Zm2.38-51-1.59,34a1.38,1.38,0,1,0,2.75.13l1.59-34a1.38,1.38,0,0,0-2.75-.13Z" style="fill:#0477bc"/><path d="M219.33,130.69l15.61,30.22a1.37,1.37,0,1,0,2.44-1.26l-15.6-30.22a1.38,1.38,0,1,0-2.45,1.26Z" style="fill:#0477bc"/><line x1="250.8" y1="268.54" x2="264.88" y2="284.19" style="fill:#d5ecf7"/><path d="M249.78,269.46l14.07,15.65a1.38,1.38,0,0,0,2-1.84l-14.08-15.65a1.37,1.37,0,1,0-2,1.84" style="fill:#0477bc"/></g></g></svg>