<svg xmlns="http://www.w3.org/2000/svg" xmlns:xlink="http://www.w3.org/1999/xlink" width="200mm" height="200mm" viewBox="0 0 566.93 566.93"><defs><clipPath id="ade924d7-ae89-448e-82a9-d0d10728d61d"><circle cx="-402.24" cy="-378.58" r="239.17" style="fill:#dce2f0"/></clipPath><clipPath id="a63968e4-ef8b-472d-8715-6fc261ae5eb3"><path d="M522.64,283.47c0,132.09-107.08,239.17-239.18,239.17S44.29,415.56,44.29,283.47,151.37,44.29,283.46,44.29,522.64,151.37,522.64,283.47" style="fill:none"/></clipPath></defs><g id="eb622fda-804f-4769-a5e2-2353fe28ec46" data-name="3"><circle cx="-402.24" cy="-378.58" r="239.17" style="fill:#dce2f0"/></g><g id="eaefb87f-3ed3-4a8d-8526-a5dc33b21a18" data-name="1"><path d="M283.46,44.29c-132.09,0-239.17,107.08-239.17,239.18S151.37,522.64,283.46,522.64,522.64,415.56,522.64,283.47h0a238.85,238.85,0,0,1-12.78,77.31l-79.78,0a40.9,40.9,0,0,1-7.31-.66,11,11,0,0,1-3.45.56H152.57a10.92,10.92,0,0,1-10.91-10.91v-8.08H121.3a7.12,7.12,0,0,1-7.12-7.12v-3.6H103.62a3.61,3.61,0,0,1-3.61-3.61v-4.67H99a61.26,61.26,0,0,0-46.89,21.82c-.58-2.21-1.12-4.42-1.64-6.65A66.86,66.86,0,0,1,99,317h1v-4.45a3.61,3.61,0,0,1,3.61-3.61h10.56v-3.59a7.12,7.12,0,0,1,7.12-7.12h20.36v-8.28A10.91,10.91,0,0,1,152.57,279H419.32a10.78,10.78,0,0,1,3.82.69,40.94,40.94,0,0,1,7-.59h0l92.48,0C520.31,149.06,414.12,44.29,283.46,44.29" style="fill:#dce2f0"/><g style="clip-path:url(#a63968e4-ef8b-472d-8715-6fc261ae5eb3)"><path d="M114.18,322.66H100v4.67a3.61,3.61,0,0,0,3.61,3.61h10.56v-8.28m0-13.73H103.62a3.61,3.61,0,0,0-3.61,3.61V317h14.17v-8.06" style="fill:#b8d1e8"/><path d="M141.66,298.22H121.3a7.12,7.12,0,0,0-7.12,7.12V317h9.94v5.67h-9.94v11.88a7.12,7.12,0,0,0,7.12,7.12h20.36V298.22" style="fill:#b8d1e8"/><path d="M419.32,279H152.57a10.91,10.91,0,0,0-10.91,10.91v59.8a10.92,10.92,0,0,0,10.91,10.91H419.32a11,11,0,0,0,3.45-.56,40.82,40.82,0,0,1,.37-80.37,10.78,10.78,0,0,0-3.82-.69" style="fill:#b8d1e8"/><path d="M430.1,279.13a40.81,40.81,0,1,0,0,81.62l79.78,0a238.85,238.85,0,0,0,12.78-77.31c0-1.44,0-2.87,0-4.3l-92.48,0h0" style="fill:#b8d1e8"/><path d="M124.12,317H99A66.86,66.86,0,0,0,50.5,337.83c.52,2.23,1.06,4.44,1.64,6.65A61.26,61.26,0,0,1,99,322.66h25.09V317" style="fill:#b8d1e8"/><path d="M139.2,282.82H114.11a67.06,67.06,0,0,0-67,67V484.17a61.16,61.16,0,0,1-18,43.39,61.15,61.15,0,0,1-43.39,18H-78.12v5.67h63.83a66.87,66.87,0,0,0,47.4-19.63,66.88,66.88,0,0,0,19.63-47.4V349.86a61.39,61.39,0,0,1,61.37-61.37H139.2v-5.67Z" style="fill:#0477bc"/><path d="M188.69,264.05H136.38a7.12,7.12,0,0,0-7.12,7.12v3.6H118.7a3.6,3.6,0,0,0-3.61,3.6v14.8a3.6,3.6,0,0,0,3.61,3.6h10.56v3.6a7.12,7.12,0,0,0,7.12,7.12h52.31a7.12,7.12,0,0,0,7.12-7.12v-29.2A7.12,7.12,0,0,0,188.69,264.05Z" style="fill:#d5ecf7"/><path d="M188.69,264.05v-1.38H136.38a8.51,8.51,0,0,0-8.5,8.5v2.22H118.7a5,5,0,0,0-5,5v14.8a5,5,0,0,0,5,5h9.18v2.22a8.51,8.51,0,0,0,8.5,8.5h52.31a8.5,8.5,0,0,0,8.5-8.5v-29.2a8.5,8.5,0,0,0-8.5-8.5v2.75a5.74,5.74,0,0,1,5.75,5.75v29.2a5.75,5.75,0,0,1-5.75,5.75H136.38a5.75,5.75,0,0,1-5.75-5.75v-3.6a1.37,1.37,0,0,0-1.37-1.37H118.7a2.24,2.24,0,0,1-2.24-2.23v-14.8a2.24,2.24,0,0,1,2.24-2.23h10.56a1.37,1.37,0,0,0,1.37-1.37v-3.6a5.75,5.75,0,0,1,5.75-5.75h52.31Z" style="fill:#0477bc"/><rect x="156.74" y="244.86" width="288.57" height="81.62" rx="10.91" style="fill:#fff"/><path d="M434.39,326.48V325.1H167.65a9.54,9.54,0,0,1-9.54-9.53v-59.8a9.56,9.56,0,0,1,9.54-9.54H434.39a9.54,9.54,0,0,1,9.54,9.54v59.8a9.53,9.53,0,0,1-9.54,9.53v2.75a12.28,12.28,0,0,0,12.29-12.28v-59.8a12.29,12.29,0,0,0-12.29-12.29H167.65a12.29,12.29,0,0,0-12.29,12.29v59.8a12.28,12.28,0,0,0,12.29,12.28H434.39Z" style="fill:#0477bc"/><rect x="238.64" y="257.06" width="151.79" height="57.22" rx="4" style="fill:#d5ecf7"/><path d="M696.05,326.7l-250.89-.12a40.81,40.81,0,1,1,0-81.62l250.89.12a2.54,2.54,0,0,1,2.54,2.54l0,76.54A2.54,2.54,0,0,1,696.05,326.7Z" style="fill:#fff"/><path d="M696.05,326.7v-1.38l-250.89-.12a39.44,39.44,0,0,1-39.42-39.43h0v0a39.44,39.44,0,0,1,39.43-39.42h0l0-1.26-.16,1.25a.61.61,0,0,0,.18,0l0-1.26-.16,1.25h.18l250.89.12a1.17,1.17,0,0,1,1.16,1.17l0,76.54a1.18,1.18,0,0,1-1.17,1.16v2.75a3.92,3.92,0,0,0,3.92-3.91l0-76.54a3.92,3.92,0,0,0-3.91-3.92l-250.89-.12V245l.18-1.37h-.22v0h0v0A42.19,42.19,0,0,0,403,285.75h1.38l-1.38,0v0A42.18,42.18,0,0,0,445.16,328l250.89.12Z" style="fill:#0477bc"/><path d="M463.8,273.43a22.18,22.18,0,1,1-30.73-6.26A22.17,22.17,0,0,1,463.8,273.43Z" style="fill:#d5ecf7"/><path d="M215.8,285.67a22.18,22.18,0,1,1-22.18-22.18A22.17,22.17,0,0,1,215.8,285.67Z" style="fill:#d5ecf7"/><path d="M424.51,285.67a20.8,20.8,0,1,1,20.8,20.8,1.38,1.38,0,1,0,0,2.75,23.55,23.55,0,1,0-23.55-23.55,1.38,1.38,0,0,0,2.75,0Z" style="fill:#0477bc"/><path d="M172.82,285.67a20.8,20.8,0,1,1,20.8,20.8,1.38,1.38,0,1,0,0,2.75,23.55,23.55,0,1,0-23.55-23.55,1.38,1.38,0,0,0,2.75,0Z" style="fill:#0477bc"/></g><path d="M302.83,263.06v25.65a8.1,8.1,0,0,0,7.37,8.1h0l.68,0a7.7,7.7,0,0,0,4.88-1.75l-2.33-2.85a4,4,0,0,1-2.55.91h-.36a4.42,4.42,0,0,1-4-4.43V263.06Z" style="fill:#0477bc"/><path d="M295.17,274.51h27.48L313,285l2.45,2.73-.09-.11.08.12h0l-.09-.11.08.12a2.5,2.5,0,0,1,.44-.2,11.06,11.06,0,0,1,3.6-.61,7,7,0,0,1,2.58.43h0a7.65,7.65,0,0,1,3.7,3.37,11.16,11.16,0,0,1,1.45,5.58,11.88,11.88,0,0,1-.48,3.37,10,10,0,0,1-3,4.86,6.76,6.76,0,0,1-4.35,1.7,6,6,0,0,1-2.28-.45h0a7.12,7.12,0,0,1-2.57-1.82,9.28,9.28,0,0,1-1.8-2.93l-3.43,1.35a13.05,13.05,0,0,0,2.52,4.08,10.76,10.76,0,0,0,3.9,2.73h0a9.66,9.66,0,0,0,3.66.72,10.42,10.42,0,0,0,6.73-2.57,13.65,13.65,0,0,0,4.19-6.64,15.9,15.9,0,0,0,.62-4.4,14.89,14.89,0,0,0-1.94-7.43,11.36,11.36,0,0,0-5.51-4.93h0a10.49,10.49,0,0,0-4-.7,15,15,0,0,0-3.59.44,10.52,10.52,0,0,0-1.43.45,5,5,0,0,0-1.19.62l1.09,1.49,1.36,1.24,12.44-13.62-1.36-3.08H295.17v3.68Z" style="fill:#0477bc"/><path d="M130.63,296.77v-9.88a1.38,1.38,0,1,0-2.75,0v9.88a1.38,1.38,0,1,0,2.75,0" style="fill:#0477bc"/></g></svg>