<?xml version="1.0" encoding="UTF-8"?><svg id="c" xmlns="http://www.w3.org/2000/svg" width="785.4545" height="600" viewBox="0 0 785.4545 600"><defs><style>.h{stroke-width:18.3887px;}.h,.i{stroke-miterlimit:10;}.h,.i,.j,.k{fill:none;}.h,.j,.k{stroke:#fff;}.i{stroke:#000;stroke-width:6.9362px;}.i,.j,.k{stroke-linecap:round;}.j{stroke-width:4px;}.j,.k{stroke-linejoin:round;}.l,.m,.n,.o,.p,.q{stroke-width:0px;}.m{fill:#50239f;}.n{fill:#ccb8e7;}.o{fill:#9064c9;}.p{fill:#b699dc;}.q{fill:#fff;}.k{stroke-width:12px;}</style></defs><rect class="m" x="260.6601" y="56.9985" width="264.1343" height="497.8025" rx="39.6406" ry="39.6406"/><rect class="h" x="260.6601" y="56.9985" width="264.1343" height="497.8025" rx="39.6406" ry="39.6406"/><rect class="i" x="260.6601" y="56.9985" width="264.1343" height="497.8025" rx="39.6406" ry="39.6406"/><circle class="q" cx="490.4046" cy="81.6936" r="3.3036"/><circle class="q" cx="490.4046" cy="90.1624" r="3.3036"/><circle class="q" cx="490.4046" cy="98.6313" r="3.3036"/><path class="p" d="m374.1563,167.8729c0,6.7-1.79,12.98-4.9299,18.4001-3.23,5.5898-7.8901,10.25-13.48,13.48-5.4102,3.1299-11.7002,4.9199-18.4001,4.9199s-12.98-1.79-18.3999-4.9299c-5.5801-3.22-10.24-7.8801-13.47-13.47-3.1401-5.4202-4.9302-11.7002-4.9302-18.4001s1.79-12.98,4.9302-18.3999c3.23-5.5901,7.8899-10.25,13.47-13.47,5.4199-3.1401,11.7-4.9302,18.3999-4.9302s12.99,1.79,18.4001,4.9202c5.5898,3.23,10.25,7.8899,13.48,13.48,3.1399,5.4199,4.9299,11.7,4.9299,18.3999Z"/><line class="k" x1="304.5466" y1="224.9956" x2="381.5213" y2="224.9956"/><line class="j" x1="300.5466" y1="251.4986" x2="487.101" y2="251.4986"/><line class="j" x1="300.5466" y1="269.1673" x2="487.101" y2="269.1673"/><g id="d"><path class="q" d="m320.3947,304.6533h144.6651v143.2841h-144.6651v-143.2841Zm10.0152,77.7638c-.001,1.5611-.0021,3.1222-.0031,4.6833h-4.6091v4.5798h4.5847c0-1.5757,0-3.09,0-4.6044h4.6587v-4.6604h4.4952c0,.63-.0017,1.1407.0003,1.6513.0155,4.0666.0317,8.1332.0455,12.198h-4.519v4.6334h-9.2656v4.5818h9.2411c0-1.5748,0-3.0905,0-4.6064h4.5191v-4.63h4.6828v-4.5148c3.0937,0,6.0984,0,9.1031,0-.0089,1.5025-.0178,3.0051-.0267,4.5076l.0245-.0244h-4.7089v4.7045h-4.3811v4.6097h18.2318v9.1424h4.6578v4.7103h-4.6211v4.3841h9.2523v-9.0961c1.5028.0006,3.0057.0011,4.5085.0017v13.8468h4.6706v4.4642h4.4701c0,1.612,0,3.13,0,4.6482h-4.4404v4.5842h4.416v-4.6087h13.8437v4.6272h9.2894v-4.5484h9.1475v4.5407h9.1442v-18.415h13.7801v4.7071h9.1498v13.7094h4.6613v-4.6522h4.5814v-9.1156h-4.6216v-4.6471h4.6172v-18.2979h-4.6155v-4.6419h4.6046v-13.7132h-9.2855v4.5281h-9.1166v-4.6106h4.7023v-9.0589h4.4853v4.3594h9.2195v-13.5855h-4.6082l.0244.0245c-.0092-1.5592-.0184-3.1184-.0276-4.6776h4.6027v-18.3955h-4.6092v9.2779h-4.6496v-4.705h-4.4941v-4.6065c-10.7866,0-21.511,0-32.2354,0,.009-3.0548.018-6.1097.027-9.1645l-.0245.0244h4.7033v4.5992h4.5686v-9.1205h-4.6391v-18.4174c-1.6013,0-3.1183,0-4.6353,0v-4.6193h-13.8056v4.5887h-4.4944v-4.5854h-13.7002v4.6245h4.4307v4.6643h4.6944v4.4044h4.6331v-4.479h4.4099c0-1.6132,0-3.1325.0022-4.6501h4.7198v9.1677h4.6513v4.7048h-4.6928v4.6302h-4.6576v9.1447c-1.5492,0-3.0086,0-4.4681,0v-4.6172h-4.668v4.5857h-4.6681v-9.0649h-4.4369c0,4.5649,0,9.0714,0,13.5779h-4.6086v4.6334h4.6086v4.6107h13.7168v-4.6239h-4.5904c0-.3955.0017-.733-.0003-1.0704-.0155-2.6953-.0316-5.3905-.0454-8.084,1.5723.0094,3.1446.0189,4.7169.0283v4.5329h9.0804v4.6318h-4.5504v9.1753h4.6293v9.2865h4.6347v4.4741c-.8025-.0039-1.605-.0105-2.4075-.0112-6.9079-.0058-13.8159-.0105-20.7238-.0155l.0244.0245c-.0095-1.501-.019-3.002-.0285-4.5031h13.7437v-4.6756h-4.4364v-4.5608h-4.6675v4.6103h-4.6154v4.6507c-3.0544-.0012-6.1088-.0023-9.1632-.0035v-4.7119h4.6195v-4.6394h-4.6242v-4.467h-4.4967v-9.3261h-4.5711v-13.5377h4.6281v9.0197h4.4728v-13.7514l-.0245.0244h4.5988v-9.1835h-4.6072v-4.5624h-4.4926v4.6068h-4.665v4.4931h-4.6293v22.9352h-9.1176c0,1.6103,0,3.1283,0,4.6463-1.5603.0006-3.1206.0011-4.681.0017v-4.6091h-4.4604v4.6091h-4.7096v4.6755h-4.4642v4.4944h-9.2425v9.2913h4.6222c0,3.1067,0,6.1192,0,9.1318h-4.6086v4.4609h4.6086Zm41.3645,50.5586v-4.441h-4.5836v4.4166h4.6082v9.2663h4.4091v-9.2418c-1.5172,0-2.9754,0-4.4337,0Zm64.1496,4.6273h4.7047v4.6275h4.5668v-9.2116h-9.2471c0,1.5742,0,3.0914,0,4.6087h-4.4404v4.5842h4.416v-4.6087Zm-110.1453-96.455h32.1406v-32.1444h-32.1406v32.1444Zm133.2255-32.1288h-32.1406v32.1436h32.1406v-32.1436Zm-133.2028,101.0425v32.1443h32.1409v-32.1443h-32.1409Zm-.0001-64.3301v9.2051h4.5496v-9.2051h-4.5496Zm41.2641,96.506v-4.5497h-4.5466v4.5497h4.5466Zm-4.5287-133.2457v4.5801h4.5412v-4.5801h-4.5412Z"/><path class="l" d="m385.4215,437.6274v-4.6481h-4.4701v-4.4642h-4.6706v-13.8468l-.0253.0236h4.6801v-4.6807l-.024.024h13.7938c0-1.5841,0-3.0447,0-4.5054,1.4786,0,2.9572,0,4.4401,0v-4.5843h-4.4157v4.6089h-9.2545v-4.7039h4.6104v-4.6672h9.1497v-4.3828h4.6667v9.0341c1.6138,0,3.1336,0,4.6526.0011.0022,1.582.0053,3.163.0073,4.743-1.5569-.0009-3.1128-.0009-4.6358-.0009v4.4354h4.604v13.8218c-1.6447,0-3.1626,0-4.6806,0,0-3.0338,0-6.0675,0-9.0878h-4.6771v4.5313h-4.4956v-4.5499h-4.5548v9.0819h13.752v4.7084h-4.6237v4.39h22.9993v-9.0168h-4.6321v4.5246h-4.5506v-13.7684h4.5303v-4.6107c-3.0687,0-6.0801,0-9.0916,0,.0103-1.4937.0206-2.9874.0309-4.481h4.4146v-4.6954h-4.4187v-13.7638h4.4783l-.024-.024v9.0881h4.6924v-4.4274h18.277v-4.6367h4.6462l-.0253-.0236v4.6106h9.1166v-4.5281h9.2855v13.7132h-4.6046l.0236.0253v-4.6052h-9.1731v4.6022h-4.5765v9.1437h4.6099l-.024-.024v9.3521h-4.6561v4.4693l.0236-.0253h-13.78v18.415h-9.1442v-4.5407h-9.1475v4.5484h-9.2894v-4.6272h-13.8437l.0244.0245Zm36.9496-32.0491v13.6904h13.5182v-13.6904h-13.5182Zm13.5466-9.3h-4.4072v4.5366h4.4072v-4.5366Zm-13.5706,4.5603h4.396v-4.5536h-4.396v4.5536Zm-27.6464,27.7108h-4.5795v4.3465h4.5795v-4.3465Zm-9.3338-9.1539h-4.3767v4.3813h4.3767v-4.3813Z"/><path class="l" d="m454.3729,364.1355c.0092,1.5592.0184,3.1184.0276,4.6777-1.536,0-3.0719,0-4.613,0v4.4119h4.5886v-4.4365h4.6082v13.5855h-9.2195v-4.3594h-4.4853v9.0589c-1.626,0-3.1641,0-4.7023,0l.0253.0236v-13.7453h-4.6901v9.0851h-9.1442v4.6362h-13.7812l.024.024v-4.7112h9.2513v-4.466h-4.5368v-4.6689h9.0967v-4.496h13.7168v-4.6378h-4.625v-9.1219h-9.1513v-4.602h-4.4658v4.5474h-4.6687v-4.6092h-4.6171v-4.6506l-.0236.0253h32.2354v4.6065h4.4941v4.705l.0253-.0236h-9.0844v4.5267h4.6095v4.6381h9.131l-.0253-.0236Z"/><path class="l" d="m413.0142,336.542c-.009,3.0548-.018,6.1097-.027,9.1645,0,0,.0236-.0253.0236-.0253h-4.4387v18.5019h9.0415v4.6277h-4.6391v4.4652h-4.4714l.0253.0236v-4.4741h-4.6347v-9.2865h-4.6293v-9.1753h4.5504v-4.6318h-9.0804v-4.5329l-.0245.0244h4.468v-9.1447h4.6576v-4.6302h4.6928v-4.7048l-.0253.0236h4.5077v-9.1648l-.0236.0253h4.6352v18.4174h4.6391v9.1205h-4.5686v-4.5992c-1.6279,0-3.1656,0-4.7033,0,0-1.4774,0-2.9547,0-4.4444h-4.4958v4.4132h-4.5658v4.6304h4.5393c0-1.5798,0-3.1166.0011-4.6525,1.516.0103,3.0309.0196,4.5458.029Z"/><path class="l" d="m376.2827,327.4015v13.7514h-4.4728v-9.0197h-4.6281v13.5377h4.5711v9.3261h4.4967v4.467h4.6242v4.6394h-4.6195c0,1.6324,0,3.1722,0,4.712l.0253-.0236c-1.503.0079-3.006.0157-4.5089.0236v-9.3438h-4.6742v-4.4519c-1.6055,0-3.1209,0-4.6362,0,0-1.5397,0-3.0793,0-4.6819h-9.1401l.0253.0236v-4.6463h9.1176v-22.9352h4.6293v-4.4931h4.665v-4.6068h4.4926v4.5624h4.6072v9.1835c-1.5216,0-3.0602,0-4.5989,0,0-1.5361,0-3.0722,0-4.6134h-4.4114v4.589h4.436Z"/><path class="l" d="m339.5843,396.2664c-.016-4.0666-.0322-8.1332-.0477-12.1998-.0019-.5106-.0003-1.0213-.0003-1.6513-1.538,0-3.0166,0-4.4952,0l.0236.0253v-4.5082h-4.6801l.0253.0236v-9.1318h-4.6222v-9.2913h9.2425v-4.4944h4.4642v-4.6755h4.7096l-.0236-.0253c.0084,4.607.0169,9.214.0253,13.821h-4.6108v13.7725c1.5752,0,3.0921,0,4.6091,0,0,1.4796,0,2.9593,0,4.4367h4.4604v-4.4367c1.5603.0006,3.1206.0011,4.681.0017v4.5264h4.6308v4.6379l.024-.024h-4.6801v4.6807l.0236-.0253h-9.103v4.5148c-1.6186,0-3.1507,0-4.6838-.0009-.001-.0009.0275.024.0275.024Z"/><path class="l" d="m325.7788,341.1479v-32.1444h32.1406v32.1444h-32.1406Zm4.6801-27.4966v22.8311h22.8261v-22.8311h-22.8261Z"/><path class="l" d="m459.0043,309.0192v32.1436h-32.1406v-32.1436h32.1406Zm-4.6561,4.6565h-22.8285v22.8305h22.8285v-22.8305Z"/><path class="l" d="m325.8015,410.0617h32.1409v32.1443h-32.1409v-32.1443Zm4.6557,4.657v22.8311h22.8296v-22.8311h-22.8296Z"/><path class="l" d="m385.393,368.7943c.0095,1.501.019,3.002.0285,4.503-1.4787,0-2.9573,0-4.4405,0v4.5841h4.4161v-4.6087c6.9079.005,13.8159.0097,20.7238.0155.8025.0007,1.605.0073,2.4075.0112l-.0253-.0236v9.0831h-13.8195v-4.3531h-4.5782v9.0905h4.5497v4.6707h-13.7484v4.4469h-9.1348l.024.024c-.0079-1.5032-.0157-3.0063-.0236-4.5095h4.4361v-13.7725h-4.4378c0-1.5599,0-3.1199,0-4.6798,1.4818,0,2.9636,0,4.5089,0v-4.4846l-.0253.0236c3.0544.0011,6.1088.0023,9.1631.0034l-.0244-.0245Zm-.0471,18.253v-4.5496h-4.3761v4.5496h4.3761Z"/><path class="l" d="m362.4834,405.5259h-18.2318v-4.6097h4.3811v-4.7045c1.631,0,3.1699,0,4.7089,0,0,1.5362,0,3.0724,0,4.6135h4.5837v-4.5891h-4.6083c.0089-1.5025.0178-3.0051.0267-4.5076l-.0236.0253h4.6801v-4.6807l-.024.024c1.5024-.0084,3.0048-.0169,4.5072-.0253,0,3.0337,0,6.0674,0,9.1661h9.3126l-.024-.024v9.3373l.024-.024h-4.6801l.024.024v-4.608h-4.6801v4.608l.0236-.0253Z"/><path class="l" d="m454.3729,423.8091v4.6471h4.6216v9.1156h-4.5814v4.6522h-4.6613v-13.7094h-9.1498c0-1.629,0-3.168,0-4.7071l-.0236.0253h13.8198l-.0253-.0236Z"/><path class="l" d="m454.3745,400.8693v4.6419h4.6155v18.2979c-1.5421,0-3.0796,0-4.6172,0l.0253.0236v-9.1719h-4.6996v-4.6495h-4.4642l.024.024v-4.5219h4.5073v-4.6189h4.6324l-.0236-.0253Z"/><path class="l" d="m380.937,345.7048v-13.5779h4.4369v9.0649c1.5957,0,3.1319,0,4.6691.0009.001.0009-.0275-.024-.0275-.024.016,2.6953.0321,5.3905.0476,8.0858.0019.3375.0003.6749.0003,1.0704h4.5904v4.6239h-13.7168v-4.6107l-.0253.0236h4.4351v-4.6806h-4.4351l.0253.0236Z"/><path class="l" d="m399.1552,313.574v4.6519h-4.4099v4.479h-4.6331v-4.4044h-4.6944v-4.6643h-4.4307v-4.6245h13.7002v4.5854c1.5378,0,3.0161,0,4.4954.0009.001.0009-.0275-.024-.0275-.024Z"/><path class="l" d="m408.5285,322.7435h-4.6513v-9.1677c-1.6356,0-3.1777,0-4.7209-.0009-.0011-.0009.0274.024.0264.0231-.001-1.514-.001-3.027-.001-4.5896h13.8056v4.6193s.0236-.0253.0236-.0253h-4.5077v9.1648l.0253-.0236Z"/><path class="l" d="m449.7168,355.018h4.6496v-9.2779h4.6092v18.3955c-1.5234,0-3.063,0-4.6027,0l.0253.0236v-4.6989h-4.6561v-4.4659l-.0253.0236Z"/><path class="l" d="m385.4174,368.8188v-4.6507h4.6154v-4.6103h4.6675v4.5608h4.4364v4.6756c-4.5743,0-9.159,0-13.7438,0,0,0,.0244.0245.0244.0245Z"/><path class="l" d="m376.2809,414.6683c-1.5028-.0006-3.0057-.0011-4.5085-.0017l.0236.0253v-9.1648l-.024.024h4.5249v-4.6027h4.6148v9.0868l.024-.024h-4.6801v4.6807l.0253-.0236Z"/><path class="l" d="m435.9485,437.6275v-4.6086h9.2471v9.2116h-4.5668v-4.6275h-4.7047l.0244.0245Z"/><path class="l" d="m371.7724,414.6666v9.0961h-9.2523v-4.3841h4.6211v-4.7103l-.0253.0236h4.6801l-.0236-.0253Z"/><path class="l" d="m325.8014,345.7316h4.5496v9.2051h-4.5496v-9.2051Z"/><path class="l" d="m335.0387,400.8735v4.6063h-9.2411v-4.5818h9.2656l-.0244-.0245Z"/><path class="l" d="m367.1412,414.6683h-4.6578c0-3.0751,0-6.1088,0-9.1424l-.0236.0253h4.6801l-.024-.024v9.1648l.0253-.0236Z"/><path class="l" d="m371.7746,432.9757h4.4336v9.2418h-4.4091v-9.2663l-.0245.0244Z"/><path class="l" d="m330.3824,387.0758v4.6043h-4.5847v-4.5798h4.6091l-.0244-.0245Z"/><path class="l" d="m367.0655,442.2377h-4.5466v-4.5497h4.5466v4.5497Z"/><path class="l" d="m394.7345,341.1988c-1.5723-.0094-3.1446-.0189-4.718-.0292-.0011-.0009.0274.024.0264.0231-.001-1.5119-.001-3.0228-.001-4.5867h4.668c0,1.5474,0,3.0823,0,4.6172,0,0,.0245-.0244.0245-.0244Z"/><path class="l" d="m380.937,350.3382h-4.6086v-4.6334c1.5347,0,3.0717,0,4.6086,0,0,0-.0253-.0236-.0253-.0236v4.6806l.0253-.0236Z"/><path class="l" d="m348.6645,350.3631c1.5603-.0006,3.1206-.0011,4.681-.0017l-.0253-.0236c.0084,1.5601.0169,3.1201.0253,4.6802h-4.6574v-4.6802l-.0236.0253Z"/><path class="l" d="m330.4068,387.1003c.001-1.5611.0021-3.1222.0031-4.6833l-.0253.0236h4.6801l-.0236-.0253c0,1.5187,0,3.0374,0,4.6604-1.5794,0-3.1191,0-4.6587,0,0,0,.0244.0245.0244.0245Z"/><path class="l" d="m362.5368,308.992h4.5412v4.5801h-4.5412v-4.5801Z"/><path class="l" d="m335.0631,400.898v-4.6334c1.5208,0,3.0199,0,4.5201.0009.0011.0009-.0274-.024-.0264-.0231.001,1.5129.001,3.0249.001,4.6309-1.5621,0-3.0406,0-4.5191,0,0,0,.0244.0246.0244.0246Z"/><path class="l" d="m344.204,350.3631v-4.6091h4.4604c0,1.5349,0,3.072,0,4.6091,0,0,.0236-.0253.0236-.0253h-4.5077l.0236.0253Z"/><path class="l" d="m371.7991,432.9513h-4.6082v-4.4166h4.5836c0,1.4833,0,2.9621,0,4.441,0,0,.0245-.0244.0245-.0244Z"/><path class="l" d="m330.41,382.417h-4.6086v-4.4609h4.6086s-.0253-.0236-.0253-.0236v4.5082l.0253-.0236Z"/><path class="l" d="m385.3971,437.603v4.6087h-4.416v-4.5842c1.4832,0,2.9618,0,4.4405,0,0,0-.0244-.0245-.0244-.0245Z"/><path class="l" d="m435.9241,437.603v4.6087h-4.416v-4.5842c1.4832,0,2.9618,0,4.4404,0,0,0-.0244-.0245-.0244-.0245Z"/><path class="q" d="m380.9116,410.0353v-9.0868h-4.6148v4.6027h-4.5249v-9.3373h9.1348v-4.4469h13.7484v-4.6707h-4.5497v-9.0905h4.5782v4.3531h13.8195v-9.0831h4.4714v-4.4652h4.6391v-4.6277h-9.0415v-18.5019h4.4387v4.6506h4.6171v4.6092h4.6687v-4.5474h4.4658v4.602h9.1513v9.1219h4.625v4.6378h-13.7168v4.496h-9.0967v4.6689h4.5368v4.466h-9.2513v4.7112h-4.4783c0,4.6121,0,9.188-.0009,13.7648-.0009.001.024-.0275.024-.0275h-4.6535v-9.0341h-4.6667v4.3828h-9.1497v4.6672h-4.6104v4.7039h9.2545l-.0244-.0245v4.5053h-13.7938Zm45.8223-45.9269v-4.5496h-4.3775v4.5496h4.3775Z"/><path class="q" d="m408.5058,410.0376h9.0915v4.6107h-4.5303v13.7684h4.5506v-4.5246h4.6321v9.0168h-22.9993v-4.39h4.6237v-4.7084l-.0245.0244h4.6806v-13.8218l-.0245.0244Z"/><path class="q" d="m412.9868,387.0732h13.7812v-4.6362h9.1442v-9.0851h4.6901v13.7453h-4.6462v4.6367h-18.277v4.4274h-4.6924v-9.0881Z"/><path class="q" d="m422.3712,405.5784h13.5182v13.6904h-13.5182v-13.6904Zm4.465,4.4789v4.5735h4.5578v-4.5735h-4.5578Z"/><path class="q" d="m445.2344,410.0113h4.4642v4.6495h4.6996v9.1719h-13.8198v-4.4693h4.6561v-9.3521Z"/><path class="q" d="m454.3982,400.8946h-4.6324v4.6189h-4.5073v4.5219h-4.6099v-9.1437h4.5765v-4.6022h9.1731v4.6052Z"/><path class="q" d="m403.8742,423.8105h-13.752v-9.0819h4.5548v4.5499h4.4956v-4.5313h4.6771c0,3.0203,0,6.054,0,9.0878,0,0,.0245-.0244.0245-.0244Z"/><path class="q" d="m376.2556,414.692v-4.6807h4.6801v4.6807h-4.6801Z"/><path class="q" d="m408.5631,405.5796c-.0031-1.5809-.0062-3.1619-.0084-4.7439.0009-.0011-.024.0274-.0231.0264,1.4583-.001,2.9156-.001,4.4196-.001v4.6954c-1.4582,0-2.9364,0-4.4156-.0009-.001-.0009.0275.024.0275.024Z"/><path class="q" d="m394.7298,405.5545v-4.6089h4.4157v4.5843c-1.4829,0-2.9615,0-4.4401,0,0,0,.0244.0245.0244.0245Z"/><path class="q" d="m408.5303,410.0131h-4.604v-4.4354c1.523,0,3.0788,0,4.6358.0009.0011.0009-.0274-.024-.0264-.0231-.0093,1.4946-.0196,2.9883-.0299,4.482,0,0,.0245-.0244.0245-.0244Z"/><path class="q" d="m435.9178,396.2784v4.5366h-4.4072v-4.5366h4.4072Z"/><path class="q" d="m422.3472,400.8387v-4.5536h4.396v4.5536h-4.396Z"/><path class="q" d="m394.7008,428.5495v4.3465h-4.5795v-4.3465h4.5795Z"/><path class="q" d="m385.367,419.3956v4.3813h-4.3767v-4.3813h4.3767Z"/><path class="q" d="m449.7421,354.9944v4.4659h4.6561v4.6989h-9.131v-4.6381h-4.6095v-4.5267h9.0844Z"/><path class="q" d="m454.376,368.7887v4.4365h-4.5886v-4.4119c1.5411,0,3.077,0,4.613,0,0,0-.0244-.0245-.0244-.0245Z"/><path class="q" d="m408.5032,322.7671v-9.1648h4.5077v9.1648h-4.5077Z"/><path class="q" d="m408.4673,336.5121v4.6534h-4.5393v-4.6304c1.5012,0,3.0335,0,4.5668.0009.001.0009-.0275-.024-.0275-.024Z"/><path class="q" d="m413.0142,336.542c-1.5149-.0094-3.0298-.0187-4.5458-.029-.0011-.0009.0274.024.0264.0231-.001-1.4544-.001-2.9079-.001-4.4142h4.4958c0,1.4897,0,2.9671,0,4.4444,0,0,.0246-.0244.0246-.0244Z"/><path class="q" d="m371.7707,373.2763c0,1.5599,0,3.1199,0,4.6798l.0253-.0236h-9.3362l.024.024v-22.9621l-.0236.0253h4.6362v4.4519h4.6742c0,3.1742,0,6.259,0,9.3438l.0253-.0236h-4.6075v4.5082h4.6075l-.0253-.0236Z"/><path class="q" d="m353.3454,355.018c-.0084-1.5601-.0169-3.1201-.0253-4.6802h9.1401c0,1.6026,0,3.1423,0,4.6819,0,0,.0236-.0253.0236-.0253h-9.1637l.0253.0236Z"/><path class="q" d="m376.2827,327.4015h-4.436v-4.589h4.4114c0,1.5412,0,3.0773,0,4.6134,0,0,.0245-.0244.0245-.0244Z"/><path class="q" d="m376.2796,368.7917v4.4846c-1.5453,0-3.0271,0-4.5089,0l.0253.0236v-4.5082l-.0253.0236c1.503-.0079,3.006-.0158,4.5089-.0236Z"/><path class="q" d="m344.1804,350.3377h4.5077v4.6802h4.6574s-.0253-.0236-.0253-.0236v4.528h4.5996v4.6128h-13.7393l.0253.0236c-.0084-4.607-.0169-9.214-.0253-13.821Z"/><path class="q" d="m344.204,377.9312h-4.6091v-13.7725h4.6108l-.0253-.0236v13.8214l.0236-.0253Z"/><path class="q" d="m362.4834,387.0719c-1.5024.0084-3.0048.0169-4.5072.0253v-4.6379h-4.6308v-4.5264l-.0253.0236h9.1637l-.024-.024v9.1648l.0236-.0253Z"/><path class="q" d="m358.0002,387.0732v4.6807h-4.6801v-4.6807h4.6801Z"/><path class="q" d="m353.3454,377.9329c-1.5603-.0006-3.1206-.0011-4.681-.0017l.0236.0253v-4.6535h4.6543l-.0244-.0245c.0007,1.5593.0015,3.1187.0022,4.678l.0253-.0236Z"/><path class="q" d="m330.3846,382.4406v-4.5082h4.6801v4.5082h-4.6801Z"/><path class="q" d="m348.6645,377.9312v4.4367h-4.4604c0-1.4774,0-2.9571,0-4.4367l-.0236.0253h4.5077l-.0236-.0253Z"/><path class="q" d="m330.459,313.6513h22.8261v22.8311h-22.8261v-22.8311Zm4.6555,4.6572v13.6904h13.5152v-13.6904h-13.5152Z"/><path class="q" d="m454.3482,313.6757v22.8305h-22.8285v-22.8305h22.8285Zm-18.3748,18.3323h13.6888v-13.6921h-13.6888v13.6921Z"/><path class="q" d="m330.4572,414.7187h22.8296v22.8311h-22.8296v-22.8311Zm4.6341,18.1819h13.5164v-13.5186h-13.5164v13.5186Z"/><path class="q" d="m371.7707,377.9561h4.4378v13.7725c-1.4751,0-2.9556,0-4.4361,0l.0236.0253v-4.6807h-4.6801l.024.024v-4.6989h4.6561v-4.4659l-.0253.0236Z"/><path class="q" d="m371.796,396.238h-9.3126c0-3.0987,0-6.1324,0-9.1661,0,0-.0236.0253-.0236.0253h4.6801s-.024-.024-.024-.024v4.6807h4.6801l-.0236-.0253c.0079,1.5031.0158,3.0063.0236,4.5095Z"/><path class="q" d="m385.3459,387.0473h-4.3761v-4.5496h4.3761v4.5496Z"/><path class="q" d="m385.3971,373.2728v4.6087h-4.4161v-4.5841c1.4832,0,2.9618,0,4.4405,0,0,0-.0244-.0245-.0244-.0245Z"/><path class="q" d="m367.1159,414.692v-9.1648h4.6801v9.1648h-4.6801Z"/><path class="q" d="m353.3171,396.2361h4.6083v4.5891h-4.5837c0-1.5411,0-3.0773,0-4.6135,0,0-.0245.0244-.0245.0244Z"/><path class="q" d="m367.1399,405.5512h-4.6801v-4.608h4.6801v4.608Z"/><path class="q" d="m380.9116,350.3618v-4.6806h4.4351v4.6806h-4.4351Z"/><path class="l" d="m426.7339,364.1085h-4.3775v-4.5496h4.3775v4.5496Z"/><path class="l" d="m426.8361,410.0572h4.5578v4.5735h-4.5578v-4.5735Z"/><path class="l" d="m348.6881,377.9565h-4.5077v-13.8214h13.7393v-4.6128h-4.5996v-4.528h9.1637v22.9621h-9.1637c-.0007-1.5593-.0015-3.1187-.0022-4.6781,1.5359,0,3.0718,0,4.6129,0v-4.4119h-4.5885v4.4365h-4.6543v4.6535Z"/><path class="l" d="m367.1399,387.0972h-4.6801v-9.1648h9.3362v4.4659h-4.6561v4.6989Z"/><path class="l" d="m371.796,368.7917v4.5082h-4.6075v-4.5082h4.6075Z"/><path class="l" d="m335.1144,318.3086h13.5152v13.6904h-13.5152v-13.6904Z"/><path class="l" d="m435.9734,332.008v-13.6921h13.6888v13.6921h-13.6888Z"/><path class="l" d="m335.0913,432.9007v-13.5186h13.5164v13.5186h-13.5164Z"/><path class="l" d="m371.796,391.7539h-4.6801v-4.6807h4.6801v4.6807Z"/><path class="q" d="m353.3423,373.303v-4.4365h4.5885v4.4119c-1.541,0-3.0769,0-4.6129,0,0,0,.0244.0245.0244.0245Z"/></g><path class="o" d="m318.9463,136.003v13.47h-13.47c3.23-5.5901,7.8899-10.25,13.47-13.47Z"/><path class="p" d="m337.3462,131.0728v18.4001h-18.3999v-13.47c5.4199-3.1401,11.7-4.9302,18.3999-4.9302Z"/><path class="p" d="m318.9463,149.473v18.3999h-18.4001c0-6.7,1.79-12.98,4.9302-18.3999h13.47Z"/><rect class="n" x="318.9481" y="149.472" width="18.4015" height="18.4015"/><path class="o" d="m355.7464,135.993v13.48h-18.4001v-18.4001c6.7,0,12.99,1.79,18.4001,4.9202Z"/><path class="p" d="m369.2263,149.473h-13.48v-13.48c5.5898,3.23,10.25,7.8899,13.48,13.48Z"/><rect class="p" x="337.3497" y="149.472" width="18.4015" height="18.4015"/><path class="o" d="m374.1563,167.8729h-18.4099v-18.3999h13.48c3.1399,5.4199,4.9299,11.7,4.9299,18.3999Z"/><path class="o" d="m318.9463,167.8729v18.4001h-13.47c-3.1401-5.4202-4.9302-11.7002-4.9302-18.4001h18.4001Z"/><rect class="p" x="318.9481" y="167.8736" width="18.4015" height="18.4015"/><path class="p" d="m318.9463,186.273v13.47c-5.5801-3.22-10.24-7.8801-13.47-13.47h13.47Z"/><path class="o" d="m337.3462,186.273v18.3999c-6.7,0-12.98-1.79-18.3999-4.9299v-13.47h18.3999Z"/><rect class="n" x="337.3497" y="167.8736" width="18.4015" height="18.4015"/><path class="p" d="m374.1563,167.8729c0,6.7-1.79,12.98-4.9299,18.4001h-13.48v-18.4001h18.4099Z"/><path class="p" d="m355.7464,186.273v13.48c-5.4102,3.1299-11.7002,4.9199-18.4001,4.9199v-18.3999h18.4001Z"/><path class="o" d="m369.2263,186.273c-3.23,5.5898-7.8901,10.25-13.48,13.48v-13.48h13.48Z"/></svg>