<svg xmlns="http://www.w3.org/2000/svg" xmlns:xlink="http://www.w3.org/1999/xlink" viewBox="0 0 1200 1200"><defs><style>.cls-1,.cls-26{fill:#50239f;}.cls-2,.cls-5{fill:#00e8cc;}.cls-16,.cls-17,.cls-2,.cls-21{stroke:#50239f;}.cls-10,.cls-11,.cls-15,.cls-16,.cls-17,.cls-18,.cls-19,.cls-2,.cls-21,.cls-23,.cls-24,.cls-25,.cls-28,.cls-31{stroke-linecap:round;}.cls-10,.cls-11,.cls-15,.cls-16,.cls-17,.cls-18,.cls-19,.cls-2,.cls-21,.cls-23,.cls-24,.cls-25,.cls-28,.cls-31,.cls-6,.cls-7,.cls-8{stroke-linejoin:round;}.cls-10,.cls-16,.cls-2,.cls-21{stroke-width:1.45px;}.cls-3{isolation:isolate;}.cls-26,.cls-30,.cls-4{mix-blend-mode:multiply;}.cls-11,.cls-16,.cls-17,.cls-18,.cls-19,.cls-24,.cls-25,.cls-30,.cls-6,.cls-7,.cls-8{fill:none;}.cls-10,.cls-11,.cls-15,.cls-18,.cls-19,.cls-23,.cls-28,.cls-31,.cls-6{stroke:#00e8cc;}.cls-6{stroke-width:152px;}.cls-24,.cls-25,.cls-7{stroke:#fff;}.cls-7{stroke-width:142px;}.cls-8{stroke:#a791cf;stroke-width:117px;opacity:0.17;}.cls-9{clip-path:url(#clip-path);}.cls-10,.cls-12,.cls-15,.cls-21,.cls-23,.cls-28,.cls-31{fill:#fff;}.cls-11{stroke-width:3.77px;}.cls-12{fill-opacity:0.24;}.cls-13{clip-path:url(#clip-path-2);}.cls-14{clip-path:url(#clip-path-3);}.cls-15{stroke-width:1.38px;}.cls-17{stroke-width:1.64px;}.cls-18{stroke-width:3.55px;}.cls-19,.cls-24,.cls-25{stroke-width:3px;}.cls-19,.cls-25{stroke-dasharray:39.73 22.87 83 45;}.cls-20{clip-path:url(#clip-path-4);}.cls-22{clip-path:url(#clip-path-5);}.cls-23{stroke-width:1.47px;}.cls-24{stroke-dasharray:39.73 22.87 73 131;}.cls-27{clip-path:url(#clip-path-6);}.cls-28{stroke-width:3.25px;}.cls-29{fill:#3a1a74;}.cls-30{stroke:#3a1a74;stroke-miterlimit:10;stroke-width:4px;}.cls-31{stroke-width:3.25px;}</style><clipPath id="clip-path"><path class="cls-1" d="M1137.57,654l-12.48,12.31c-6.27,6.17-22.49,1.45-41.25-13.18-23.8-18.55-42.67-46-42.16-61.34.1-3.25,1.07-5.68,2.75-7.34l12.49-12.3c-1.69,1.65-2.65,4.09-2.76,7.33-.5,15.32,18.37,42.79,42.16,61.34C1115.09,655.5,1131.3,660.22,1137.57,654Z"/></clipPath><clipPath id="clip-path-2"><path class="cls-1" d="M134.57,206l-12.48,12.31c-6.27,6.17-22.49,1.45-41.25-13.18-23.8-18.55-42.67-46-42.16-61.34.1-3.25,1.07-5.68,2.75-7.34l12.49-12.3c-1.69,1.65-2.65,4.09-2.76,7.33-.5,15.32,18.37,42.79,42.16,61.34C112.09,207.5,128.3,212.22,134.57,206Z"/></clipPath><clipPath id="clip-path-3"><path class="cls-1" d="M202.73,354.21l10.1,2.68.53.15a36.33,36.33,0,0,0,13.79.9c24.92-3.09,45.34-30,45.6-60.14.21-24.3-12.75-43.27-30.85-48.08h0l-10.63-2.83c18.11,4.81,31.07,23.79,30.86,48.08-.26,30.13-20.68,57.06-45.6,60.14A36,36,0,0,1,202.73,354.21Z"/></clipPath><clipPath id="clip-path-4"><path class="cls-2" d="M198.77,952.58l8.83,6.52.46.35a38,38,0,0,0,13.13,6.21c25.54,6.63,55.9-11.77,67.82-41.1,9.61-23.66,4.28-47.21-11.54-58.91h0l-9.29-6.87c15.83,11.7,21.15,35.26,11.54,58.91-11.91,29.33-42.28,47.73-67.82,41.1A38,38,0,0,1,198.77,952.58Z"/></clipPath><clipPath id="clip-path-5"><path class="cls-1" d="M198.27,953c3,2.19,5.94,4.41,8.91,6.61l.47.35a38.52,38.52,0,0,0,13.27,6.3c25.81,6.74,56.54-11.82,68.63-41.46,9.76-23.91,4.41-47.73-11.58-59.59h0l-9.37-7c16,11.86,21.33,35.69,11.58,59.59-12.1,29.64-42.83,48.2-68.64,41.46A38.42,38.42,0,0,1,198.27,953Z"/></clipPath><clipPath id="clip-path-6"><path class="cls-1" d="M506.15,693.69c2.06,3.08,4.1,6.17,6.15,9.24.1.15.23.34.32.49A38.58,38.58,0,0,0,523,713.84c22,15.08,57.2,8,78.61-15.8,17.27-19.2,20.3-43.42,9.27-60h0q-3.24-4.86-6.47-9.72c11,16.57,8,40.8-9.27,60-21.4,23.81-56.6,30.88-78.62,15.8A38.57,38.57,0,0,1,506.15,693.69Z"/></clipPath></defs><title>add-account-placeholder</title><g class="cls-3"><g id="Layer_20" data-name="Layer 20"><g class="cls-4"><path class="cls-5" d="M1161.32,668.71c.51-15.32-18.37-42.78-42.17-61.34-19.05-14.86-35.47-19.49-41.51-12.87.09-.1.18-.21.28-.31l-12.49,12.3c-1.68,1.66-2.65,4.09-2.75,7.34-.51,15.32,18.36,42.79,42.16,61.34,18.76,14.63,35,19.35,41.25,13.18L1158.57,676a.52.52,0,0,1-.11.1C1160.21,674.49,1161.21,672,1161.32,668.71Z"/><path class="cls-5" d="M143.09,240.35,155.57,228a.52.52,0,0,1-.11.1c1.75-1.66,2.75-4.12,2.86-7.43.51-15.32-18.37-42.78-42.17-61.34C97.1,144.51,80.68,139.88,74.64,146.5c.09-.1.18-.21.28-.31l-12.49,12.3c-1.68,1.66-2.65,4.09-2.75,7.34-.51,15.32,18.36,42.79,42.16,61.34C120.6,241.8,136.82,246.52,143.09,240.35Z"/><path class="cls-5" d="M223.92,376.26l-.19-.05,10.1,2.68.53.15a36.33,36.33,0,0,0,13.79.9c24.92-3.09,45.34-30,45.6-60.14.21-24.3-12.75-43.27-30.85-48.08l-10.63-2.83c.47.12.92.27,1.38.41A36.11,36.11,0,0,0,238.48,268c-24.92,3.08-45.34,30-45.6,60.13C192.67,352.51,205.72,371.52,223.92,376.26Z"/><path class="cls-5" d="M137.17,292.61a1.51,1.51,0,0,0-.38,2.09c.09.12,8.56,12.46,18.63,34.8a1.5,1.5,0,0,0,2.74-1.23c-10.2-22.62-18.81-35.16-18.9-35.28A1.51,1.51,0,0,0,137.17,292.61Z"/><path class="cls-5" d="M183.48,420.59a1.5,1.5,0,0,0,1.47,1.23l.27,0a1.5,1.5,0,0,0,1.21-1.74,409.24,409.24,0,0,0-19.5-70.55,1.5,1.5,0,0,0-2.81,1.06A406.17,406.17,0,0,1,183.48,420.59Z"/><path class="cls-5" d="M275.18,431.66l.24,0a1.49,1.49,0,0,0,1.47-1.27,409,409,0,0,1,21-79.85,1.5,1.5,0,0,0-2.81-1.06,412.15,412.15,0,0,0-21.19,80.44A1.5,1.5,0,0,0,275.18,431.66Z"/><path class="cls-5" d="M269.17,474.83c-.43,7.94-.64,16-.64,24a1.5,1.5,0,0,0,3,0c0-7.93.21-16,.64-23.85a1.5,1.5,0,1,0-3-.16Z"/><path class="cls-5" d="M304.65,330.25a1.5,1.5,0,0,0,2-.75c10.07-22.34,18.55-34.68,18.63-34.8a1.5,1.5,0,1,0-2.47-1.71c-.08.12-8.7,12.66-18.89,35.28A1.49,1.49,0,0,0,304.65,330.25Z"/><path class="cls-5" d="M968.42,647.89H945.63V566.35A13.31,13.31,0,0,0,932.32,553H888a13.31,13.31,0,0,0-13.31,13.31v.08H687.83c-115.25,0-209,93.76-209,209v62a89,89,0,0,1-178,0V612.61H302a13.31,13.31,0,0,0,13.31-13.31V555A13.31,13.31,0,0,0,302,541.68H148.38A13.31,13.31,0,0,0,135.07,555V599.3a13.31,13.31,0,0,0,13.31,13.31h.42V837.45a241.07,241.07,0,0,0,376.73,199.22,226.47,226.47,0,0,0,50.61-46.32,239.17,239.17,0,0,0,54.68-152.9v-62a56.69,56.69,0,0,1,11.8-34.67A75.09,75.09,0,0,1,657,727.5a56.64,56.64,0,0,1,30.79-9.07H874.71v1.51A13.31,13.31,0,0,0,888,733.25h44.3a13.31,13.31,0,0,0,13.31-13.31V650.89h22.79a1.5,1.5,0,0,0,0-3Z"/><path class="cls-5" d="M1031,647.89H991.3a1.5,1.5,0,0,0,0,3H1031a1.5,1.5,0,0,0,0-3Z"/><path class="cls-5" d="M1032.19,602.38l-83-.1h0a1.5,1.5,0,0,0,0,3l83,.1h0a1.5,1.5,0,0,0,0-3Z"/></g><path class="cls-6" d="M203.8,572.7V815.45a165,165,0,0,0,165,165h0a165,165,0,0,0,165-165v-62a133,133,0,0,1,133-133H859.75"/><path class="cls-7" d="M203.8,572.7V815.45a165,165,0,0,0,165,165h0a165,165,0,0,0,165-165v-62a133,133,0,0,1,133-133H859.75"/><path class="cls-8" d="M215.8,563.7V828.45a165,165,0,0,0,165,165h0a165,165,0,0,0,165-165v-62a133,133,0,0,1,133-133H871.75"/><g id="MUENZE"><g class="cls-4"><path class="cls-1" d="M1137.57,654l-12.48,12.31c-6.27,6.17-22.49,1.45-41.25-13.18-23.8-18.55-42.67-46-42.16-61.34.1-3.25,1.07-5.68,2.75-7.34l12.49-12.3c-1.69,1.65-2.65,4.09-2.76,7.33-.5,15.32,18.37,42.79,42.16,61.34C1115.09,655.5,1131.3,660.22,1137.57,654Z"/><g class="cls-9"><line class="cls-10" x1="1044.75" y1="596.77" x2="1052.91" y2="589.05"/><line class="cls-10" x1="1055.08" y1="618.67" x2="1063.26" y2="610.86"/><line class="cls-10" x1="1069.43" y1="636.86" x2="1077.29" y2="629.3"/><line class="cls-10" x1="1086.84" y1="652.18" x2="1094.43" y2="644.82"/><line class="cls-10" x1="1107.09" y1="664.78" x2="1114.82" y2="657.21"/></g></g><path class="cls-5" d="M1098.15,585.37c23.8,18.56,42.68,46,42.17,61.34s-20.21,12.71-44-5.85-42.66-46-42.16-61.34S1074.37,566.82,1098.15,585.37Z"/><path class="cls-1" d="M1094.26,589.93c18.33,14.1,34.51,35.91,36.16,48.71s-11.87,11.76-30.2-2.33-34.51-35.91-36.16-48.72S1075.94,575.83,1094.26,589.93Z"/></g><path class="cls-11" d="M1088.27,595.76c-3-2.13-6.31-2.31-6.56-.52-.16,1.19.85,2.93,2.31,4.71,1,1.26,2.26,2.53,3.43,3.8,1.93,2.07,17.55,16.75,21.31,20.79,4.39,4.71,3.88,9.27-3.21,5.31"/><path class="cls-12" d="M1122.7,614.16c7.79,10.65,12.59,21.12,12.34,28.43-.44,13.45-17.73,11.16-38.6-5.13a128.92,128.92,0,0,1-28-30.2Z"/><g id="MUENZE-2" data-name="MUENZE"><g class="cls-4"><path class="cls-1" d="M134.57,206l-12.48,12.31c-6.27,6.17-22.49,1.45-41.25-13.18-23.8-18.55-42.67-46-42.16-61.34.1-3.25,1.07-5.68,2.75-7.34l12.49-12.3c-1.69,1.65-2.65,4.09-2.76,7.33-.5,15.32,18.37,42.79,42.16,61.34C112.09,207.5,128.3,212.22,134.57,206Z"/><g class="cls-13"><line class="cls-10" x1="41.75" y1="148.77" x2="49.91" y2="141.05"/><line class="cls-10" x1="52.08" y1="170.67" x2="60.26" y2="162.86"/><line class="cls-10" x1="66.43" y1="188.86" x2="74.29" y2="181.3"/><line class="cls-10" x1="83.84" y1="204.18" x2="91.43" y2="196.82"/><line class="cls-10" x1="104.09" y1="216.78" x2="111.82" y2="209.21"/></g></g><path class="cls-5" d="M95.15,137.37c23.8,18.56,42.68,46,42.17,61.34s-20.21,12.71-44-5.85-42.66-46-42.16-61.34S71.37,118.82,95.15,137.37Z"/><path class="cls-1" d="M91.26,141.93c18.33,14.1,34.51,35.91,36.16,48.71s-11.87,11.76-30.2-2.33S62.71,152.4,61.06,139.59,72.94,127.83,91.26,141.93Z"/></g><path class="cls-11" d="M85.27,147.76c-3-2.13-6.31-2.31-6.56-.52-.16,1.19.85,2.93,2.31,4.71,1,1.26,2.26,2.53,3.43,3.8,1.93,2.07,17.55,16.75,21.31,20.79,4.39,4.71,3.88,9.27-3.21,5.31"/><path class="cls-12" d="M119.7,166.16c7.79,10.65,12.59,21.12,12.34,28.43-.44,13.45-17.73,11.16-38.6-5.13a128.92,128.92,0,0,1-28-30.2Z"/><g id="MUENZE-3" data-name="MUENZE"><g id="MUENZE-4" data-name="MUENZE"><path class="cls-1" d="M202.73,354.21l10.1,2.68.53.15a36.33,36.33,0,0,0,13.79.9c24.92-3.09,45.34-30,45.6-60.14.21-24.3-12.75-43.27-30.85-48.08h0l-10.63-2.83c18.11,4.81,31.07,23.79,30.86,48.08-.26,30.13-20.68,57.06-45.6,60.14A36,36,0,0,1,202.73,354.21Z"/><g class="cls-14"><line class="cls-15" x1="262.78" y1="266.88" x2="256.77" y2="265.2"/><line class="cls-15" x1="270.87" y1="292.35" x2="263.92" y2="290.51"/><line class="cls-15" x1="268.76" y1="314.84" x2="262.13" y2="313.19"/><line class="cls-15" x1="258.54" y1="334.99" x2="252.18" y2="333.51"/><line class="cls-15" x1="239.42" y1="353.5" x2="232.41" y2="351.97"/></g><path class="cls-5" d="M217.48,246c-24.92,3.08-45.34,30-45.6,60.13s19.73,52.07,44.65,49,45.34-30,45.6-60.14S242.41,242.92,217.48,246Z"/><path class="cls-1" d="M217.38,257c-19.92,2.46-36.23,24-36.44,48.06s15.76,41.61,35.69,39.15,36.23-24,36.44-48.07S237.31,254.49,217.38,257Z"/></g></g><polyline class="cls-16" points="203.09 271.56 206.91 326.16 238.49 316.12"/><polyline class="cls-17" points="203.09 271.56 206.91 326.16 238.49 316.12"/><line class="cls-16" x1="190.68" y1="312.41" x2="219.69" y2="293.03"/><line class="cls-17" x1="190.68" y1="312.41" x2="219.69" y2="293.03"/><polyline class="cls-18" points="203.09 271.56 206.91 326.16 238.49 316.12"/><polyline class="cls-18" points="203.09 271.56 206.91 326.16 238.49 316.12"/><polyline class="cls-18" points="203.09 271.56 206.91 326.16 238.49 316.12"/><line class="cls-18" x1="190.68" y1="312.41" x2="219.69" y2="293.03"/><line class="cls-18" x1="190.68" y1="312.41" x2="219.69" y2="293.03"/><line class="cls-18" x1="190.68" y1="312.41" x2="219.69" y2="293.03"/><path class="cls-12" d="M188.49,341.77a33.53,33.53,0,0,0,28.07,9.63c23.23-2.87,42.26-28,42.5-56,.19-21.82-11-39-26.93-44.27Z"/><path class="cls-19" d="M234,720.34v72.75a164.28,164.28,0,0,0,28.18,92.26"/><path class="cls-19" d="M168.8,620.34V816.45a164.71,164.71,0,0,0,63.37,130"/><g id="MUENZE-5" data-name="MUENZE"><g id="MUENZE-6" data-name="MUENZE"><path class="cls-5" d="M198.77,952.58l8.83,6.52.46.35a38,38,0,0,0,13.13,6.21c25.54,6.63,55.9-11.77,67.82-41.1,9.61-23.66,4.28-47.21-11.54-58.91h0l-9.29-6.87c15.83,11.7,21.15,35.26,11.54,58.91-11.91,29.33-42.28,47.73-67.82,41.1A38,38,0,0,1,198.77,952.58Z"/><g class="cls-20"><line class="cls-21" x1="325.26" y1="896.53" x2="241.95" y2="850.53"/><line class="cls-21" x1="315.37" y1="908.79" x2="232.07" y2="862.78"/><line class="cls-21" x1="305.49" y1="921.04" x2="222.18" y2="875.03"/><line class="cls-21" x1="295.61" y1="933.29" x2="212.3" y2="887.29"/><line class="cls-21" x1="285.72" y1="945.54" x2="202.42" y2="899.54"/><line class="cls-21" x1="275.84" y1="957.8" x2="192.53" y2="911.79"/><line class="cls-21" x1="265.95" y1="970.05" x2="182.65" y2="924.04"/><line class="cls-21" x1="256.07" y1="982.3" x2="172.76" y2="936.29"/></g><path class="cls-16" d="M198.77,952.58l8.83,6.52.46.35a38,38,0,0,0,13.13,6.21c25.54,6.63,55.9-11.77,67.82-41.1,9.61-23.66,4.28-47.21-11.54-58.91h0l-9.29-6.87c15.83,11.7,21.15,35.26,11.54,58.91-11.91,29.33-42.28,47.73-67.82,41.1A38,38,0,0,1,198.77,952.58Z"/><path class="cls-5" d="M250.72,863.23c-20.41-5.31-44.67,9.4-54.2,32.85s-.7,46.75,19.72,52,44.67-9.4,54.2-32.85S271.14,868.53,250.72,863.23Z"/><path class="cls-16" d="M250.72,863.23c-20.41-5.31-44.67,9.4-54.2,32.85s-.7,46.75,19.72,52,44.67-9.4,54.2-32.85S271.14,868.53,250.72,863.23Z"/></g></g><path class="cls-16" d="M233.67,908.17c4,5.31,2.54,11.44-1.89,15.52s-10.34,4.7-14.34-.61l-10.35-13.72,32.29-29.66,10.34,13.72c4,5.31,2.54,11.44-1.89,15.51s-10.16,4.55-14.16-.76"/><line class="cls-16" x1="243.69" y1="885.19" x2="249.58" y2="879.77"/><line class="cls-16" x1="248.39" y1="891.41" x2="254.28" y2="886"/><line class="cls-16" x1="205.21" y1="920.09" x2="211.1" y2="914.68"/><line class="cls-16" x1="209.9" y1="926.32" x2="215.8" y2="920.9"/><line class="cls-16" x1="223.32" y1="894.45" x2="233.67" y2="908.17"/><g id="MUENZE-7" data-name="MUENZE"><g id="MUENZE-8" data-name="MUENZE"><path class="cls-1" d="M198.27,953c3,2.19,5.94,4.41,8.91,6.61l.47.35a38.52,38.52,0,0,0,13.27,6.3c25.81,6.74,56.54-11.82,68.63-41.46,9.76-23.91,4.41-47.73-11.58-59.59h0l-9.37-7c16,11.86,21.33,35.69,11.58,59.59-12.1,29.64-42.83,48.2-68.64,41.46A38.42,38.42,0,0,1,198.27,953Z"/><g class="cls-22"><line class="cls-23" x1="291.85" y1="890.37" x2="286.58" y2="886.34"/><line class="cls-23" x1="289.84" y1="918.69" x2="283.7" y2="914.14"/><line class="cls-23" x1="278.92" y1="940.07" x2="273.02" y2="935.83"/><line class="cls-23" x1="260.92" y1="955.95" x2="255.22" y2="951.98"/><line class="cls-23" x1="234.77" y1="966.71" x2="228.45" y2="962.45"/></g><path class="cls-5" d="M255.33,852c-25.82-6.75-56.55,11.81-68.64,41.45s-1,59.16,24.85,65.9,56.54-11.82,68.64-41.46S281.15,858.71,255.33,852Z"/><path class="cls-1" d="M250.93,862.73c-20.63-5.39-45.19,9.44-54.86,33.14s-.77,47.27,19.86,52.67,45.2-9.45,54.86-33.14S271.57,868.13,250.93,862.73Z"/></g></g><path class="cls-11" d="M233.62,908.16c4,5.37,2.55,11.57-1.94,15.68s-10.45,4.74-14.49-.63l-10.45-13.89,32.69-29.94,10.45,13.89c4,5.37,2.55,11.57-1.94,15.68s-10.28,4.58-14.32-.79"/><line class="cls-11" x1="243.79" y1="884.93" x2="249.76" y2="879.46"/><line class="cls-11" x1="248.53" y1="891.23" x2="254.49" y2="885.76"/><line class="cls-11" x1="204.82" y1="920.17" x2="210.79" y2="914.7"/><line class="cls-11" x1="209.56" y1="926.47" x2="215.53" y2="921"/><line class="cls-11" x1="223.18" y1="894.27" x2="233.62" y2="908.16"/><path class="cls-12" d="M185.06,918.26c.59,18.21,10.81,33.24,27.85,37.69,24.2,6.33,53-11.08,64.34-38.87,4.43-10.86,5.54-21.69,3.8-31.25Z"/><path class="cls-24" d="M117,271.84s54,78,54,205"/><path class="cls-25" d="M303,271.84s-54,78-54,205"/><path class="cls-19" d="M595.06,679.1A104.32,104.32,0,0,0,563.46,754V875.34"/><line class="cls-19" x1="1010.03" y1="627.39" x2="801.29" y2="627.39"/><line class="cls-19" x1="674.98" y1="581.47" x2="1018.03" y2="581.89"/><path class="cls-19" d="M498.87,812.57v-55A175.37,175.37,0,0,1,536,649.39"/><rect class="cls-1" x="853.71" y="531.04" width="70.92" height="180.21" rx="13.31"/><path class="cls-26" d="M859.8,622.44V694a11.32,11.32,0,0,0,11.32,11.32h36.1A11.32,11.32,0,0,0,918.54,694V622.44Z"/><path class="cls-1" d="M506.15,693.69c2.06,3.08,4.1,6.17,6.15,9.24.1.15.23.34.32.49A38.58,38.58,0,0,0,523,713.84c22,15.08,57.2,8,78.61-15.8,17.27-19.2,20.3-43.42,9.27-60h0q-3.24-4.86-6.47-9.72c11,16.57,8,40.8-9.27,60-21.4,23.81-56.6,30.88-78.62,15.8A38.57,38.57,0,0,1,506.15,693.69Z"/><g class="cls-27"><line class="cls-23" x1="615.41" y1="666.41" x2="611.81" y2="660.84"/><line class="cls-23" x1="603.93" y1="692.38" x2="599.69" y2="686.02"/><line class="cls-23" x1="586.42" y1="708.81" x2="582.31" y2="702.83"/><line class="cls-23" x1="564.11" y1="717.66" x2="560.09" y2="712"/><line class="cls-23" x1="535.87" y1="718.94" x2="531.36" y2="712.79"/></g><path class="cls-5" d="M594,617.91c-22-15.08-57.2-8-78.61,15.79S494.49,689,516.5,704.12s57.22,8,78.62-15.8S616,633,594,617.91Z"/><path class="cls-1" d="M586.25,626.56c-17.59-12.06-45.72-6.4-62.83,12.62s-16.73,44.23.87,56.29,45.72,6.4,62.83-12.63S603.84,638.62,586.25,626.56Z"/><path class="cls-5" d="M569.85,631.27,573.62,656a.37.37,0,0,1-.63.32l-9.79-9.76a2.65,2.65,0,0,0-2-.76l-14.93.81a.38.38,0,0,1-.22-.69L569.28,631A.37.37,0,0,1,569.85,631.27Z"/><path class="cls-5" d="M539,660.9l9.74,9.7a2.78,2.78,0,0,0,2.11.81l14.87-.8a.38.38,0,0,1,.22.69l-23.23,14.85a.37.37,0,0,1-.57-.26l-3.77-24.67A.37.37,0,0,1,539,660.9Z"/><path class="cls-5" d="M543.16,653.43l14.81-.8a2.28,2.28,0,0,1,1.71.66l9.56,9.52a.37.37,0,0,1-.24.64l-14.82.79a2.23,2.23,0,0,1-1.71-.65l-9.56-9.52A.38.38,0,0,1,543.16,653.43Z"/><path class="cls-12" d="M519.39,700.9c20.38,14,53,7.42,72.76-14.62s19.36-51.19-1-65.16Z"/><line class="cls-28" x1="866.83" y1="544.51" x2="912.29" y2="544.51"/><line class="cls-28" x1="867.01" y1="594.48" x2="912.47" y2="594.48"/><line class="cls-28" x1="867.19" y1="644.45" x2="912.65" y2="644.45"/><line class="cls-28" x1="867.37" y1="694.42" x2="912.83" y2="694.42"/><rect class="cls-29" x="114.07" y="516.68" width="180.21" height="70.92" rx="13.31"/><rect class="cls-30" x="114.07" y="516.68" width="180.21" height="70.92" rx="13.31"/><path class="cls-26" d="M205.47,584.52h71.59a11.32,11.32,0,0,0,11.32-11.32V537.1a11.32,11.32,0,0,0-11.32-11.32H205.47Z"/><line class="cls-31" x1="280.81" y1="532.8" x2="280.81" y2="578.26"/><line class="cls-31" x1="230.84" y1="532.98" x2="230.84" y2="578.44"/><line class="cls-31" x1="180.86" y1="533.16" x2="180.86" y2="578.62"/><line class="cls-31" x1="130.89" y1="533.34" x2="130.89" y2="578.8"/></g></g></svg>