<svg xmlns="http://www.w3.org/2000/svg" xmlns:xlink="http://www.w3.org/1999/xlink" viewBox="0 0 833.92 833.92"><defs><style>.cls-1{fill:#00e8cc;}.cls-2{fill:#ff1160;}.cls-22,.cls-23,.cls-3{fill:none;}.cls-4{fill:#00d6bc;}.cls-5{fill:#ff1260;}.cls-6{fill:#ec1159;}.cls-7{isolation:isolate;}.cls-8{clip-path:url(#clip-path);}.cls-9{fill:#f2f2f2;}.cls-14,.cls-9{mix-blend-mode:multiply;}.cls-10{clip-path:url(#clip-path-2);}.cls-11{fill:#50239f;}.cls-12{clip-path:url(#clip-path-3);}.cls-13{fill:#fff;}.cls-15{fill:#e6e6e6;}.cls-16{clip-path:url(#clip-path-4);}.cls-17{clip-path:url(#clip-path-5);}.cls-18{clip-path:url(#clip-path-6);}.cls-19{clip-path:url(#clip-path-7);}.cls-20{clip-path:url(#clip-path-8);}.cls-21{clip-path:url(#clip-path-9);}.cls-22,.cls-23{stroke:#fff;stroke-linecap:round;}.cls-22{stroke-linejoin:round;stroke-width:2px;stroke-dasharray:42 29 10 18;}.cls-23{stroke-miterlimit:10;stroke-width:2.61px;stroke-dasharray:23.49 7.83 3.92 53.38;}</style><clipPath id="clip-path"><path class="cls-1" d="M256.18,375.1h0V376a7.38,7.38,0,0,0-7.38-7.37L8.21,368.39a7.36,7.36,0,0,0-7.36,7.38v0h0v154.7h0a7.36,7.36,0,0,0,7.35,7.39l240.6.67h0a7.36,7.36,0,0,0,7.35-7.36V375.1Z"/></clipPath><clipPath id="clip-path-2"><path class="cls-1" d="M444.37,421.1h0V422a7.38,7.38,0,0,0-7.38-7.37l-240.59-.23a7.37,7.37,0,0,0-7.36,7.38v0h0v154.7h0a7.36,7.36,0,0,0,7.34,7.39l240.6.67h0a7.36,7.36,0,0,0,7.35-7.36V421.1Z"/></clipPath><clipPath id="clip-path-3"><path class="cls-2" d="M823,269.46h0v0a7.37,7.37,0,0,0-7.38-7.36L575,262.74a7.37,7.37,0,0,0-7.36,7.39h0V424.86a7.36,7.36,0,0,0,7.35,7.39l240.6.66h0a7.35,7.35,0,0,0,7.35-7.36h0Z"/></clipPath><clipPath id="clip-path-4"><polygon class="cls-3" points="767.37 261.83 668.29 262.73 669.22 366.28 935.75 771.48 146.96 876.83 293.73 185.29 439.61 -92.04 692.63 14.21 879.02 7.91 767.37 261.83"/></clipPath><clipPath id="clip-path-5"><path class="cls-1" d="M630.31,467.55h0a7.37,7.37,0,0,0-7.38-7.37l-240.59.67a7.36,7.36,0,0,0-7.35,7.38v0h0v154.7h0a7.36,7.36,0,0,0,7.35,7.39l240.59.67h0a7.36,7.36,0,0,0,7.35-7.36h0Z"/></clipPath><clipPath id="clip-path-6"><rect class="cls-1" x="521.62" y="630.33" width="29.05" height="14.6"/></clipPath><clipPath id="clip-path-7"><rect class="cls-4" x="518.18" y="642.79" width="35.94" height="6.1" rx="2.75"/></clipPath><clipPath id="clip-path-8"><rect class="cls-5" x="673.8" y="248.89" width="29.05" height="13.91"/></clipPath><clipPath id="clip-path-9"><rect class="cls-6" x="670.35" y="244.94" width="35.94" height="6.1" rx="2.75"/></clipPath></defs><title>Artboard 6 copy 20</title><g class="cls-7"><g id="Layer_19" data-name="Layer 19"><path class="cls-1" d="M256.18,375.1h0V376a7.38,7.38,0,0,0-7.38-7.37L8.21,368.39a7.36,7.36,0,0,0-7.36,7.38v0h0v154.7h0a7.36,7.36,0,0,0,7.35,7.39l240.6.67h0a7.36,7.36,0,0,0,7.35-7.36V375.1Z"/><g class="cls-8"><path class="cls-4" d="M256.18,375.18h0a7.38,7.38,0,0,0-7.38-7.37l-100,.66h1a7.38,7.38,0,0,1,7.36,7.39v0h0v154.7h0a7.36,7.36,0,0,1-7.35,7.39h-1l100,.66h0a7.36,7.36,0,0,0,7.35-7.36V375.18Z"/><path class="cls-9" d="M256.18,375.18h0a7.38,7.38,0,0,0-7.38-7.37l-100,.66h1a7.38,7.38,0,0,1,7.36,7.39v0h0v154.7h0a7.36,7.36,0,0,1-7.35,7.39h-1l100,.66h0a7.36,7.36,0,0,0,7.35-7.36V375.18Z"/></g><path class="cls-1" d="M444.37,421.1h0V422a7.38,7.38,0,0,0-7.38-7.37l-240.59-.23a7.37,7.37,0,0,0-7.36,7.38v0h0v154.7h0a7.36,7.36,0,0,0,7.34,7.39l240.6.67h0a7.36,7.36,0,0,0,7.35-7.36V421.1Z"/><g class="cls-10"><path class="cls-4" d="M444.37,421.18h0A7.38,7.38,0,0,0,437,413.8l-100,.66h1a7.37,7.37,0,0,1,7.35,7.39v0h0v154.7h0A7.36,7.36,0,0,1,338,584h-1l100,.66h0a7.36,7.36,0,0,0,7.35-7.36V421.18Z"/><path class="cls-9" d="M444.37,421.18h0A7.38,7.38,0,0,0,437,413.8l-100,.66h1a7.37,7.37,0,0,1,7.35,7.39v0h0v154.7h0A7.36,7.36,0,0,1,338,584h-1l100,.66h0a7.36,7.36,0,0,0,7.35-7.36V421.18Z"/></g><path class="cls-11" d="M233.94,493.87h.23l.1.1c0,.11-.06.22-.1.33h-.23Z"/><path class="cls-11" d="M234.5,500.25c-.07-.09-.3-.12-.19-.27s.26,0,.34.11Z"/><path class="cls-11" d="M420.34,591.29h.22l.11.11c0,.11-.07.22-.11.33h-.22Z"/><path class="cls-11" d="M420.89,597.68c-.07-.09-.3-.12-.18-.27s.25,0,.33.1Z"/><path class="cls-2" d="M823,269.46h0v0a7.37,7.37,0,0,0-7.38-7.36L575,262.74a7.37,7.37,0,0,0-7.36,7.39h0V424.86a7.36,7.36,0,0,0,7.35,7.39l240.6.66h0a7.35,7.35,0,0,0,7.35-7.36h0Z"/><g class="cls-12"><path class="cls-13" d="M780.87,336c-7.29,0-12.29,4.56-16.6,10.19l2.57,3.74c3.95-5.42,8.15-9.66,14-9.66a13.57,13.57,0,0,1,13.43,11.28H777.51v4.27h21.12a19.38,19.38,0,0,0,.13-2.15A17.81,17.81,0,0,0,780.87,336"/><path class="cls-13" d="M780.87,367.1c-7.2,0-12-6.22-18-15.34S751.18,336,742.36,336a17.7,17.7,0,1,0,0,35.39c7.27,0,12.27-4.54,16.58-10.17l-2.55-3.76c-3.95,5.4-8.15,9.66-14,9.66a13.43,13.43,0,1,1,0-26.85c7.2,0,11.68,5.9,18,15.32s11.73,15.8,20.55,15.8a17.9,17.9,0,0,0,16.69-11.29h-4.73a13.71,13.71,0,0,1-12,7"/><path class="cls-6" d="M704.76,381.69V283.78h0v0a6.35,6.35,0,0,0-6.36-6.35l-109.65.24A6.35,6.35,0,0,0,582.4,284h0V411h0a6.36,6.36,0,0,0,6.34,6.37l109.65.23a6.34,6.34,0,0,0,6.36-6.34v0h0V389.64h0Z"/><g class="cls-14"><path class="cls-15" d="M676.79,642.37a10.71,10.71,0,0,1-10.23-13.86c12.11-39.12-4.37-82-20.31-123.54-2.23-5.81-4.54-11.81-6.69-17.63a1187,1187,0,0,0-52.09-119.9c-15.19-30.26-24.26-77.27-10.3-114a79.71,79.71,0,0,1,46-46.85,10.69,10.69,0,1,1,7.94,19.86c-16.32,6.53-27.75,18.16-34,34.58-11.59,30.55-3.24,71.63,9.43,96.87a1208.67,1208.67,0,0,1,53,122.06c2.11,5.7,4.29,11.38,6.6,17.39,16.43,42.81,35.07,91.33,20.78,137.53A10.69,10.69,0,0,1,676.79,642.37Z"/></g></g><g class="cls-16"><path class="cls-1" d="M611.82,738.34A76.92,76.92,0,0,1,557,715.52c-19.24-19.14-29.4-47.47-27.17-75.79,1.86-23.75,2.61-27,5.15-35.8,1.24-4.28,2.94-10.14,5.58-22.07,6.42-29-1.95-60.1-10-90.19q-1.32-4.91-2.6-9.71a7.66,7.66,0,1,1,14.81-3.89c.83,3.17,1.7,6.39,2.57,9.63,8.17,30.38,17.43,64.82,10.21,97.47-2.75,12.41-4.53,18.54-5.83,23-2.18,7.54-2.77,9.57-4.59,32.74-1.88,23.9,6.61,47.72,22.71,63.74,9.42,9.38,25.67,20.13,49.58,18.13a61.31,61.31,0,0,0,36.09-15.38c9.94-9,17.5-22.48,22.47-39.94,11.78-41.4-6.5-81.47-25.86-123.89-5.08-11.13-10.33-22.64-15-34.14-11.51-28.44-22.93-53-33-74.63-26.58-57.08-45.78-98.33-44.49-158.3,1.12-52.38,30-73.49,42.34-80.13,20.31-10.93,43.64-10.39,62.4,1.44,23.39,14.74,35.78,44.73,34,82.27a7.65,7.65,0,0,1-15.29-.72c1.52-31.88-8.27-56.88-26.86-68.6-14-8.85-31.6-9.19-47-.91-21.12,11.36-33.62,35.77-34.29,67-1.21,56.41,17.36,96.3,43.07,151.51,10.16,21.82,21.67,46.55,33.32,75.35,4.52,11.19,9.71,22.55,14.72,33.53,19.65,43.07,40,87.61,26.65,134.43-5.76,20.24-14.81,36.08-26.88,47.07a76.71,76.71,0,0,1-45.13,19.31Q615.2,738.34,611.82,738.34Z"/><path d="M611.54,738.34v0a7.62,7.62,0,0,1-5.41-2.26,7.53,7.53,0,0,1-2.23-5.41,7.66,7.66,0,0,1,7.65-7.64h0a7.66,7.66,0,0,1,0,15.31Zm41.38-13a7.66,7.66,0,0,1-6.21-3.18,7.66,7.66,0,0,1,1.74-10.68,58,58,0,0,0,5-4.05c8.47-7.69,15.24-18.62,20.1-32.49a7.67,7.67,0,0,1,7.22-5.11A7.65,7.65,0,0,1,688,680a111.94,111.94,0,0,1-9.6,20.69,80.62,80.62,0,0,1-14.64,18,68.32,68.32,0,0,1-6.35,5.15A7.57,7.57,0,0,1,652.92,725.33Zm-103.23-24a7.69,7.69,0,0,1-6.61-3.78,97.54,97.54,0,0,1-10.08-24,100,100,0,0,1-3.5-26.18c0-.4,0-.84,0-1.28a7.67,7.67,0,0,1,7.65-7.54h.1a7.65,7.65,0,0,1,7.55,7.75c0,.32,0,.68,0,1.07a84.34,84.34,0,0,0,3,22.17,81.94,81.94,0,0,0,8.49,20.23,7.67,7.67,0,0,1-2.71,10.48A7.57,7.57,0,0,1,549.69,701.32Zm132.12-90.5a7.65,7.65,0,1,1,7.39-9.67,7.66,7.66,0,0,1-5.37,9.4A7.68,7.68,0,0,1,681.81,610.82Zm-138.57-.36h0a7.31,7.31,0,0,1-2.08-.29,7.63,7.63,0,0,1-5.29-9.43,7.67,7.67,0,0,1,7.36-5.58,7.78,7.78,0,0,1,2.08.28,7.65,7.65,0,0,1-2.07,15Zm123.39-41a7.67,7.67,0,0,1-7-4.61c-3.05-7-6.34-14.21-9.51-21.18-3.6-7.88-7.33-16-10.83-24.2a7.66,7.66,0,0,1,4-10.05,7.5,7.5,0,0,1,3-.63,7.66,7.66,0,0,1,7,4.64c3.38,7.87,7,15.9,10.59,23.67,3.24,7.08,6.58,14.4,9.73,21.65a7.67,7.67,0,0,1-7,10.71ZM547.16,535.91a7.66,7.66,0,0,1-7.51-6.25c-2.37-12.73-5.84-25.62-9.19-38.08-.85-3.16-1.73-6.43-2.57-9.62a7.66,7.66,0,0,1,14.81-3.89c.84,3.19,1.69,6.37,2.59,9.73,3.4,12.58,6.9,25.61,9.41,39.05a7.66,7.66,0,0,1-6.12,8.93A8.52,8.52,0,0,1,547.16,535.91Zm69.08-81.09a7.7,7.7,0,0,1-7-4.45h0a7.66,7.66,0,0,1,6.94-10.85,7.68,7.68,0,0,1,6.87,4.27h0l.09.18a7.68,7.68,0,0,1-3.75,10.17A7.52,7.52,0,0,1,616.24,454.82Zm-18.51-40a7.69,7.69,0,0,1-7-4.49c-8.72-19.27-14.42-33.22-19-46.62a7.66,7.66,0,0,1,14.48-5c4.39,12.77,10.09,26.74,18.49,45.28a7.63,7.63,0,0,1-7,10.81ZM565.21,295a7.65,7.65,0,0,1-7.65-7.45v0a7.67,7.67,0,0,1,7.49-7.82,7.65,7.65,0,0,1,7.82,7.48,7.68,7.68,0,0,1-7.49,7.83Zm123.45-7.56v0h-.37a7.65,7.65,0,0,1-7.28-8c.1-2.23.16-4.46.16-6.6a114.29,114.29,0,0,0-1.46-18.56l0-.13h0a7.59,7.59,0,0,1,1.34-5.58,7.73,7.73,0,0,1,5-3.1,9.15,9.15,0,0,1,1.27-.09,7.6,7.6,0,0,1,7.54,6.39,128,128,0,0,1,1.66,21.07c0,2.41-.06,4.87-.17,7.32A7.64,7.64,0,0,1,688.66,287.39ZM570.74,251.47a7.51,7.51,0,0,1-2.48-.42,7.65,7.65,0,0,1-4.76-9.71A87.49,87.49,0,0,1,577,215.94a73.14,73.14,0,0,1,19.14-17.39,7.66,7.66,0,0,1,8.09,13C592.33,219,583.24,231,578,246.3l-.08.26v0A7.67,7.67,0,0,1,570.74,251.47Zm98.49-30.37a7.67,7.67,0,0,1-5.61-2.44l-.07-.08h0a7.65,7.65,0,0,1,5.67-12.79,7.66,7.66,0,0,1,5.59,2.44h0a7.65,7.65,0,0,1-5.6,12.86Z"/></g><path class="cls-1" d="M630.31,467.55h0a7.37,7.37,0,0,0-7.38-7.37l-240.59.67a7.36,7.36,0,0,0-7.35,7.38v0h0v154.7h0a7.36,7.36,0,0,0,7.35,7.39l240.59.67h0a7.36,7.36,0,0,0,7.35-7.36h0Z"/><g class="cls-17"><path class="cls-4" d="M665.23,647.38l-1.53-.82L625.27,440H589.55l38.58,207.41Z"/><path class="cls-4" d="M665.23,647.38l-1.53-.82L625.27,440H589.55l38.58,207.41Z"/></g><path class="cls-11" d="M424.84,545.27h.22l.11.1c0,.12-.07.23-.1.34h-.23Z"/><path class="cls-11" d="M425.39,551.65c-.07-.08-.3-.11-.18-.26s.25,0,.33.1A.75.75,0,0,1,425.39,551.65Z"/><rect class="cls-1" x="521.62" y="630.33" width="29.05" height="14.6"/><g class="cls-18"><rect class="cls-4" x="521.62" y="630.33" width="20.08" height="14.6"/></g><rect class="cls-4" x="518.18" y="642.79" width="35.94" height="6.1" rx="2.75"/><g class="cls-19"><path class="cls-1" d="M559.61,648.88H532.48a3,3,0,0,1,0-6.09h27.13Z"/></g><rect class="cls-5" x="673.8" y="248.89" width="29.05" height="13.91"/><g class="cls-20"><rect class="cls-6" x="673.8" y="248.89" width="20.08" height="14.6"/></g><rect class="cls-6" x="670.35" y="244.94" width="35.94" height="6.1" rx="2.75"/><g class="cls-21"><path class="cls-5" d="M711.79,244.94H684.66a3.05,3.05,0,1,0,0,6.1h27.13Z"/></g><path class="cls-1" d="M613.67,460.18s13.49,31.43,17.86,40.8,7.07-5,7.07-5l-8.1-33.31-2.7-2.7Z"/><path class="cls-13" d="M780.24,221.28a1.35,1.35,0,0,0,0-2.7,1.35,1.35,0,0,0,0,2.7Z"/><path class="cls-22" d="M817.87,342.8V273.46h0v0a7.3,7.3,0,0,0-7.25-7.36l-100.25.66"/><line class="cls-23" x1="707.91" y1="272.18" x2="684.15" y2="294.93"/><line class="cls-23" x1="710.31" y1="288.89" x2="682.88" y2="260.24"/></g><g id="Layer_22" data-name="Layer 22"><path class="cls-4" d="M137.93,487.33V389.42h0a6.36,6.36,0,0,0-6.37-6.35l-109.64.23a6.37,6.37,0,0,0-6.35,6.37v0h0V516.61h0A6.37,6.37,0,0,0,21.92,523l109.64.23a6.36,6.36,0,0,0,6.37-6.35h0V495.29h0Z"/><path class="cls-4" d="M326.12,533.33V435.42h0a6.36,6.36,0,0,0-6.36-6.35l-109.65.23a6.35,6.35,0,0,0-6.34,6.37v0h0V562.61h0a6.35,6.35,0,0,0,6.34,6.37l109.65.23a6.36,6.36,0,0,0,6.36-6.35h0V541.29h0Z"/><path class="cls-4" d="M512.07,579.78V481.87h0a6.36,6.36,0,0,0-6.36-6.35l-109.65.23a6.35,6.35,0,0,0-6.34,6.37v0h0V609.06h0a6.35,6.35,0,0,0,6.34,6.37l109.65.23a6.36,6.36,0,0,0,6.36-6.35h0V587.74h0Z"/></g></g></svg>