<svg xmlns="http://www.w3.org/2000/svg" xmlns:xlink="http://www.w3.org/1999/xlink" width="512" height="512" viewBox="0 0 512 512"><defs><clipPath id="ee9a961b-b737-4642-91fb-9b442ba0f3b8"><path d="M345.15,22.9H150a19.48,19.48,0,0,0-19.35,19.61v411.1a11.81,11.81,0,0,0,11.73,11.89H352.77a11.81,11.81,0,0,0,11.73-11.89V42.51A19.48,19.48,0,0,0,345.15,22.9Z" style="fill:#fff"/></clipPath></defs><title> onboarding_airgap_wallet</title><g id="ab9b6ae2-a342-4014-b456-eadcc9605c5d" data-name="1"><path d="M361.23,31.37H162.43a24.14,24.14,0,0,0-24.14,24.14V476.78A19.21,19.21,0,0,0,157.51,496H366.15a24,24,0,0,0,24-24V60.26A28.89,28.89,0,0,0,361.23,31.37Z" style="opacity:0.06"/><path d="M344.82,16H146a24.14,24.14,0,0,0-24.15,24.14V461.41a19.22,19.22,0,0,0,19.22,19.22H349.74a24,24,0,0,0,24-24V44.89A28.89,28.89,0,0,0,344.82,16Z" style="fill:#fff"/><path d="M344.82,16H146a24.14,24.14,0,0,0-24.15,24.14V461.41a19.22,19.22,0,0,0,19.22,19.22H349.74a24,24,0,0,0,24-24V44.89A28.89,28.89,0,0,0,344.82,16Z" style="fill:none;stroke:#50239f;stroke-miterlimit:10;stroke-width:2.89846974980194px"/><path d="M345.15,22.9H150a19.48,19.48,0,0,0-19.35,19.61v411.1a11.81,11.81,0,0,0,11.73,11.89H352.77a11.81,11.81,0,0,0,11.73-11.89V42.51A19.48,19.48,0,0,0,345.15,22.9Z" style="fill:#fff"/><g style="clip-path:url(#ee9a961b-b737-4642-91fb-9b442ba0f3b8)"><rect x="111.96" y="247.29" width="285.71" height="228.24" style="fill:#00e8cc"/><rect x="111.96" y="-3.1" width="285.71" height="240.69" style="fill:#00e8cc"/></g><path d="M167.5,21.88h160a0,0,0,0,1,0,0v4.25a11,11,0,0,1-11,11h-138a11,11,0,0,1-11-11V21.88A0,0,0,0,1,167.5,21.88Z" style="fill:#fff"/><line x1="197.96" y1="453.47" x2="300.14" y2="453.47" style="fill:#00e8cc;stroke:#fff;stroke-linecap:round;stroke-linejoin:round;stroke-width:2.92196398550093px"/><path d="M167.6,131.68a35.59,35.59,0,1,1,35.58,35.59,35.59,35.59,0,0,1-35.58-35.59" style="fill:none;stroke:#fff;stroke-linecap:round;stroke-linejoin:round;stroke-width:2.06145098369522px"/><polygon points="188.42 109.18 188.42 118.93 198.17 118.93 198.17 128.62 207.92 128.62 207.92 118.93 217.67 118.93 217.67 109.18 188.42 109.18" style="fill:#fff"/><polygon points="178.67 138.33 188.42 138.33 188.42 157.49 198.17 157.49 198.17 128.63 188.42 128.63 188.42 118.93 178.67 118.93 178.67 138.33" style="fill:#fff"/><polygon points="217.67 118.93 217.67 128.63 207.92 128.63 207.92 157.49 217.67 157.49 217.67 138.33 227.42 138.33 227.42 118.93 217.67 118.93" style="fill:#fff"/><rect x="188.42" y="128.63" width="29.25" height="19.16" style="fill:#fff"/><line x1="259" y1="109.18" x2="325.96" y2="109.18" style="fill:none;stroke:#fff;stroke-linecap:round;stroke-linejoin:round;stroke-width:2.06145098369522px"/><line x1="259" y1="122.7" x2="325.96" y2="122.7" style="fill:none;stroke:#fff;stroke-linecap:round;stroke-linejoin:round;stroke-width:2.06145098369522px"/><line x1="259" y1="136.22" x2="292.48" y2="136.22" style="fill:none;stroke:#fff;stroke-linecap:round;stroke-linejoin:round;stroke-width:2.06145098369522px"/><line x1="261.97" y1="469.45" x2="233.93" y2="469.45" style="fill:none;stroke:#fff;stroke-miterlimit:10;stroke-width:1.02251571729124px"/><rect x="197.55" y="302.93" width="103.63" height="103.63" rx="51.82" style="fill:#fff"/><polyline points="219.94 358.34 232.07 377.12 278.8 332.38" style="fill:none;stroke:#00e8cc;stroke-linecap:round;stroke-linejoin:round;stroke-width:7.99760178597102px"/></g></svg>