<?xml version="1.0" encoding="UTF-8"?><svg id="f" xmlns="http://www.w3.org/2000/svg" width="785.4545" height="600" viewBox="0 0 785.4545 600"><defs><style>.h,.i,.j{stroke-width:6.0273px;}.h,.i,.j,.k,.l,.m,.n{fill:none;stroke-linecap:round;stroke-miterlimit:10;}.h,.k{stroke:#d2d2d2;}.i{stroke:#723bbb;}.j{stroke:#0aae95;}.k{stroke-width:3.6643px;}.l{stroke-width:19px;}.l,.n{stroke:#fff;}.m{stroke:#000;stroke-width:5px;}.o{fill:#474747;}.o,.p{stroke-width:0px;}.p{fill:#fff;}.n{stroke-width:23.9991px;}</style></defs><rect class="p" x="233.8873" y="85.2423" width="197.1911" height="353.304" rx="29.8265" ry="29.8265" transform="translate(-24.9245 35.1931) rotate(-5.8406)"/><rect class="l" x="233.8873" y="85.2423" width="197.1911" height="353.304" rx="29.8265" ry="29.8265" transform="translate(-24.9245 35.1931) rotate(-5.8406)"/><rect class="m" x="233.8873" y="85.2423" width="197.1911" height="353.304" rx="29.8265" ry="29.8265" transform="translate(-24.9245 35.1931) rotate(-5.8406)"/><rect class="p" x="300.8616" y="249.5777" width="353.304" height="197.1911" rx="29.8265" ry="29.8265" transform="translate(60.7913 767.2036) rotate(-81.2554)"/><rect class="l" x="300.8616" y="249.5777" width="353.304" height="197.1911" rx="29.8265" ry="29.8265" transform="translate(60.7913 767.2036) rotate(-81.2554)"/><rect class="m" x="300.8616" y="249.5777" width="353.304" height="197.1911" rx="29.8265" ry="29.8265" transform="translate(60.7913 767.2036) rotate(-81.2554)"/><rect class="p" x="329.0388" y="247.789" width="117.5206" height="117.0505" rx="58.5252" ry="58.5252"/><rect class="n" x="329.0388" y="247.789" width="117.5206" height="117.0505" rx="58.5252" ry="58.5252"/><rect class="k" x="329.0388" y="247.789" width="117.5206" height="117.0505" rx="58.5252" ry="58.5252"/><path class="h" d="m329.5038,182.2493l-.0003-.0027,25.4083,6.6985c.5421,3.8237,2.5857,11.5995,3.4644,19.6829.2643,2.4256.4239,4.8787.4068,7.2609-.0171,2.3823-.2107,4.695-.6531,6.8378,0,0-2.7741,17.5747-20.5136,26.7592"/><path class="i" d="m328.334,250.5606l.0007.0054c-19.3317-4.7367-26.1818-21.0855-26.1818-21.0855-.9394-1.9761-1.6776-4.1763-2.2596-6.4864-.5832-2.3098-1.0116-4.7305-1.3318-7.1493-1.0691-8.0604-.9347-16.099-1.3166-19.942l22.9904-12.4744.0002.0015,1.5488,12.8787c.3328,2.7584,2.9198,5.3967,5.6782,5.0638l4.797-.5788c4.0935-.4939,7.8123,2.4241,8.3062,6.5176h0c.4939,4.0935-2.4241,7.8123-6.5176,8.3062l-10.3024,1.243c-4.0935.4939-7.0115,4.2127-6.5176,8.3062h0c.4939,4.0935,4.2127,7.0115,8.3062,6.5176l4.797-.5788c2.7584-.3328,5.2643,1.6335,5.5972,4.3919l1.6878,13.9886.002-.001"/><path class="h" d="m496.108,290.1805l.0004-.0027,23.0061,12.9086c-.4361,3.8525-.4082,11.9241-1.5899,20.0012-.354,2.4239-.8167,4.8481-1.4331,7.159-.6165,2.311-1.3871,4.5098-2.3568,6.4809,0,0-7.1219,16.3814-26.675,20.84"/><path class="j" d="m477.7681,356.2743l-.0007.0054c-17.5947-9.4717-20.1347-27.0854-20.1347-27.0854-.4153-2.157-.5786-4.4812-.5625-6.8728.0149-2.3917.2082-4.8521.5061-7.2835.9909-8.1028,3.1459-15.8812,3.7426-19.7122l25.4847-6.3336-.0063.0472-1.7319,12.8604c-.3712,2.7646,1.4786,5.98,4.2432,6.3513l4.8077.6456c4.1026.5509,6.9819,4.3233,6.431,8.4259h0c-.5509,4.1026-4.3233,6.9819-8.4259,6.431l-10.3254-1.3864c-4.1026-.5509-7.875,2.3284-8.4259,6.431h0c-.5509,4.1026,2.3284,7.875,6.431,8.4259l4.8077.6456c2.7646.3712,4.7048,2.9133,4.3336,5.6778l-1.8825,14.0198.0022-.0005"/><g id="g"><path class="o" d="m390.3493,319.3667l.0281-4.943c.0008-.1365.1121-.2465.2486-.2458l15.1331.0862c.1365.0008.2478-.1093.2486-.2458l.0285-5.0043-.0256.0236,5.2334.0298-.0254-.0239-.0282,4.9503c-.0008.1365.1093.2478.2458.2486l9.8873.0563c.1365.0008.2465.1121.2458.2486l-.1453,25.5278c-.0008.1365-.1121.2465-.2486.2458l-25.4749-.145c-.1365-.0008-.2465-.1121-.2458-.2486l.056-9.8372c.0008-.1365-.1093-.2478-.2458-.2486l-4.7279-.0269c-.1365-.0008-.2465-.1121-.2458-.2486l.0285-5.0133-.0256.0236,4.9131.028c.1365.0008.2478-.1093.2486-.2458l.027-4.739c.0008-.1365-.1093-.2478-.2458-.2486l-4.9131-.028.0254.0239Zm10.4648.3337l-.0855,15.0255c-.0008.1365.1093.2478.2458.2486l15.0256.0855c.1365.0008.2478-.1093.2486-.2458l.0855-15.0255c.0008-.1365-.1093-.2478-.2458-.2486l-15.0256-.0855c-.1365-.0008-.2478.1093-.2486.2458Z"/><path class="o" d="m374.6655,324.4634l-.0282,4.9528c-.0008.1365-.1121.2465-.2486.2458l-4.6535-.0265c-.1365-.0008-.2478.1093-.2486.2458l-.0266,4.667c-.0008.1365.1093.2478.2458.2486l9.8502.0561c.1365.0008.2478-.1093.2486-.2458l.0262-4.5958c.0008-.1365.1121-.2465.2486-.2458l4.6928.0267c.1365.0008.2465.1121.2458.2486l-.0264,4.6364c-.0008.1365.1093.2478.2458.2486l4.7112.0268c.1365.0008.2465.1121.2458.2486l-.0268,4.7013c-.0008.1365-.1121.2465-.2486.2458l-25.4586-.1449c-.1365-.0008-.2465-.1121-.2458-.2486l.0267-4.6884c.0008-.1365-.1093-.2478-.2458-.2486l-5.0136-.0285.0245.0248c.0096-1.7435.0192-3.4869.0288-5.2304l-.0256.0236,4.9142.028c.1365.0008.2478-.1093.2486-.2458l.0566-9.9482c.0008-.1365-.1093-.2478-.2458-.2486l-4.9142-.028.0254.0239.0282-4.9499c.0008-.1365.1121-.2465.2486-.2458l4.6516.0265c.1365.0008.2478-.1093.2486-.2458l.0267-4.6866c.0008-.1365-.1093-.2478-.2458-.2486l-9.8092-.0558c-.1365-.0008-.2465-.1121-.2458-.2486l.0268-4.7107c.0008-.1365.1121-.2465.2486-.2458l25.4731.145c.1365.0008.2465.1121.2458.2486l-.028,4.9176.0256-.0236-10.1245-.0576c-.1365-.0008-.2478.1093-.2486.2458l-.0863,15.1574c-.0008.1365.1093.2478.2458.2486l4.9154.028-.0254-.0239Z"/><path class="o" d="m385.3498,277.6423c-.0102,1.743-.0204,3.4859-.0306,5.2289l.0248-.0245-4.9492-.0282c-.1365-.0008-.2478.1093-.2486.2458l-.086,15.0976c-.0008.1365-.1121.2465-.2486.2458l-25.5279-.1453c-.1365-.0008-.2465-.1121-.2458-.2486l.145-25.4602c.0008-.1365.1121-.2465.2486-.2458l25.4644.145c.1365.0008.2465.1121.2458.2486l-.0267,4.6886c-.0008.1365.1093.2478.2458.2486l5.0136.0285-.0245-.0248Zm-25.8349,15.4285l15.0254.0855c.1365.0008.2478-.1093.2486-.2458l.0855-15.0247c.0008-.1365-.1093-.2478-.2458-.2486l-15.0254-.0855c-.1365-.0008-.2478.1093-.2486.2458l-.0855,15.0247c-.0008.1365.1093.2478.2458.2486Z"/><path class="o" d="m406.0658,303.8281l.0282-4.9516c.0008-.1365-.1093-.2478-.2458-.2486l-9.8882-.0563c-.1365-.0008-.2465-.1121-.2458-.2486l.1453-25.5291c.0008-.1365.1121-.2465.2486-.2458l25.4316.1448c.1365.0008.2465.1121.2458.2486l-.145,25.4678c-.0008.1365-.1121.2465-.2486.2458l-9.8666-.0562c-.1365-.0008-.2478.1093-.2486.2458l-.0285,5.0129.0256-.0236-5.2334-.0298.0254.0239Zm-5.0136-25.802l-.0855,15.0255c-.0008.1365.1093.2478.2458.2486l15.024.0855c.1365.0008.2478-.1093.2486-.2458l.0855-15.0255c.0008-.1365-.1093-.2478-.2458-.2486l-15.024-.0855c-.1365-.0008-.2478.1093-.2486.2458Z"/><path class="o" d="m406.0362,309.0139c-6.567-.0335-13.134-.0673-19.701-.0998-.3759-.0019-.7518.0066-1.1287.0092-.001-.0009.0275.0243.0275.0243l.0579-10.1706c.0008-.1365.1121-.2465.2486-.2458l4.636.0264c.1365.0008.2465.1121.2458.2486l-.0267,4.6854c-.0008.1365.1102.2478.2467.2486,5.2005.0296,10.312.0587,15.4234.0878l-.0254-.0239c-.0099,1.7445-.0199,3.4889-.0298,5.2334l.0256-.0236Z"/><path class="o" d="m385.3192,282.8712l4.9158.028c.1365.0008.2465.1121.2458.2486l-.0561,9.8559c-.0008.1365-.1121.2465-.2486.2458l-4.6439-.0264c-.1365-.0008-.2465-.1123-.2458-.2489.0193-3.3819.0385-6.7546.0576-10.1274,0,0-.0248.0244-.0248.0244Z"/><path class="o" d="m411.2481,303.8576l10.1225.0576c.1365.0008.2465.1121.2458.2486l-.0267,4.6915c-.0008.1365-.1121.2465-.2486.2458l-10.1225-.0576.0254.0239c.0099-1.7445.0199-3.4889.0298-5.2334l-.0256.0236Z"/><path class="o" d="m379.934,314.0747l-.0579,10.1712c-.0008.1365-.1134.2465-.2499.2458-1.6756-.0095-3.3181-.0189-4.9606-.0282l.0254.0239.0579-10.1712c.0008-.1365.1121-.2465.2486-.2458l4.962.0283-.0254-.0239Z"/><path class="o" d="m359.0352,329.5838l-4.9153-.028c-.1365-.0008-.2465-.1121-.2458-.2486l.0564-9.9007c.0008-.1365.1121-.2465.2486-.2458l4.9153.028-.0254-.0239-.0595,10.4426.0256-.0236Z"/><path class="o" d="m385.3743,277.667l.028-4.9139c.0008-.1365.1121-.2465.2486-.2458l4.6467.0265c.1365.0008.2465.1121.2458.2486l-.0264,4.642c-.0008.1365-.1125.2465-.249.2458-1.6422-.0093-3.2801-.0187-4.918-.028,0,0,.0244.0248.0244.0248Z"/><path class="o" d="m379.9635,308.8889c1.7561.019,3.5123.038,5.2695.0579.0011.0009-.0275-.0244-.0265-.0234-.0082,1.6178-.0174,3.2347-.0271,4.9316-.0008.1365-.1142.2489-.2507.2481-1.7137-.0098-3.3542-.0191-4.9947-.0284l.0254.0239.0298-5.2334-.0256.0236Z"/><path class="o" d="m390.3198,324.5525l-4.9142-.028c-.1365-.0008-.2465-.1121-.2458-.2486l.0267-4.6915c.0008-.1365.1121-.2465.2486-.2458l4.9142.028s-.0254-.0239-.0254-.0239c-.0099,1.7445-.0199,3.4889-.0298,5.2334l.0256-.0236Z"/><path class="o" d="m358.9819,334.7894l-.028,4.9139c-.0008.1365-.1121.2465-.2486.2458l-4.6468-.0265c-.1365-.0008-.2465-.1121-.2458-.2486l.0264-4.642c.0008-.1365.1125-.2465.249-.2458,1.6423.0093,3.2802.0187,4.9181.028,0,0-.0244-.0248-.0244-.0248Z"/><rect class="o" x="405.9805" y="324.7065" width="5.1016" height="5.1056" rx=".2472" ry=".2472" transform="translate(78.9515 733.9207) rotate(-89.6738)"/><rect class="o" x="364.5361" y="282.8182" width="5.118" height="5.1024" rx=".2472" ry=".2472" transform="translate(79.6402 650.8339) rotate(-89.6738)"/><rect class="o" x="406.2247" y="283.056" width="5.1022" height="5.1016" rx=".2472" ry=".2472" transform="translate(120.8464 692.7499) rotate(-89.6738)"/></g></svg>