<?xml version="1.0" encoding="UTF-8"?><svg id="c" xmlns="http://www.w3.org/2000/svg" width="785.4545" height="600" viewBox="0 0 785.4545 600"><defs><style>.g{stroke:#d2d2d2;}.g,.h,.i,.j,.k,.l{fill:none;stroke-linecap:round;stroke-miterlimit:10;}.g,.h,.j{stroke-width:6.0273px;}.h,.i{stroke:#723bbb;}.i{stroke-width:3.3173px;}.j{stroke:#0aae95;}.k{stroke:#fff;stroke-width:19px;}.l{stroke:#000;stroke-width:5px;}.m{fill:#723bbb;}.m,.n{stroke-width:0px;}.n{fill:#fff;}</style></defs><rect class="n" x="216.7286" y="203.2172" width="364.8048" height="193.5656" rx="29.0498" ry="29.0498" transform="translate(46.8014 653.7929) rotate(-82.0485)"/><rect class="n" x="216.7286" y="203.2172" width="364.8048" height="193.5656" rx="29.0498" ry="29.0498" transform="translate(46.8014 653.7929) rotate(-82.0485)"/><rect class="k" x="216.7286" y="203.2172" width="364.8048" height="193.5656" rx="29.0498" ry="29.0498" transform="translate(46.8014 653.7929) rotate(-82.0485)"/><rect class="l" x="216.7286" y="203.2172" width="364.8048" height="193.5656" rx="29.0498" ry="29.0498" transform="translate(46.8014 653.7929) rotate(-82.0485)"/><path class="g" d="m368.206,222.8053l.0004-.0027,22.5884,12.7397c-.4371,3.7863-.4272,11.7212-1.6063,19.6589-.3533,2.382-.8133,4.7642-1.4244,7.0346-.6111,2.2705-1.3734,4.4304-2.3309,6.3659,0,0-7.0367,16.0884-26.2683,20.4291"/><path class="j" d="m350.0336,287.7395l-.0007.0053c-17.2761-9.3494-19.7349-26.6701-19.7349-26.6701-.4036-2.1214-.5591-4.4066-.5381-6.7576.0198-2.3511.2152-4.7694.5133-7.159.9916-7.9633,3.127-15.6054,3.7219-19.3701l25.0666-6.171-.0002.0014-1.7366,12.6837c-.3709,2.7169,1.4406,5.8819,4.1575,6.2529l4.7249.645c4.0319.5504,6.8542,4.2652,6.3038,8.2971h0c-.5504,4.0319-4.2652,6.8542-8.2971,6.3038l-10.1475-1.3853c-4.0319-.5504-7.7467,2.2719-8.2971,6.3038h0c-.5504,4.0319,2.2719,7.7467,6.3038,8.2971l4.7249.645c2.7169.3709,4.6188,2.8741,4.2478,5.591l-1.881,13.7782.0021-.0005"/><path class="g" d="m429.0867,393.093l-.0007.0053c-17.2761-9.3494-19.7349-26.6701-19.7349-26.6701-.4036-2.1214-.5591-4.4066-.5381-6.7576.0198-2.3511.2152-4.7694.5133-7.159.9916-7.9633,3.127-15.6053,3.7219-19.3701l25.0666-6.171-.0002.0014"/><path class="h" d="m447.2591,328.1587l.0004-.0027,22.5884,12.7397c-.4371,3.7863-.4272,11.7212-1.6063,19.6589-.3533,2.382-.8133,4.7642-1.4244,7.0346-.6111,2.2705-1.3734,4.4304-2.3309,6.3659,0,0-7.0367,16.0884-26.2683,20.4291l1.881-13.7782c.3709-2.7169-1.5309-5.2201-4.2478-5.591l-4.7249-.645c-4.0319-.5504-6.8542-4.2652-6.3038-8.2971h0c.5504-4.0319,4.2652-6.8542,8.2971-6.3038l10.1475,1.3853c4.0319.5504,7.7466-2.2719,8.2971-6.3038h0c.5504-4.0319-2.2719-7.7467-6.3038-8.2971l-4.7249-.645c-2.7169-.3709-4.6188-2.8741-4.2478-5.591l1.8218-13.3446-.0195.0086"/><path class="i" d="m414.9894,255.097c4.0303.0312,8.1243.7305,12.1328,2.1685,14.8452,5.3254,24.1548,19.2141,24.3606,34.1069"/><polygon class="m" points="442.4626 287.4395 449.3161 304.2909 460.4851 289.9305 442.4626 287.4395"/><path class="i" d="m382.2614,364.4005c-4.0303-.0312-8.1243-.7305-12.1328-2.1685-14.8452-5.3254-24.1545-19.2141-24.3606-34.1069"/><polygon class="m" points="354.7883 332.058 347.935 315.2066 336.7658 329.567 354.7883 332.058"/></svg>