<svg id="bf741576-3c5a-408a-b6af-4c5802cd5f2f" data-name="Layer 1" xmlns="http://www.w3.org/2000/svg" width="1024" height="1024" viewBox="0 0 1024 1024"><title>babylon-migration</title><path d="M529.16,256.37,183,749.88c-.22.31-.44.63-.63,1a24.38,24.38,0,0,0,21,36.77H894.88a24.39,24.39,0,0,0,20.43-37.7L569.94,256.39A24.89,24.89,0,0,0,529.16,256.37Z" style="fill:#50239f;opacity:0.12"/><path d="M454.91,202.51,108.74,696a10.75,10.75,0,0,0-.63,1,24.38,24.38,0,0,0,21,36.77H820.63a24.39,24.39,0,0,0,20.43-37.71L495.7,202.53A24.9,24.9,0,0,0,454.91,202.51Z" style="fill:#50239f"/><rect x="447.37" y="595.46" width="57.32" height="57.32" rx="28.66" style="fill:#00e8cc"/><path d="M468.3,563.92,418.54,385.36a14.57,14.57,0,0,1,14-18.48h85.49a14.57,14.57,0,0,1,14,18.48L482.34,563.92A7.29,7.29,0,0,1,468.3,563.92Z" style="fill:#00e8cc"/><g style="opacity:0.4"><path d="M840.87,694.62,532.64,255.1,194.31,734l626.13-1.68A24.38,24.38,0,0,0,840.87,694.62Z" style="fill:#fff;opacity:0.16"/></g></svg>