<svg id="f63e95a9-fd19-4487-bc1a-09eb2f066704" data-name="Guides" xmlns="http://www.w3.org/2000/svg" width="65" height="65" viewBox="0 0 65 65"><title> beacon_logo</title><path d="M59.66,29.52v1.06c0,.37-.18,9.07-4.11,15.88S44.16,57.75,43.84,57.93l-.91.54-1.61-.93-9.19-5.3a14.68,14.68,0,0,1-1.63-1.06h0a14.09,14.09,0,0,1-1.29-1,17.63,17.63,0,0,1-2.56-2.7,18.58,18.58,0,0,1-2.56-4.51,21.53,21.53,0,0,1-1.5-9,6.21,6.21,0,0,1,2.93-.73c.25,0,.49,0,.74,0a18.29,18.29,0,0,0,1,7.93,15.06,15.06,0,0,0,6.67,8l8.93,5.16c.2-.13.43-.3.68-.48,2.26-1.6,6.42-4.92,8.86-9.13C55.12,39.94,55.8,34,56,31.57l-3.79-2.19a23,23,0,0,0,.6-3.83Z" style="fill:#3880ff"/><path d="M49.22,11.43V23.89c0,.65,0,1.3-.1,1.94v0c-.06.55-.13,1.1-.24,1.63A18,18,0,0,1,47.82,31a19.11,19.11,0,0,1-2.62,4.49,21.37,21.37,0,0,1-7.07,5.8,6.08,6.08,0,0,1-2.42-2.84A18.1,18.1,0,0,0,42,33.7h0a15.12,15.12,0,0,0,3.58-9.81V13.6c-.21-.11-.47-.21-.74-.35-2.52-1.16-7.47-3.1-12.36-3.1-5.42,0-11,2.4-13.08,3.45V18a22.54,22.54,0,0,0-3.63,1.38V11.43l.92-.52c.33-.18,8-4.38,15.79-4.38s15.48,4.2,15.8,4.38Z" style="fill:#3880ff"/><path d="M18,26.4,9,31.55q0,.35.06.78a31.63,31.63,0,0,0,3.49,12.28c2.71,4.71,7.55,8.3,9.53,9.64l3.79-2.19a23.33,23.33,0,0,0,3,2.44l-6.88,4-.92-.54c-.31-.18-7.75-4.69-11.68-11.5S5.36,30.92,5.35,30.56V29.49L7,28.55l9.17-5.29c.57-.32,1.14-.61,1.72-.87a13.46,13.46,0,0,1,1.55-.61A17.52,17.52,0,0,1,23,20.91a19.2,19.2,0,0,1,5.19,0,21.49,21.49,0,0,1,8.55,3.24,6.29,6.29,0,0,1-1.25,3.51,17.9,17.9,0,0,0-7.3-3.06A15.14,15.14,0,0,0,18,26.4Z" style="fill:#3880ff"/></svg>