<svg id="ebfc3150-b7f2-4077-906d-aaad1da40d4b" data-name="Layer 1" xmlns="http://www.w3.org/2000/svg" xmlns:xlink="http://www.w3.org/1999/xlink" width="248" height="96" viewBox="0 0 248 96"><defs><clipPath id="aa7b0ca9-71e2-4b7b-983d-dcf2b97b7dc2"><rect y="-251.03" width="50.02" height="50.02" style="fill:none"/></clipPath><linearGradient id="bd25ff2d-7fb4-4bec-be04-ecf639b372c7" x1="-1774.26" y1="-142.72" x2="-1768.48" y2="-142.72" gradientTransform="translate(-1727.84 -62.3) rotate(180)" gradientUnits="userSpaceOnUse"><stop offset="0" stop-opacity="0"/><stop offset="1" stop-opacity="0.25"/></linearGradient><linearGradient id="fb21db29-1e7c-45d1-a11c-a52578bb777b" x1="-1543.74" y1="-417.29" x2="-1536.15" y2="-417.29" gradientTransform="translate(1560.5 497.7)" xlink:href="#bd25ff2d-7fb4-4bec-be04-ecf639b372c7"/><linearGradient id="a28bc390-b488-46cd-bdd8-31086f59f28c" x1="-1793.29" y1="-142.72" x2="-1783.97" y2="-142.72" xlink:href="#bd25ff2d-7fb4-4bec-be04-ecf639b372c7"/><linearGradient id="b6bfd292-bd48-495a-8ada-2918234e4fa9" x1="-1526.3" y1="-417.29" x2="-1519.85" y2="-417.29" gradientTransform="translate(1560.5 497.7)" xlink:href="#bd25ff2d-7fb4-4bec-be04-ecf639b372c7"/><linearGradient id="f5cc797e-2bc1-46a5-9760-91147b1952dd" x1="-1323.59" y1="-266.99" x2="-1314.28" y2="-266.99" gradientTransform="translate(296.25 -1293.79) rotate(-90)" xlink:href="#bd25ff2d-7fb4-4bec-be04-ecf639b372c7"/><linearGradient id="b7a344f2-1751-4c90-9cd5-2379a745937f" x1="-635.55" y1="-467.01" x2="-627.92" y2="-467.01" gradientTransform="translate(-437.75 638.55) rotate(90)" xlink:href="#bd25ff2d-7fb4-4bec-be04-ecf639b372c7"/><linearGradient id="b2ff378f-1ac7-4ea9-9d80-1a12eea79531" x1="-1323.59" y1="-245.04" x2="-1314.28" y2="-245.04" gradientTransform="translate(296.25 -1293.79) rotate(-90)" xlink:href="#bd25ff2d-7fb4-4bec-be04-ecf639b372c7"/><linearGradient id="b81fbaae-3786-4c57-8398-d887e9a8bca4" x1="-635.55" y1="-488.96" x2="-627.92" y2="-488.96" gradientTransform="translate(-437.75 638.55) rotate(90)" xlink:href="#bd25ff2d-7fb4-4bec-be04-ecf639b372c7"/></defs><g id="b194285a-2286-420b-aafc-d7553c3e87c1" data-name="drawer-letters"><g id="a35db31f-dc1f-40e7-8c6e-62438213e5d5" data-name="drawer-logo-letters-1"><path d="M185.91,68.91c0-1.52,2-2,4.19-2a16.52,16.52,0,0,1,7.33,1.72v-3.8a19.49,19.49,0,0,0-7.33-1.44c-4.93,0-8.67,1.44-8.67,5.81,0,3,2.4,4.75,7.51,5.7,2.67.5,5.14.85,5.14,2.68s-1.9,2.29-4.19,2.29A20.46,20.46,0,0,1,182,78.14v3.8a21.39,21.39,0,0,0,7.71,1.44c4.58,0,8.95-1.44,8.95-6.2,0-6.65-12.75-4.47-12.75-8.27" style="fill:#101820"/><path d="M166.6,68.91c0-1.52,2-2,4.2-2a16.51,16.51,0,0,1,7.32,1.72v-3.8a19.39,19.39,0,0,0-7.32-1.44c-4.94,0-8.67,1.44-8.67,5.81,0,3,2.4,4.75,7.5,5.7,2.68.5,5.15.85,5.15,2.68s-1.91,2.29-4.19,2.29a20.47,20.47,0,0,1-7.9-1.72v3.8a21.48,21.48,0,0,0,7.72,1.44c4.58,0,9-1.44,9-6.2,0-6.65-12.76-4.47-12.76-8.27" style="fill:#101820"/><path d="M211.31,63.41c-5.71,0-10.57,4-10.57,9.9,0,6.09,4.58,10.07,11.13,10.07a17.87,17.87,0,0,0,7.71-1.44v-3.7a14.46,14.46,0,0,1-6.87,1.62c-3.52,0-7.22-1.8-7.5-4.93h15.5c.07-.78.11-1.52.11-2.29,0-5.14-3.42-9.23-9.51-9.23m-6.06,8.28a6,6,0,0,1,6.09-5,5.21,5.21,0,0,1,5.32,5Z" style="fill:#101820"/><path d="M155.76,54.36a2.7,2.7,0,0,0-2.86,2.57,2.9,2.9,0,0,0,5.71,0,2.69,2.69,0,0,0-2.85-2.57" style="fill:#101820"/><path d="M144,76.44A7.74,7.74,0,0,1,138.14,80c-3,0-4.08-1.45-4.08-5.71V63.9h-4.3V75.21c0,4.58,1.34,8.38,6.76,8.38A9.9,9.9,0,0,0,144,80.85l.28,2.18h3.91V63.9H144Z" style="fill:#101820"/><path d="M117.22,68.17C112,66.83,110,65.81,110,63.31c0-2.08,1.72-3.53,4.86-3.53a18.29,18.29,0,0,1,8.84,2.75V57.85a18.93,18.93,0,0,0-8.84-2.19c-5.6,0-9.69,2.75-9.69,8.1s4,6.48,9.34,7.79S121.27,74,121.27,76c0,2.4-2,3.52-5.25,3.52a19.77,19.77,0,0,1-10.35-3.34v4.86c2.57,1.62,7.22,2.57,10.28,2.57,6,0,10.18-2.18,10.18-8.17-.07-4.33-3.49-5.85-8.91-7.29" style="fill:#101820"/><rect x="153.68" y="63.87" width="4.3" height="19.13" style="fill:#101820"/></g><g id="b3fd5e2b-17ec-4677-a63d-bf88443de513" data-name="drawer-logo-letters-2"><path d="M202.46,16.21a2.61,2.61,0,0,0,2.86-2.4,2.7,2.7,0,0,0-2.86-2.57,2.64,2.64,0,0,0-2.85,2.57c0,1.45,1.23,2.4,2.85,2.4" style="fill:#101820"/><rect x="200.28" y="20.79" width="4.3" height="19.13" style="fill:#101820"/><path d="M220.92,20.3a9.62,9.62,0,0,0-7.22,2.85l-4-2.36V39.92H214V27.45a7.51,7.51,0,0,1,5.7-3.42c3.14,0,4.37,1.13,4.37,5.6V39.92h4.19V28.78c0-5.81-2.78-8.45-7.36-8.48" style="fill:#101820"/><path d="M166.78,40.27a17.7,17.7,0,0,0,6.48-1.13v-3.8a12.65,12.65,0,0,1-6,1.51c-3.34,0-7.22-2.29-7.22-6.48,0-4.47,3.42-6.48,7.22-6.48a11.42,11.42,0,0,1,5.6,1.44V21.42a13.18,13.18,0,0,0-5.31-1.12c-6.87,0-11.91,4.08-11.91,9.89,0,7.05,5.92,10.08,11.13,10.08" style="fill:#101820"/><path d="M185.73,40.27c6.38,0,10.75-4,10.75-10s-4.37-10-10.75-10-10.74,4-10.74,10,4.47,10,10.74,10m0-16.24c3.91,0,6.48,2.39,6.48,6.27s-2.57,6.27-6.48,6.27-6.37-2.4-6.37-6.27S181.82,24,185.73,24" style="fill:#101820"/><path d="M134.16,16.21c1.62,0,2.86-1,2.86-2.4a2.65,2.65,0,0,0-2.86-2.57,2.7,2.7,0,0,0-2.85,2.57,2.61,2.61,0,0,0,2.85,2.4" style="fill:#101820"/><rect x="132.05" y="20.79" width="4.26" height="19.13" style="fill:#101820"/><path d="M121.8,26.11c2.08-1.34,4.08-3.42,4.08-6.27,0-3.81-2.74-6.55-8.77-6.55H106V39.92h11.45c6,0,10-2.58,10-7.72,0-3.24-2.11-5.25-5.63-6.09m-11.73-9.06h6.2c3,0,5,1.34,5,3.81,0,2.68-2.08,4-4.76,4h-6.48Zm7.15,19h-7.15V28.29h6.2c4.58,0,6.55,1.06,6.55,3.7,0,2.4-1.59,4-5.6,4" style="fill:#101820"/><path d="M153.18,36.57a12.19,12.19,0,0,1-2.57.28c-1.51,0-2.67-.56-2.67-2.68V24H153V20.79h-5.07V15.93l-4.27.46v4.4h-3.24V24h3.24V34.77c0,3.81,2.19,5.71,5.53,5.71a13.42,13.42,0,0,0,4-.56V36.57Z" style="fill:#101820"/></g></g><g id="a6fb204f-ed6a-461f-8b08-f48cb8a62c2e" data-name="drawer-bottom-chain"><path id="b82aaaa1-56ae-4922-95f4-844dbc5ee956" data-name="drawer-chain-bottom" d="M29.26,93V59.43H7v21H72.52a10.72,10.72,0,0,0,6.69-10.35,11.32,11.32,0,0,0-6.69-10.64H51.21V93" style="fill:none;stroke:#ce0e2d;stroke-miterlimit:10;stroke-width:9.863013698630136px"/><g id="b99f5e34-b0bc-4cef-a8e8-682410c6a5b6" data-name="drawer-chain-bottom-shadows-1"><polygon id="b588a1d9-6c95-47cc-87db-76efc30d7969" data-name="drawer-chain-bottom-shadows-1-2" points="40.64 75.49 46.42 75.49 46.42 85.36 40.64 85.36 40.64 75.49" style="fill:url(#bd25ff2d-7fb4-4bec-be04-ecf639b372c7)"/><polygon id="b67d2e3f-f996-4bf6-8d27-370d6f62ef0f" data-name="drawer-chain-bottom-shadows-1-1" points="24.33 85.36 16.76 85.36 16.76 75.46 24.33 75.46 24.33 85.36" style="fill:url(#fb21db29-1e7c-45d1-a11c-a52578bb777b)"/></g><g id="a78b888f-c980-4789-92f9-12fb9a618089" data-name="drawer-chain-bottom-shadows-1"><polygon id="f9093d6b-8f67-442f-b3e6-1807aa2e4cad" data-name="drawer-chain-bottom-shadows-1-2" points="56.14 75.49 65.44 75.49 65.44 85.36 56.14 85.36 56.14 75.49" style="fill:url(#a28bc390-b488-46cd-bdd8-31086f59f28c)"/><polygon id="e872a152-3982-45b0-b03a-ec1d50d6af25" data-name="drawer-chain-bottom-shadows-1-1" points="40.64 85.36 34.19 85.36 34.19 75.46 40.64 75.46 40.64 85.36" style="fill:url(#b6bfd292-bd48-495a-8ada-2918234e4fa9)"/></g></g><g id="b774ca98-50a0-427b-b15c-5c6afd8a2499" data-name="drawer-top-chain"><path id="feef59c7-0eca-40f2-9e38-da7143ebae60" data-name="drawer-chain-top" d="M29.26,3V36.57H7v-21H72.52a10.72,10.72,0,0,1,6.69,10.35,11.32,11.32,0,0,1-6.69,10.64H51.21V3" style="fill:none;stroke:#ce0e2d;stroke-miterlimit:10;stroke-width:9.863013698630136px"/><g id="a9e76db6-a14f-421b-bec3-269fb510a8b0" data-name="drawer-path-4-shadows-1"><polygon id="abd10cca-509d-4b51-8242-eb09c5d4f935" data-name="drawer-chain-top-shadows-1-2" points="34.19 20.51 34.19 29.81 24.33 29.81 24.33 20.51 34.19 20.51" style="fill:url(#f5cc797e-2bc1-46a5-9760-91147b1952dd)"/><polygon id="adf75ea2-2b92-4281-ada4-fcd81964b275" data-name="drawer-chain-top-shadows-1-1" points="24.33 10.64 24.33 3 34.19 3 34.19 10.64 24.33 10.64" style="fill:url(#b7a344f2-1751-4c90-9cd5-2379a745937f)"/></g><g id="f3543a16-1bb6-41b7-9aa2-4c6bb5e4f50f" data-name="drawer-chain-top-shadows-1"><polygon id="a837f80c-b385-41e2-8c04-d16b70454708" data-name="drawer-chain-top-shadows-1-2" points="56.14 20.51 56.14 29.81 46.28 29.81 46.28 20.51 56.14 20.51" style="fill:url(#b2ff378f-1ac7-4ea9-9d80-1a12eea79531)"/><polygon id="b98986c3-93a0-41c9-b28f-0f0b88a5c3e7" data-name="drawer-chain-top-shadows-1-1" points="46.28 10.64 46.28 3 56.14 3 56.14 10.64 46.28 10.64" style="fill:url(#b81fbaae-3786-4c57-8398-d887e9a8bca4)"/></g></g></svg>