<svg id="bed13e98-556d-4104-b95b-a8a2bacc0d06" data-name="Layer 1" xmlns="http://www.w3.org/2000/svg" width="248" height="96" viewBox="0 0 248 96"><path d="M123.69,59.28c0,10-6.69,12.49-16.46,12.49H94.12a2.69,2.69,0,0,1-2.7-2.69V33a2.7,2.7,0,0,1,2.7-2.69h11.93c9.23,0,15.15,3.43,15.15,11.07,0,4.09-1.71,6.75-4.73,8.35C120.91,50.64,123.69,53.06,123.69,59.28ZM99.17,36.72V47h6.88c5,0,8.23-1.06,8.23-5.62,0-4-3.79-4.68-8.23-4.68Zm17,22.56c0-4.56-3.37-5.86-8.94-5.86H99.17V65.14h8.06C112.8,65.14,116.17,63.84,116.17,59.28Z"/><path d="M143.1,72.24a3.88,3.88,0,0,1-3.88-3.88V33.77a3.88,3.88,0,0,1,7.76,0V68.36A3.88,3.88,0,0,1,143.1,72.24Z"/><path d="M192.47,30.36H164.1a3.82,3.82,0,1,0,0,7.63h10.3V68.36a3.88,3.88,0,0,0,7.76,0V38h10.31a3.82,3.82,0,0,0,0-7.63Z"/><path d="M236.12,29.89a3.88,3.88,0,0,0-3.88,3.88v7.39c0,4.16-2.59,8.37-8.37,8.37-4.16,0-8.36-2.59-8.36-8.37V33.77a3.88,3.88,0,0,0-7.76,0v7.39c0,8,5,14.1,12.23,15.71V68.36a3.88,3.88,0,1,0,7.76,0V56.87C235,55.27,240,49.16,240,41.16V33.77A3.88,3.88,0,0,0,236.12,29.89Z"/><path d="M63.66,36.51A3.91,3.91,0,0,0,61.89,41,27.56,27.56,0,0,1,42.12,75.21,3.89,3.89,0,0,0,39.17,79h0A3.88,3.88,0,0,0,44,82.74,35.31,35.31,0,0,0,69.35,38.86a3.9,3.9,0,0,0-5.69-2.35Z" style="fill:#0061ff"/><path d="M10.92,29.86a3.9,3.9,0,0,0,4.75-.69,27.51,27.51,0,0,1,39.31,0,3.9,3.9,0,0,0,4.75.69h0a3.89,3.89,0,0,0,.81-6.1,35.29,35.29,0,0,0-50.44.05,3.88,3.88,0,0,0,.82,6.09Z" style="fill:#0061ff"/><path d="M31.41,79a3.89,3.89,0,0,0-2.95-3.76A27.59,27.59,0,0,1,8.78,41,3.9,3.9,0,0,0,7,36.57H7a3.89,3.89,0,0,0-5.69,2.35A35.33,35.33,0,0,0,26.56,82.71,3.89,3.89,0,0,0,31.41,79Z" style="fill:#0061ff"/></svg>