<?xml version="1.0" encoding="utf-8"?>
<!-- Generator: Adobe Illustrator 23.0.2, SVG Export Plug-In . SVG Version: 6.00 Build 0)  -->
<svg version="1.1" id="Layer_1" xmlns="http://www.w3.org/2000/svg" xmlns:xlink="http://www.w3.org/1999/xlink" x="0px" y="0px"
	 viewBox="0 0 677.6 177.7" style="enable-background:new 0 0 677.6 177.7;" xml:space="preserve">
<style type="text/css">
	.st0{fill:#333333;}
	.st1{fill:#0FC270;}
</style>
<g>
	<g>
		<path class="st0" d="M197.9,89.3c0-15.6,12.2-28.9,28.3-28.9c10.5,0,17,4.4,22.1,9.8l-5.2,5.6c-4.4-4.6-9.5-8.1-17-8.1
			c-11.2,0-19.8,9.5-19.8,21.6c0,12,8.8,21.5,20.3,21.5c7.1,0,12.3-3.6,16.7-8.3l5.5,5c-5.6,6.2-12.2,10.7-22.6,10.7
			C210.1,118.2,197.9,105,197.9,89.3z"/>
		<path class="st0" d="M258,42.9l8.2-4.1v32.4c3.6-6,9.4-10.8,18.9-10.8c13.4,0,21.2,9,21.2,22.1v34.3h-8.2V84.6
			c0-10.3-5.6-16.7-15.3-16.7c-9.5,0-16.6,6.9-16.6,17.3v31.6H258V42.9z"/>
		<path class="st0" d="M315.9,100.6c0-11.9,9.6-18.1,23.6-18.1c7.1,0,12,1,16.9,2.4v-1.7c0-9.8-6-15-16.4-15c-6.5,0-11.7,1.6-16.8,4
			l-2.5-6.7c6.1-2.8,12-4.7,20.1-4.7c7.8,0,13.9,2.1,17.9,6.1c3.8,3.8,5.8,9.2,5.8,16.2v33.8h-8.1v-8.2c-3.8,4.9-10.2,9.4-19.9,9.4
			C326.2,118,315.9,112.2,315.9,100.6z M356.6,96.6v-5.1c-4.1-1.2-9.4-2.4-16.1-2.4c-10.3,0-16.1,4.5-16.1,11.3
			c0,6.9,6.4,11,13.9,11C348.3,111.4,356.6,105.3,356.6,96.6z"/>
		<path class="st0" d="M378.5,61.6h8.2v9.6c3.6-6,9.4-10.8,18.9-10.8c13.4,0,21.2,9,21.2,22.1v34.3h-8.2V84.6
			c0-10.3-5.6-16.7-15.3-16.7c-9.5,0-16.6,6.9-16.6,17.3v31.6h-8.2V61.6z"/>
		<path class="st0" d="M439.7,126.5l3.7-6.4c6.3,4.6,13.4,7.1,21.3,7.1c12.2,0,20.1-6.7,20.1-19.7v-6.5
			c-4.8,6.4-11.5,11.7-21.7,11.7c-13.3,0-26-9.9-26-26.1s12.8-26.1,26-26.1c10.4,0,17.1,5.1,21.6,11.1v-9.9h8.2v45.6
			c0,8.6-2.6,15.1-7.1,19.6c-4.9,4.9-12.3,7.4-21.1,7.4C455.6,134.2,447.1,131.6,439.7,126.5z M485,86.4c0-11.3-9.8-18.7-20.3-18.7
			c-10.5,0-19.1,7.3-19.1,18.8c0,11.1,8.9,18.8,19.1,18.8C475.2,105.3,485,97.7,485,86.4z"/>
		<path class="st0" d="M532,111c7.6,0,12.9-3.1,17.4-7.8l5.1,4.6c-5.6,6.2-12.3,10.4-22.8,10.4c-15.2,0-27.6-11.7-27.6-28.9
			c0-16,11.2-28.9,26.5-28.9c16.4,0,25.8,13,25.8,29.3c0,0.7,0,1.6-0.1,2.9h-43.8C513.8,104.3,522.3,111,532,111z M548.2,86
			c-1-10.1-6.7-18.6-17.6-18.6c-9.5,0-16.8,7.9-18,18.6H548.2z"/>
		<path class="st0" d="M568,46.5l8.2-4.1v74.5H568V46.5z"/>
		<path class="st0" d="M591.3,42.9l8.2-4.1v78h-8.2V42.9z"/>
		<path class="st0" d="M610.4,131.5l2.8-6.5c2.7,1.4,5.1,2,8.7,2c4.9,0,8-2.6,11.3-10.4l-25.1-55.1h9.1l20.1,46.1L655,61.6h8.8
			l-23.2,57.1c-4.7,11.4-10,15.6-18.4,15.6C617.6,134.3,614.2,133.3,610.4,131.5z"/>
	</g>
	<g>
		<path class="st1" d="M174.6,14.1c-2.3,0.1-57.3,2.6-82.5,31.3c-2.6,2.9-4.9,5.7-7,8.3c-3.6,1-16.5,4.5-22.1,5.6
			c-2.6,0.5-4.9,2-6.5,4.3c-3.9,5.6-10.6,17.2-10.9,17.6l-4.9,8.4l8.9-3.9c5.8-2.5,15.6-5.1,19.1-3c0.6,0.4,1.2,0.9,1.3,2.6l0,0
			c0.1,4.1,1.2,8.1,3.3,12.1l-1.2,1c-3.4,2.7-5.3,6.8-5.1,11.2l0,15.5l15.5,0c4.3,0.2,8.5-1.7,11.2-5.1l1-1.2
			c4.1,2.1,8,3.2,12.1,3.3l0,0c1.6,0.1,2.2,0.7,2.6,1.3c2.1,3.5-0.5,13.3-3,19.1l-3.9,8.9l8.4-4.9c0.5-0.3,12-7,17.6-10.9
			c2.2-1.5,3.7-3.8,4.3-6.5c1.1-5.7,4.6-18.5,5.6-22.1c2.6-2.1,5.4-4.4,8.3-7c28.6-25.2,31.2-80.2,31.3-82.5L178,14L174.6,14.1z
			 M56.2,76.9C56,76.9,55.7,77,55.5,77c2.1-3.4,4.5-7.3,6.2-9.9c0.6-0.9,1.5-1.4,2.5-1.6c3.6-0.7,9.6-2.3,14.7-3.6
			c-3.8,5.6-6.3,10.5-7.7,15C67.8,75.2,62.8,75.2,56.2,76.9z M88.6,116c-1.4,1.8-3.6,2.8-5.9,2.7l-0.1,0l-5.4,0L96,96l-22.7,18.9
			l0-5.4l0-0.2c-0.1-2.3,0.9-4.5,2.7-5.9l20-15.8c1.3-1,2.8-1.8,4.4-2.1l8.2-2l-2,8.2c-0.4,1.6-1.1,3.1-2.1,4.4L88.6,116z
			 M126.5,127.8c-0.2,1-0.8,1.9-1.6,2.5c-2.5,1.7-6.4,4.1-9.9,6.2c0.1-0.2,0.1-0.4,0.2-0.6c1.7-6.6,1.7-11.6,0-15.1
			c4.5-1.4,9.4-3.9,15-7.7C128.8,118.1,127.2,124.2,126.5,127.8z M142.4,95.2c-23.9,21-33.9,23.1-43.8,18.5l10.8-13.7
			c1.6-2,2.8-4.4,3.4-6.9l4.4-18.2l-18.2,4.4c-2.5,0.6-4.9,1.8-6.8,3.3L78.4,93.4c-4.6-9.9-2.6-19.9,18.5-43.8
			c19.9-22.6,62-27.8,74.4-28.9C170.2,33.2,165,75.3,142.4,95.2z"/>
		<path class="st1" d="M137.5,71.2c4.3,0,8.6-1.6,11.8-4.9c6.5-6.5,6.5-17.1,0-23.7c-6.5-6.5-17.1-6.5-23.7,0
			c-3.2,3.2-4.9,7.4-4.9,11.8s1.7,8.7,4.9,11.8C129,69.6,133.3,71.2,137.5,71.2z M130.2,47.1c2-2,4.7-3,7.3-3c2.7,0,5.3,1,7.3,3
			c4,4,4,10.6,0,14.7c-4,4-10.6,4-14.7,0c-2-2-3-4.6-3-7.3C127.2,51.7,128.2,49.1,130.2,47.1z"/>
		<path class="st1" d="M91.4,140.5c-1.2,1.2-2.5,2.3-3.9,3.3c-2.7,2.1-5.6,3.8-8.5,5.4c-3,1.5-6,2.8-9.2,3.9c-3.1,1.1-6.4,2-9.6,2.6
			c-1.6,0.4-3.3,0.6-4.9,0.9l-2.5,0.3l-1.2,0.2l-1.2,0.1l-2.5,0.2l-2.5,0.1c-1.7,0.1-3.3,0.1-5,0.2c-4.9,0.1-9.8-0.2-14.7-0.7
			c0.6-0.8,1.1-1.6,1.7-2.4c1.6-2.4,3-5,4.2-7.6c2.4-5.2,4.2-10.6,5.7-16c1.5-5.3,3.1-10.4,5.1-15.5c2-5.1,4.2-10.1,6.8-15
			c-1.8,2.1-3.5,4.4-5,6.7c-1.6,2.3-3,4.7-4.4,7.2c-2.7,4.9-5.1,10.1-7,15.3c-1.9,5.1-4,10.2-6.4,14.8c-2.5,4.7-5.5,9-9,13.1
			l-3.6,4.3l5.6,0.8c6.9,1,14,1.5,21.1,1.3c1.8-0.1,3.5-0.1,5.3-0.3l2.6-0.3L51,163c1.8-0.2,3.5-0.6,5.2-0.9
			c1.7-0.4,3.5-0.8,5.2-1.3c1.7-0.5,3.4-1,5.1-1.6c1.7-0.6,3.3-1.3,4.9-2c3.2-1.5,6.4-3.2,9.3-5.2c2.9-2,5.7-4.3,8.1-6.8
			c2.4-2.6,4.6-5.3,6.1-8.5C93.8,138.1,92.6,139.3,91.4,140.5z"/>
	</g>
</g>
</svg>
