<?xml version="1.0" encoding="utf-8"?>
<!-- Generator: Adobe Illustrator 24.0.3, SVG Export Plug-In . SVG Version: 6.00 Build 0)  -->
<svg version="1.1" id="Layer_1" xmlns="http://www.w3.org/2000/svg" xmlns:xlink="http://www.w3.org/1999/xlink" x="0px" y="0px"
	 viewBox="0 0 88 56" style="enable-background:new 0 0 88 56;" xml:space="preserve">
<style type="text/css">
	.st0{fill-rule:evenodd;clip-rule:evenodd;fill:#3BEE81;}
	.st1{fill-rule:evenodd;clip-rule:evenodd;fill:#2B2B37;}
</style>
<title>ChangeNOW-logo-transparent</title>
<desc>Created with Sketch.</desc>
<g id="ChangeNOW-logo-transparent" transform="translate(202.000000, 1461.000000)">
	<g id="Group-8">
	</g>
	<g id="Group" transform="translate(20.756757, 36.324324)">
		<path id="NOW" class="st0" d="M-217.1-1442.1h-3.2v-25.1h3.1l14.2,19.7h0.2v-19.7h3.2v25.1h-3.1l-14.2-19.6h-0.2V-1442.1z
			 M-182.4-1467.6c7.3,0,11.9,5,11.9,13s-4.6,13-11.9,13c-7.3,0-11.9-5-11.9-13S-189.8-1467.6-182.4-1467.6z M-182.4-1464.7
			c-5.3,0-8.6,3.9-8.6,10.1c0,6.2,3.3,10.1,8.6,10.1s8.6-3.9,8.6-10.1C-173.8-1460.8-177.1-1464.7-182.4-1464.7z M-151.8-1462
			l-6,19.9h-3.1l-7.1-25.1h3.4l5.2,20.5h0.1l5.8-20.5h3.3l5.8,20.5h0.1l5.2-20.5h3.4l-7.1,25.1h-3.1l-6-19.9H-151.8z"/>
		<path id="change" class="st1" d="M-210-1487h-2.2c-0.3-1.5-1.5-2.6-3.6-2.6c-2.4,0-4,2-4,5c0,3.1,1.7,5,4,5c1.9,0,3.2-0.9,3.6-2.6
			h2.2c-0.4,2.7-2.6,4.5-5.7,4.5c-3.8,0-6.3-2.7-6.3-7c0-4.2,2.5-7,6.3-7C-212.3-1491.6-210.3-1489.4-210-1487z M-207.3-1477.7
			v-19.3h2.2v7.7h0.1c0.9-1.6,2.3-2.4,4.3-2.4c3,0,4.8,2,4.8,5.1v8.8h-2.2v-8.4c0-2.2-1.1-3.5-3.3-3.5c-2.3,0-3.7,1.6-3.7,4v7.9
			H-207.3z M-188-1479.5c2.2,0,3.9-1.5,3.9-3.4v-1.1l-3.6,0.2c-2.1,0.1-3.1,0.9-3.1,2.2C-190.8-1480.4-189.7-1479.5-188-1479.5z
			 M-188.5-1477.6c-2.8,0-4.6-1.6-4.6-4.1c0-2.4,1.8-3.8,5.1-4l3.8-0.2v-1.2c0-1.7-1.1-2.7-3.1-2.7c-1.6,0-2.8,0.8-3,2.1h-2.1
			c0.1-2.3,2.3-4.1,5.2-4.1c3.2,0,5.3,1.7,5.3,4.5v9.5h-2.1v-2.4h-0.1C-184.8-1478.6-186.5-1477.6-188.5-1477.6z M-178.5-1477.7
			v-13.8h2.1v2.2h0.1c0.9-1.6,2.2-2.4,4.3-2.4c3,0,4.8,1.9,4.8,5.1v8.8h-2.2v-8.5c0-2.3-1-3.5-3.2-3.5c-2.3,0-3.6,1.6-3.6,3.9v8
			H-178.5z M-158.4-1479.7c2.4,0,4-2,4-5c0-3-1.6-5-4-5c-2.4,0-4,2-4,5C-162.3-1481.7-160.8-1479.7-158.4-1479.7z M-158.3-1472.8
			c-3.1,0-5.4-1.5-5.7-3.8h2.3c0.3,1.2,1.7,1.9,3.5,1.9c2.4,0,3.9-1.2,3.9-3.2v-2.2h-0.1c-0.9,1.5-2.5,2.4-4.4,2.4
			c-3.5,0-5.8-2.8-5.8-7c0-4.2,2.3-7,5.8-7c1.9,0,3.5,0.9,4.5,2.4h0v-2.2h2.1v13.4C-152.1-1474.8-154.5-1472.8-158.3-1472.8z
			 M-143.2-1489.7c-2.1,0-3.7,1.6-3.9,3.9h7.5C-139.6-1488.1-141.1-1489.7-143.2-1489.7z M-139.6-1481.7h2.2
			c-0.4,2.4-2.8,4.1-5.7,4.1c-3.9,0-6.3-2.7-6.3-7s2.4-7.1,6.2-7.1c3.7,0,6,2.6,6,6.8v0.9h-9.8v0.1c0,2.6,1.6,4.3,4,4.3
			C-141.3-1479.5-140-1480.4-139.6-1481.7z"/>
	</g>
</g>
</svg>
