<svg xmlns="http://www.w3.org/2000/svg" xmlns:xlink="http://www.w3.org/1999/xlink" viewBox="0 0 1024 1024"><defs><style>.cls-1{fill:#50239f;}.cls-2,.cls-7{fill:#00e8cc;}.cls-12,.cls-13,.cls-2{stroke:#50239f;}.cls-12,.cls-13,.cls-15,.cls-2,.cls-6,.cls-8{stroke-linecap:round;stroke-linejoin:round;}.cls-12,.cls-13,.cls-2,.cls-6{stroke-width:1.45px;}.cls-3{isolation:isolate;}.cls-4{mix-blend-mode:multiply;}.cls-5{clip-path:url(#clip-path);}.cls-12,.cls-15,.cls-6,.cls-9{fill:#fff;}.cls-15,.cls-6,.cls-8{stroke:#00e8cc;}.cls-13,.cls-8{fill:none;}.cls-8{stroke-width:3.77px;}.cls-9{fill-opacity:0.24;}.cls-10{opacity:0.12;}.cls-11{clip-path:url(#clip-path-2);}.cls-14{clip-path:url(#clip-path-3);}.cls-15{stroke-width:1.47px;}.cls-16{fill:#50229f;}.cls-17{clip-path:url(#clip-path-4);}</style><clipPath id="clip-path"><path class="cls-1" d="M758.49,236.51,733.23,261.4c-12.68,12.49-45.5,2.94-83.48-26.66C601.6,197.2,563.41,141.6,564.43,110.6c.21-6.57,2.17-11.49,5.56-14.85l25.28-24.89c-3.4,3.35-5.35,8.27-5.57,14.83-1,31,37.17,86.6,85.32,124.14C713,239.45,745.8,249,758.49,236.51Z"/></clipPath><clipPath id="clip-path-2"><path class="cls-2" d="M475.82,529.86c6,4.39,11.91,8.82,17.86,13.21l.93.7a77.21,77.21,0,0,0,26.57,12.57c51.69,13.42,113.13-23.82,137.25-83.18,19.45-47.88,8.67-95.53-23.35-119.22h0L616.29,340c32,23.69,42.8,71.36,23.35,119.22-24.11,59.36-85.56,96.6-137.25,83.18A76.68,76.68,0,0,1,475.82,529.86Z"/></clipPath><clipPath id="clip-path-3"><path class="cls-1" d="M474.8,530.73c6,4.45,12,8.93,18,13.38l.94.71a78.12,78.12,0,0,0,26.85,12.76c52.25,13.64,114.43-23.93,138.9-83.91,19.74-48.39,8.92-96.59-23.43-120.59h0q-9.5-7.05-19-14.09c32.34,24,43.17,72.22,23.44,120.59-24.47,60-86.66,97.56-138.91,83.91A77.58,77.58,0,0,1,474.8,530.73Z"/></clipPath><clipPath id="clip-path-4"><path class="cls-1" d="M215.76,305.3c4.16,6.22,8.3,12.48,12.45,18.7l.64,1a78.06,78.06,0,0,0,21,21.09c44.55,30.52,115.78,16.21,159.1-32,35-38.85,41.07-87.87,18.75-121.4h0c-4.36-6.57-8.74-13.11-13.09-19.68,22.31,33.53,16.19,82.57-18.75,121.41-43.32,48.17-114.56,62.48-159.1,32A77.5,77.5,0,0,1,215.76,305.3Z"/></clipPath></defs><title>currencies-empty</title><g class="cls-3"><g id="Layer_1" data-name="Layer 1"><g id="MUENZE"><g class="cls-4"><path class="cls-1" d="M758.49,236.51,733.23,261.4c-12.68,12.49-45.5,2.94-83.48-26.66C601.6,197.2,563.41,141.6,564.43,110.6c.21-6.57,2.17-11.49,5.56-14.85l25.28-24.89c-3.4,3.35-5.35,8.27-5.57,14.83-1,31,37.17,86.6,85.32,124.14C713,239.45,745.8,249,758.49,236.51Z"/><g class="cls-5"><line class="cls-6" x1="570.65" y1="120.6" x2="587.17" y2="104.97"/><line class="cls-6" x1="591.55" y1="164.92" x2="608.11" y2="149.12"/><line class="cls-6" x1="620.6" y1="201.72" x2="636.49" y2="186.43"/><line class="cls-6" x1="655.83" y1="232.73" x2="671.19" y2="217.83"/><line class="cls-6" x1="696.8" y1="258.23" x2="712.45" y2="242.91"/></g></g><path class="cls-7" d="M678.72,97.53c48.16,37.55,86.37,93.14,85.34,124.13s-40.91,25.73-89-11.83S588.67,116.7,589.7,85.69,630.59,60,678.72,97.53Z"/><path class="cls-1" d="M670.85,106.75c37.08,28.54,69.84,72.67,73.17,98.59s-24,23.8-61.12-4.73S613.06,128,609.73,102,633.77,78.22,670.85,106.75Z"/></g><path class="cls-8" d="M658.73,118.56c-6.13-4.32-12.77-4.67-13.28-1.06-.34,2.41,1.72,5.94,4.67,9.53,2.1,2.56,4.57,5.13,6.94,7.69,3.91,4.2,35.51,33.91,43.13,42.08,8.88,9.53,7.86,18.75-6.5,10.75"/><path class="cls-9" d="M728.4,155.79c15.76,21.55,25.47,42.74,25,57.54-.9,27.22-35.9,22.58-78.13-10.38-22.74-17.73-43-40-56.63-61.12Z"/><g class="cls-10"><path class="cls-1" d="M747.89,924.51c37.09,8.31,69.84,21.16,73.18,28.71s-24,6.93-61.12-1.38-69.84-21.15-73.17-28.7S710.81,916.21,747.89,924.51Z"/></g><g id="MUENZE-2" data-name="MUENZE"><g id="MUENZE-3" data-name="MUENZE"><path class="cls-7" d="M475.82,529.86c6,4.39,11.91,8.82,17.86,13.21l.93.7a77.21,77.21,0,0,0,26.57,12.57c51.69,13.42,113.13-23.82,137.25-83.18,19.45-47.88,8.67-95.53-23.35-119.22h0L616.29,340c32,23.69,42.8,71.36,23.35,119.22-24.11,59.36-85.56,96.6-137.25,83.18A76.68,76.68,0,0,1,475.82,529.86Z"/><g class="cls-11"><line class="cls-12" x1="731.79" y1="416.45" x2="563.2" y2="323.35"/><line class="cls-12" x1="711.79" y1="441.24" x2="543.2" y2="348.15"/><line class="cls-12" x1="691.78" y1="466.04" x2="523.2" y2="372.94"/><line class="cls-12" x1="671.78" y1="490.83" x2="503.19" y2="397.74"/><line class="cls-12" x1="651.78" y1="515.63" x2="483.19" y2="422.53"/><line class="cls-12" x1="631.77" y1="540.43" x2="463.19" y2="447.32"/><line class="cls-12" x1="611.77" y1="565.22" x2="443.19" y2="472.12"/><line class="cls-12" x1="591.77" y1="590.02" x2="423.19" y2="496.91"/></g><path class="cls-13" d="M475.82,529.86c6,4.39,11.91,8.82,17.86,13.21l.93.7a77.21,77.21,0,0,0,26.57,12.57c51.69,13.42,113.13-23.82,137.25-83.18,19.45-47.88,8.67-95.53-23.35-119.22h0L616.29,340c32,23.69,42.8,71.36,23.35,119.22-24.11,59.36-85.56,96.6-137.25,83.18A76.68,76.68,0,0,1,475.82,529.86Z"/><path class="cls-7" d="M581,349.05c-41.31-10.74-90.41,19-109.69,66.47s-1.41,94.61,39.9,105.35,90.42-19,109.69-66.49S622.26,359.78,581,349.05Z"/><path class="cls-13" d="M581,349.05c-41.31-10.74-90.41,19-109.69,66.47s-1.41,94.61,39.9,105.35,90.42-19,109.69-66.49S622.26,359.78,581,349.05Z"/></g></g><path class="cls-13" d="M546.43,440c8.11,10.75,5.15,23.15-3.82,31.4s-20.91,9.52-29-1.23l-20.93-27.76,65.33-60,20.94,27.76c8.1,10.75,5.14,23.16-3.83,31.39s-20.56,9.21-28.67-1.54"/><line class="cls-13" x1="566.72" y1="393.48" x2="578.65" y2="382.53"/><line class="cls-13" x1="576.22" y1="406.08" x2="588.15" y2="395.13"/><line class="cls-13" x1="488.84" y1="464.12" x2="500.77" y2="453.16"/><line class="cls-13" x1="498.34" y1="476.73" x2="510.27" y2="465.76"/><line class="cls-13" x1="525.5" y1="412.24" x2="546.43" y2="440"/><g id="MUENZE-4" data-name="MUENZE"><g id="MUENZE-5" data-name="MUENZE"><path class="cls-1" d="M474.8,530.73c6,4.45,12,8.93,18,13.38l.94.71a78.12,78.12,0,0,0,26.85,12.76c52.25,13.64,114.43-23.93,138.9-83.91,19.74-48.39,8.92-96.59-23.43-120.59h0q-9.5-7.05-19-14.09c32.34,24,43.17,72.22,23.44,120.59-24.47,60-86.66,97.56-138.91,83.91A77.58,77.58,0,0,1,474.8,530.73Z"/><g class="cls-14"><line class="cls-15" x1="664.18" y1="403.97" x2="653.51" y2="395.82"/><line class="cls-15" x1="660.11" y1="461.28" x2="647.68" y2="452.08"/><line class="cls-15" x1="638.01" y1="504.55" x2="626.08" y2="495.98"/><line class="cls-15" x1="601.58" y1="536.69" x2="590.04" y2="528.66"/><line class="cls-15" x1="548.67" y1="558.46" x2="535.88" y2="549.84"/></g><path class="cls-7" d="M590.27,326.24c-52.24-13.66-114.43,23.91-138.9,83.89s-2,119.71,50.28,133.36,114.44-23.92,138.91-83.91S642.52,339.9,590.27,326.24Z"/><path class="cls-1" d="M581.38,348.05c-41.76-10.92-91.46,19.1-111,67.06s-1.57,95.66,40.19,106.58,91.45-19.12,111-67.07S623.13,359,581.38,348.05Z"/></g></g><path class="cls-8" d="M546.34,440c8.18,10.88,5.17,23.42-3.92,31.74s-21.15,9.59-29.33-1.28L492,442.32l66.16-60.59,21.13,28.1c8.18,10.88,5.16,23.42-3.92,31.74s-20.8,9.28-29-1.6"/><line class="cls-8" x1="566.92" y1="392.96" x2="579" y2="381.9"/><line class="cls-8" x1="576.51" y1="405.71" x2="588.59" y2="394.65"/><line class="cls-8" x1="488.06" y1="464.27" x2="500.14" y2="453.21"/><line class="cls-8" x1="497.65" y1="477.03" x2="509.73" y2="465.97"/><line class="cls-8" x1="525.2" y1="411.86" x2="546.34" y2="439.97"/><path class="cls-9" d="M448.07,460.42c1.2,36.85,21.87,67.27,56.35,76.28,49,12.79,107.28-22.43,130.22-78.66,9-22,11.2-43.91,7.68-63.25Z"/><g id="MUENZE-6" data-name="MUENZE" class="cls-10"><g id="MUENZE-7" data-name="MUENZE"><path class="cls-16" d="M595,907.83c-41.31-3.12-90.41,5.54-109.69,19.36s-1.41,27.55,39.9,30.67,90.41-5.54,109.69-19.36S636.27,911,595,907.83Z"/></g></g><path class="cls-1" d="M215.76,305.3c4.16,6.22,8.3,12.48,12.45,18.7l.64,1a78.06,78.06,0,0,0,21,21.09c44.55,30.52,115.78,16.21,159.1-32,35-38.85,41.07-87.87,18.75-121.4h0c-4.36-6.57-8.74-13.11-13.09-19.68,22.31,33.53,16.19,82.57-18.75,121.41-43.32,48.17-114.56,62.48-159.1,32A77.5,77.5,0,0,1,215.76,305.3Z"/><g class="cls-17"><line class="cls-15" x1="436.85" y1="250.09" x2="429.58" y2="238.82"/><line class="cls-15" x1="413.64" y1="302.65" x2="405.05" y2="289.78"/><line class="cls-15" x1="378.2" y1="335.89" x2="369.87" y2="323.78"/><line class="cls-15" x1="333.05" y1="353.8" x2="324.91" y2="342.34"/><line class="cls-15" x1="275.89" y1="356.39" x2="266.77" y2="343.95"/></g><path class="cls-7" d="M393.61,151.94c-44.54-30.53-115.77-16.21-159.09,31.95s-42.35,112,2.19,142.5,115.78,16.21,159.1-32S438.15,182.47,393.61,151.94Z"/><path class="cls-1" d="M377.86,169.45c-35.6-24.4-92.53-13-127.16,25.54s-33.84,89.5,1.76,113.9S345,321.84,379.62,283.34,413.46,193.85,377.86,169.45Z"/><path class="cls-7" d="M344.66,179l7.64,49.94a.76.76,0,0,1-1.28.65L331.2,209.82a5.31,5.31,0,0,0-4-1.54L297,209.91a.75.75,0,0,1-.44-1.39l47-30.06A.75.75,0,0,1,344.66,179Z"/><path class="cls-7" d="M282.27,238.93,302,258.57a5.59,5.59,0,0,0,4.27,1.63l30.08-1.61a.75.75,0,0,1,.45,1.38l-47,30.06a.76.76,0,0,1-1.16-.52L281,239.58A.76.76,0,0,1,282.27,238.93Z"/><path class="cls-7" d="M290.65,223.82l30-1.61a4.55,4.55,0,0,1,3.47,1.32l19.35,19.28a.75.75,0,0,1-.49,1.28l-30,1.62a4.59,4.59,0,0,1-3.47-1.33l-19.33-19.27A.75.75,0,0,1,290.65,223.82Z"/><path class="cls-9" d="M242.56,319.89c41.22,28.24,107.15,15,147.24-29.58s39.18-103.61-2-131.87Z"/><g class="cls-10"><path class="cls-1" d="M387.2,914.16c-35.6-7.1-92.53-3.77-127.17,7.44s-33.83,26.06,1.77,33.17,92.53,3.77,127.16-7.44S422.8,921.27,387.2,914.16Z"/></g></g></g></svg>