<svg xmlns="http://www.w3.org/2000/svg" xmlns:xlink="http://www.w3.org/1999/xlink" viewBox="0 0 834.34 834"><defs><style>.cls-1,.cls-10,.cls-9{fill:none;}.cls-1{mix-blend-mode:multiply;}.cls-2{fill:#50239f;}.cls-3{fill:#00e8cc;}.cls-4{clip-path:url(#clip-path);}.cls-5{fill:#fff;fill-opacity:0.24;}.cls-6{clip-path:url(#clip-path-2);}.cls-7{fill:#391972;}.cls-8{clip-path:url(#clip-path-3);}.cls-10,.cls-9{stroke:#fff;stroke-linecap:round;}.cls-9{stroke-miterlimit:10;stroke-width:3.44px;stroke-dasharray:31 10.33 5.17 70.44;}.cls-10{stroke-linejoin:round;stroke-width:5.17px;stroke-dasharray:366.84 49.95 25.83 29.53;}</style><clipPath id="clip-path"><path id="_Clipping_Path_" data-name="&lt;Clipping Path&gt;" class="cls-1" d="M573.75,574.31v71.9a10.68,10.68,0,0,1-10.68,10.68H272.23a10.68,10.68,0,0,1-10.68-10.68V574.54a10.68,10.68,0,0,1,10.65-10.68l86.14-.23c3.6,0,6.65,2.29,7.18,5.39,3.69,21.68,25.08,36.62,50.94,36.62s47.24-14.93,50.94-36.62c.52-3.1,3.58-5.39,7.16-5.39h88.49A10.68,10.68,0,0,1,573.75,574.31Z"/></clipPath><clipPath id="clip-path-2"><path id="_Clipping_Path_2" data-name="&lt;Clipping Path&gt;" class="cls-2" d="M555.4,209.51h-276a13.31,13.31,0,0,0-13.31,13.31v317a13.31,13.31,0,0,0,13.31,13.31H364.1a6.54,6.54,0,0,1,6.47,5.58,46.49,46.49,0,0,0,92,0,6.54,6.54,0,0,1,6.47-5.58H555.4a13.31,13.31,0,0,0,13.31-13.31v-317A13.31,13.31,0,0,0,555.4,209.51Z"/></clipPath><clipPath id="clip-path-3"><path id="_Clipping_Path_3" data-name="&lt;Clipping Path&gt;" class="cls-1" d="M474.58,208.85H557.9a10.68,10.68,0,0,1,10.68,10.68v75.69c0-5.17-4.78-12.06-10.68-12.06H277.4c-5.9,0-10.68,3.44-10.68,12.06V219.76a10.68,10.68,0,0,1,10.65-10.68l81-.23Z"/></clipPath></defs><title>empty-state-no-transaction</title><g id="Layer_19" data-name="Layer 19"><rect id="_Rectangle_" data-name="&lt;Rectangle&gt;" class="cls-3" x="251.22" y="198.77" width="332.4" height="468.46" rx="29.08" ry="29.08"/><g class="cls-4"><path id="GALZ" class="cls-5" d="M263.33,667.8a13.27,13.27,0,0,1-3.5-8.91l-.76-73.38c0-7.59,6.08-94,13.67-93.95l312.44.65c3.46,0,6.62,81.5,9,83.61C597.14,578.35,265.77,670.46,263.33,667.8Z"/><path id="GALZ-2" data-name="GALZ" class="cls-5" d="M613.57,604.91a10.52,10.52,0,0,1,2.77,7.06l.61,50.16A18.74,18.74,0,0,1,598.14,681l-239.66-.52a10.94,10.94,0,0,1-7.17-2.69C349,675.8,611.64,602.8,613.57,604.91Z"/></g><path id="_Clipping_Path_4" data-name="&lt;Clipping Path&gt;" class="cls-2" d="M555.4,209.51h-276a13.31,13.31,0,0,0-13.31,13.31v317a13.31,13.31,0,0,0,13.31,13.31H364.1a6.54,6.54,0,0,1,6.47,5.58,46.49,46.49,0,0,0,92,0,6.54,6.54,0,0,1,6.47-5.58H555.4a13.31,13.31,0,0,0,13.31-13.31v-317A13.31,13.31,0,0,0,555.4,209.51Z"/><g class="cls-6"><path class="cls-7" d="M263.28,648.28H614.62V190.16H499.23V280a16.33,16.33,0,0,1-2.63,8.89Z"/></g><g class="cls-8"><path class="cls-5" d="M267.57,200.92l-9.41,3.74V355.11l279.77.6a47,47,0,0,0,47.18-47.37l-1.91-107.42Z"/></g><line class="cls-9" x1="548.86" y1="536.85" x2="579.55" y2="567.54"/><line class="cls-9" x1="579.67" y1="543.34" x2="542.66" y2="580.36"/><line class="cls-9" x1="369.17" y1="274.42" x2="337.82" y2="304.44"/><line class="cls-9" x1="372.34" y1="296.48" x2="336.14" y2="258.66"/><path class="cls-10" d="M259,227.19V539.35a18.51,18.51,0,0,0,18.51,18.51h81.75A10.51,10.51,0,0,1,369,565.8c5.54,24.57,23.82,35.12,46.72,35.12"/></g></svg>