<svg xmlns="http://www.w3.org/2000/svg" xmlns:xlink="http://www.w3.org/1999/xlink" id="Layer_1" x="0" y="0" version="1.1" viewBox="0 0 512 512" xml:space="preserve">
  <style>
    .st3{fill:#00b8cc}.st4{fill:#50239f}.st5{fill:#d8caff}.st6{fill:#fff}
  </style>
  <path fill="#f2aa2f" d="M23.8 188.4h.1v.1z"/>
  <path fill="#00e8cc" d="M495.2 256c0 132.1-107.1 239.2-239.2 239.2S16.8 388.1 16.8 256 123.9 16.8 256 16.8 495.2 123.9 495.2 256"/>
  <defs>
    <path id="SVGID_1_" d="M495.2 256c0 132.1-107.1 239.2-239.2 239.2S16.8 388.1 16.8 256 123.9 16.8 256 16.8 495.2 123.9 495.2 256"/>
  </defs>
  <clipPath id="SVGID_2_">
    <use overflow="visible" xlink:href="#SVGID_1_"/>
  </clipPath>
  <g clip-path="url(#SVGID_2_)">
    <path d="M86.7 295.2H72.6v4.7c0 2 1.6 3.6 3.6 3.6h10.6v-8.3m-.1-13.7H76.2c-2 0-3.6 1.6-3.6 3.6v4.5h14.2v-8.1" class="st3"/>
    <path d="M114.2 270.8H93.8c-3.9 0-7.1 3.2-7.1 7.1v11.7h10v5.7h-10v11.9c0 3.9 3.2 7.1 7.1 7.1h20.4v-43.5" class="st3"/>
    <path d="M391.9 251.6H125.1c-6 0-10.9 4.9-10.9 10.9v59.8c0 6 4.9 10.9 10.9 10.9h266.7c1.2 0 2.3-.2 3.5-.6-22.2-4-36.9-25.3-32.9-47.4 3.1-16.9 16.3-30 33.2-32.9-1.1-.5-2.4-.7-3.7-.7" class="st3"/>
    <path d="M402.6 251.7c-22.5 0-40.8 18.3-40.8 40.8 0 22.5 18.3 40.8 40.8 40.8h79.8c8.5-24.9 12.8-51 12.8-77.3v-4.3h-92.6M96.7 289.5H71.6c-18.4 0-35.9 7.5-48.6 20.8.5 2.2 1.1 4.4 1.6 6.6 11.6-13.8 28.8-21.8 46.9-21.8h25.1l.1-5.6" class="st3"/>
    <path d="M111.7 255.4H86.6c-37 0-67 30-67 67v134.3c0 16.3-6.5 31.9-18 43.4s-27.1 18-43.4 18h-63.8v5.7h63.8c17.8 0 34.8-7.1 47.4-19.7 12.6-12.6 19.7-29.6 19.6-47.4V322.4c0-33.9 27.4-61.4 61.3-61.4H111.7v-5.6z" class="st4"/>
    <path d="M161.2 236.6h-52.3c-3.9 0-7.1 3.2-7.1 7.1v3.6H91.2c-2 0-3.6 1.6-3.6 3.6v14.8c0 2 1.6 3.6 3.6 3.6h10.6v3.6c0 3.9 3.2 7.1 7.1 7.1h52.3c3.9 0 7.1-3.2 7.1-7.1v-29.2c.1-3.9-3.1-7.1-7.1-7.1z" class="st5"/>
    <path d="M161.2 236.6v-1.4h-52.3c-4.7 0-8.5 3.8-8.5 8.5v2.2h-9.2c-2.8 0-5 2.2-5 5v14.8c0 2.8 2.2 5 5 5h9.2v2.2c0 4.7 3.8 8.5 8.5 8.5h52.3c4.7 0 8.5-3.8 8.5-8.5v-29.2c0-4.7-3.8-8.5-8.5-8.5v2.8c3.2 0 5.7 2.5 5.8 5.7v29.2c0 3.2-2.6 5.7-5.7 5.7H109c-3.2 0-5.7-2.6-5.7-5.7v-3.6c0-.8-.6-1.4-1.4-1.4H91.2c-1.2 0-2.2-1-2.2-2.2v-14.8c0-1.2 1-2.2 2.2-2.2h10.6c.8 0 1.4-.6 1.4-1.4v-3.6c0-3.2 2.6-5.7 5.7-5.7h52.3v-1.4z" class="st4"/>
    <path d="M140.2 217.4H407c6 0 10.9 4.9 10.9 10.9v59.8c0 6-4.9 10.9-10.9 10.9H140.2c-6 0-10.9-4.9-10.9-10.9v-59.8c0-6 4.9-10.9 10.9-10.9z" class="st6"/>
    <path d="M406.9 299v-1.4H140.2c-5.3 0-9.5-4.3-9.5-9.5v-59.8c0-5.3 4.3-9.5 9.5-9.5h266.7c5.3 0 9.5 4.3 9.5 9.5v59.8c0 5.3-4.3 9.5-9.5 9.5v2.8c6.8 0 12.3-5.5 12.3-12.3v-59.8c0-6.8-5.5-12.3-12.3-12.3H140.2c-6.8 0-12.3 5.5-12.3 12.3v59.8c0 6.8 5.5 12.3 12.3 12.3h266.7V299z" class="st4"/>
    <path d="M215.2 229.6H359c2.2 0 4 1.8 4 4v49.2c0 2.2-1.8 4-4 4H215.2c-2.2 0-4-1.8-4-4v-49.2c0-2.2 1.8-4 4-4z" class="st5"/>
    <path d="M668.6 299.2l-250.9-.1c-22.5 0-40.8-18.3-40.8-40.8 0-22.5 18.3-40.8 40.8-40.8l250.9.1c1.4 0 2.5 1.1 2.5 2.5v76.6c0 1.4-1.1 2.5-2.5 2.5z" class="st6"/>
    <path d="M668.6 299.2v-1.4l-250.9-.1c-21.8 0-39.4-17.7-39.4-39.4h-1.2l1.2.1v-.1h-1.2l1.2.1v-.1c0-21.8 17.7-39.4 39.4-39.4v-1.1l-.1 1.1h.1v-1.1l-.1 1.1h.1l250.9.1c.6 0 1.2.5 1.2 1.2v76.6c0 .6-.5 1.2-1.2 1.2v2.8c2.2 0 3.9-1.8 3.9-3.9v-76.6c0-2.2-1.8-3.9-3.9-3.9l-250.9-.1v1.4l.1-1.4h-.1c-23.3 0-42.2 18.9-42.2 42.2h1.4l-1.4-.1v.1c0 23.3 18.9 42.2 42.2 42.2l250.9.1v-1.6z" class="st4"/>
    <path d="M436.3 246c6.8 10.2 4 24-6.3 30.7-10.2 6.8-24 4-30.7-6.3-6.8-10.2-4-24 6.3-30.7 10.2-6.7 24-3.9 30.7 6.3zM188.3 258.2c0 12.2-10 22.2-22.2 22.2s-22.2-10-22.2-22.2 9.9-22.2 22.2-22.2c12.3 0 22.2 9.9 22.2 22.2z" class="st5"/>
    <path d="M397 258.2c0-11.5 9.3-20.8 20.8-20.8s20.8 9.3 20.8 20.8-9.3 20.8-20.8 20.8c-.8.1-1.3.7-1.3 1.5.1.7.6 1.2 1.3 1.3 13 0 23.6-10.5 23.6-23.5s-10.5-23.6-23.5-23.6-23.6 10.5-23.6 23.5c-.1.8.5 1.4 1.3 1.5s1.4-.5 1.5-1.3c-.1-.1-.1-.1-.1-.2zM145.4 258.2c0-11.5 9.3-20.8 20.8-20.8s20.8 9.3 20.8 20.8-9.3 20.8-20.8 20.8c-.8.1-1.3.7-1.3 1.5.1.7.6 1.2 1.3 1.3 13 0 23.6-10.5 23.6-23.5s-10.5-23.6-23.5-23.6-23.6 10.5-23.6 23.5c-.1.8.5 1.4 1.3 1.5.8.1 1.4-.5 1.5-1.3-.1 0-.1-.1-.1-.2z" class="st4"/>
  </g>
  <path d="M103.2 269.3v-9.9c-.1-.8-.7-1.3-1.5-1.3-.7.1-1.2.6-1.3 1.3v9.9c.1.8.7 1.3 1.5 1.3.7-.1 1.2-.6 1.3-1.3" class="st4"/>
  <g>
    <path d="M287 234.4c-9.3 0-16.9 7.5-16.9 16.9 0 1.9.3 3.7.9 5.5.4 1.2 1.7 1.9 3 1.5 1.2-.4 1.9-1.7 1.5-3-.5-1.4-.7-2.9-.7-4.3.2-6.3 5.3-11.5 11.6-11.8 7-.4 12.8 5.2 12.8 12.1 0 6.5-5.1 11.8-11.5 12.1 0 0-2.4.1-3.5.3-.6.1-1 .2-1.3.2-.1 0-.3-.1-.2-.2l.4-2 2.2-10.1c.3-1.2-.5-2.5-1.8-2.8-1.2-.3-2.5.5-2.8 1.8 0 0-5.3 24.5-5.3 24.8-.3 1.2.5 2.5 1.8 2.8 1.2.3 2.5-.5 2.8-1.8 0-.3.8-3.5.8-3.5.5-2.5 2.6-4.3 5-4.6.5-.1 2.6-.2 2.6-.2 8.7-.7 15.6-7.9 15.6-16.8-.2-9.4-7.7-16.9-17-16.9z" class="st4"/>
  </g>
  <path d="M288.2 273.2c-1.5-.3-3 .6-3.3 2.2-.3 1.5.6 3 2.2 3.3 1.5.3 3-.6 3.3-2.2.3-1.5-.7-3-2.2-3.3z" class="st4"/>
</svg>
