<svg xmlns="http://www.w3.org/2000/svg" xmlns:xlink="http://www.w3.org/1999/xlink" width="512" height="512" viewBox="0 0 512 512"><defs><clipPath id="ed50821a-7edf-45b8-9cfd-fb45a00baeaa"><path d="M495.17,256c0,132.09-107.08,239.17-239.17,239.17S16.83,388.09,16.83,256,123.91,16.83,256,16.83,495.17,123.91,495.17,256" style="fill:none"/></clipPath></defs><g id="f7a13619-fba1-49f2-99c6-06bea419d1c4" data-name="3"><polygon points="23.83 188.45 23.86 188.43 23.85 188.47 23.83 188.45" style="fill:#f2aa2f"/><path d="M495.17,256c0,132.09-107.08,239.17-239.17,239.17S16.83,388.09,16.83,256,123.91,16.83,256,16.83,495.17,123.91,495.17,256" style="fill:#00e8cc"/><g style="clip-path:url(#ed50821a-7edf-45b8-9cfd-fb45a00baeaa)"><path d="M86.71,295.2H72.55v4.67a3.61,3.61,0,0,0,3.6,3.61H86.71V295.2m0-13.73H76.15a3.61,3.61,0,0,0-3.6,3.61v4.45H86.71v-8.06" style="fill:#00b8cc"/><path d="M114.2,270.75H93.84a7.13,7.13,0,0,0-7.13,7.12v11.66h10v5.67h-10v11.88a7.13,7.13,0,0,0,7.13,7.12H114.2V270.75" style="fill:#00b8cc"/><path d="M391.85,251.56H125.11a10.91,10.91,0,0,0-10.91,10.91v59.8a10.9,10.9,0,0,0,10.91,10.91H391.85a10.72,10.72,0,0,0,3.46-.56,40.81,40.81,0,0,1,.37-80.37,11,11,0,0,0-3.83-.69" style="fill:#00b8cc"/><path d="M402.63,251.66a40.81,40.81,0,1,0,0,81.62l79.79,0A238.86,238.86,0,0,0,495.17,256c0-1.44,0-2.86,0-4.29l-92.49-.05h0" style="fill:#00b8cc"/><path d="M96.66,289.53H71.56A66.89,66.89,0,0,0,23,310.36q.78,3.34,1.65,6.65A61.26,61.26,0,0,1,71.56,295.2h25.1v-5.67" style="fill:#00b8cc"/><path d="M111.73,255.36H86.64a67,67,0,0,0-67,67V456.7a61.14,61.14,0,0,1-18,43.39,61.14,61.14,0,0,1-43.39,18h-63.83v5.67h63.83A66.83,66.83,0,0,0,5.64,504.1a66.83,66.83,0,0,0,19.64-47.4V322.39A61.35,61.35,0,0,1,86.64,261h25.09v-5.67Z" style="fill:#50239f"/><path d="M161.23,236.58H108.91a7.12,7.12,0,0,0-7.12,7.12v3.6H91.23a3.61,3.61,0,0,0-3.61,3.61V265.7a3.61,3.61,0,0,0,3.61,3.61h10.56v3.6a7.12,7.12,0,0,0,7.12,7.12h52.32a7.12,7.12,0,0,0,7.12-7.12V243.7A7.12,7.12,0,0,0,161.23,236.58Z" style="fill:#d8caff"/><path d="M161.23,236.58v-1.37H108.91a8.49,8.49,0,0,0-8.49,8.49v2.23H91.23a5,5,0,0,0-5,5V265.7a5,5,0,0,0,5,5h9.19v2.23a8.49,8.49,0,0,0,8.49,8.49h52.32a8.49,8.49,0,0,0,8.49-8.49V243.7a8.49,8.49,0,0,0-8.49-8.49V238A5.74,5.74,0,0,1,167,243.7v29.21a5.74,5.74,0,0,1-5.74,5.74H108.91a5.74,5.74,0,0,1-5.74-5.74v-3.6a1.4,1.4,0,0,0-1.38-1.38H91.23A2.23,2.23,0,0,1,89,265.7V250.91a2.23,2.23,0,0,1,2.23-2.23h10.56a1.4,1.4,0,0,0,1.38-1.38v-3.6a5.74,5.74,0,0,1,5.74-5.74h52.32Z" style="fill:#50239f"/><rect x="129.27" y="217.39" width="288.57" height="81.62" rx="10.91" style="fill:#fff"/><path d="M406.93,299v-1.37H140.19a9.53,9.53,0,0,1-9.54-9.54V228.31a9.53,9.53,0,0,1,9.54-9.54H406.93a9.54,9.54,0,0,1,9.54,9.54V288.1a9.54,9.54,0,0,1-9.54,9.54v2.75a12.29,12.29,0,0,0,12.29-12.29V228.31A12.29,12.29,0,0,0,406.93,216H140.19a12.29,12.29,0,0,0-12.29,12.29V288.1a12.29,12.29,0,0,0,12.29,12.29H406.93Z" style="fill:#50239f"/><rect x="211.18" y="229.59" width="151.79" height="57.22" rx="4" style="fill:#d8caff"/><path d="M668.59,299.23l-250.9-.12a40.81,40.81,0,0,1,0-81.62l250.9.12a2.54,2.54,0,0,1,2.53,2.54l0,76.55A2.53,2.53,0,0,1,668.59,299.23Z" style="fill:#fff"/><path d="M668.59,299.23v-1.37l-250.9-.12a39.44,39.44,0,0,1-39.41-39.44H377.1l1.17.08v-.09H377.1l1.17.08v-.1a39.43,39.43,0,0,1,39.43-39.41h0v-1.09l-.06,1.09h.06v-1.09l-.06,1.09h.07l250.9.12a1.16,1.16,0,0,1,1.16,1.16l0,76.55a1.16,1.16,0,0,1-1.16,1.16v2.75a3.91,3.91,0,0,0,3.91-3.91l0-76.55a3.91,3.91,0,0,0-3.91-3.91l-250.9-.12v1.37l.07-1.37h-.09a42.18,42.18,0,0,0-42.18,42.16h1.37l-1.37-.09v.12h0a42.18,42.18,0,0,0,42.16,42.19l250.9.12Z" style="fill:#50239f"/><path d="M436.34,246a22.18,22.18,0,1,1-30.73-6.26A22.19,22.19,0,0,1,436.34,246Z" style="fill:#d8caff"/><path d="M188.33,258.2A22.18,22.18,0,1,1,166.15,236,22.18,22.18,0,0,1,188.33,258.2Z" style="fill:#d8caff"/><path d="M397,258.2A20.8,20.8,0,1,1,417.84,279a1.38,1.38,0,0,0,0,2.75,23.56,23.56,0,1,0-23.55-23.56,1.38,1.38,0,1,0,2.75,0Z" style="fill:#50239f"/><path d="M145.35,258.2A20.8,20.8,0,1,1,166.15,279a1.38,1.38,0,0,0,0,2.75A23.56,23.56,0,1,0,142.6,258.2a1.38,1.38,0,1,0,2.75,0Z" style="fill:#50239f"/></g><path d="M103.17,269.31v-9.89a1.38,1.38,0,0,0-2.75,0v9.89a1.38,1.38,0,0,0,2.75,0" style="fill:#50239f"/><path d="M313,240.92a8.13,8.13,0,0,0-4.06-2.09c-2-.26-3.92,1-5.23,2s-3.92,3.27-5,4.19-3.66,1.44-8,4.05-21.07,13.35-21.07,13.35H274l-19.5,10.07h2l-2.75,2.1a6.24,6.24,0,0,0,4.58-.66v.66s23.16-9.16,27.61-6.81l-2.75.79c.26,0,4.58.26,4.58.26a6.17,6.17,0,0,0,2.88,4.45c2.61,1.7,2.74,2.75,2.74,2.75s-1.3.52-1.3,1.31a12,12,0,0,1,7.45,0s-.13-.79-2-1.31a10.49,10.49,0,0,1-4.58-3.67,5.23,5.23,0,0,1-.78-5c.65-1.7,2.88-2.61,7.45-5,5.37-2.75,6.68-4.84,7.33-6.54s2-4.84,2.49-6.41a9.09,9.09,0,0,1,2.61-3.67,33.16,33.16,0,0,1,4.45-2C316.75,243.93,313.87,241.58,313,240.92Z" style="fill:#50239f"/></g></svg>