<svg xmlns="http://www.w3.org/2000/svg" xmlns:xlink="http://www.w3.org/1999/xlink" width="512" height="512" viewBox="0 0 512 512"><defs><clipPath id="ad67ffb9-5f74-43ba-aa52-ba573d0aef43"><path d="M-126.83,256c0,132.09-107.08,239.17-239.17,239.17S-605.17,388.09-605.17,256-498.09,16.83-366,16.83-126.83,123.91-126.83,256" style="fill:none"/></clipPath><clipPath id="bddf0211-bd26-4fe1-a968-24d0c63ed135"><path d="M495.17,256c0,132.09-107.08,239.17-239.17,239.17S16.83,388.09,16.83,256,123.91,16.83,256,16.83,495.17,123.91,495.17,256" style="fill:none"/></clipPath></defs><g id="bb6cdb30-d4f6-40b5-830e-e7c298c9647d" data-name="3"><g style="clip-path:url(#ad67ffb9-5f74-43ba-aa52-ba573d0aef43)"><path d="M46.59,299.23l-250.9-.12a40.81,40.81,0,0,1-40.79-40.83,40.81,40.81,0,0,1,40.83-40.79l250.9.12a2.54,2.54,0,0,1,2.53,2.54l0,76.55A2.53,2.53,0,0,1,46.59,299.23Z" style="fill:#fff"/><path d="M46.59,299.23v-1.37l-250.9-.12a39.44,39.44,0,0,1-39.41-39.44h-1.18l1.17.08v-.09h-1.18l1.17.08v-.1a39.43,39.43,0,0,1,39.43-39.41h0v-1.09l-.06,1.09h.06v-1.09l-.06,1.09h.07l250.9.12a1.16,1.16,0,0,1,1.16,1.16l0,76.55a1.16,1.16,0,0,1-1.16,1.16v2.75a3.91,3.91,0,0,0,3.91-3.91l0-76.55a3.91,3.91,0,0,0-3.91-3.91l-250.9-.12v1.37l.07-1.37h-.09a42.18,42.18,0,0,0-42.18,42.16h1.37l-1.37-.09v.12h0a42.18,42.18,0,0,0,42.16,42.19l250.9.12Z" style="fill:#50239f"/></g><path d="M495.17,256c0,132.09-107.08,239.17-239.17,239.17S16.83,388.09,16.83,256,123.91,16.83,256,16.83,495.17,123.91,495.17,256" style="fill:#00e8cc"/><g style="clip-path:url(#bddf0211-bd26-4fe1-a968-24d0c63ed135)"><polyline points="111.73 255.36 -50.67 255.36 -50.67 261.03 111.73 261.03" style="fill:#50239f"/><path d="M86.71,295.2H72.55v4.67a3.61,3.61,0,0,0,3.6,3.61H86.71V295.2m0-13.73H76.15a3.61,3.61,0,0,0-3.6,3.61v4.45H86.71v-8.06" style="fill:#00b8cc"/><path d="M114.2,270.75H93.84a7.13,7.13,0,0,0-7.13,7.12v11.66h10v5.67h-10v11.88a7.13,7.13,0,0,0,7.13,7.12H114.2V270.75" style="fill:#00b8cc"/><path d="M391.85,251.56H125.11a10.91,10.91,0,0,0-10.91,10.91v59.8a10.9,10.9,0,0,0,10.91,10.91H391.85a10.72,10.72,0,0,0,3.46-.56,40.81,40.81,0,0,1,.37-80.37,11,11,0,0,0-3.83-.69" style="fill:#00b8cc"/><path d="M402.63,251.66a40.81,40.81,0,1,0,0,81.62l79.79,0A238.86,238.86,0,0,0,495.17,256c0-1.44,0-2.86,0-4.29l-92.49-.05h0" style="fill:#00b8cc"/><path d="M96.66,289.53H19.16c.27,1.9.55,3.78.86,5.67H96.66v-5.67" style="fill:#00b8cc"/><path d="M161.23,236.58H108.91a7.12,7.12,0,0,0-7.12,7.12v3.6H91.23a3.61,3.61,0,0,0-3.61,3.61V265.7a3.61,3.61,0,0,0,3.61,3.61h10.56v3.6a7.12,7.12,0,0,0,7.12,7.12h52.32a7.12,7.12,0,0,0,7.12-7.12V243.7A7.12,7.12,0,0,0,161.23,236.58Z" style="fill:#d8caff"/><path d="M161.23,236.58v-1.37H108.91a8.49,8.49,0,0,0-8.49,8.49v2.23H91.23a5,5,0,0,0-5,5V265.7a5,5,0,0,0,5,5h9.19v2.23a8.49,8.49,0,0,0,8.49,8.49h52.32a8.49,8.49,0,0,0,8.49-8.49V243.7a8.49,8.49,0,0,0-8.49-8.49V238A5.74,5.74,0,0,1,167,243.7v29.21a5.74,5.74,0,0,1-5.74,5.74H108.91a5.74,5.74,0,0,1-5.74-5.74v-3.6a1.4,1.4,0,0,0-1.38-1.38H91.23A2.23,2.23,0,0,1,89,265.7V250.91a2.23,2.23,0,0,1,2.23-2.23h10.56a1.4,1.4,0,0,0,1.38-1.38v-3.6a5.74,5.74,0,0,1,5.74-5.74h52.32Z" style="fill:#50239f"/><rect x="129.27" y="217.39" width="288.57" height="81.62" rx="10.91" style="fill:#fff"/><path d="M406.93,299v-1.37H140.19a9.53,9.53,0,0,1-9.54-9.54V228.31a9.53,9.53,0,0,1,9.54-9.54H406.93a9.54,9.54,0,0,1,9.54,9.54V288.1a9.54,9.54,0,0,1-9.54,9.54v2.75a12.29,12.29,0,0,0,12.29-12.29V228.31A12.29,12.29,0,0,0,406.93,216H140.19a12.29,12.29,0,0,0-12.29,12.29V288.1a12.29,12.29,0,0,0,12.29,12.29H406.93Z" style="fill:#50239f"/><rect x="211.18" y="229.59" width="151.79" height="57.22" rx="4" style="fill:#d8caff"/><path d="M668.59,299.23l-250.9-.12a40.81,40.81,0,0,1,0-81.62l250.9.12a2.54,2.54,0,0,1,2.53,2.54l0,76.55A2.53,2.53,0,0,1,668.59,299.23Z" style="fill:#fff"/><path d="M668.59,299.23v-1.37l-250.9-.12a39.44,39.44,0,0,1-39.41-39.44H377.1l1.17.08v-.09H377.1l1.17.08v-.1a39.43,39.43,0,0,1,39.43-39.41h0v-1.08l-.06,1.08h.06v-1.08l-.06,1.08h.07l250.9.12a1.16,1.16,0,0,1,1.16,1.16l0,76.55a1.16,1.16,0,0,1-1.16,1.16v2.75a3.91,3.91,0,0,0,3.91-3.91l0-76.55a3.91,3.91,0,0,0-3.91-3.91l-250.9-.12v1.37l.07-1.37h-.09a42.18,42.18,0,0,0-42.18,42.16h1.37l-1.37-.09v.12h0a42.18,42.18,0,0,0,42.16,42.19l250.9.12Z" style="fill:#50239f"/><path d="M436.34,246a22.18,22.18,0,1,1-30.73-6.26A22.19,22.19,0,0,1,436.34,246Z" style="fill:#d8caff"/><path d="M430.64,249.73a15.35,15.35,0,1,1-21.27-4.33A15.34,15.34,0,0,1,430.64,249.73Z" style="fill:#50239f"/><path d="M188.33,258.2A22.18,22.18,0,1,1,166.15,236,22.18,22.18,0,0,1,188.33,258.2Z" style="fill:#d8caff"/><path d="M397,258.2A20.8,20.8,0,1,1,417.84,279a1.38,1.38,0,0,0,0,2.75,23.56,23.56,0,1,0-23.55-23.56,1.38,1.38,0,1,0,2.75,0Z" style="fill:#50239f"/><path d="M145.35,258.2A20.8,20.8,0,1,1,166.15,279a1.38,1.38,0,0,0,0,2.75A23.56,23.56,0,1,0,142.6,258.2a1.38,1.38,0,1,0,2.75,0Z" style="fill:#50239f"/></g><line x1="230.88" y1="249.02" x2="251.43" y2="269.57" style="fill:#fff"/><path d="M230.28,249.62l20.55,20.55A.85.85,0,1,0,252,269l-20.55-20.55a.85.85,0,1,0-1.2,1.2" style="fill:#50239f"/><line x1="230.88" y1="269.57" x2="251.43" y2="249.02" style="fill:#fff"/><path d="M231.48,270.17,252,249.62a.85.85,0,1,0-1.2-1.2L230.28,269a.85.85,0,1,0,1.2,1.2" style="fill:#50239f"/><path d="M314.92,261,324,273.59a2.84,2.84,0,0,0,4.69-.12L347.61,244a2.83,2.83,0,1,0-4.77-3.06L326.18,266.9l-6.66-9.26a2.83,2.83,0,0,0-4.6,3.31Z" style="fill:#50239f"/><path d="M269.1,86.18q-6.5-.5-13.1-.5a170.71,170.71,0,0,0-67,13.6,1.46,1.46,0,0,0,1.14,2.69A167.63,167.63,0,0,1,256,88.6q6.5,0,12.88.49a1.46,1.46,0,0,0,.22-2.91Zm144,102.6A171.61,171.61,0,0,0,302.81,92.16,1.46,1.46,0,1,0,302,95a168.7,168.7,0,0,1,108.4,95,1.46,1.46,0,0,0,2.68-1.16Z" style="fill:#50239f"/><path d="M416.71,165.49A1.46,1.46,0,0,0,415,166.7l-3.56,22.06L393,176.2a1.46,1.46,0,1,0-1.64,2.42l20.39,13.85a1.46,1.46,0,0,0,1.4.13,1.49,1.49,0,0,0,.86-1.11l3.93-24.33a1.58,1.58,0,0,0-.1-.81A1.46,1.46,0,0,0,416.71,165.49Z" style="fill:#50239f"/><path d="M103.17,269.31v-9.89a1.38,1.38,0,0,0-2.75,0v9.89a1.38,1.38,0,0,0,2.75,0" style="fill:#50239f"/></g></svg>