<svg xmlns="http://www.w3.org/2000/svg" xmlns:xlink="http://www.w3.org/1999/xlink" width="512" height="512" viewBox="0 0 512 512"><defs><clipPath id="b97e70cb-f727-47a3-b716-9514b0f224c1"><path d="M495.17,256c0,132.09-107.08,239.17-239.17,239.17S16.83,388.09,16.83,256,123.91,16.83,256,16.83,495.17,123.91,495.17,256" style="fill:none"/></clipPath></defs><g id="b021ecc4-5010-4540-b151-6ec566029400" data-name="3"><polygon points="23.83 188.45 23.86 188.43 23.85 188.47 23.83 188.45" style="fill:#f2aa2f"/><path d="M495.17,256c0,132.09-107.08,239.17-239.17,239.17S16.83,388.09,16.83,256,123.91,16.83,256,16.83,495.17,123.91,495.17,256" style="fill:#00e8cc"/><g style="clip-path:url(#b97e70cb-f727-47a3-b716-9514b0f224c1)"><path d="M217,312.77,183.47,343a112.36,112.36,0,0,0-26.79,130.67q6.09,2.79,12.36,5.23a103.75,103.75,0,0,1,20.12-129.58l33.57-30.19L217,312.77" style="fill:#00b8cc"/><path d="M223.56,289.43l-11,9.87a5.68,5.68,0,0,0-.42,8l4.88,5.43,5.69,6.33,5,5.61a5.7,5.7,0,0,0,8,.42l11-9.87-23.23-25.83" style="fill:#00b8cc"/><path d="M243,256.63l-20,18a9.53,9.53,0,0,0-.71,13.46l1.23,1.37,23.23,25.83,1.69,1.88a9.55,9.55,0,0,0,13.47.72l20-18L243,256.63" style="fill:#00b8cc"/><path d="M401.74,66.34,232.19,218.83a17.21,17.21,0,0,0-1.29,24.32L243,256.63l38.9,43.26L294,313.35a17.25,17.25,0,0,0,24.33,1.29L479.23,170A239.84,239.84,0,0,0,401.74,66.34" style="fill:#00b8cc"/><path d="M223.36,261l-38.94,35a110.76,110.76,0,0,0-8.29,156.43L211,491.22a105.11,105.11,0,0,1-7.87,148.43l-79.79,71.76,3.79,4.21,79.79-71.76a110.76,110.76,0,0,0,8.29-156.43l-34.87-38.77a105.11,105.11,0,0,1,7.87-148.43l38.95-35-3.8-4.22Z" style="fill:#50239f"/><path d="M314.75,209.54,288.6,180.46a9.55,9.55,0,0,0-13.47-.71L223,226.6a9.53,9.53,0,0,0-.71,13.46l1.23,1.37-11,9.87a5.68,5.68,0,0,0-.42,8l15.61,17.36a5.71,5.71,0,0,0,8,.43l11-9.87,1.69,1.88a9.54,9.54,0,0,0,13.47.72L314,223A9.55,9.55,0,0,0,314.75,209.54Z" style="fill:#d8caff"/><path d="M314.75,209.54l1-.92-26.15-29.08a10.92,10.92,0,0,0-15.41-.81l-52.09,46.84a10.92,10.92,0,0,0-.81,15.41l.3.35-10,8.95a7.07,7.07,0,0,0-.53,10l15.62,17.36a7,7,0,0,0,10,.53l10-8.95.77.86a10.9,10.9,0,0,0,15.41.82L315,224a10.92,10.92,0,0,0,.81-15.41l-1,.92-1,.92a8.17,8.17,0,0,1-.61,11.53L261,268.83a8.15,8.15,0,0,1-11.53-.61l-1.69-1.88a1.38,1.38,0,0,0-1.94-.1l-11,9.87a4.38,4.38,0,0,1-2.89,1.11,4.33,4.33,0,0,1-3.22-1.44l-15.61-17.36a4.26,4.26,0,0,1-1.11-2.89,4.31,4.31,0,0,1,1.43-3.21l11-9.87a1.38,1.38,0,0,0,.1-1.94l-1.23-1.37a8.16,8.16,0,0,1,.61-11.52l52.09-46.85a8.17,8.17,0,0,1,11.53.61l26.15,29.08Z" style="fill:#50239f"/><path d="M631.48-15,318.36,266.64A17.23,17.23,0,0,1,294,265.35l-63.13-70.2a17.21,17.21,0,0,1,1.29-24.32L545.31-110.78a17.23,17.23,0,0,1,24.33,1.29L632.77-39.3A17.23,17.23,0,0,1,631.48-15Z" style="fill:#fff"/><path d="M631.48-15l-.92-1L317.44,265.61a15.85,15.85,0,0,1-22.39-1.18l-63.13-70.2a15.85,15.85,0,0,1,1.19-22.38L546.23-109.76a15.74,15.74,0,0,1,10.59-4.06,15.79,15.79,0,0,1,11.8,5.25l63.12,70.19a15.76,15.76,0,0,1,4.07,10.6A15.82,15.82,0,0,1,630.56-16l.92,1,.92,1a18.57,18.57,0,0,0,6.16-13.83,18.58,18.58,0,0,0-4.77-12.44l-63.13-70.19a18.54,18.54,0,0,0-13.84-6.16,18.47,18.47,0,0,0-12.43,4.77L231.27,169.8a18.61,18.61,0,0,0-1.39,26.27L293,266.27a18.59,18.59,0,0,0,26.26,1.39L632.4-13.95Z" style="fill:#50239f"/><path d="M561.4,22.23,393.23,173.29a6.28,6.28,0,0,1-8.87-.47l-51.72-57.58a6.28,6.28,0,0,1,.48-8.87L501.29-44.69a6.28,6.28,0,0,1,8.87.47l51.72,57.58A6.28,6.28,0,0,1,561.4,22.23Z" style="fill:#d8caff"/><path d="M331.78,168a34.86,34.86,0,1,1-49.23-2.64A34.86,34.86,0,0,1,331.78,168Z" style="fill:#d8caff"/><path d="M280.93,213.71a33.49,33.49,0,1,1,47.29,2.53,1.38,1.38,0,0,0,1.84,2,36.24,36.24,0,1,0-51.17-2.75,1.37,1.37,0,1,0,2-1.83Z" style="fill:#50239f"/></g><path d="M335.1,343.16l6.08,9.54a1.38,1.38,0,0,0,2.32-1.48l-6.08-9.54a1.38,1.38,0,1,0-2.32,1.48Zm-27.44-43L326,328.82a1.38,1.38,0,0,0,1.9.42,1.36,1.36,0,0,0,.42-1.89L310,298.67a1.38,1.38,0,0,0-2.32,1.48Z" style="fill:#50239f"/><path d="M144.18,165.93l-8-3.47a1.38,1.38,0,0,0-1.09,2.53l8,3.46a1.37,1.37,0,1,0,1.09-2.52Zm39,16.84L159.8,172.66a1.38,1.38,0,0,0-1.09,2.53l23.42,10.1a1.37,1.37,0,1,0,1.09-2.52Z" style="fill:#50239f"/><path d="M99.35,254l-6.74,1.75a1.37,1.37,0,1,0,.69,2.66l6.74-1.75a1.37,1.37,0,1,0-.69-2.66Zm46.31-12-30.88,8a1.38,1.38,0,0,0,.7,2.67l30.87-8a1.37,1.37,0,0,0-.69-2.66Z" style="fill:#50239f"/><path d="M267.32,370.36l-.52,11.3a1.37,1.37,0,1,0,2.74.13l.53-11.3a1.38,1.38,0,0,0-2.75-.13Zm2.39-51-1.59,34a1.37,1.37,0,1,0,2.74.13l1.59-34a1.37,1.37,0,1,0-2.74-.12Z" style="fill:#50239f"/><path d="M191.87,103.22l15.6,30.23a1.38,1.38,0,0,0,2.45-1.26L194.31,102a1.37,1.37,0,1,0-2.44,1.26Z" style="fill:#50239f"/><line x1="223.34" y1="241.08" x2="237.41" y2="256.73" style="fill:#d8caff"/><path d="M222.31,242l14.08,15.65a1.37,1.37,0,0,0,2-1.84l-14.07-15.65a1.38,1.38,0,1,0-2.05,1.84" style="fill:#50239f"/></g></svg>