<svg xmlns="http://www.w3.org/2000/svg" viewBox="0 0 1024 1024"><defs><style>.cls-1{isolation:isolate;}.cls-2,.cls-4{fill:#50239f;}.cls-2{opacity:0.24;mix-blend-mode:multiply;}.cls-3,.cls-5{fill:none;stroke-linecap:round;stroke-linejoin:round;}.cls-3{stroke:#00e8cc;stroke-width:10.47px;stroke-dasharray:41.89 27.93;}.cls-5{stroke:#fff;stroke-width:6.6px;}.cls-6,.cls-7{fill:#fff;}.cls-7{opacity:0.08;mix-blend-mode:lighten;}</style></defs><title>no-imports</title><g class="cls-1"><g id="Layer_1" data-name="Layer 1"><rect class="cls-2" x="138.18" y="382.78" width="436.33" height="261.8" rx="27.93" transform="translate(-60.65 979.48) rotate(-103.42)"/><line class="cls-3" x1="355.87" y1="708.95" x2="192.02" y2="367.23"/><rect class="cls-4" x="116.07" y="370.99" width="436.33" height="261.8" rx="27.93" transform="translate(-76.41 943.44) rotate(-103.42)"/><path class="cls-5" d="M327.23,702.07A54.11,54.11,0,1,1,368,637.28a54.12,54.12,0,0,1-40.72,64.79"/><polygon class="cls-6" points="286.84 678.81 301.29 675.51 297.99 661.06 312.36 657.78 309.06 643.33 294.69 646.61 291.4 632.15 276.95 635.45 286.84 678.81"/><polygon class="cls-6" points="333.34 683.4 330.04 668.95 358.44 662.47 355.14 648.01 312.37 657.78 315.67 672.23 301.29 675.51 304.59 689.96 333.34 683.4"/><polygon class="cls-6" points="291.4 632.15 305.77 628.87 309.07 643.33 351.84 633.56 348.54 619.11 320.14 625.59 316.85 611.14 288.1 617.7 291.4 632.15"/><rect class="cls-6" x="302.68" y="632.75" width="44.47" height="29.13" transform="translate(-233.87 1108.11) rotate(-102.86)"/><line class="cls-5" x1="268.17" y1="546.09" x2="240.34" y2="424.12"/><line class="cls-5" x1="292.79" y1="540.47" x2="264.96" y2="418.5"/><line class="cls-5" x1="315.76" y1="534.98" x2="296.72" y2="451.57"/><line class="cls-3" x1="441.84" y1="671.07" x2="357.52" y2="301.59"/><path class="cls-7" d="M251,717.31,162.77,347.2a27.92,27.92,0,0,1,20.68-33.64l200.33-47.78a27.93,27.93,0,0,1,33.65,20.69"/><line class="cls-5" x1="516.49" y1="509.03" x2="525.16" y2="423.92"/><rect class="cls-2" x="264.81" y="371.27" width="436.33" height="261.8" rx="27.93" transform="translate(-8.39 996.14) rotate(-91.27)"/><line class="cls-3" x1="485.64" y1="692.39" x2="397.36" y2="323.84"/><rect class="cls-4" x="289.89" y="354.51" width="436.33" height="261.8" rx="27.93" transform="translate(34.01 1004.09) rotate(-91.27)"/><path class="cls-5" d="M459.1,679.64a54.11,54.11,0,1,1,53.43-54.77,54.12,54.12,0,0,1-53.43,54.77"/><polygon class="cls-6" points="424.5 648.4 439.32 648.22 439.14 633.39 453.87 633.21 453.69 618.39 438.95 618.57 438.77 603.75 423.95 603.93 424.5 648.4"/><polygon class="cls-6" points="468.99 662.67 468.81 647.85 497.93 647.49 497.75 632.67 453.88 633.21 454.06 648.03 439.32 648.22 439.5 663.04 468.99 662.67"/><polygon class="cls-6" points="438.77 603.75 453.51 603.57 453.7 618.39 497.57 617.85 497.38 603.02 468.26 603.38 468.07 588.56 438.59 588.92 438.77 603.75"/><rect class="cls-6" x="446.12" y="611.06" width="44.47" height="29.13" transform="translate(-151.43 1101.67) rotate(-90.71)"/><line class="cls-5" x1="434.18" y1="514.73" x2="432.63" y2="389.63"/><line class="cls-5" x1="459.43" y1="514.42" x2="457.88" y2="389.32"/><line class="cls-5" x1="483.04" y1="513.88" x2="481.98" y2="428.33"/><line class="cls-3" x1="577.66" y1="673.45" x2="572.97" y2="294.5"/><path class="cls-7" d="M378.26,524.53,373,298.11a27.92,27.92,0,0,1,27.3-28.53L606.18,265a27.93,27.93,0,0,1,28.54,27.3"/><rect class="cls-2" x="443.24" y="387.39" width="436.33" height="261.8" rx="27.93" transform="translate(-36.09 986.88) rotate(-71.98)"/><line class="cls-3" x1="587.75" y1="693.67" x2="626.18" y2="316.64"/><rect class="cls-4" x="459.12" y="374.81" width="436.33" height="261.8" rx="27.93" transform="translate(-13.16 993.3) rotate(-71.98)"/><path class="cls-5" d="M566.9,672.86a54.11,54.11,0,1,1,68.53-34.05,54.12,54.12,0,0,1-68.53,34.05"/><polygon class="cls-6" points="544.57 631.95 558.62 636.67 563.34 622.62 577.31 627.31 582.03 613.26 568.07 608.57 572.79 594.51 558.74 589.79 544.57 631.95"/><polygon class="cls-6" points="581.85 660.12 586.57 646.07 614.18 655.35 618.9 641.29 577.32 627.32 572.6 641.37 558.62 636.67 553.89 650.72 581.85 660.12"/><polygon class="cls-6" points="572.79 594.51 586.77 599.21 582.04 613.26 623.63 627.24 628.35 613.19 600.74 603.91 605.47 589.86 577.51 580.46 572.79 594.51"/><rect class="cls-6" x="571.25" y="610.37" width="44.47" height="29.13" transform="matrix(0.32, -0.95, 0.95, 0.32, -187.99, 988.33)"/><line class="cls-5" x1="597.86" y1="508.97" x2="637.73" y2="390.39"/><line class="cls-5" x1="621.8" y1="517.02" x2="661.67" y2="398.44"/><line class="cls-5" x1="644.26" y1="524.31" x2="671.52" y2="443.22"/><line class="cls-3" x1="680.86" y1="706.18" x2="801.62" y2="346.96"/><path class="cls-7" d="M494,646.12,611.67,284.31a27.92,27.92,0,0,1,35.19-17.92l195.85,63.72a27.93,27.93,0,0,1,17.91,35.2"/></g></g></svg>