<svg xmlns="http://www.w3.org/2000/svg" xmlns:xlink="http://www.w3.org/1999/xlink" viewBox="0 0 512 512"><defs><style>.cls-1,.cls-8{fill:#fff;}.cls-2{opacity:0.06;}.cls-10,.cls-3,.cls-6,.cls-9{fill:none;}.cls-3{stroke:#50239f;stroke-width:2.9px;}.cls-3,.cls-9{stroke-miterlimit:10;}.cls-4{clip-path:url(#clip-path);}.cls-5,.cls-7{fill:#00e8cc;}.cls-6,.cls-9{stroke:#fff;}.cls-10,.cls-6,.cls-7{stroke-linecap:round;}.cls-10,.cls-6,.cls-7,.cls-8{stroke-linejoin:round;}.cls-6{stroke-width:2.06px;}.cls-7,.cls-8{stroke:#2f54a1;stroke-width:2.12px;}.cls-9{stroke-width:1.02px;}.cls-10{stroke:#00e8cc;stroke-width:8px;}</style><clipPath id="clip-path"><path id="_Clipping_Path_" data-name="&lt;Clipping Path&gt;" class="cls-1" d="M343.7,23.71H148.51a19.35,19.35,0,0,0-19.35,19.35V448.64a11.73,11.73,0,0,0,11.73,11.73H351.32a11.73,11.73,0,0,0,11.73-11.73V43.05A19.35,19.35,0,0,0,343.7,23.71Z"/></clipPath></defs><title>AirGap_Onboarding_Wallet</title><g id="Layer_11" data-name="Layer 11"><path id="_Path_" data-name="&lt;Path&gt;" class="cls-2" d="M361.23,32.18H162.43a24.14,24.14,0,0,0-24.14,24.14V477.59a19.22,19.22,0,0,0,19.22,19.22H366.15a24,24,0,0,0,24-24V61.07A28.89,28.89,0,0,0,361.23,32.18Z"/><path id="_Clipping_Path_2" data-name="&lt;Clipping Path&gt;" class="cls-1" d="M344.82,16.81H146A24.14,24.14,0,0,0,121.88,41V462.22a19.22,19.22,0,0,0,19.22,19.22H349.74a24,24,0,0,0,24-24V45.7A28.89,28.89,0,0,0,344.82,16.81Z"/><path id="_Clipping_Path_3" data-name="&lt;Clipping Path&gt;" class="cls-3" d="M344.82,16.81H146A24.14,24.14,0,0,0,121.88,41V462.22a19.22,19.22,0,0,0,19.22,19.22H349.74a24,24,0,0,0,24-24V45.7A28.89,28.89,0,0,0,344.82,16.81Z"/><path id="_Clipping_Path_4" data-name="&lt;Clipping Path&gt;" class="cls-1" d="M343.7,23.71H148.51a19.35,19.35,0,0,0-19.35,19.35V448.64a11.73,11.73,0,0,0,11.73,11.73H351.32a11.73,11.73,0,0,0,11.73-11.73V43.05A19.35,19.35,0,0,0,343.7,23.71Z"/><g class="cls-4"><rect class="cls-5" x="110.51" y="245.08" width="285.71" height="225.17"/><rect class="cls-5" x="110.51" y="-1.94" width="285.71" height="237.45"/></g><path id="_Path_2" data-name="&lt;Path&gt;" class="cls-6" d="M167.6,132.49a35.59,35.59,0,1,1,35.59,35.59,35.59,35.59,0,0,1-35.59-35.59"/><polygon class="cls-1" points="188.42 109.99 188.42 119.74 198.17 119.74 198.17 129.43 207.92 129.43 207.92 119.74 217.67 119.74 217.67 109.99 188.42 109.99"/><polygon class="cls-1" points="178.67 139.13 188.42 139.13 188.42 158.29 198.17 158.29 198.17 129.44 188.42 129.44 188.42 119.74 178.67 119.74 178.67 139.13"/><polygon class="cls-1" points="217.67 119.74 217.67 129.44 207.92 129.44 207.92 158.29 217.67 158.29 217.67 139.13 227.42 139.13 227.42 119.74 217.67 119.74"/><rect class="cls-1" x="188.42" y="129.44" width="29.25" height="19.16"/><line class="cls-7" x1="217.3" y1="33.5" x2="278.61" y2="33.5"/><line class="cls-6" x1="259" y1="109.99" x2="325.96" y2="109.99"/><line class="cls-6" x1="259" y1="123.51" x2="325.96" y2="123.51"/><line class="cls-6" x1="259" y1="137.02" x2="292.48" y2="137.02"/><circle class="cls-8" cx="151.73" cy="39.24" r="5.74"/><line class="cls-9" x1="261.97" y1="470.26" x2="233.93" y2="470.26"/><rect class="cls-1" x="197.55" y="303.74" width="103.63" height="103.63" rx="51.82" ry="51.82"/><polyline class="cls-10" points="219.94 359.14 232.07 377.92 278.8 333.19"/></g></svg>