<?xml version="1.0" encoding="utf-8"?>
<!-- Generator: Adobe Illustrator 23.0.0, SVG Export Plug-In . SVG Version: 6.00 Build 0)  -->
<svg version="1.1" xmlns="http://www.w3.org/2000/svg" xmlns:xlink="http://www.w3.org/1999/xlink" x="0px" y="0px"
	 viewBox="0 0 456.17 1132.61" style="enable-background:new 0 0 456.17 1132.61;" xml:space="preserve">
<style type="text/css">
	.st0{fill:none;stroke:#00E8CC;stroke-width:18;stroke-linecap:round;stroke-linejoin:round;stroke-miterlimit:10;}
	
		.st1{fill:none;stroke:#50239F;stroke-width:18;stroke-linecap:round;stroke-linejoin:round;stroke-miterlimit:10;stroke-dasharray:92,133,0,52.1611;}
	.st2{fill:none;stroke:#50239F;stroke-width:18;stroke-linecap:round;stroke-miterlimit:10;}
	.st3{fill:#4D2E9A;}
	.st4{fill:#321664;}
	.st5{clip-path:url(#XMLID_3_);fill:#00E8CC;}
	
		.st6{fill:none;stroke:#FFFFFF;stroke-width:4.0058;stroke-linecap:round;stroke-linejoin:round;stroke-miterlimit:10;stroke-dasharray:56.5521,16.73,26.1553,18.3794;}
	.st7{fill:#E6E6E6;}
	.st8{fill:none;stroke:#00E8CC;stroke-width:4.477;stroke-linecap:round;stroke-miterlimit:10;}
</style>
<g id="Layer_4">
</g>
<g id="Layer_2">
	<g>
		<path class="st0" d="M228.58,247.61v260.51c0,48.5,32.5,90.99,79.31,103.68l117.37,32.52c29.23,8.1,29.21,49.54-0.03,57.62
			l-117.76,32.51c-46.81,12.7-79.31,55.18-79.31,103.68v273.48"/>
		<path class="st1" d="M228.58,247.61v260.51c0,48.5,32.5,90.99,79.31,103.68l117.37,32.52c29.23,8.1,29.21,49.54-0.03,57.62
			l-117.76,32.51c-46.81,12.7-79.31,55.18-79.31,103.68v273.48"/>
	</g>
	<line class="st2" x1="228.67" y1="180.61" x2="228.67" y2="323.61"/>
</g>
<g id="Layer_1">
	<path d="M347.92,75.47h-85.66c-6.3,0-11.41-5.11-11.41-11.41V51.62c0-6.3,5.11-11.41,11.41-11.41h85.66
		c6.3,0,11.41,5.11,11.41,11.41v12.44C359.33,70.36,354.22,75.47,347.92,75.47z"/>
	<path class="st3" d="M319.84,163.29H188.92c-12.95,0-23.44-10.5-23.44-23.44V63.64c0-12.95,10.5-23.44,23.44-23.44h130.92
		c12.95,0,23.44,10.5,23.44,23.44v76.21C343.28,152.8,332.79,163.29,319.84,163.29z"/>
	<path class="st3" d="M297.05,184.29H161.54c-4.42,0-8.01-3.59-8.01-8.01v-8.73c0-4.42,3.59-8.01,8.01-8.01h135.51
		c4.42,0,8.01,3.59,8.01,8.01v8.73C305.06,180.7,301.47,184.29,297.05,184.29z"/>
	<rect x="179.1" y="40.21" class="st3" width="101.33" height="130.67"/>
	<path class="st4" d="M224.2,164.34h-38.71c-12.95,0-23.44-10.5-23.44-23.44V64.69c0-12.95,10.5-23.44,23.44-23.44h38.71
		c12.95,0,23.44,10.5,23.44,23.44v76.21C247.65,153.84,237.15,164.34,224.2,164.34z"/>
	<circle cx="179.1" cy="105.55" r="65.33"/>
	<g>
		<defs>
			<circle id="XMLID_2_" cx="179.1" cy="105.55" r="53.33"/>
		</defs>
		<use xlink:href="#XMLID_2_"  style="overflow:visible;fill:#00BBA4;"/>
		<clipPath id="XMLID_3_">
			<use xlink:href="#XMLID_2_"  style="overflow:visible;"/>
		</clipPath>
		<circle class="st5" cx="185.87" cy="104.52" r="49.38"/>
	</g>
	<path class="st6" d="M179.1,66.04c21.82,0,39.51,17.69,39.51,39.51s-17.69,39.51-39.51,39.51"/>
	<path d="M197.44,184.29h-37.46c-4.42,0-8.01-3.59-8.01-8.01v-8.73c0-4.42,3.59-8.01,8.01-8.01h37.46c4.42,0,8.01,3.59,8.01,8.01
		v8.73C205.45,180.7,201.86,184.29,197.44,184.29z"/>
	<path d="M322.1,117.38H268.1c-6.54,0-11.83-5.3-11.83-11.83v0c0-6.54,5.3-11.83,11.83-11.83h53.99c6.54,0,11.83,5.3,11.83,11.83v0
		C333.93,112.08,328.63,117.38,322.1,117.38z"/>
	<path class="st7" d="M268.77,115.01h-0.59c-5.23,0-9.46-4.24-9.46-9.46v0c0-5.23,4.24-9.46,9.46-9.46h0.59
		c5.23,0,9.46,4.24,9.46,9.46v0C278.23,110.77,274,115.01,268.77,115.01z"/>
	<line class="st8" x1="148.23" y1="27.57" x2="139.42" y2="2.24"/>
	<line class="st8" x1="113.05" y1="58.74" x2="92.16" y2="41.93"/>
	<line class="st8" x1="91.92" y1="93.11" x2="65.24" y2="92.56"/>
</g>
<g id="Layer_3">
</g>
</svg>
