<?xml version="1.0" encoding="UTF-8"?><svg xmlns="http://www.w3.org/2000/svg" width="600" height="600" viewBox="0 0 600 600"><defs><style>.h{stroke-width:0px;}</style></defs><g id="c"><g id="d"><path class="h" d="m431.9756,233.9287v-10.5609c0-.2917.2364-.5281.5281-.5281h32.3323c.2917,0,.5281-.2364.5281-.5281v-10.6919l-.0545.0508h11.1812l-.0545-.0508v10.5765c0,.2917.2364.5281.5281.5281h21.1245c.2917,0,.5281.2364.5281.5281v54.5409c0,.2917-.2364.5281-.5281.5281h-54.4278c-.2917,0-.5281-.2364-.5281-.5281v-21.0175c0-.2917-.2364-.5281-.5281-.5281h-10.1013c-.2917,0-.5281-.2364-.5281-.5281v-10.7112l-.0545.0508h10.4969c.2917,0,.5281-.2364.5281-.5281v-10.1251c0-.2917-.2364-.5281-.5281-.5281h-10.4969s.0545.0508.0545.0508Zm22.3616.5856v32.1024c0,.2917.2364.5281.5281.5281h32.1027c.2917,0,.5281-.2364.5281-.5281v-32.1024c0-.2917-.2364-.5281-.5281-.5281h-32.1027c-.2917,0-.5281.2364-.5281.5281Z"/><path class="h" d="m398.5298,245.0084v10.5818c0,.2917-.2364.5281-.5281.5281h-9.9424c-.2917,0-.5281.2364-.5281.5281v9.9713c0,.2917.2364.5281.5281.5281h21.0453c.2917,0,.5281-.2364.5281-.5281v-9.8191c0-.2917.2364-.5281.5281-.5281h10.0264c.2917,0,.5281.2364.5281.5281v9.9058c0,.2917.2364.5281.5281.5281h10.0655c.2917,0,.5281.2364.5281.5281v10.0445c0,.2917-.2364.5281-.5281.5281h-54.3929c-.2917,0-.5281-.2364-.5281-.5281v-10.0169c0-.2917-.2364-.5281-.5281-.5281h-10.7117l.0526.0526c-.0007-3.7249-.0014-7.4499-.0021-11.1748l-.0545.0508h10.4994c.2917,0,.5281-.2364.5281-.5281v-21.2547c0-.2917-.2364-.5281-.5281-.5281h-10.4994l.0545.0508v-10.5757c0-.2917.2364-.5281.5281-.5281h9.9383c.2917,0,.5281-.2364.5281-.5281v-10.013c0-.2917-.2364-.5281-.5281-.5281h-20.9576c-.2917,0-.5281-.2364-.5281-.5281v-10.0646c0-.2917.2364-.5281.5281-.5281h54.4239c.2917,0,.5281.2364.5281.5281v10.5066l.0545-.0508h-21.6313c-.2917,0-.5281.2364-.5281.5281v32.3842c0,.2917.2364.5281.5281.5281h10.5018l-.0545-.0508Z"/><path class="h" d="m420.7869,144.847c-.0006,3.7239-.0012,7.4478-.0018,11.1717l.0527-.0526h-10.5742c-.2917,0-.5281.2364-.5281.5281v32.2565c0,.2917-.2364.5281-.5281.5281h-54.5411c-.2917,0-.5281-.2364-.5281-.5281v-54.3964c0-.2917.2364-.5281.5281-.5281h54.4054c.2917,0,.5281.2364.5281.5281v10.0172c0,.2917.2364.5281.5281.5281h10.7116l-.0526-.0527Zm-55.0074,33.2766h32.1022c.2917,0,.5281-.2364.5281-.5281v-32.1007c0-.2917-.2364-.5281-.5281-.5281h-32.1022c-.2917,0-.5281.2364-.5281.5281v32.1007c0,.2917.2364.5281.5281.5281Z"/><path class="h" d="m465.3642,200.54v-10.5792c0-.2917-.2364-.5281-.5281-.5281h-21.1265c-.2917,0-.5281-.2364-.5281-.5281v-54.5436c0-.2917.2364-.5281.5281-.5281h54.3353c.2917,0,.5281.2364.5281.5281v54.4126c0,.2917-.2364.5281-.5281.5281h-21.0803c-.2917,0-.5281.2364-.5281.5281v10.7102l.0545-.0508h-11.1812l.0545.0508Zm-11.0252-55.0639v32.1024c0,.2917.2364.5281.5281.5281h32.0993c.2917,0,.5281-.2364.5281-.5281v-32.1024c0-.2917-.2364-.5281-.5281-.5281h-32.0993c-.2917,0-.5281.2364-.5281.5281Z"/><path class="h" d="m465.3642,211.6196c-14.0305.0083-28.061.016-42.0916.0265-.8031.0006-1.6061.0231-2.4113.0335-.0022-.002.0591.0516.0591.0516v-21.7298c0-.2917.2364-.5281.5281-.5281h9.9049c.2917,0,.5281.2364.5281.5281v10.0104c0,.2917.2384.5281.5301.5281,11.1111,0,22.0318,0,32.9525,0,0,0-.0545-.0508-.0545-.0508v11.1813l.0545-.0508Z"/><path class="h" d="m420.785,156.0187h10.5028c.2917,0,.5281.2364.5281.5281v21.0574c0,.2917-.2364.5281-.5281.5281h-9.9218c-.2917,0-.5281-.237-.5281-.5287,0-7.2255,0-14.4315-.0001-21.6375-.0001,0-.0528.0525-.0528.0525Z"/><path class="h" d="m476.4365,200.54h21.627c.2917,0,.5281.2364.5281.5281v10.0235c0,.2917-.2364.5281-.5281.5281h-21.627s.0545.0508.0545.0508v-11.1813l-.0545.0508Z"/><path class="h" d="m409.6594,222.7492v21.731c0,.2917-.2393.5281-.531.5281-3.58,0-7.0892,0-10.5985,0,0,0,.0545.0508.0545.0508v-21.731c0-.2917.2364-.5281.5281-.5281h10.6014l-.0545-.0508Z"/><path class="h" d="m365.1985,256.1379h-10.5017c-.2917,0-.5281-.2364-.5281-.5281v-21.153c0-.2917.2364-.5281.5281-.5281h10.5017s-.0545-.0508-.0545-.0508v22.3109l.0545-.0508Z"/><path class="h" d="m420.8394,144.8996v-10.4987c0-.2917.2364-.5281.5281-.5281h9.9279c.2917,0,.5281.2364.5281.5281v9.9178c0,.2917-.2374.5281-.529.5281-3.5086,0-7.0081,0-10.5075.0001,0,.0001.0525.0528.0525.0528Z"/><path class="h" d="m409.6594,211.6695c3.7521.0193,7.5043.0385,11.2587.0597.0023.0019-.059-.0517-.0568-.0497.0021,3.4564.0022,6.911.0022,10.5365,0,.2917-.241.5332-.5327.5332-3.6613,0-7.1664,0-10.6714,0,0,0,.0545.0508.0545.0508v-11.1813l-.0545.0508Z"/><path class="h" d="m431.9756,245.0084h-10.4994c-.2917,0-.5281-.2364-.5281-.5281v-10.0235c0-.2917.2364-.5281.5281-.5281h10.4994s-.0545-.0508-.0545-.0508v11.1813l.0545-.0508Z"/><path class="h" d="m365.1481,267.2601v10.4987c0,.2917-.2364.5281-.5281.5281h-9.928c-.2917,0-.5281-.2364-.5281-.5281v-9.9177c0-.2917.2374-.5281.5291-.5281,3.5087,0,7.0082,0,10.5077-.0001,0-.0001-.0525-.0528-.0525-.0528Z"/><rect class="h" x="465.4627" y="245.1198" width="10.908" height="10.8995" rx=".5281" ry=".5281"/><rect class="h" x="376.4297" y="156.1106" width="10.9013" height="10.9345" rx=".5281" ry=".5281"/><rect class="h" x="465.4827" y="156.1275" width="10.8995" height="10.9008" rx=".5281" ry=".5281"/></g></g><g id="g"><polygon class="h" points="295.7509 225.0842 286.5536 224.2481 287.7519 211.0658 271.955 209.6296 270.7558 222.812 261.5585 221.9755 263.5937 199.5959 297.7851 202.7045 295.7509 225.0842"/><path class="h" d="m181.1601,470.3258h-28.7812v-5.067c0-.3738.1328-7.2932,9.1182-10.34l-39.8018-74.9014,30.7598-60.8337,9.043,4.5728-28.3887,56.145,48.0508,90.4243Z"/><path class="h" d="m250.3749,470.3258h-28.7803l48.0967-90.513-22.7969-48.85,9.1836-4.2855,24.9336,53.4288-39.7539,74.813c8.9844,3.0468,9.1172,9.966,9.1172,10.3398v5.067Z"/><path class="h" d="m294.7403,338.6318l-188.1936-17.1099c-3.1227-.2839-5.424-3.0455-5.1401-6.1682l9.6262-105.8798c.2839-3.1227,3.0455-5.424,6.1682-5.1401l188.1927,17.1098c3.1227.2839,5.424,3.0455,5.1401,6.1682l-9.6253,105.8798c-.2839,3.1227-3.0455,5.424-6.1682,5.1401Zm-178.1604-25.4712l169.7991,15.4375c3.1227.2839,5.8843-2.0174,6.1682-5.1401l7.9534-87.4848c.2839-3.1227-2.0174-5.8843-5.1401-6.1682l-169.7982-15.4375c-3.1227-.2839-5.8843,2.0174-6.1682,5.1401l-7.9543,87.4847c-.2839,3.1227,2.0174,5.8843,5.1401,6.1682Z"/><path class="h" d="m204.998,324.4867c-1.4727,0-2.9541-.0665-4.4482-.2023-26.7607-2.433-46.5537-26.184-44.1211-52.9449v-.0002c2.4336-26.7609,26.2002-46.5525,52.9453-44.1201,26.7607,2.433,46.5537,26.184,44.1211,52.9449-2.2979,25.2665-23.6016,44.3226-48.4971,44.3226Zm-39.8623-52.3558c-1.9961,21.9602,14.2451,41.4504,36.2051,43.447,21.9785,1.9968,41.4502-14.2451,43.4473-36.2053,1.9961-21.96-14.2451-41.4503-36.2051-43.4468-21.9609-1.9965-41.4502,14.2452-43.4473,36.2053v-.0002Z"/><path class="h" d="m234.5175,281.3762c-.0889,0-.1777-.004-.2686-.0123-1.6113-.1465-2.7998-1.5722-2.6533-3.1843,1.3389-14.7245-9.5518-27.793-24.2764-29.1317-1.6113-.1465-2.7998-1.5722-2.6533-3.1843.1475-1.612,1.5635-2.8011,3.1846-2.6535,17.9434,1.6313,31.2139,17.5566,29.583,35.5002-.1387,1.5217-1.417,2.6658-2.916,2.6658Z"/></g></svg>