<svg xmlns="http://www.w3.org/2000/svg" fill="none" viewBox="0 0 31 32"><rect width="30.405" height="30.405" y=".648" fill="#5C0FAE" rx="15.203"/><g fill="#fff"><path d="M21.892 13.634c0 .772-.193 1.497-.58 2.173-.373.677-.968 1.222-1.785 1.636-.803.414-1.821.62-3.054.62h-2.516v5.549h-3.01V9.162h5.526c1.161 0 2.15.193 2.968.58.817.386 1.426.917 1.828 1.594.415.676.623 1.442.623 2.298Zm-5.548 2.09c.831 0 1.448-.179 1.85-.538.4-.372.602-.89.602-1.552 0-1.408-.818-2.112-2.452-2.112h-2.387v4.203h2.387Z"/><path d="M17.125 23.757c-.544 0-.996-.159-1.354-.476a1.63 1.63 0 0 1-.516-1.222c0-.483.172-.883.516-1.2.358-.332.81-.497 1.354-.497.531 0 .968.165 1.312.497.344.317.516.717.516 1.2s-.172.89-.516 1.222c-.344.317-.781.476-1.312.476Z"/></g></svg>