<svg id="Layer_1" data-name="Layer 1" xmlns="http://www.w3.org/2000/svg" xmlns:xlink="http://www.w3.org/1999/xlink" viewBox="0 0 360 57"><defs><style>.cls-1{fill:#fff;}.cls-1,.cls-3{fill-rule:evenodd;}.cls-2{mask:url(#mask);}.cls-3{stroke:#00e8cc;stroke-linecap:round;stroke-linejoin:round;stroke-width:2px;fill:url(#linear-gradient);}</style><mask id="mask" x="-191.63" y="-49.98" width="589.65" height="124.75" maskUnits="userSpaceOnUse"><g id="mask-2"><polygon id="path-1" class="cls-1" points="0.27 -2 360.26 -2 360.26 66 0.27 66 0.27 -2"/></g></mask><linearGradient id="linear-gradient" x1="-116.3" y1="446.7" x2="-116.3" y2="445.84" gradientTransform="matrix(587.65, 0, 0, -122.75, 68446.9, 54781.31)" gradientUnits="userSpaceOnUse"><stop offset="0" stop-color="#00e8cc" stop-opacity="0.54"/><stop offset="1" stop-color="#00e8cc" stop-opacity="0"/></linearGradient></defs><title>portfolio-lines</title><g id="Accounts-Overview-Copy-3"><g id="Line-Chart"><g id="Chart"><g id="Lines"><g class="cls-2"><path id="Primary" class="cls-3" d="M-179.25-46.3c16.94,0,25.09,7.67,49.64,8.08s18.8,60.48,49.42,60.75S16.6-1,44.3,2s94.64,30,123.13,29.83,55.27-11.19,78.21-11.25S288.21,35.1,312.94,35c16.26-.06,42.4-3.17,50.68-12.53,2.79-3.15,17.11-4.64,24.85-4.63q22.61,0-14.56-66.82V73.77H-187.9V-47.59Q-196.19-46.3-179.25-46.3Z"/></g></g></g></g></g></svg>