<svg xmlns="http://www.w3.org/2000/svg" x="0px" y="0px" style="enable-background:new 0 0 1800 400" version="1.1" viewBox="0 0 1800 400" xml:space="preserve"><defs/><style type="text/css">.st0{fill:none;} .st1{fill:#5B61F6;} .st2{fill:#F6CC5B;} .st3{fill:#F4BC25;} .st4{fill:#383FE5;} .st5{fill:#FFFFFF;}</style><g id="Stroke"><path d="M1598.7 253.9c-21.6 0-39.2 17.6-39.2 39.2s17.6 39.2 39.2 39.2 39.2-17.6 39.2-39.2-17.6-39.2-39.2-39.2zM956.4 253.9c-21.6 0-39.2 17.6-39.2 39.2s17.6 39.2 39.2 39.2 39.2-17.6 39.2-39.2c.1-21.6-17.5-39.2-39.2-39.2zM1741.8 253.9c-21.6 0-39.2 17.6-39.2 39.2s17.6 39.2 39.2 39.2 39.2-17.6 39.2-39.2c.1-21.6-17.6-39.2-39.2-39.2z" class="st0"/><circle cx="575.7" cy="244.5" r="88" class="st0" transform="rotate(-10.9 575.75 244.46)"/><path d="M247.9 128.2L234.8 14.5c-.5-4.3-4.2-7.6-8.5-7.6h-23l-13.8 121.3h58.4zM355.9 135H51.8v65.2h30.7c.1-.5.3-.9.4-1.3.1-.3.2-.7.3-1l.6-1.8c.1-.3.2-.5.3-.8.3-.7.5-1.4.8-2.1.1-.3.3-.6.4-.9.2-.5.4-1 .6-1.4.1-.3.3-.6.5-1s.4-.9.6-1.3c.2-.3.3-.6.5-1s.4-.8.7-1.2c.2-.3.4-.6.6-1 .2-.4.5-.8.7-1.1.2-.3.4-.6.6-1 .2-.4.5-.7.7-1.1.2-.3.4-.6.7-.9.3-.4.5-.7.8-1.1.2-.3.5-.6.7-.9.3-.3.5-.7.8-1 .2-.3.5-.6.7-.9.3-.3.6-.7.8-1 .3-.3.5-.6.8-.9l.9-.9c.3-.3.5-.6.8-.8l.9-.9c.3-.3.6-.5.8-.8.3-.3.6-.6 1-.9.3-.3.6-.5.9-.8.3-.3.7-.6 1-.8.3-.2.6-.5.9-.7.3-.3.7-.5 1-.8.3-.2.6-.5.9-.7.3-.3.7-.5 1.1-.7.3-.2.6-.4 1-.6.4-.2.7-.5 1.1-.7.3-.2.7-.4 1-.6.4-.2.7-.4 1.1-.7.3-.2.7-.4 1-.6.4-.2.8-.4 1.1-.6.3-.2.7-.4 1-.5l1.2-.6c.3-.2.7-.3 1-.5.4-.2.8-.3 1.2-.5.4-.1.7-.3 1.1-.4.4-.2.8-.3 1.2-.5.4-.1.7-.3 1.1-.4.4-.1.8-.3 1.3-.4.4-.1.7-.2 1.1-.4.4-.1.9-.3 1.3-.4.4-.1.7-.2 1.1-.3.4-.1.9-.2 1.3-.3.4-.1.7-.2 1.1-.3.5-.1.9-.2 1.4-.3.4-.1.7-.1 1.1-.2.5-.1.9-.1 1.4-.2.4-.1.7-.1 1-.2.5-.1 1-.1 1.5-.2.3 0 .7-.1 1-.1.6 0 1.1-.1 1.7-.1.3 0 .6 0 .8-.1.8 0 1.7-.1 2.5-.1H142.9c.5 0 1 0 1.4.1.3 0 .6 0 .8.1.4 0 .9.1 1.3.1.3 0 .6.1.9.1.4.1.8.1 1.2.2.3 0 .6.1.9.1.4.1.8.1 1.2.2.3.1.6.1.9.2.4.1.8.2 1.2.2.3.1.6.1.9.2.4.1.8.2 1.1.3.3.1.6.2.9.2.4.1.8.2 1.1.3l.9.3c.4.1.8.2 1.1.4l.9.3c.4.1.8.3 1.1.4.3.1.6.2.8.3.4.2.8.3 1.2.5.3.1.5.2.8.3.4.2.8.4 1.2.5.2.1.4.2.7.3.5.2.9.5 1.4.7.1.1.3.1.4.2.6.3 1.2.6 1.8 1 .1 0 .2.1.2.1.5.3 1 .6 1.6.9l.6.3c.4.3.8.5 1.2.8.2.1.4.3.6.4.4.2.7.5 1.1.7.2.2.5.3.7.5.3.2.7.5 1 .7.2.2.5.4.7.5.3.3.6.5.9.8.2.2.4.4.7.6.3.3.6.5.9.8.2.2.4.4.7.6.3.3.6.5.9.8l.6.6.9.9.6.6c.3.3.6.6.8.9l.6.6c.3.3.6.6.8.9.2.2.4.4.5.6.3.3.5.7.8 1 .2.2.3.4.5.6.3.4.6.8.9 1.1.1.2.3.4.4.6.4.5.7 1 1 1.5.1.1.1.2.2.2.4.6.8 1.2 1.1 1.8.1.1.2.3.3.5.3.5.5.9.8 1.4.1.2.3.5.4.7.2.3.4.7.5 1 .3-.2.6-.4 1-.6.1-.1.2-.1.2-.2.5-.3 1.1-.6 1.7-.9.1-.1.3-.1.4-.2.5-.2.9-.4 1.4-.6.1-.1.3-.1.4-.2.6-.2 1.2-.4 1.8-.5.1 0 .2 0 .4-.1.5-.1 1.1-.2 1.6-.3.2 0 .4 0 .5-.1.6-.1 1.3-.1 2-.1s1.3 0 2 .1c.2 0 .4 0 .5.1.5.1 1.1.2 1.6.3.1 0 .2 0 .4.1.6.1 1.2.3 1.8.5.1 0 .3.1.4.2.5.2 1 .4 1.4.6.1.1.3.1.4.2.6.3 1.1.6 1.7.9.1 0 .1.1.2.1.3.2.7.4 1 .7.2-.3.3-.6.5-.9.2-.3.3-.6.5-.8.2-.4.5-.8.7-1.2.1-.2.3-.4.4-.7.4-.6.7-1.2 1.1-1.8.1-.2.2-.3.3-.5.3-.4.6-.8.9-1.3.2-.2.3-.4.5-.7.3-.3.5-.7.8-1 .2-.2.4-.5.5-.7.3-.3.5-.6.8-.9.2-.2.4-.5.6-.7.3-.3.5-.6.8-.9.2-.2.4-.4.6-.7.3-.3.5-.6.8-.9.2-.2.4-.4.6-.7l.8-.8c.2-.2.4-.4.7-.6.3-.3.6-.5.9-.8.2-.2.5-.4.7-.6.3-.3.6-.5.9-.8.2-.2.5-.4.7-.6.3-.3.6-.5.9-.7.2-.2.5-.4.7-.5.3-.2.7-.5 1-.7.2-.2.5-.3.7-.5.3-.2.7-.5 1-.7.2-.1.4-.3.7-.4.4-.3.8-.5 1.2-.7.2-.1.4-.2.6-.4.5-.3 1-.6 1.6-.9.1 0 .2-.1.2-.1.6-.3 1.2-.7 1.8-1 .1-.1.3-.1.4-.2.5-.2.9-.5 1.4-.7.2-.1.4-.2.7-.3.4-.2.8-.4 1.2-.5.3-.1.5-.2.8-.3.4-.2.8-.3 1.2-.5.3-.1.5-.2.8-.3.4-.1.8-.3 1.1-.4l.9-.3c.4-.1.8-.2 1.1-.4l.9-.3c.4-.1.8-.2 1.1-.3.3-.1.6-.2.9-.2.4-.1.8-.2 1.1-.3.3-.1.6-.1.9-.2.4-.1.8-.2 1.2-.2.3-.1.6-.1.9-.2.4-.1.8-.1 1.2-.2.3 0 .6-.1.9-.1.4-.1.8-.1 1.2-.2.3 0 .6-.1.9-.1.4 0 .9-.1 1.3-.1.3 0 .6-.1.8-.1.5 0 1-.1 1.4-.1H268c.9 0 1.7 0 2.5.1.3 0 .6 0 .8.1.6 0 1.1.1 1.7.1.3 0 .7.1 1 .1.5.1 1 .1 1.5.2.4 0 .7.1 1 .2.5.1 1 .1 1.4.2.4.1.7.1 1.1.2.5.1.9.2 1.4.3.4.1.7.2 1.1.3.4.1.9.2 1.3.3.4.1.7.2 1.1.3.4.1.9.2 1.3.4.4.1.7.2 1.1.4.4.1.8.3 1.3.4.4.1.7.3 1.1.4.4.2.8.3 1.2.5.4.1.7.3 1.1.4.4.2.8.3 1.2.5.4.2.7.3 1 .5l1.2.6c.3.2.7.3 1 .5.4.2.8.4 1.1.6.3.2.7.4 1 .6.4.2.7.4 1.1.7.3.2.7.4 1 .6.4.2.7.5 1.1.7.3.2.6.4 1 .6.4.2.7.5 1.1.7.3.2.6.5.9.7.3.3.7.5 1 .8.3.2.6.5.9.7.3.3.7.5 1 .8.3.2.6.5.9.8.3.3.6.6 1 .9.3.3.6.5.8.8l.9.9.8.8c.3.3.6.6.9 1 .3.3.5.6.8.8.3.3.6.7.9 1 .2.3.5.6.7.9.3.3.5.7.8 1 .2.3.5.6.7.9.3.4.5.7.8 1.1l.6.9c.3.4.5.8.8 1.1l.6.9c.2.4.5.8.7 1.2.2.3.4.6.5.9.2.4.5.9.7 1.3.2.3.3.6.5.9.2.5.5.9.7 1.4.1.3.3.5.4.8.3.5.5 1.1.7 1.7l.3.6c.6 1.5 1.2 3.1 1.7 4.7.1.2.1.4.2.7.2.6.3 1.1.5 1.7h30.7V135z" class="st1"/><path d="M31.5 247.1c-13.6 0-24.6 11-24.6 24.6 0 8.3 4.3 16 11.1 20.6.1-.1.2-.3.3-.4.1-.1.1-.2.2-.4l.6-.9c.1-.1.1-.2.2-.2.2-.2.4-.5.5-.7l.3-.3c.2-.2.3-.4.5-.5l.3-.3c.2-.2.4-.4.6-.5.1-.1.2-.2.3-.2.3-.2.6-.5.9-.7.1-.1.2-.1.3-.2.2-.2.5-.3.7-.4.1-.1.2-.1.4-.2s.5-.2.7-.4c.1-.1.2-.1.4-.2.3-.1.6-.3.9-.4.1 0 .1-.1.2-.1.4-.1.7-.2 1.1-.4.1 0 .2-.1.3-.1.3-.1.6-.1.8-.2.1 0 .3 0 .4-.1.3 0 .6-.1.8-.1h.4c.4 0 .8-.1 1.2-.1.5 0 1 0 1.5.1.2 0 .3 0 .5.1.3 0 .7.1 1 .1.2 0 .4.1.5.1.3.1.6.1.9.2.2.1.4.1.5.2.3.1.6.2.8.3.2.1.3.1.5.2.3.1.6.3.8.4.1.1.3.1.4.2l.6.3V247h-7.8zM375.9 247.1h-8v39.5l.6-.3c.1-.1.3-.1.4-.2.3-.1.6-.3.8-.4.2-.1.3-.1.5-.2.3-.1.6-.2.8-.3.2-.1.4-.1.5-.2.3-.1.6-.2.9-.2.2 0 .4-.1.5-.1.3-.1.6-.1 1-.1.2 0 .3 0 .5-.1.5 0 1-.1 1.5-.1.4 0 .8 0 1.2.1h.4c.3 0 .6.1.8.1.1 0 .3 0 .4.1.3.1.6.1.8.2.1 0 .2.1.3.1.4.1.8.2 1.1.4.1 0 .1 0 .2.1.3.1.6.2.9.4.1.1.2.1.4.2s.5.2.7.4c.1.1.2.1.4.2.3.1.5.3.8.5.1.1.2.1.2.2.3.2.6.4.9.7.1.1.2.1.2.2.2.2.4.4.7.6l.3.3.6.6.3.3c.2.2.4.5.6.8 0 .1.1.1.1.2.2.3.5.6.7 1 .1.1.1.2.2.3.1.2.2.3.3.5 6.9-4.5 11.1-12.2 11.1-20.6 0-14.1-11.1-25.2-24.6-25.2z" class="st2"/><path d="M326.9 209.3v.2c.1.9.2 1.8.2 2.6v.7c0 .9.1 1.9.1 2.8 0 .9 0 1.9-.1 2.8 0 .3 0 .6-.1.9 0 .6-.1 1.3-.1 1.9 0 .3-.1.6-.1.9-.1.7-.2 1.3-.3 2 0 .2-.1.5-.1.7-.1.9-.3 1.8-.5 2.7 0 .2-.1.3-.1.5-.2.7-.3 1.4-.5 2.1-.1.3-.2.6-.2.9-.2.6-.3 1.2-.5 1.8l-.3.9c-.2.7-.4 1.3-.7 2-.1.2-.1.4-.2.6-.3.8-.6 1.6-1 2.4-.1.2-.2.4-.3.7-.3.6-.5 1.2-.8 1.8-.1.3-.3.5-.4.8-.3.5-.5 1.1-.8 1.6-.1.3-.3.5-.4.8-.4.7-.8 1.4-1.2 2 0 .1-.1.2-.1.2-.4.7-.9 1.5-1.4 2.2-.2.2-.3.4-.5.7-.3.5-.7 1-1.1 1.5-.2.2-.4.5-.6.7-.4.5-.7 1-1.1 1.4-.2.2-.3.4-.5.6-.5.7-1.1 1.3-1.7 1.9l-.3.3c-.5.5-1 1.1-1.5 1.6l-.6.6c-.4.4-.9.8-1.3 1.2-.2.2-.4.4-.7.6-.5.4-1 .9-1.5 1.3-.2.1-.3.3-.5.4-.7.5-1.3 1.1-2 1.6-.2.1-.4.3-.5.4-.5.4-1.1.8-1.6 1.1-.2.2-.5.3-.8.5-.5.3-1 .7-1.5 1-.2.2-.5.3-.7.5-.6.4-1.3.7-1.9 1.1-.1.1-.2.1-.4.2-.8.4-1.5.8-2.3 1.2-.2.1-.5.2-.7.3-.6.3-1.1.5-1.7.8-.3.1-.6.2-.8.4-.6.2-1.2.5-1.7.7-.3.1-.5.2-.8.3-.1 0-.2.1-.3.1.1 0 .2.1.3.1.3.1.5.2.8.3.6.2 1.2.4 1.7.7.3.1.6.2.8.4.6.2 1.1.5 1.7.8.2.1.5.2.7.3.8.4 1.6.8 2.3 1.2.1.1.3.1.4.2.6.4 1.3.7 1.9 1.1.3.2.5.3.8.5.5.3 1 .6 1.5 1 .3.2.5.3.8.5.5.4 1.1.7 1.6 1.1.2.1.4.3.5.4.7.5 1.4 1 2 1.6.2.1.4.3.5.4.5.4 1 .8 1.4 1.3.2.2.5.4.7.6.4.4.9.8 1.3 1.2l.6.6c.5.5 1 1 1.5 1.6l.3.3c.6.6 1.1 1.3 1.7 1.9.2.2.3.4.5.6.4.5.8.9 1.1 1.4.2.2.4.5.6.7.4.5.7 1 1 1.5.2.2.3.5.5.7.5.7.9 1.4 1.4 2.2.1.1.1.2.1.3.4.7.8 1.3 1.2 2 .1.3.3.5.4.8.3.5.6 1.1.8 1.6.1.3.3.5.4.8.3.6.5 1.2.8 1.8.1.2.2.4.3.7.3.8.7 1.6 1 2.4.1.2.1.4.2.6.2.7.5 1.3.7 2l.3.9c.2.6.3 1.2.5 1.8.1.3.2.6.2.9.2.7.3 1.4.5 2.1 0 .2.1.3.1.5.2.9.3 1.8.5 2.7 0 .2.1.5.1.7.1.7.2 1.3.3 2 0 .3.1.6.1.9.1.6.1 1.3.1 1.9 0 .3 0 .6.1.9 0 .9.1 1.8.1 2.8 0 .9 0 1.8-.1 2.6v.8c0 .6-.1 1.3-.1 1.9 0 .3 0 .5-.1.8-.1.8-.2 1.5-.3 2.3v.3c-.1.9-.3 1.7-.4 2.6 0 .2-.1.5-.2.7-.1.6-.3 1.2-.4 1.9-.1.3-.1.5-.2.8-.2.7-.4 1.4-.6 2 0 .2-.1.3-.1.5-.2.8-.5 1.6-.8 2.4-.1.2-.2.4-.2.7-.2.6-.4 1.2-.7 1.8-.1.3-.2.5-.3.8-.3.6-.5 1.2-.8 1.8-.1.2-.2.4-.2.5-.4.8-.7 1.5-1.1 2.3l-.3.6c-.3.6-.6 1.2-1 1.7-.1.2-.3.5-.4.7-.3.6-.7 1.1-1.1 1.7-.1.2-.2.4-.3.5 0 .1-.1.1-.1.2 16.2-6.8 27.2-22.8 27.2-41.1V207.2h-17.8c0 .6.1 1.4.2 2.1zM89.6 360.1c-.3-.5-.7-1.1-1-1.6-.2-.3-.3-.5-.5-.8-.3-.6-.6-1.1-.9-1.7l-.3-.6c-.4-.8-.8-1.5-1.1-2.3l-.3-.6c-.3-.6-.5-1.2-.8-1.8-.1-.3-.2-.5-.3-.8-.2-.6-.5-1.2-.7-1.8-.1-.2-.2-.5-.3-.7-.3-.8-.5-1.6-.8-2.4 0-.2-.1-.3-.1-.5-.2-.7-.4-1.4-.6-2-.1-.3-.1-.5-.2-.8-.1-.6-.3-1.2-.4-1.8-.1-.2-.1-.5-.2-.7-.2-.8-.3-1.7-.4-2.6v-.3c-.1-.8-.2-1.5-.3-2.3 0-.3-.1-.5-.1-.8-.1-.6-.1-1.3-.1-1.9v-.8c0-.9-.1-1.8-.1-2.6 0-.9 0-1.9.1-2.8 0-.3 0-.6.1-.9 0-.6.1-1.3.1-1.9 0-.3.1-.6.1-.9.1-.7.2-1.3.3-2 0-.2.1-.5.1-.7.1-.9.3-1.8.5-2.7 0-.2.1-.3.1-.5.2-.7.3-1.4.5-2.1.1-.3.2-.6.2-.9.2-.6.3-1.2.5-1.8l.3-.9c.2-.7.4-1.3.7-2 .1-.2.1-.4.2-.6.3-.8.6-1.6 1-2.4l.3-.6c.3-.6.5-1.2.8-1.8.1-.3.3-.5.4-.8.3-.5.5-1.1.8-1.6.1-.3.3-.5.4-.8.4-.7.8-1.4 1.2-2 0-.1.1-.2.1-.3.4-.7.9-1.5 1.4-2.2.2-.2.3-.5.5-.7.3-.5.7-1 1-1.5.2-.2.4-.5.6-.7.4-.5.7-1 1.1-1.4.2-.2.3-.4.5-.6.5-.7 1.1-1.3 1.7-1.9l.3-.3c.5-.5 1-1.1 1.5-1.6l.6-.6c.4-.4.8-.8 1.3-1.2.2-.2.5-.4.7-.6.5-.4 1-.8 1.4-1.3.2-.1.3-.3.5-.4.7-.5 1.3-1.1 2-1.6.2-.1.4-.3.5-.4.5-.4 1-.8 1.6-1.1.3-.2.5-.3.8-.5.5-.3 1-.6 1.5-1 .2-.2.5-.3.8-.5.6-.4 1.3-.7 1.9-1.1.1-.1.3-.1.4-.2.8-.4 1.5-.8 2.3-1.2.2-.1.5-.2.7-.3.6-.3 1.1-.5 1.7-.8.3-.1.6-.2.8-.4.6-.2 1.2-.5 1.7-.7.3-.1.5-.2.8-.3.1 0 .2-.1.3-.1-.1 0-.2-.1-.3-.1-.3-.1-.5-.2-.8-.3-.6-.2-1.2-.4-1.7-.7-.3-.1-.6-.2-.8-.4-.6-.3-1.2-.5-1.7-.8-.2-.1-.5-.2-.7-.3-.8-.4-1.6-.8-2.3-1.2-.1-.1-.2-.1-.4-.2-.6-.4-1.3-.7-1.9-1.1-.2-.1-.5-.3-.7-.5-.5-.3-1-.6-1.5-1-.3-.2-.5-.3-.8-.5-.5-.4-1.1-.7-1.6-1.1-.2-.1-.4-.3-.5-.4-.7-.5-1.4-1-2-1.6-.2-.1-.3-.3-.5-.4-.5-.4-1-.8-1.5-1.3-.2-.2-.4-.4-.7-.6-.4-.4-.9-.8-1.3-1.2l-.6-.6c-.5-.5-1-1-1.5-1.6l-.3-.3c-.6-.6-1.1-1.3-1.7-1.9-.2-.2-.3-.4-.5-.6-.4-.5-.8-1-1.1-1.4-.2-.2-.4-.5-.6-.7-.4-.5-.7-1-1.1-1.5-.2-.2-.3-.4-.5-.7-.5-.7-.9-1.4-1.4-2.2 0-.1-.1-.2-.1-.2-.4-.7-.8-1.3-1.2-2-.1-.3-.3-.5-.4-.8-.3-.5-.6-1.1-.8-1.6-.1-.3-.3-.5-.4-.8-.3-.6-.5-1.2-.8-1.8l-.3-.6c-.3-.8-.7-1.6-1-2.4-.1-.2-.1-.4-.2-.6-.2-.6-.5-1.3-.7-2l-.3-.9c-.2-.6-.3-1.2-.5-1.8-.1-.3-.2-.6-.2-.9-.2-.7-.3-1.4-.5-2.1 0-.2-.1-.3-.1-.5-.2-.9-.3-1.8-.5-2.7 0-.2-.1-.5-.1-.7-.1-.7-.2-1.3-.3-2 0-.3-.1-.6-.1-.9-.1-.6-.1-1.3-.1-1.9 0-.3 0-.6-.1-.9 0-.9-.1-1.8-.1-2.8 0-.9 0-1.9.1-2.8v-.7c.1-.9.1-1.7.2-2.6v-.2c.1-.7.2-1.5.3-2.2H62.9v112.7c0 18.3 11 34.3 27.2 41.1 0-.1-.1-.1-.1-.2-.1-.2-.3-.4-.4-.6z" class="st3"/><path d="M139.6 268.3h12.9c0-.1 0-.2.1-.3 0-.2.1-.5.2-.7.1-.4.2-.7.3-1.1.1-.2.1-.5.2-.7.1-.3.2-.7.4-1 .1-.2.2-.5.3-.7.1-.3.3-.6.5-1l.3-.6.6-.9c.1-.2.2-.4.4-.6.2-.3.5-.7.7-1 .1-.1.2-.3.3-.4.4-.5.8-.9 1.2-1.3l.2-.2c.4-.4.7-.7 1.1-1 .2-.1.3-.2.5-.4.3-.2.6-.5.9-.7.2-.1.4-.3.6-.4l.9-.6.6-.3c.3-.2.6-.3 1-.5.2-.1.5-.2.7-.3.3-.1.7-.3 1-.4.2-.1.5-.2.7-.2.4-.1.7-.2 1.1-.3.2-.1.5-.1.7-.2.4-.1.8-.1 1.2-.2.2 0 .4-.1.6-.1.6-.1 1.2-.1 1.9-.1h12.6v-48.6c0-.5 0-1 .1-1.5 0-.2 0-.3.1-.5 0-.3.1-.7.1-1 0-.2.1-.4.1-.6.1-.3.1-.6.2-.9 0-.2.1-.4.1-.6.1-.3.2-.6.3-1 .1-.2.1-.3.2-.5.1-.4.3-.8.5-1.2 0-.1 0-.1.1-.2.2-.5.4-.9.7-1.3.1-.1.2-.3.3-.4.1-.2.2-.4.4-.6v-.1c-.1-.1-.1-.3-.2-.4-.2-.4-.4-.9-.7-1.3l-.3-.6c-.2-.4-.4-.8-.6-1.1-.1-.2-.2-.4-.4-.6-.2-.3-.4-.7-.6-1-.1-.2-.3-.4-.4-.6-.2-.3-.4-.7-.6-1-.1-.2-.3-.4-.4-.6l-.6-.9c-.2-.2-.3-.4-.5-.6-.2-.3-.4-.6-.7-.9-.2-.2-.3-.4-.5-.6-.2-.3-.5-.6-.7-.8-.2-.2-.4-.4-.5-.6-.2-.3-.5-.5-.7-.8l-.6-.6c-.2-.3-.5-.5-.7-.8l-.6-.6-.7-.7-.6-.6c-.3-.2-.5-.5-.8-.7-.2-.2-.4-.4-.6-.5-.3-.2-.5-.5-.8-.7-.2-.2-.4-.4-.6-.5-.3-.2-.5-.4-.8-.7-.2-.2-.4-.3-.7-.5-.3-.2-.6-.4-.8-.6-.2-.2-.4-.3-.7-.5l-.9-.6c-.2-.2-.5-.3-.7-.5l-.9-.6c-.2-.1-.5-.3-.7-.4-.3-.2-.6-.4-.9-.5-.2-.1-.5-.3-.7-.4-.3-.2-.6-.3-.9-.5-.2-.1-.5-.3-.7-.4-.3-.2-.6-.3-.9-.5-.3-.1-.5-.2-.8-.4-.3-.1-.6-.3-.9-.4-.3-.1-.5-.2-.8-.3-.3-.1-.6-.3-1-.4-.3-.1-.5-.2-.8-.3-.3-.1-.6-.2-1-.4-.3-.1-.5-.2-.8-.3-.3-.1-.7-.2-1-.3-.3-.1-.5-.2-.8-.3-.3-.1-.7-.2-1-.3-.3-.1-.5-.2-.8-.2-.3-.1-.7-.2-1-.2-.3-.1-.5-.1-.8-.2-.3-.1-.7-.1-1-.2-.3-.1-.5-.1-.8-.2-.4-.1-.7-.1-1.1-.2-.3 0-.5-.1-.8-.1-.4-.1-.7-.1-1.1-.1-.3 0-.5-.1-.8-.1-.4 0-.8-.1-1.2-.1-.3 0-.5 0-.8-.1-.4 0-.9-.1-1.3-.1h-2.5c-6.1 0-12.1 1.1-17.6 3.1-3 1.1-6 2.5-8.7 4.1-.1 0-.2.1-.2.1-.5.3-1.1.7-1.6 1-.4.3-.8.5-1.2.8-.4.3-.8.6-1.2.8-.5.4-1 .7-1.5 1.1-.4.3-.9.7-1.3 1.1-.4.3-.9.7-1.3 1-.5.4-1 .9-1.4 1.3-.3.3-.7.6-1 .9l-.9.9-1.4 1.4c-.1.1-.1.2-.2.2-.7.7-1.3 1.5-1.9 2.3l-.1.1c-4.7 6-8.2 13.1-9.9 20.9-.8 3.8-1.2 7.6-1.2 11.3-.4 29.2 23.3 52.8 52.3 52.8zm0-84.1c17.3 0 31.5 14.1 31.5 31.5s-14.1 31.5-31.5 31.5c-17.3 0-31.5-14.1-31.5-31.5s14.1-31.5 31.5-31.5zM320.4 327.8c0-29-23.6-52.6-52.6-52.6h-12.9c0 .1 0 .2-.1.3 0 .2-.1.5-.2.7-.1.4-.2.7-.3 1.1-.1.2-.1.5-.2.7-.1.3-.2.7-.4 1-.1.2-.2.5-.3.7-.1.3-.3.6-.5 1l-.3.6-.6.9c-.1.2-.2.4-.4.6-.2.3-.5.7-.7 1-.1.1-.2.3-.3.4-.4.5-.8.9-1.2 1.3l-.1.1c-.4.4-.8.7-1.2 1.1-.2.1-.3.2-.5.4-.3.2-.6.5-.9.7-.2.1-.4.3-.6.4l-.9.6-.6.3c-.3.2-.6.3-1 .5-.2.1-.5.2-.7.3-.3.1-.7.3-1 .4-.2.1-.5.2-.7.2-.4.1-.7.2-1.1.3-.2.1-.5.1-.7.2-.4.1-.8.1-1.2.2-.2 0-.4.1-.6.1-.6.1-1.2.1-1.9.1h-14.1c0 .1-.1.2-.1.3-.1.2-.2.4-.3.7-.1.3-.2.5-.4.7-.1.2-.2.4-.4.6-.1.2-.3.5-.4.7-.1.2-.3.4-.4.6-.2.2-.3.4-.5.7-.1.2-.3.4-.5.6-.1.1-.1.2-.2.3h49.2c17.3 0 31.5 14.1 31.5 31.5 0 17.3-14.1 31.5-31.5 31.5h-8.3l-.6 2.9c0 .1 0 .1-.1.2-1.2 5.2-5.8 8.9-11.1 8.9-5.4 0-10.1-3.8-11.2-9.1l-.6-2.9h-64.6l-.6 2.9c0 .1 0 .1-.1.2-1.2 5.2-5.8 8.9-11.1 8.9-5.4 0-10.1-3.8-11.2-9.1l-.6-2.9h-8.3c-17.3 0-31.5-14.1-31.5-31.5 0-17.3 14.1-31.5 31.5-31.5h49.2c-.1-.1-.1-.2-.2-.3-.2-.2-.3-.4-.5-.6-.2-.2-.3-.4-.5-.7-.1-.2-.3-.4-.4-.6-.1-.2-.3-.5-.4-.7-.1-.2-.2-.4-.4-.6-.1-.2-.3-.5-.4-.8-.1-.2-.2-.4-.3-.7 0-.1-.1-.2-.1-.3h-14.1c-.6 0-1.3 0-1.9-.1-.2 0-.4-.1-.6-.1-.4-.1-.8-.1-1.2-.2-.2 0-.5-.1-.7-.2-.4-.1-.7-.2-1.1-.3-.2-.1-.5-.1-.7-.2-.3-.1-.7-.2-1-.4-.2-.1-.5-.2-.7-.3-.3-.1-.6-.3-1-.5l-.6-.3-.9-.6c-.2-.1-.4-.2-.6-.4-.3-.2-.6-.5-.9-.7-.2-.1-.3-.2-.5-.4-.4-.3-.8-.7-1.2-1.1l-.1-.1c-.4-.4-.8-.9-1.2-1.3-.1-.1-.2-.3-.3-.4-.3-.3-.5-.7-.7-1-.1-.2-.2-.4-.4-.6l-.6-.9-.3-.6c-.2-.3-.3-.6-.5-1-.1-.2-.2-.5-.3-.7-.1-.3-.3-.7-.4-1-.1-.2-.2-.5-.2-.7-.1-.4-.2-.7-.3-1.1-.1-.2-.1-.5-.2-.7 0-.1 0-.2-.1-.3H139c-29 0-52.6 23.6-52.6 52.6 0 13.9 5.4 27 15.2 36.9 10 10.1 23.3 15.7 37.5 15.7h128.2c14.2 0 27.5-5.6 37.5-15.7 6.7-6.8 11.4-15.2 13.6-24.2 1.5-4 2-8.2 2-12.6zM221.4 195.7c0 .1 0 .1.1.2.2.4.3.8.5 1.2.1.2.1.3.2.5.1.3.2.6.3 1 .1.2.1.4.1.6.1.3.1.6.2.9 0 .2.1.4.1.6.1.3.1.7.1 1 0 .2 0 .3.1.5 0 .5.1 1 .1 1.5v48.6h12.6c.6 0 1.3 0 1.9.1.2 0 .4.1.6.1.4.1.8.1 1.2.2.2 0 .5.1.7.2.4.1.7.2 1.1.3.2.1.5.2.7.2.3.1.7.2 1 .4.2.1.5.2.7.3.3.1.6.3 1 .5l.6.3.9.6c.2.1.4.2.6.4.3.2.6.5.9.7.2.1.3.2.5.4.4.3.8.7 1.1 1 .1.1.1.1.2.1.4.4.8.9 1.2 1.3.1.1.2.3.3.4.3.3.5.6.7 1 .1.2.2.4.4.6l.6.9.3.6c.2.3.3.6.5 1 .1.2.2.5.3.7.1.3.3.7.4 1 .1.2.2.5.2.7.1.4.2.7.3 1.1.1.2.1.5.2.7 0 .1 0 .2.1.3h12.9c29 0 52.6-23.6 52.6-52.6 0-3.7-.4-7.5-1.2-11.3-3.2-14.7-12.6-26.9-25-34.1-1.2-.7-2.5-1.4-3.7-2-1.6-.8-3.3-1.5-5.1-2.1-5.6-2-11.5-3.1-17.6-3.1h-2.5c-.4 0-.9 0-1.3.1-.3 0-.5 0-.8.1-.4 0-.8.1-1.2.1-.3 0-.5.1-.8.1-.4 0-.7.1-1.1.1-.3 0-.5.1-.8.1-.4.1-.7.1-1.1.2-.3.1-.5.1-.8.2-.3.1-.7.1-1 .2-.3.1-.5.1-.8.2-.3.1-.7.2-1 .2-.3.1-.5.1-.8.2-.3.1-.7.2-1 .3-.3.1-.5.2-.8.3-.3.1-.7.2-1 .3-.3.1-.5.2-.8.3-.3.1-.7.2-1 .4-.3.1-.5.2-.8.3-.3.1-.6.3-1 .4-.3.1-.5.2-.8.3-.3.1-.6.3-.9.4-.3.1-.5.2-.8.4-.3.1-.6.3-.9.5-.2.1-.5.3-.7.4-.3.2-.6.3-.9.5-.2.1-.5.3-.7.4-.3.2-.6.3-.9.5-.2.1-.5.3-.7.4l-.9.6c-.2.2-.5.3-.7.5l-.9.6c-.2.2-.5.3-.7.5-.3.2-.6.4-.8.6-.2.2-.4.3-.7.5-.3.2-.5.4-.8.7-.2.2-.4.3-.6.5-.3.2-.5.5-.8.7-.2.2-.4.4-.6.5-.3.2-.5.5-.8.7l-.6.6c-.3.2-.5.5-.7.7l-.6.6c-.2.3-.5.5-.7.8l-.6.6c-.2.3-.5.5-.7.8-.2.2-.4.4-.5.6-.2.3-.5.6-.7.8-.2.2-.3.4-.5.6-.2.3-.4.6-.7.9-.2.2-.3.4-.5.6l-.6.9c-.1.2-.3.4-.4.6-.2.3-.4.6-.6 1-.1.2-.3.4-.4.6-.2.3-.4.7-.6 1-.1.2-.2.4-.4.6-.2.4-.4.8-.6 1.1l-.3.6c-.2.4-.4.9-.7 1.3-.1.1-.1.3-.2.4v.1c.1.2.3.4.4.6.1.1.2.3.2.4.1.5.3.9.5 1.4zm46.3-11.5c17.3 0 31.5 14.1 31.5 31.5s-14.1 31.5-31.5 31.5c-17.3 0-31.5-14.1-31.5-31.5s14.2-31.5 31.5-31.5z" class="st2"/><path d="M139.6 240.3c13.6 0 24.6-11 24.6-24.6s-11-24.6-24.6-24.6c-13.6 0-24.6 11-24.6 24.6s11 24.6 24.6 24.6zm0-42.6c4.9 0 9.3 2 12.6 5.1-5 2.1-8.6 7.1-8.6 12.9 0 5.8 3.5 10.8 8.6 12.9-3.2 3.2-7.7 5.1-12.6 5.1-10 0-18-8.1-18-18 0-10 8-18 18-18z" class="st1"/><path d="M139.6 233.7c4.9 0 9.3-2 12.6-5.1-5-2.1-8.6-7.1-8.6-12.9 0-5.8 3.5-10.8 8.6-12.9-3.2-3.2-7.7-5.1-12.6-5.1-10 0-18 8.1-18 18s8 18 18 18z" class="st4"/><path d="M267.7 240.3c13.6 0 24.6-11 24.6-24.6s-11-24.6-24.6-24.6c-13.6 0-24.6 11-24.6 24.6s11.1 24.6 24.6 24.6zm0-42.6c4.9 0 9.3 2 12.6 5.1-5 2.1-8.6 7.1-8.6 12.9 0 5.8 3.5 10.8 8.6 12.9-3.2 3.2-7.7 5.1-12.6 5.1-10 0-18-8.1-18-18 0-10 8.1-18 18-18z" class="st1"/><path d="M267.7 233.7c4.9 0 9.3-2 12.6-5.1-5-2.1-8.6-7.1-8.6-12.9 0-5.8 3.5-10.8 8.6-12.9-3.2-3.2-7.7-5.1-12.6-5.1-10 0-18 8.1-18 18s8.1 18 18 18z" class="st4"/><path d="M171.6 259.2c-6.9 0-12.6 5.7-12.6 12.6s5.6 12.6 12.6 12.6h12.6V259.2h-12.6zM248.3 271.7c0-6.9-5.6-12.6-12.6-12.6h-12.6V284.3h12.6c7 0 12.6-5.6 12.6-12.6z" class="st3"/><path d="M182.5 303.2l-5.6 28.3-4.2 20.9h61.9l-9.7-49.2h-21.2zM260.8 352.4h6.9c13.6 0 24.6-11 24.6-24.6 0-.8 0-1.6-.1-2.4 0-.3-.1-.5-.1-.8-.1-.5-.1-1.1-.2-1.6-.1-.3-.1-.6-.2-.9-.1-.5-.2-.9-.4-1.4l-.3-.9c-.1-.4-.3-.8-.5-1.3-.1-.3-.3-.6-.4-.9l-.6-1.2c-.2-.3-.3-.6-.5-.9-.2-.4-.4-.7-.7-1.1-.2-.3-.4-.6-.6-.8-.2-.3-.5-.7-.8-1-.2-.3-.4-.5-.6-.8l-.9-.9-.7-.7c-.3-.3-.6-.6-1-.9-.3-.2-.5-.4-.8-.6-.3-.3-.7-.5-1.1-.8-.3-.2-.5-.4-.8-.6-.4-.3-.8-.5-1.2-.7-.3-.2-.5-.3-.8-.5-.4-.2-.9-.4-1.3-.7-.2-.1-.5-.2-.7-.3-.6-.2-1.2-.5-1.8-.6-.1 0-.3-.1-.4-.1-.7-.2-1.5-.4-2.3-.6-.2 0-.3-.1-.5-.1-.6-.1-1.1-.2-1.7-.3l-6.7 34-2.8 15zM132.3 304.3c-.1 0-.3.1-.4.1l-1.8.6c-.2.1-.5.2-.7.3-.5.2-.9.4-1.4.7-.3.1-.5.3-.8.5-.4.2-.8.5-1.2.7-.3.2-.5.4-.8.6-.4.3-.7.5-1.1.8-.3.2-.5.4-.8.6-.3.3-.6.6-1 .9l-.7.7-.9.9c-.2.3-.4.5-.6.8-.3.3-.5.7-.8 1-.2.3-.4.6-.6.8-.2.4-.5.7-.7 1.1-.2.3-.3.6-.5.9l-.6 1.2c-.1.3-.3.6-.4.9-.2.4-.3.8-.5 1.3l-.3.9c-.1.4-.2.9-.4 1.4-.1.3-.2.6-.2.9-.1.5-.2 1-.2 1.6 0 .3-.1.5-.1.8-.1.8-.1 1.6-.1 2.4 0 13.6 11 24.6 24.6 24.6h6.9l-9.7-49.1c-.6.1-1.1.2-1.7.3-.2 0-.3 0-.5.1-.5.3-1.2.5-2 .7z"/><path d="M207.8 191.8c-1.3-.5-2.7-.7-4.2-.7-3.8 0-7.4 1.7-9.8 4.7-1.8 2.3-2.8 5-2.8 7.9v80.1c0 1 .1 2.1.4 3.1 1.4 5.6 6.4 9.4 12.2 9.4s10.7-3.9 12.2-9.4c.3-1.1.4-2.1.4-3.1v-80.1c0-2.9-1-5.6-2.8-7.9-1.4-1.9-3.4-3.3-5.6-4z" class="st2"/><path d="M242.1 355.2l.9 4.5.2 1.1c.4 1.8 1.9 3.2 3.7 3.6.3 0 .5.1.8.1 2.2 0 4-1.5 4.5-3.6v-.1l1.1-5.5 6.2-31.6 4-20.4h-31.7l10.3 51.9zM143.8 303.2l10.3 52 1.1 5.7c.4 2.1 2.3 3.6 4.5 3.6s4-1.5 4.5-3.6v-.1l1.1-5.5 6.2-31.6 4-20.4h-31.7z" class="st5"/><path d="M39.5 296.7c-1.2-3.2-4.4-5.5-8-5.5v73.2c4.7 0 8.6-3.9 8.6-8.6v-56.1h-.6v-3zM375.9 291.2c-3.7 0-6.8 2.3-8 5.5v3.1h-.6v56.1c0 4.7 3.9 8.6 8.6 8.6v-73.3zM78.9 128.2L67.5 90.1v38.1zM339.8 90.1l-11.4 38.1h11.4zM131.2 128.2l-20.1-78v78zM296.2 50.2l-20 78h20z" class="st1"/><path d="M23.1 297.9c-.1.7-.2 1.3-.2 1.9v56.1c0 4.7 3.9 8.6 8.6 8.6v-73.2c-4-.1-7.6 2.7-8.4 6.6zM384.3 297.9c-.5-2.1-1.7-3.9-3.4-5.2-.2-.2-.5-.3-.8-.5-1.2-.7-2.7-1.1-4.2-1.1v73.2c4.7 0 8.6-3.9 8.6-8.6v-56.1c0-.4-.1-1-.2-1.7zM304.4 128.2V31.6c-2.3 1-4.2 3.1-4.9 5.7l-3.3 12.9v77.9h8.2zM43.5 135c-4.7 0-8.6 3.9-8.6 8.6v48.1c0 4.7 3.9 8.6 8.6 8.6h8V135h-8zM363.9 200.2c4.7 0 8.6-3.9 8.6-8.6v-48.1c0-4.7-3.9-8.6-8.6-8.6h-8v65.2h8zM67.5 90.1l-4.6-15.3v53.4h4.6zM344.4 128.2V74.8l-4.6 15.3v38.1zM111.1 50.2l-3.3-12.9c-.7-2.6-2.5-4.7-4.8-5.7v96.6h8.2v-78zM203.3 6.8h-22.2c-4.4 0-8 3.3-8.5 7.6l-13.1 113.7h30.1L203.3 6.8z" class="st4"/><path d="M351.3 247.1v49.2h9.6c.1-.3.2-.6.2-.9 0-.1.1-.2.1-.4.1-.5.3-.9.5-1.3 0-.1.1-.2.1-.3.1-.3.3-.6.5-1 .1-.1.2-.3.2-.4.2-.3.3-.5.5-.8.1-.2.2-.3.3-.4.2-.2.3-.5.5-.7.1-.1.2-.3.3-.4.2-.2.4-.4.6-.7l.4-.4.7-.7.3-.3c.4-.3.7-.6 1.1-.8.1 0 .1-.1.2-.1.2-.1.3-.2.5-.3v-39.5h-16.6zM367.9 296.7c-.4 1-.6 2-.6 3.1h.6v-3.1zM39.5 286.6c.2.1.3.2.5.3.1 0 .1.1.2.1.4.3.8.5 1.1.8l.3.3c.3.2.5.4.7.7l.4.4c.2.2.4.4.6.7.1.1.2.3.3.4.2.2.4.5.5.7.1.1.2.3.3.4.2.3.3.5.5.8.1.1.2.3.2.4.2.3.3.6.5 1 0 .1.1.2.1.3.2.4.3.9.5 1.3 0 .1.1.2.1.4.1.3.2.6.2.9h9.6v-49.2H39.5v39.3zM39.5 299.8h.5c0-1.1-.2-2.1-.6-3.1v3.1z" class="st3"/><path d="M375.9 240.3h-24.6v-33.2h12.6c8.5 0 15.4-6.9 15.4-15.4v-48.1c0-8.5-6.9-15.4-15.4-15.4h-12.6V51.5c0-1.7-1.2-3.1-2.9-3.4-1.7-.3-3.3.8-3.8 2.4l-23.3 77.7h-10V27.5c0-1.9-1.5-3.4-3.4-3.4-7 0-13.1 4.8-14.9 11.6l-23.8 92.5h-14.3L241.6 13.7C240.7 5.9 234.1 0 226.2 0h-45.1c-7.8 0-14.4 5.9-15.3 13.7l-13.2 114.5h-14.3l-23.8-92.5c-1.8-6.8-7.9-11.6-14.9-11.6-1.9 0-3.4 1.5-3.4 3.4v100.7h-10L62.8 50.5c-.5-1.6-2.1-2.7-3.8-2.4-1.7.2-2.9 1.7-2.9 3.4v76.7H43.5c-8.5 0-15.4 6.9-15.4 15.4v48.1c0 8.5 6.9 15.4 15.4 15.4h12.6v33.2H31.5C14.1 240.3 0 254.4 0 271.7c0 11.4 6.2 21.9 16.1 27.4v56.7c0 8.5 6.9 15.4 15.4 15.4s15.4-6.9 15.4-15.4v-52.6h9.2v16.6c0 24.9 17.6 46 42 50.5 11.2 10.9 25.9 17 41.6 17h128.2c15.7 0 30.4-6 41.6-17 24.4-4.6 42-25.6 42-50.5v-16.6h9.2v52.6c0 8.5 6.9 15.4 15.4 15.4s15.4-6.9 15.4-15.4v-56.1-.6c9.8-5.5 16.1-16 16.1-27.4-.3-17.3-14.4-31.4-31.7-31.4zM40 355.9c0 4.7-3.9 8.6-8.6 8.6s-8.6-3.9-8.6-8.6v-56.1c0-.6.1-1.2.2-1.9.9-3.9 4.4-6.7 8.4-6.7 3.7 0 6.8 2.3 8 5.5.4 1 .6 2 .6 3.1v56.1zm16.1-59.5h-9.6c-.1-.3-.2-.6-.2-.9 0-.1-.1-.2-.1-.4-.1-.5-.3-.9-.5-1.3 0-.1-.1-.2-.1-.3-.1-.3-.3-.6-.5-1-.1-.1-.2-.3-.2-.4-.2-.3-.3-.5-.5-.8-.1-.2-.2-.3-.3-.4-.2-.2-.3-.5-.5-.7-.1-.1-.2-.3-.3-.4-.2-.2-.4-.4-.6-.7l-.4-.4-.7-.7-.3-.3c-.4-.3-.7-.6-1.1-.8-.1 0-.1-.1-.2-.1-.2-.1-.3-.2-.5-.3l-.6-.3c-.1-.1-.3-.1-.4-.2-.3-.1-.6-.3-.8-.4-.2-.1-.3-.1-.5-.2-.3-.1-.6-.2-.8-.3-.2-.1-.4-.1-.5-.2-.3-.1-.6-.2-.9-.2-.2 0-.4-.1-.5-.1-.3-.1-.6-.1-1-.1-.2 0-.3 0-.5-.1-.5 0-1-.1-1.5-.1-.4 0-.8 0-1.2.1h-.4c-.3 0-.6.1-.8.1-.1 0-.3 0-.4.1-.3.1-.6.1-.8.2-.1 0-.2.1-.3.1-.4.1-.8.2-1.1.4-.1 0-.1.1-.2.1-.3.1-.6.2-.9.4-.1.1-.2.1-.4.2s-.5.2-.7.4c-.1.1-.2.1-.4.2s-.5.3-.7.4c-.1.1-.2.1-.3.2-.3.2-.6.4-.9.7-.1.1-.2.2-.3.2-.2.2-.4.4-.6.5l-.3.3c-.2.2-.3.4-.5.5l-.3.3c-.2.2-.4.4-.5.7-.1.1-.1.2-.2.2l-.6.9c-.1.1-.1.2-.2.4-.1.1-.2.3-.3.4-6.9-4.5-11.1-12.2-11.1-20.6 0-13.6 11-24.6 24.6-24.6h24.6v49.3zM339.8 90.1l4.6-15.3v53.3h-16l11.4-38zm-43.6-39.9l3.3-12.9c.7-2.6 2.5-4.7 4.9-5.7v96.6h-28.2l20-78zM172.6 14.5c.5-4.3 4.2-7.6 8.5-7.6h45.2c4.4 0 8 3.3 8.5 7.6l13.1 113.7h-88.5l13.2-113.7zM103 31.6c2.3 1 4.2 3.1 4.8 5.7l3.3 12.9 20 77.9H103V31.6zM62.9 74.8l4.6 15.3 11.4 38.1h-16V74.8zm0 245V207.1h17.8c-.1.7-.2 1.5-.3 2.2v.2c-.1.9-.2 1.8-.2 2.6v.7c0 .9-.1 1.9-.1 2.8 0 .9 0 1.9.1 2.8 0 .3 0 .6.1.9 0 .6.1 1.3.1 1.9 0 .3.1.6.1.9.1.7.2 1.3.3 2 0 .2.1.5.1.7.1.9.3 1.8.5 2.7 0 .2.1.3.1.5.2.7.3 1.4.5 2.1.1.3.2.6.2.9.2.6.3 1.2.5 1.8l.3.9c.2.7.4 1.3.7 2 .1.2.1.4.2.6.3.8.6 1.6 1 2.4l.3.6c.3.6.5 1.2.8 1.8.1.3.3.5.4.8.3.5.5 1.1.8 1.6.1.3.3.5.4.8.4.7.8 1.4 1.2 2 0 .1.1.2.1.2.4.7.9 1.5 1.4 2.2.2.2.3.4.5.7.3.5.7 1 1.1 1.5.2.2.4.5.6.7.4.5.7 1 1.1 1.4.2.2.3.4.5.6.5.7 1.1 1.3 1.7 1.9l.3.3c.5.5 1 1.1 1.5 1.6l.6.6c.4.4.9.8 1.3 1.2.2.2.4.4.7.6.5.4 1 .9 1.5 1.3.2.1.3.3.5.4.7.5 1.3 1.1 2 1.6.2.1.4.3.5.4.5.4 1.1.8 1.6 1.1.2.2.5.3.8.5.5.3 1 .7 1.5 1 .2.2.5.3.7.5.6.4 1.3.7 1.9 1.1.1.1.2.1.4.2.8.4 1.5.8 2.3 1.2.2.1.5.2.7.3.6.3 1.1.5 1.7.8.3.1.6.2.8.4.6.2 1.2.5 1.7.7.3.1.5.2.8.3.1 0 .2.1.3.1-.1 0-.2.1-.3.1-.3.1-.5.2-.8.3-.6.2-1.2.4-1.7.7-.3.1-.6.2-.8.4-.6.2-1.1.5-1.7.8-.2.1-.5.2-.7.3-.8.4-1.6.8-2.3 1.2-.1.1-.3.1-.4.2-.6.4-1.3.7-1.9 1.1-.3.2-.5.3-.8.5-.5.3-1 .6-1.5 1-.3.2-.5.3-.8.5-.5.4-1.1.7-1.6 1.1-.2.1-.4.3-.5.4-.7.5-1.4 1-2 1.6-.2.1-.4.3-.5.4-.5.4-1 .8-1.4 1.3-.2.2-.5.4-.7.6-.4.4-.9.8-1.3 1.2l-.6.6c-.5.5-1 1-1.5 1.6l-.3.3c-.6.6-1.1 1.3-1.7 1.9-.2.2-.3.4-.5.6-.4.5-.8.9-1.1 1.4-.2.2-.4.5-.6.7-.4.5-.7 1-1 1.5-.2.2-.3.5-.5.7-.5.7-.9 1.4-1.4 2.2-.1.1-.1.2-.1.3-.4.7-.8 1.3-1.2 2-.1.3-.3.5-.4.8-.3.5-.6 1.1-.8 1.6-.1.3-.3.5-.4.8-.3.6-.5 1.2-.8 1.8l-.3.6c-.3.8-.7 1.6-1 2.4-.1.2-.1.4-.2.6-.2.6-.5 1.3-.7 2l-.3.9c-.2.6-.3 1.2-.5 1.8-.1.3-.2.6-.2.9-.2.7-.3 1.4-.5 2.1 0 .2-.1.3-.1.5-.2.9-.3 1.8-.5 2.7 0 .2-.1.5-.1.7-.1.7-.2 1.3-.3 2 0 .3-.1.6-.1.9-.1.6-.1 1.3-.1 1.9 0 .3 0 .6-.1.9 0 .9-.1 1.8-.1 2.8 0 .9 0 1.8.1 2.6v.8c0 .6.1 1.3.1 1.9 0 .3 0 .5.1.8.1.8.2 1.5.3 2.3v.3c.1.9.3 1.7.4 2.6 0 .2.1.5.2.7.1.6.3 1.2.4 1.8.1.3.1.5.2.8.2.7.4 1.4.6 2 0 .2.1.3.1.5.2.8.5 1.6.8 2.4.1.2.2.5.3.7.2.6.4 1.2.7 1.8.1.3.2.5.3.8.3.6.5 1.2.8 1.8l.3.6c.4.8.7 1.5 1.1 2.3l.3.6c.3.6.6 1.1.9 1.7.1.3.3.5.5.8.3.5.7 1.1 1 1.6.1.2.3.4.4.6 0 .1.1.1.1.2-16.3-6.8-27.3-22.8-27.3-41.1zm25.3-115.4c1.7-7.8 5.2-14.9 9.9-20.9l.1-.1c.6-.8 1.3-1.5 1.9-2.3.1-.1.1-.2.2-.2.4-.5.9-1 1.4-1.4l.9-.9c.3-.3.6-.6 1-.9.5-.4.9-.9 1.4-1.3.4-.4.8-.7 1.3-1 .4-.4.8-.7 1.3-1.1.5-.4 1-.7 1.5-1.1.4-.3.8-.6 1.2-.8.4-.3.8-.5 1.2-.8.5-.3 1-.7 1.6-1 .1 0 .2-.1.2-.1 2.8-1.6 5.7-3 8.7-4.1 5.6-2 11.5-3.1 17.6-3.1h2.5c.4 0 .9 0 1.3.1.3 0 .5 0 .8.1.4 0 .8.1 1.2.1.3 0 .5.1.8.1.4 0 .7.1 1.1.1.3 0 .5.1.8.1.4.1.7.1 1.1.2.3.1.5.1.8.2.3.1.7.1 1 .2.3.1.5.1.8.2.3.1.7.2 1 .2.3.1.5.1.8.2.3.1.7.2 1 .3.3.1.5.2.8.3.3.1.7.2 1 .3.3.1.5.2.8.3.3.1.7.2 1 .4.3.1.5.2.8.3.3.1.6.3 1 .4.3.1.5.2.8.3.3.1.6.3.9.4.3.1.5.2.8.4.3.1.6.3.9.5.2.1.5.3.7.4.3.2.6.3.9.5.2.1.5.3.7.4.3.2.6.3.9.5.2.1.5.3.7.4l.9.6c.2.2.5.3.7.5l.9.6c.2.2.5.3.7.5.3.2.6.4.8.6.2.2.4.3.7.5.3.2.5.4.8.7.2.2.4.3.6.5.3.2.5.5.8.7.2.2.4.4.6.5.3.2.5.5.8.7l.6.6c.3.2.5.5.7.7l.6.6c.2.3.5.5.7.8l.6.6c.2.3.5.5.7.8.2.2.4.4.5.6.2.3.5.6.7.8.2.2.3.4.5.6.2.3.4.6.7.9.2.2.3.4.5.6l.6.9c.1.2.3.4.4.6.2.3.4.6.6 1 .1.2.3.4.4.6.2.3.4.7.6 1 .1.2.2.4.4.6.2.4.4.8.6 1.1l.3.6c.2.4.4.9.7 1.3.1.1.1.3.2.4v.1c-.1.2-.3.4-.4.6-.1.1-.2.3-.3.4-.2.4-.5.9-.7 1.3 0 .1 0 .1-.1.2-.2.4-.3.8-.5 1.2-.1.2-.1.3-.2.5-.1.3-.2.6-.3 1-.1.2-.1.4-.1.6-.1.3-.1.6-.2.9 0 .2-.1.4-.1.6-.1.3-.1.7-.1 1 0 .2 0 .3-.1.5 0 .5-.1 1-.1 1.5v48.6h-12.6c-.6 0-1.3 0-1.9.1-.2 0-.4.1-.6.1-.4.1-.8.1-1.2.2-.2 0-.5.1-.7.2-.4.1-.7.2-1.1.3-.2.1-.5.2-.7.2-.3.1-.7.2-1 .4-.2.1-.5.2-.7.3-.3.1-.6.3-1 .5l-.6.3-.9.6c-.2.1-.4.2-.6.4-.3.2-.6.5-.9.7-.2.1-.3.2-.5.4-.4.3-.8.7-1.1 1l-.2.2c-.4.4-.8.9-1.2 1.3-.1.1-.2.3-.3.4-.3.3-.5.6-.7 1-.1.2-.2.4-.4.6l-.6.9-.3.6c-.2.3-.3.6-.5 1-.1.2-.2.5-.3.7-.1.3-.3.7-.4 1-.1.2-.2.5-.2.7-.1.4-.2.7-.3 1.1-.1.2-.1.5-.2.7 0 .1 0 .2-.1.3h-12.9c-29 0-52.6-23.6-52.6-52.6.2-3.9.7-7.7 1.5-11.5zm131.9-11.1c.1-.2.2-.3.2-.5.2-.4.4-.9.7-1.3l.3-.6c.2-.4.4-.8.6-1.1.1-.2.2-.4.4-.6.2-.3.4-.7.6-1 .1-.2.3-.4.4-.6.2-.3.4-.7.6-1 .1-.2.3-.4.4-.6l.6-.9c.2-.2.3-.4.5-.6.2-.3.4-.6.7-.9.2-.2.3-.4.5-.6.2-.3.5-.6.7-.8.2-.2.4-.4.5-.6.2-.3.5-.5.7-.8l.6-.6c.2-.3.5-.5.7-.8l.6-.6.7-.7.6-.6c.3-.2.5-.5.8-.7.2-.2.4-.4.6-.5.3-.2.5-.5.8-.7.2-.2.4-.4.6-.5.3-.2.5-.4.8-.7.2-.2.4-.3.7-.5.3-.2.6-.4.8-.6.2-.2.4-.3.7-.5l.9-.6c.2-.2.5-.3.7-.5l.9-.6c.2-.1.5-.3.7-.4.3-.2.6-.4.9-.5.2-.1.5-.3.7-.4.3-.2.6-.3.9-.5.2-.1.5-.3.7-.4.3-.2.6-.3.9-.5.3-.1.5-.2.8-.4.3-.1.6-.3.9-.4.3-.1.5-.2.8-.3.3-.1.6-.3 1-.4.3-.1.5-.2.8-.3.3-.1.6-.2 1-.4.3-.1.5-.2.8-.3.3-.1.7-.2 1-.3.3-.1.5-.2.8-.3.3-.1.7-.2 1-.3.3-.1.5-.2.8-.2.3-.1.7-.2 1-.2.3-.1.5-.1.8-.2.3-.1.7-.1 1-.2.3-.1.5-.1.8-.2.4-.1.7-.1 1.1-.2.3 0 .5-.1.8-.1.4-.1.7-.1 1.1-.1.3 0 .5-.1.8-.1.4 0 .8-.1 1.2-.1.3 0 .5 0 .8-.1.4 0 .9-.1 1.3-.1h2.5c6.1 0 12.1 1.1 17.6 3.1 1.7.6 3.4 1.3 5.1 2.1 1.3.6 2.5 1.3 3.7 2 12.4 7.3 21.7 19.5 25 34.1.8 3.8 1.2 7.6 1.2 11.3 0 29-23.6 52.6-52.6 52.6h-12.9c0-.1 0-.2-.1-.3 0-.2-.1-.5-.2-.7-.1-.4-.2-.7-.3-1.1-.1-.2-.1-.5-.2-.7-.1-.3-.2-.7-.4-1-.1-.2-.2-.5-.3-.7-.1-.3-.3-.6-.5-1l-.3-.6-.6-.9c-.1-.2-.2-.4-.4-.6-.2-.3-.5-.7-.7-1-.1-.1-.2-.3-.3-.4-.4-.5-.8-.9-1.2-1.3-.1-.1-.1-.1-.2-.1-.4-.4-.8-.7-1.1-1-.2-.1-.3-.2-.5-.4-.3-.2-.6-.5-.9-.7-.2-.1-.4-.3-.6-.4l-.9-.6-.6-.3c-.3-.2-.6-.3-1-.5-.2-.1-.5-.2-.7-.3-.3-.1-.7-.3-1-.4-.2-.1-.5-.2-.7-.2-.4-.1-.7-.2-1.1-.3-.2-.1-.5-.1-.7-.2-.4-.1-.8-.1-1.2-.2-.2 0-.4-.1-.6-.1-.6-.1-1.2-.1-1.9-.1H223v-48.6c0-.5 0-1-.1-1.5 0-.2 0-.3-.1-.5 0-.3-.1-.7-.1-1 0-.2-.1-.4-.1-.6-.1-.3-.1-.6-.2-.9 0-.2-.1-.4-.1-.6-.1-.3-.2-.6-.3-1-.1-.2-.1-.3-.2-.5-.2-.4-.3-.8-.5-1.2 0-.1 0-.1-.1-.2-.2-.5-.4-.9-.7-1.3-.1-.1-.2-.3-.2-.4.1-.3-.1-.5-.2-.7zm3 90.5v-24.6h12.6c6.9 0 12.6 5.7 12.6 12.6s-5.6 12.6-12.6 12.6h-12.6v-.6zm1.8 19.4l9.7 49.2h-61.9l4.1-20.9 5.6-28.3h42.5zm45.6.2c.6.1 1.1.2 1.7.3.2 0 .3 0 .5.1.8.2 1.5.4 2.3.6.1 0 .3.1.4.1l1.8.6c.3.1.5.2.7.3.5.2.9.4 1.3.7.3.1.5.3.8.5.4.2.8.5 1.2.7.3.2.5.4.8.6.4.3.7.5 1.1.8.3.2.5.4.8.6.3.3.6.6 1 .9l.7.7.9.9c.2.3.4.5.6.8.3.3.5.7.8 1 .2.3.4.6.6.8.2.4.5.7.7 1.1.2.3.3.6.5.9l.6 1.2c.1.3.3.6.4.9.2.4.3.8.5 1.3l.3.9c.1.4.2.9.4 1.4.1.3.2.6.2.9.1.5.2 1 .2 1.6 0 .3.1.5.1.8.1.8.1 1.6.1 2.4 0 13.6-11 24.6-24.6 24.6H261l3-15.1 6.5-33.9zm-10.9 20.2l-6.2 31.6-1.1 5.5v.1c-.4 2.1-2.3 3.6-4.5 3.6-.3 0-.5 0-.8-.1-1.8-.3-3.3-1.7-3.7-3.6l-.2-1.1-.9-4.5-10.3-52h31.7l-4 20.5zm-94.4 31.6l-1.1 5.5v.1c-.4 2.1-2.3 3.6-4.5 3.6s-4-1.5-4.5-3.6l-1.1-5.7-10.3-52h31.7l-4 20.4-6.2 31.7zm-28.4-51.8l9.7 49.1h-6.9c-13.6 0-24.6-11-24.6-24.6 0-.8 0-1.6.1-2.4 0-.3.1-.5.1-.8.1-.5.1-1.1.2-1.6.1-.3.1-.6.2-.9.1-.5.2-.9.4-1.4l.3-.9c.1-.4.3-.8.5-1.3.1-.3.3-.6.4-.9l.6-1.2c.2-.3.3-.6.5-.9.2-.4.4-.7.7-1.1.2-.3.4-.6.6-.8.2-.3.5-.7.8-1 .2-.3.4-.5.6-.8l.9-.9.7-.7c.3-.3.6-.6 1-.9.3-.2.5-.4.8-.6.3-.3.7-.5 1.1-.8.3-.2.5-.4.8-.6.4-.3.8-.5 1.2-.7.3-.2.5-.3.8-.5.4-.2.9-.4 1.4-.7.2-.1.5-.2.7-.3.6-.2 1.2-.5 1.8-.6.1 0 .3-.1.4-.1.7-.2 1.5-.4 2.3-.6.2 0 .3-.1.5-.1.3-.3.8-.4 1.4-.4zm79.5-99.7v80.1c0 1-.1 2.1-.4 3.1-1.4 5.6-6.4 9.4-12.2 9.4s-10.7-3.9-12.2-9.4c-.3-1.1-.4-2.1-.4-3.1v-80.1c0-2.9 1-5.6 2.8-7.9 2.4-3 6-4.7 9.8-4.7 1.4 0 2.8.2 4.2.7 2.2.8 4.2 2.2 5.7 4 1.7 2.3 2.7 5 2.7 7.9zm-32.1 80.6h-12.6c-6.9 0-12.6-5.7-12.6-12.6s5.6-12.6 12.6-12.6h12.6V284.3zm121 80.5c-10 10.1-23.3 15.7-37.5 15.7H139.6c-14.2 0-27.5-5.6-37.5-15.7-9.8-9.9-15.2-23-15.2-36.9 0-29 23.6-52.6 52.6-52.6h12.9c0 .1 0 .2.1.3 0 .2.1.5.2.7.1.4.2.7.3 1.1.1.2.1.5.2.7.1.3.2.7.4 1 .1.2.2.5.3.7.1.3.3.6.5 1l.3.6.6.9c.1.2.2.4.4.6.2.3.5.7.7 1 .1.1.2.3.3.4.4.5.8.9 1.2 1.3l.1.1c.4.4.8.7 1.2 1.1.2.1.3.2.5.4.3.2.6.5.9.7.2.1.4.3.6.4l.9.6.6.3c.3.2.6.3 1 .5.2.1.5.2.7.3.3.1.7.3 1 .4.2.1.5.2.7.2.4.1.7.2 1.1.3.2.1.5.1.7.2.4.1.8.1 1.2.2.2 0 .4.1.6.1.6.1 1.2.1 1.9.1h14.1c0 .1.1.2.1.3.1.2.2.4.3.7.1.3.2.5.4.8.1.2.2.4.4.6.1.2.3.5.4.7.1.2.3.4.4.6.2.2.3.4.5.7.1.2.3.4.5.6.1.1.1.2.2.3h-49.2c-17.3 0-31.5 14.1-31.5 31.5 0 17.3 14.1 31.5 31.5 31.5h8.3l.6 2.9c1.1 5.3 5.8 9.1 11.2 9.1 5.3 0 10-3.7 11.1-8.9 0-.1 0-.1.1-.2l.6-2.9H236l.6 2.9c1.1 5.3 5.8 9.1 11.2 9.1 5.3 0 10-3.7 11.1-8.9 0-.1 0-.1.1-.2l.6-2.9h8.3c17.3 0 31.5-14.1 31.5-31.5 0-17.3-14.1-31.5-31.5-31.5h-49.2c.1-.1.1-.2.2-.3.2-.2.3-.4.5-.6.2-.2.3-.4.5-.7.1-.2.3-.4.4-.6.1-.2.3-.5.4-.7.1-.2.2-.4.4-.6.1-.2.3-.5.4-.7.1-.2.2-.4.3-.7 0-.1.1-.2.1-.3H236c.6 0 1.3 0 1.9-.1.2 0 .4-.1.6-.1.4-.1.8-.1 1.2-.2.2 0 .5-.1.7-.2.4-.1.7-.2 1.1-.3.2-.1.5-.1.7-.2.3-.1.7-.2 1-.4.2-.1.5-.2.7-.3.3-.1.6-.3 1-.5l.6-.3.9-.6c.2-.1.4-.2.6-.4.3-.2.6-.5.9-.7.2-.1.3-.2.5-.4.4-.3.8-.7 1.2-1.1l.1-.1c.4-.4.8-.9 1.2-1.3.1-.1.2-.3.3-.4.3-.3.5-.7.7-1 .1-.2.2-.4.4-.6l.6-.9.3-.6c.2-.3.3-.6.5-1 .1-.2.2-.5.3-.7.1-.3.3-.7.4-1 .1-.2.2-.5.2-.7.1-.4.2-.7.3-1.1.1-.2.1-.5.2-.7 0-.1 0-.2.1-.3h12.9c29 0 52.6 23.6 52.6 52.6 0 4.3-.5 8.6-1.5 12.7-2.6 8.9-7.3 17.2-14 24.1zm39.2-121.1v76.1c0 18.3-11 34.3-27.2 41.1 0-.1.1-.1.1-.2.1-.2.2-.4.3-.5.4-.6.7-1.1 1.1-1.7.1-.2.3-.5.4-.7.3-.6.7-1.2 1-1.7l.3-.6c.4-.8.8-1.5 1.1-2.3.1-.2.2-.4.2-.5.3-.6.6-1.2.8-1.8.1-.3.2-.5.3-.8.2-.6.5-1.2.7-1.8.1-.2.2-.4.2-.7.3-.8.6-1.6.8-2.4 0-.2.1-.3.1-.5.2-.7.4-1.4.6-2 .1-.3.1-.5.2-.8.1-.6.3-1.2.4-1.9.1-.2.1-.5.2-.7.2-.8.3-1.7.4-2.6v-.3c.1-.8.2-1.5.3-2.3 0-.3.1-.5.1-.8.1-.6.1-1.3.1-1.9v-.8c0-.9.1-1.8.1-2.6 0-.9 0-1.9-.1-2.8 0-.3 0-.6-.1-.9 0-.6-.1-1.3-.1-1.9 0-.3-.1-.6-.1-.9-.1-.7-.2-1.3-.3-2 0-.2-.1-.5-.1-.7-.1-.9-.3-1.8-.5-2.7 0-.2-.1-.3-.1-.5-.2-.7-.3-1.4-.5-2.1-.1-.3-.2-.6-.2-.9-.2-.6-.3-1.2-.5-1.8l-.3-.9c-.2-.7-.4-1.3-.7-2-.1-.2-.1-.4-.2-.6-.3-.8-.6-1.6-1-2.4-.1-.2-.2-.4-.3-.7-.3-.6-.5-1.2-.8-1.8-.1-.3-.3-.5-.4-.8-.3-.5-.5-1.1-.8-1.6-.1-.3-.3-.5-.4-.8-.4-.7-.8-1.4-1.2-2 0-.1-.1-.2-.1-.3-.4-.7-.9-1.5-1.4-2.2-.2-.2-.3-.5-.5-.7-.3-.5-.7-1-1-1.5-.2-.2-.4-.5-.6-.7-.4-.5-.7-1-1.1-1.4-.2-.2-.3-.4-.5-.6-.5-.7-1.1-1.3-1.7-1.9l-.3-.3c-.5-.5-1-1.1-1.5-1.6l-.6-.6c-.4-.4-.8-.8-1.3-1.2-.2-.2-.5-.4-.7-.6-.5-.4-1-.8-1.4-1.3-.2-.1-.3-.3-.5-.4-.7-.5-1.3-1.1-2-1.6-.2-.1-.4-.3-.5-.4-.5-.4-1-.8-1.6-1.1-.3-.2-.5-.3-.8-.5-.5-.3-1-.6-1.5-1-.2-.2-.5-.3-.8-.5-.6-.4-1.3-.7-1.9-1.1-.1-.1-.3-.1-.4-.2-.8-.4-1.5-.8-2.3-1.2-.2-.1-.5-.2-.7-.3-.6-.3-1.1-.5-1.7-.8-.3-.1-.6-.2-.8-.4-.6-.2-1.2-.5-1.7-.7-.3-.1-.5-.2-.8-.3-.1 0-.2-.1-.3-.1.1 0 .2-.1.3-.1.3-.1.5-.2.8-.3.6-.2 1.2-.4 1.7-.7.3-.1.6-.2.8-.4.6-.3 1.2-.5 1.7-.8.2-.1.5-.2.7-.3.8-.4 1.6-.8 2.3-1.2.1-.1.2-.1.4-.2.6-.4 1.3-.7 1.9-1.1.2-.1.5-.3.7-.5.5-.3 1-.6 1.5-1 .3-.2.5-.3.8-.5.5-.4 1.1-.7 1.6-1.1.2-.1.4-.3.5-.4.7-.5 1.4-1 2-1.6.2-.1.3-.3.5-.4.5-.4 1-.8 1.5-1.3.2-.2.4-.4.7-.6.4-.4.9-.8 1.3-1.2l.6-.6c.5-.5 1-1 1.5-1.6l.3-.3c.6-.6 1.1-1.3 1.7-1.9.2-.2.3-.4.5-.6.4-.5.8-1 1.1-1.4.2-.2.4-.5.6-.7.4-.5.7-1 1.1-1.5.2-.2.3-.4.5-.7.5-.7.9-1.4 1.4-2.2 0-.1.1-.2.1-.2.4-.7.8-1.3 1.2-2 .1-.3.3-.5.4-.8.3-.5.6-1.1.8-1.6.1-.3.3-.5.4-.8.3-.6.5-1.2.8-1.8.1-.2.2-.4.3-.7.3-.8.7-1.6 1-2.4.1-.2.1-.4.2-.6.2-.7.5-1.3.7-2l.3-.9c.2-.6.3-1.2.5-1.8.1-.3.2-.6.2-.9.2-.7.3-1.4.5-2.1 0-.2.1-.3.1-.5.2-.9.3-1.8.5-2.7 0-.2.1-.5.1-.7.1-.7.2-1.3.3-2 0-.3.1-.6.1-.9.1-.6.1-1.3.1-1.9 0-.3 0-.6.1-.9 0-.9.1-1.8.1-2.8 0-.9 0-1.9-.1-2.8v-.7c-.1-.9-.1-1.8-.2-2.6v-.2c-.1-.7-.2-1.5-.3-2.2h17.8v36.7zm-19.2-43.5c-.2-.6-.3-1.1-.5-1.7-.1-.2-.1-.5-.2-.7-.5-1.6-1.1-3.2-1.7-4.7l-.3-.6c-.2-.6-.5-1.1-.7-1.7-.1-.3-.3-.5-.4-.8-.2-.5-.4-.9-.7-1.4-.2-.3-.3-.6-.5-.9-.2-.4-.5-.9-.7-1.3-.2-.3-.4-.6-.5-.9-.2-.4-.5-.8-.7-1.2l-.6-.9c-.2-.4-.5-.8-.8-1.1l-.6-.9c-.3-.4-.5-.7-.8-1.1-.2-.3-.5-.6-.7-.9-.3-.3-.5-.7-.8-1-.2-.3-.5-.6-.7-.9-.3-.3-.6-.7-.9-1-.3-.3-.5-.6-.8-.8-.3-.3-.6-.6-.9-1l-.8-.8-.9-.9c-.3-.3-.6-.5-.8-.8-.3-.3-.6-.6-1-.9-.3-.3-.6-.5-.9-.8-.3-.3-.7-.6-1-.8-.3-.2-.6-.5-.9-.7-.3-.3-.7-.5-1-.8-.3-.2-.6-.5-.9-.7-.3-.3-.7-.5-1.1-.7-.3-.2-.6-.4-1-.6-.4-.2-.7-.5-1.1-.7-.3-.2-.7-.4-1-.6-.4-.2-.7-.4-1.1-.7-.3-.2-.7-.4-1-.6-.4-.2-.8-.4-1.1-.6-.3-.2-.7-.4-1-.5l-1.2-.6c-.3-.2-.7-.3-1-.5-.4-.2-.8-.3-1.2-.5-.4-.2-.7-.3-1.1-.4-.4-.2-.8-.3-1.2-.5-.4-.1-.7-.3-1.1-.4-.4-.1-.8-.3-1.3-.4-.4-.1-.7-.2-1.1-.4-.4-.1-.9-.3-1.3-.4-.4-.1-.7-.2-1.1-.3-.4-.1-.9-.2-1.3-.3-.4-.1-.7-.2-1.1-.3-.5-.1-.9-.2-1.4-.3-.4-.1-.7-.1-1.1-.2-.5-.1-.9-.1-1.4-.2-.4-.1-.7-.1-1-.2-.5-.1-1-.1-1.5-.2-.3 0-.7-.1-1-.1-.6 0-1.1-.1-1.7-.1-.3 0-.6 0-.8-.1-.8 0-1.7-.1-2.5-.1H264.8c-.5 0-1 0-1.4.1-.3 0-.6 0-.8.1-.4 0-.9.1-1.3.1-.3 0-.6.1-.9.1-.4.1-.8.1-1.2.2-.3 0-.6.1-.9.1-.4.1-.8.1-1.2.2-.3.1-.6.1-.9.2-.4.1-.8.2-1.2.2-.3.1-.6.1-.9.2-.4.1-.8.2-1.1.3-.3.1-.6.2-.9.2-.4.1-.8.2-1.1.3l-.9.3c-.4.1-.8.2-1.1.4l-.9.3c-.4.1-.8.3-1.1.4-.3.1-.5.2-.8.3-.4.2-.8.3-1.2.5-.3.1-.5.2-.8.3-.4.2-.8.4-1.2.5-.2.1-.4.2-.7.3-.5.2-.9.5-1.4.7-.1.1-.3.1-.4.2-.6.3-1.2.6-1.8 1-.1 0-.2.1-.2.1-.5.3-1 .6-1.6.9-.2.1-.4.2-.6.4-.4.2-.8.5-1.2.7-.2.1-.4.3-.7.4-.4.2-.7.5-1 .7-.2.2-.5.3-.7.5-.3.2-.7.5-1 .7-.2.2-.5.4-.7.5-.3.2-.6.5-.9.7-.2.2-.5.4-.7.6-.3.3-.6.5-.9.8-.2.2-.5.4-.7.6-.3.3-.6.5-.9.8-.2.2-.4.4-.7.6-.3.3-.6.5-.8.8-.2.2-.4.4-.6.7-.3.3-.5.6-.8.9-.2.2-.4.4-.6.7-.3.3-.5.6-.8.9-.2.2-.4.5-.6.7-.3.3-.5.6-.8.9-.2.2-.4.5-.5.7-.3.3-.5.7-.8 1-.2.2-.3.4-.5.7-.3.4-.6.8-.9 1.3-.1.2-.2.3-.3.5-.4.6-.8 1.2-1.1 1.8-.1.2-.3.4-.4.7-.2.4-.5.8-.7 1.2-.2.3-.3.6-.5.8-.2.3-.3.6-.5.9-.3-.2-.6-.4-1-.7-.1 0-.1-.1-.2-.1-.5-.3-1.1-.6-1.7-.9-.1-.1-.3-.1-.4-.2-.5-.2-.9-.4-1.4-.6-.1-.1-.3-.1-.4-.2-.6-.2-1.2-.4-1.8-.5-.1 0-.2 0-.4-.1-.5-.1-1-.2-1.6-.3-.2 0-.4 0-.5-.1-.6-.1-1.3-.1-2-.1s-1.3 0-2 .1c-.2 0-.4 0-.5.1-.5.1-1.1.2-1.6.3-.1 0-.2 0-.4.1-.6.1-1.2.3-1.8.5-.1 0-.3.1-.4.2-.5.2-1 .4-1.4.6-.1.1-.3.1-.4.2-.6.3-1.1.6-1.7.9-.1.1-.2.1-.2.2-.3.2-.6.4-1 .6-.2-.3-.4-.7-.5-1-.1-.2-.2-.5-.4-.7-.3-.5-.5-.9-.8-1.4-.1-.2-.2-.3-.3-.5-.4-.6-.8-1.2-1.1-1.8-.1-.1-.1-.2-.2-.2-.3-.5-.7-1-1-1.5-.1-.2-.3-.4-.4-.6-.3-.4-.6-.8-.9-1.1-.2-.2-.3-.4-.5-.6-.3-.3-.5-.7-.8-1-.2-.2-.4-.4-.5-.6-.3-.3-.5-.6-.8-.9l-.6-.6c-.3-.3-.6-.6-.8-.9l-.6-.6-.9-.9-.6-.6c-.3-.3-.6-.5-.9-.8-.2-.2-.4-.4-.7-.6-.3-.3-.6-.5-.9-.8-.2-.2-.4-.4-.7-.6-.3-.3-.6-.5-.9-.8-.2-.2-.5-.4-.7-.5-.3-.3-.7-.5-1-.7-.2-.2-.4-.3-.7-.5-.4-.2-.7-.5-1.1-.7-.2-.1-.4-.3-.6-.4-.4-.3-.8-.5-1.2-.8l-.6-.3c-.5-.3-1-.6-1.6-.9-.1 0-.2-.1-.2-.1-.6-.3-1.2-.7-1.8-1-.1-.1-.3-.1-.4-.2-.5-.2-.9-.5-1.4-.7-.2-.1-.4-.2-.7-.3-.4-.2-.8-.4-1.2-.5-.3-.1-.5-.2-.8-.3-.4-.2-.8-.3-1.2-.5-.3-.1-.6-.2-.8-.3-.4-.1-.8-.3-1.1-.4l-.9-.3c-.4-.1-.8-.2-1.1-.4l-.9-.3c-.4-.1-.8-.2-1.1-.3-.3-.1-.6-.2-.9-.2-.4-.1-.8-.2-1.1-.3-.3-.1-.6-.1-.9-.2-.4-.1-.8-.2-1.2-.2-.3-.1-.6-.1-.9-.2-.4-.1-.8-.1-1.2-.2-.3 0-.6-.1-.9-.1-.4-.1-.8-.1-1.2-.2-.3 0-.6-.1-.9-.1-.4 0-.9-.1-1.3-.1-.3 0-.6-.1-.8-.1-.5 0-1-.1-1.4-.1H139.7c-.9 0-1.7 0-2.5.1-.3 0-.6 0-.8.1-.6 0-1.1.1-1.7.1-.3 0-.7.1-1 .1-.5.1-1 .1-1.5.2-.4 0-.7.1-1 .2-.5.1-1 .1-1.4.2-.4.1-.7.1-1.1.2-.5.1-.9.2-1.4.3-.4.1-.7.2-1.1.3-.4.1-.9.2-1.3.3-.4.1-.7.2-1.1.3-.4.1-.9.2-1.3.4-.4.1-.7.2-1.1.4-.4.1-.8.3-1.3.4-.4.1-.7.3-1.1.4-.4.2-.8.3-1.2.5-.4.1-.7.3-1.1.4-.4.2-.8.3-1.2.5-.4.2-.7.3-1 .5l-1.2.6c-.3.2-.7.4-1 .5-.4.2-.8.4-1.1.6-.3.2-.7.4-1 .6-.4.2-.7.4-1.1.7-.3.2-.7.4-1 .6-.4.2-.7.5-1.1.7-.3.2-.6.4-1 .6-.4.2-.7.5-1.1.7-.3.2-.6.5-.9.7-.3.3-.7.5-1 .8-.3.2-.6.5-.9.7-.3.3-.7.5-1 .8-.3.3-.6.5-.9.8-.3.3-.6.6-1 .9-.3.3-.6.5-.8.8l-.9.9-.8.8-.9.9c-.3.3-.5.6-.8.9-.3.3-.6.7-.8 1-.2.3-.5.6-.7.9-.3.3-.5.7-.8 1-.2.3-.5.6-.7.9-.3.4-.5.7-.8 1.1-.2.3-.4.6-.7.9-.2.4-.5.7-.7 1.1-.2.3-.4.6-.6 1-.2.4-.5.8-.7 1.1-.2.3-.4.6-.6 1-.2.4-.4.8-.7 1.2-.2.3-.4.6-.5 1-.2.4-.4.8-.6 1.3-.2.3-.3.6-.5 1-.2.5-.4.9-.6 1.4-.1.3-.3.6-.4.9-.3.7-.6 1.4-.8 2.1-.1.3-.2.5-.3.8l-.6 1.8c-.1.3-.2.7-.3 1-.1.4-.3.9-.4 1.3H43.5c-4.7 0-8.6-3.9-8.6-8.6v-48.1c0-4.7 3.9-8.6 8.6-8.6h320.1c4.7 0 8.6 3.9 8.6 8.6v48.1c0 4.7-3.9 8.6-8.6 8.6h-38.4zm59.3 155.7c0 4.7-3.9 8.6-8.6 8.6-4.7 0-8.6-3.9-8.6-8.6v-56.1c0-1.1.2-2.1.6-3.1 1.2-3.2 4.4-5.5 8-5.5 1.5 0 2.9.4 4.2 1.1.3.1.5.3.8.5 1.7 1.2 3 3 3.4 5.2.1.7.2 1.3.2 1.9v56zm4.9-63.6c-.1-.2-.2-.3-.3-.5-.1-.1-.1-.2-.2-.3-.2-.3-.4-.7-.7-1 0-.1-.1-.1-.1-.2-.2-.3-.4-.5-.6-.8l-.3-.3-.6-.6-.3-.3c-.2-.2-.4-.4-.7-.6l-.2-.2c-.3-.2-.6-.5-.9-.7-.1-.1-.2-.1-.2-.2-.2-.2-.5-.3-.8-.5-.1-.1-.2-.1-.4-.2s-.5-.3-.7-.4c-.1-.1-.2-.1-.4-.2-.3-.1-.6-.3-.9-.4-.1 0-.1 0-.2-.1-.4-.1-.7-.2-1.1-.4-.1 0-.2-.1-.3-.1-.3-.1-.6-.1-.8-.2-.1 0-.3 0-.4-.1-.3 0-.6-.1-.8-.1h-.4c-.4 0-.8-.1-1.2-.1-.5 0-1 0-1.5.1-.2 0-.3 0-.5.1-.3 0-.7.1-1 .1-.2 0-.4.1-.5.1-.3.1-.6.1-.9.2-.2.1-.4.1-.5.2-.3.1-.6.2-.8.3-.2.1-.3.1-.5.2-.3.1-.6.3-.8.4-.1.1-.3.1-.4.2l-.6.3c-.2.1-.3.2-.5.3-.1 0-.1.1-.2.1-.4.3-.8.5-1.1.8l-.3.3c-.3.2-.5.4-.7.7l-.4.4c-.2.2-.4.4-.6.7-.1.1-.2.3-.3.4-.2.2-.4.5-.5.7-.1.1-.2.3-.3.4-.2.3-.3.5-.5.8-.1.1-.2.3-.2.4-.2.3-.3.6-.5 1 0 .1-.1.2-.1.3-.2.4-.3.9-.5 1.3 0 .1-.1.2-.1.4-.1.3-.2.6-.2.9h-9.6v-49.2h24.6c13.6 0 24.6 11 24.6 24.6 0 8.8-4.3 16.5-11.1 21z"/><path d="M139.6 247.1c17.3 0 31.5-14.1 31.5-31.5s-14.1-31.5-31.5-31.5c-17.3 0-31.5 14.1-31.5 31.5s14.1 31.5 31.5 31.5zm0-56c13.6 0 24.6 11 24.6 24.6s-11 24.6-24.6 24.6c-13.6 0-24.6-11-24.6-24.6s11-24.6 24.6-24.6zM267.7 247.1c17.3 0 31.5-14.1 31.5-31.5s-14.1-31.5-31.5-31.5c-17.3 0-31.5 14.1-31.5 31.5s14.2 31.5 31.5 31.5zm0-56c13.6 0 24.6 11 24.6 24.6s-11 24.6-24.6 24.6c-13.6 0-24.6-11-24.6-24.6s11.1-24.6 24.6-24.6zM1256.3 215.1c-24.7-8.4-32.6-15.7-32.6-30 0-16.3 13.2-29.5 29.5-29.5s29.5 13.2 29.5 29.5c0 5.2 4.3 9.5 9.5 9.5s9.5-4.3 9.5-9.5c0-26.7-21.7-48.5-48.5-48.5-26.7 0-48.5 21.7-48.5 48.5 0 32.4 29.5 42.5 45.4 48 37 12.6 52.8 27.7 52.8 50.2 0 27.4-22.3 49.7-49.7 49.7-27.4 0-49.7-22.3-49.7-49.7 0-5.2-4.3-9.5-9.5-9.5s-9.5 4.3-9.5 9.5c0 37.9 30.8 68.7 68.7 68.7 37.9 0 68.7-30.8 68.7-68.7 0-40.6-35.1-57.8-65.6-68.2zM816.3 235c-5.2 0-9.5 4.2-9.5 9.5v48.7c0 21.6-17.6 39.2-39.2 39.2s-39.2-17.6-39.2-39.2v-48.7c0-5.2-4.2-9.5-9.5-9.5-5.2 0-9.5 4.2-9.5 9.5v48.7c0 32.1 26.1 58.2 58.2 58.2s58.2-26.1 58.2-58.2v-48.7c0-5.3-4.3-9.5-9.5-9.5zM1148.3 235c-5.2 0-9.5 4.2-9.5 9.5v48.7c0 21.6-17.6 39.2-39.2 39.2s-39.2-17.6-39.2-39.2v-48.7c0-5.2-4.2-9.5-9.5-9.5-5.2 0-9.5 4.2-9.5 9.5v48.7c0 32.1 26.1 58.2 58.2 58.2s58.2-26.1 58.2-58.2v-48.7c0-5.3-4.3-9.5-9.5-9.5zM956.4 235c-14.7 0-28.6 5.5-39.2 15.3v-5.8c0-5.2-4.2-9.5-9.5-9.5-5.2 0-9.5 4.2-9.5 9.5v146.1c0 5.2 4.2 9.5 9.5 9.5 5.2 0 9.5-4.2 9.5-9.5v-54.5c10.7 9.8 24.5 15.3 39.2 15.3 32.1 0 58.2-26.1 58.2-58.2S988.5 235 956.4 235zm0 97.4c-21.6 0-39.2-17.6-39.2-39.2s17.6-39.2 39.2-39.2 39.2 17.6 39.2 39.2c.1 21.6-17.5 39.2-39.2 39.2zM575.7 137.5c-59 0-106.9 48-106.9 106.9 0 55.5 42.5 101.6 97.4 106.5v15.3c0 5.2 4.2 9.5 9.5 9.5 5.2 0 9.5-4.2 9.5-9.5v-15.3c54.9-4.8 97.4-51 97.4-106.5 0-58.9-47.9-106.9-106.9-106.9zm0 19c48.5 0 88 39.5 88 88s-39.5 88-88 88-88-39.5-88-88c.1-48.6 39.5-88 88-88zM862 235c-5.2 0-9.5 4.2-9.5 9.5v97.4c0 5.2 4.2 9.5 9.5 9.5 5.2 0 9.5-4.2 9.5-9.5v-97.4c0-5.3-4.3-9.5-9.5-9.5zM862 210.6c-5.2 0-9.5 4.2-9.5 9.5 0 5.2 4.2 9.5 9.5 9.5 5.2 0 9.5-4.2 9.5-9.5 0-5.2-4.3-9.5-9.5-9.5zM1741.8 235c-14.7 0-28.6 5.5-39.2 15.3v-5.8c0-5.2-4.2-9.5-9.5-9.5-5.2 0-9.5 4.2-9.5 9.5v146.1c0 5.2 4.2 9.5 9.5 9.5 5.2 0 9.5-4.2 9.5-9.5v-54.5c10.7 9.8 24.5 15.3 39.2 15.3 32.1 0 58.2-26.1 58.2-58.2s-26.1-58.2-58.2-58.2zm0 97.4c-21.6 0-39.2-17.6-39.2-39.2s17.6-39.2 39.2-39.2 39.2 17.6 39.2 39.2c.1 21.6-17.6 39.2-39.2 39.2zM1647.4 235c-5.2 0-9.5 4.2-9.5 9.5v5.8c-10.7-9.8-24.5-15.3-39.2-15.3-32.1 0-58.2 26.1-58.2 58.2s26.1 58.2 58.2 58.2c14.7 0 28.6-5.5 39.2-15.3v5.8c0 5.2 4.2 9.5 9.5 9.5 5.2 0 9.5-4.2 9.5-9.5v-97.4c0-5.3-4.3-9.5-9.5-9.5zm-48.7 97.4c-21.6 0-39.2-17.6-39.2-39.2s17.6-39.2 39.2-39.2 39.2 17.6 39.2 39.2-17.6 39.2-39.2 39.2zM1504.2 235c-5.2 0-9.5 4.3-9.5 9.5v59.9c0 14.9-12.1 27.1-27 27.1s-27-12.1-27-27.1v-38.3c0-5.2-4.3-9.5-9.5-9.5s-9.5 4.3-9.5 9.5v38.3c0 14.9-12.1 27.1-27 27.1s-27-12.1-27-27.1v-59.9c0-5.2-4.3-9.5-9.5-9.5s-9.5 4.3-9.5 9.5v59.9c0 25.4 20.6 46 46 46 14.3 0 27.9-6.8 36.5-18.1 8.7 11.3 22.2 18.1 36.5 18.1 25.4 0 46-20.6 46-46v-59.9c0-5.3-4.2-9.5-9.5-9.5z"/></g></svg>