<svg width="130" height="131" viewBox="0 0 130 131" fill="none" xmlns="http://www.w3.org/2000/svg">
<path d="M32.5 65.25C50.2734 65.25 65 79.9766 65 97.75C65 115.777 50.2734 130.25 32.5 130.25C14.4727 130.25 0 115.777 0 97.75C0 79.9766 14.4727 65.25 32.5 65.25ZM49.0039 57.125C42.4023 57.125 38.3398 50.5234 41.6406 44.9375L65.7617 4.3125C67.2852 2.02734 70.0781 0.25 73.125 0.25C75.918 0.25 78.7109 2.02734 80.2344 4.3125L104.102 44.9375C107.402 50.5234 103.34 57.125 96.9922 57.125H49.0039ZM121.875 69.3125C126.191 69.3125 130 73.1211 130 77.4375V118.062C130 122.633 126.191 126.188 121.875 126.188H81.25C76.6797 126.188 73.125 122.633 73.125 118.062V77.4375C73.125 73.1211 76.6797 69.3125 81.25 69.3125H121.875Z" fill="#00E8CB"/>
</svg>
