<svg xmlns="http://www.w3.org/2000/svg" xmlns:xlink="http://www.w3.org/1999/xlink" viewBox="0 0 512 512"><defs><style>.cls-1,.cls-10,.cls-14{fill:#fff;}.cls-2{isolation:isolate;}.cls-3{fill:#f2aa2f;}.cls-13,.cls-21,.cls-4{fill:none;}.cls-4{stroke:#fff;stroke-miterlimit:10;stroke-width:3.84px;}.cls-12,.cls-13,.cls-21,.cls-4{stroke-linecap:round;}.cls-5{opacity:0.11;}.cls-11,.cls-5{mix-blend-mode:multiply;}.cls-12,.cls-19,.cls-6{fill:#00e8cc;}.cls-7{fill:#ececec;}.cls-8{clip-path:url(#clip-path);}.cls-17,.cls-9{fill:#50239f;}.cls-10,.cls-12,.cls-13,.cls-21{stroke:#50239f;stroke-linejoin:round;}.cls-10,.cls-12,.cls-21{stroke-width:2.24px;}.cls-11{fill:#b3b3b3;}.cls-13{stroke-width:3.07px;}.cls-14{fill-opacity:0.24;}.cls-15{clip-path:url(#clip-path-2);}.cls-16{fill:#311b58;}.cls-17{font-size:15.64px;}.cls-17,.cls-19{font-family:Roboto-Medium, Roboto;font-weight:500;}.cls-18{letter-spacing:-0.02em;}.cls-19{font-size:15.64px;}.cls-20{letter-spacing:-0.02em;}</style><clipPath id="clip-path"><path class="cls-1" d="M345.32,115.45,228,87.69a12,12,0,0,0-14.39,8.88L155.87,340.44a7.25,7.25,0,0,0,5.38,8.72L287.78,379.1a7.24,7.24,0,0,0,8.72-5.39l57.7-243.87A12,12,0,0,0,345.32,115.45Z"/></clipPath><clipPath id="clip-path-2"><rect class="cls-1" x="195.49" y="153.2" width="100.3" height="88.79" rx="9.41" transform="translate(-3.17 391.18) rotate(-76.7)"/></clipPath></defs><title>sign-one-device</title><g class="cls-2"><g id="_3" data-name="3"><path class="cls-3" d="M54.36,296.32l0,0a.07.07,0,0,1,0,0Z"/><path class="cls-4" d="M357.41,273.33c53.09-28.18,29.81-73.2,29.81-73.2"/><polygon class="cls-1" points="376.14 280.44 377.01 276.7 358.59 272.41 364.21 254.35 360.55 253.21 353.7 275.21 376.14 280.44"/><path class="cls-4" d="M154.59,175c-53.09,28.18-29.81,73.2-29.81,73.2"/><polygon class="cls-1" points="135.86 167.89 134.99 171.63 153.41 175.92 147.79 193.99 151.45 195.12 158.3 173.12 135.86 167.89"/><g class="cls-5"><path class="cls-6" d="M379.9,150.6,255.35,121.13a12.34,12.34,0,0,0-14.85,9.17L180.62,383.41a11.88,11.88,0,0,0,8.82,14.29L314.9,427.38a14.81,14.81,0,0,0,17.82-11L391.25,169A15.27,15.27,0,0,0,379.9,150.6Z"/></g><path class="cls-7" d="M351.17,114,226.63,84.55a12.33,12.33,0,0,0-14.85,9.17L151.9,346.83a11.88,11.88,0,0,0,8.82,14.29L286.17,390.8a14.82,14.82,0,0,0,17.83-11l58.52-247.4A15.27,15.27,0,0,0,351.17,114Z"/><path class="cls-1" d="M345.32,115.45,228,87.69a12,12,0,0,0-14.39,8.88L155.87,340.44a7.25,7.25,0,0,0,5.38,8.72L287.78,379.1a7.24,7.24,0,0,0,8.72-5.39l57.7-243.87A12,12,0,0,0,345.32,115.45Z"/><g class="cls-8"><rect class="cls-9" x="171" y="83.05" width="176.54" height="307.32" transform="translate(61.46 -53.33) rotate(13.31)"/></g><circle class="cls-10" cx="227.67" cy="97.48" r="3.54"/><rect class="cls-11" x="218.06" y="205.66" width="93.54" height="93.54" rx="9.92" transform="translate(-41.77 452.08) rotate(-76.7)"/><line class="cls-12" x1="232.65" y1="372.34" x2="215.79" y2="368.35"/><line class="cls-13" x1="356.27" y1="147.17" x2="352.03" y2="165.08"/><line class="cls-13" x1="351.04" y1="169.29" x2="346.8" y2="187.19"/><path class="cls-14" d="M291.84,375.3l57.73-244a11.42,11.42,0,0,0-8.49-13.75L228.87,91Z"/><rect class="cls-1" x="195.49" y="153.2" width="100.3" height="88.79" rx="9.41" transform="translate(-3.17 391.18) rotate(-76.7)"/><g class="cls-15"><path class="cls-1" d="M256.13,193.1a2.94,2.94,0,0,1-3.53,2.18l-8.46-2h0l-2.82-.67a2.76,2.76,0,0,0-1.27,5.37l2.82.66h0l6.18,1.46a3.36,3.36,0,0,1-1.55,6.54l-4.4-1a1.83,1.83,0,0,0-2.19,1.33l-.51,2.19-.52-.4a33.32,33.32,0,0,1-7.26-7.11,31.37,31.37,0,0,1-4-9.5,19.83,19.83,0,0,1-.29-7.2A84.82,84.82,0,0,1,231,173.58c.56-2.08,1.23-4.16,1.88-6.22a88.54,88.54,0,0,0,10.31-.59,58.63,58.63,0,0,0,7.57-1.61l-.88,3.72a1.84,1.84,0,0,0,1.33,2.21l7.59,1.8a2.75,2.75,0,0,1-1.26,5.36L248.22,176h0l-2.71-.64a4.08,4.08,0,0,0-1.87,7.94l3.6.85a2.06,2.06,0,0,0-1.06,1.34,2.09,2.09,0,0,0,1.51,2.56l6.26,1.49A2.93,2.93,0,0,1,256.13,193.1Z"/><path class="cls-16" d="M231,173.58a84.82,84.82,0,0,0-2.72,11.35,19.83,19.83,0,0,0,.29,7.2,31.37,31.37,0,0,0,4,9.5,33.32,33.32,0,0,0,7.26,7.11l.52.4-.21.9a1,1,0,0,1-1.75.61s-5.37-4.24-7.49-7.43a33.17,33.17,0,0,1-4.58-10.33,22.92,22.92,0,0,1-.35-8.09c.54-4.26,1.95-8.56,3.07-12.72.44-1.6,1-3.52,1.5-5.1a2.48,2.48,0,0,1,2.74-2.06,49.27,49.27,0,0,0,10.53-.67c2.56-.54,6-1.59,6-1.59.89-.28,1.46.24,1.24,1.16l-.31,1.34h0a58.63,58.63,0,0,1-7.57,1.61,88.54,88.54,0,0,1-10.31.59C232.26,169.42,231.59,171.5,231,173.58Z"/><path class="cls-9" d="M266.84,194a19.79,19.79,0,0,1-3.48,6.31,31.26,31.26,0,0,1-7.85,6.69,32.74,32.74,0,0,1-9.65,3.11l-.65.13-.14.6h0l1.08-4.55,1.35.32a3.36,3.36,0,1,0,1.54-6.54l-1.35-.32L240.05,198a2.76,2.76,0,0,1,1.27-5.37l7.65,1.8,3.63.86a2.93,2.93,0,0,0,1.37-5.7l-6.28-1.49a2.1,2.1,0,0,1-.44-3.9l-3.61-.85a4.08,4.08,0,0,1,1.87-7.94l7.54,1.79h0l4.52,1.06a2.75,2.75,0,0,0,1.26-5.36l-4.51-1.07,1.31-5.5a59.35,59.35,0,0,0,6,4.8,86,86,0,0,0,8.95,5.15c-.34,2.14-.66,4.29-1.1,6.4A83.36,83.36,0,0,1,266.84,194Z"/><path class="cls-16" d="M268.92,195A22.5,22.5,0,0,1,265,202a33,33,0,0,1-8.72,7.2c-3.31,1.88-10,3.28-10,3.28A1,1,0,0,1,245,211.2l.21-.92.65-.13a32.74,32.74,0,0,0,9.65-3.11,31.26,31.26,0,0,0,7.85-6.69,19.79,19.79,0,0,0,3.48-6.31,83.36,83.36,0,0,0,2.65-11.37c.44-2.11.76-4.26,1.1-6.4a86,86,0,0,1-8.95-5.15,59.35,59.35,0,0,1-6-4.8l.31-1.32a.9.9,0,0,1,1.63-.5s2.61,2.48,4.63,4.11a50,50,0,0,0,9.13,5.32,2.43,2.43,0,0,1,1.52,3c-.25,1.64-.63,3.62-1,5.25C271,186.42,270.37,190.9,268.92,195Z"/><text class="cls-17" transform="translate(220.18 226.8) rotate(13.3)"><tspan class="cls-18">V</tspan><tspan x="9.77" y="0">ault</tspan></text><rect class="cls-11" x="217.39" y="199.65" width="89.8" height="89.8" rx="9.52" transform="translate(63.3 -53.79) rotate(13.3)"/></g><rect class="cls-1" x="223.36" y="210.69" width="88.79" height="99.62" rx="9.41" transform="translate(67.12 -54.62) rotate(13.3)"/><path class="cls-6" d="M278.83,253.54a2.94,2.94,0,0,1-3.53,2.18l-8.45-2h0l-2.82-.67a2.76,2.76,0,0,0-1.26,5.37l2.82.66h0l6.17,1.46a3.36,3.36,0,1,1-1.55,6.53l-4.4-1a1.82,1.82,0,0,0-2.18,1.33l-.52,2.19-.52-.41a33.05,33.05,0,0,1-7.26-7.1,31.37,31.37,0,0,1-4-9.5,20.29,20.29,0,0,1-.29-7.2A84.85,84.85,0,0,1,253.74,234c.55-2.08,1.23-4.16,1.88-6.22a86.94,86.94,0,0,0,10.3-.6,60,60,0,0,0,7.57-1.6l-.88,3.72a1.85,1.85,0,0,0,1.34,2.21l7.58,1.79a2.76,2.76,0,0,1-1.26,5.37l-9.35-2.21h0l-2.7-.64a4.08,4.08,0,0,0-1.88,7.93l3.61.86a2.1,2.1,0,0,0,.44,3.9l6.26,1.48A2.94,2.94,0,0,1,278.83,253.54Z"/><path class="cls-16" d="M253.74,234A84.85,84.85,0,0,0,251,245.37a20.29,20.29,0,0,0,.29,7.2,31.37,31.37,0,0,0,4,9.5,33.05,33.05,0,0,0,7.26,7.1l.52.41-.21.89a1,1,0,0,1-1.74.62s-5.38-4.24-7.49-7.43a33,33,0,0,1-4.59-10.33,23.17,23.17,0,0,1-.34-8.09c.53-4.26,1.94-8.56,3.07-12.73.44-1.59,1-3.51,1.49-5.1a2.48,2.48,0,0,1,2.74-2,49.23,49.23,0,0,0,10.53-.67c2.57-.54,6-1.59,6-1.59.89-.28,1.46.24,1.25,1.15l-.32,1.34h0a60,60,0,0,1-7.57,1.6,86.94,86.94,0,0,1-10.3.6C255,229.86,254.29,231.94,253.74,234Z"/><path class="cls-1" d="M289.55,254.48a20.1,20.1,0,0,1-3.48,6.31,31.48,31.48,0,0,1-7.86,6.69,32.64,32.64,0,0,1-9.65,3.11l-.65.13-.14.6h0l1.08-4.55,1.35.32a3.36,3.36,0,1,0,1.55-6.53l-1.35-.32-7.64-1.81a2.76,2.76,0,0,1,1.26-5.37l7.65,1.8,3.63.86a2.93,2.93,0,0,0,1.37-5.7l-6.28-1.49a2.1,2.1,0,0,1-.44-3.9l-3.61-.86a4.08,4.08,0,0,1,1.88-7.93l7.53,1.78h0l4.52,1.07a2.76,2.76,0,0,0,1.26-5.37L277,232.26l1.31-5.5a58.38,58.38,0,0,0,6,4.8,86.87,86.87,0,0,0,8.95,5.15c-.34,2.13-.67,4.29-1.11,6.4A83.33,83.33,0,0,1,289.55,254.48Z"/><path class="cls-16" d="M291.63,255.4a22.57,22.57,0,0,1-3.93,7.06,33.2,33.2,0,0,1-8.71,7.21c-3.32,1.88-10,3.27-10,3.27-.93.19-1.51-.39-1.29-1.31l.21-.91.65-.13a32.64,32.64,0,0,0,9.65-3.11,31.48,31.48,0,0,0,7.86-6.69,20.1,20.1,0,0,0,3.48-6.31,83.33,83.33,0,0,0,2.64-11.37c.44-2.11.77-4.27,1.11-6.4a86.87,86.87,0,0,1-8.95-5.15,58.38,58.38,0,0,1-6-4.8l.31-1.33a.91.91,0,0,1,1.64-.49s2.61,2.48,4.62,4.11a49.14,49.14,0,0,0,9.14,5.31,2.43,2.43,0,0,1,1.51,3c-.24,1.64-.63,3.62-.95,5.24C293.73,246.86,293.08,251.33,291.63,255.4Z"/><text class="cls-19" transform="translate(239.26 286.38) rotate(13.3)"><tspan class="cls-20">W</tspan><tspan x="13.51" y="0">allet</tspan></text><line class="cls-21" x1="266.68" y1="105" x2="303.55" y2="113.72"/></g></g></svg>