<svg xmlns="http://www.w3.org/2000/svg" xmlns:xlink="http://www.w3.org/1999/xlink" viewBox="0 0 512 512">
  <style>
    .st0{fill:#50239f}.st1{opacity:.11}.st2{fill:#fff}.st13,.st14{fill:#00e8cc;stroke:#fff;stroke-width:2.1824;stroke-linecap:round;stroke-miterlimit:10}.st14{fill:none;stroke-linejoin:round}.st16{fill:#00e8cc}.st453,.st454,.st456,.st458,.st459{fill:none;stroke:#fff;stroke-width:1.3637;stroke-miterlimit:10}.st454,.st456,.st458,.st459{stroke-width:1.4217;stroke-linecap:round;stroke-linejoin:round}.st456,.st458,.st459{stroke:#50239f;stroke-width:1.9989}.st458,.st459{stroke:#fff;stroke-width:2.7274}.st459{stroke:#50239f;stroke-width:1.4599}
  </style>
  <g id="_x33_">
    <path d="M485.3 256c0 126.7-102.7 229.3-229.3 229.3-126.7 0-229.3-102.6-229.3-229.3C26.7 129.3 129.3 26.7 256 26.7c126.7 0 229.3 102.6 229.3 229.3" class="st16"/>
    <g id="XMLID_712_" class="st1">
      <path d="M303.4 141.3l80.9-20.1c4.3-1.1 8.7 1.6 9.7 5.9l40.8 164.5c1 4.1-1.5 8.3-5.6 9.4l-81.5 20.2c-5.2 1.3-10.4-1.9-11.7-7l-39.8-160.8c-1.4-5.3 1.9-10.7 7.2-12.1z" class="st0"/>
    </g>
    <g class="st1">
      <path d="M442.6 437.1L442 450c0 3.8-3.1 6.8-6.8 6.8l-374.1-.6c-3.8 0-6.8-3.1-6.8-6.8v-6.3h5.9c-4.7-.2-8.9-4.1-9.4-8.9l-15.4-147-1.1-10.5c-.5-5.1 3.1-9.2 8.2-9.2h6.4l255.6.4h6.4c5.1 0 9.6 4.1 10.2 9.2l1.1 10.5 16.9 136.5c.5 4.7-2.8 8.6-7.4 8.8l7.7 4 103.2.2z" class="st0"/>
    </g>
    <defs>
      <path id="XMLID_711_" d="M18.7 247.5l262 .4c5.1 0 9.6 4.1 10.2 9.2l1.1 10.5 16.4 156c.5 4.9-3 8.9-7.9 8.8L37.8 432c-4.9 0-9.3-4-9.8-8.9l-16.4-156-1.1-10.5c-.5-5 3.1-9.1 8.2-9.1z"/>
    </defs>
    <use fill="#f7f7f7" overflow="visible" xlink:href="#XMLID_711_"/>
    <clipPath id="XMLID_728_">
      <use overflow="visible" xlink:href="#XMLID_711_"/>
    </clipPath>
    <use fill="none" stroke="#fff" stroke-linejoin="round" stroke-miterlimit="10" stroke-width="2.067" overflow="visible" xlink:href="#XMLID_711_"/>
    <defs>
      <path id="XMLID_710_" d="M25.1 247.5l262 .4c5.1 0 9.6 4.1 10.2 9.2l1.1 10.5 16.4 156c.5 4.9-3 8.9-7.9 8.8L44.2 432c-4.9 0-9.3-4-9.8-8.9L18 267.1l-1-10.4c-.6-5.1 3.1-9.2 8.1-9.2z"/>
    </defs>
    <use fill="#00e8cc" overflow="visible" xlink:href="#XMLID_710_"/>
    <clipPath id="XMLID_729_">
      <use overflow="visible" xlink:href="#XMLID_710_"/>
    </clipPath>
    <path fill="#00e8cc" stroke="#fff" stroke-miterlimit="10" stroke-width="2.182" d="M-2.6 231.4l298.5 3.4c5.1 0 12.6 29.1 12.6 29.1l-294.6-.5c-.1.1-21.6-32-16.5-32z" clip-path="url(#XMLID_729_)"/>
    <use fill="none" stroke="#f7f7f7" stroke-linejoin="round" stroke-miterlimit="10" stroke-width="2.067" overflow="visible" xlink:href="#XMLID_710_"/>
    <g>
      <path id="XMLID_708_" d="M86.5 282.7l153.2.3c3.8 0 7.3 3.1 7.7 7l.9 7.9 10.3 95.4c.4 3.7-2.3 6.7-5.9 6.7l-153.8-.3c-3.7 0-7-3-7.4-6.7l-10.3-95.4-.9-7.9c-.3-3.9 2.4-7 6.2-7z" class="st13"/>
      <path d="M164.9 358.7l-65.9-.1M165.9 368l-65.9-.1M166.9 377.3l-65.9-.1" class="st14"/>
      <path d="M169.9 302l9.6 88.3" class="st13"/>
      <path id="XMLID_707_" d="M152.6 326.7c-1.3-12.2-12.2-22.1-24.3-22.1-12.1 0-20.9 9.8-19.6 22 1.3 12.2 12.2 22.1 24.3 22.1 12.1 0 20.9-9.8 19.6-22" class="st14"/>
      <path d="M138.2 312.8l.7 6h-6l.6 6h-6l-.7-6-6-.1-.6-6z" class="st2"/>
      <path d="M146.2 330.8h-6l1.2 11.9-6-.1-1.9-17.8h6l-.6-6h6zM120.8 318.7l.7 6 6 .1 1.9 17.8h-6l-1.3-11.9h-6l-1.3-12z" class="st2"/>
      <path d="M121.5 324.7l18 .1 1.3 11.9-18.1-.1zM219.4 335.2h2.8c-.1-1-.2-1.8-.3-2.8h8.6c.2 1.9.4 3.8.6 5.6h-5.6c.1 1 .2 1.9.3 2.7h5.6c-.1-1-.2-1.9-.3-2.8h5.7c.1 1 .2 1.9.3 2.9h-2.8c.1 1 .2 1.8.3 2.8h-8.4c.3 2.9.6 5.6.9 8.6h2.7c.1.9.2 1.9.3 2.9h-2.8c.1 1 .2 1.8.3 2.7h11.2c-.2-1.9-.4-3.7-.6-5.6h-8.4c-.1-.9-.2-1.8-.3-2.8h5.7c-.1-1-.2-1.8-.3-2.8h2.9c.1.8.2 1.7.3 2.7h2.8c.3 2.9.6 5.6.9 8.6h2.8c.2 1.9.4 3.7.6 5.6h-2.7c-.1-.8-.2-1.7-.3-2.7h-2.8c.1.8.2 1.7.3 2.7h-2.9c-.1-.9-.2-1.7-.3-2.6h-2.9c.1.8.2 1.7.3 2.7h-2.8c-.1-.8-.2-1.7-.3-2.7h-2.9c.1.9.2 1.7.3 2.8h-5.7c-.2-1.8-.4-3.7-.6-5.7h-2.8c-.1-1-.2-1.9-.3-2.9h5.5c-.2-1.9-.4-3.7-.6-5.8H221c-.1-.9-.2-1.8-.3-2.9h2.7c-.1-1-.2-1.9-.3-2.8h-5.6c-.1-1-.2-1.9-.3-2.9h5.6c-.1-1-.2-1.9-.3-2.9h-2.7c-.2-.9-.3-1.8-.4-2.6zM182 329.5c-.7-6.6-1.4-13.2-2-19.8 6.6 0 13.1 0 19.7-.1.7 6.5 1.3 13.1 2 19.8-6.6 0-13.1 0-19.7.1zm16.5-2.9c-.5-4.8-1-9.4-1.4-14.1h-14c.5 4.7 1 9.4 1.4 14.1h14zM221.7 329.3c-.7-6.6-1.3-13.1-2-19.8 6.5 0 13.1 0 19.7-.1.7 6.5 1.3 13.1 2 19.8-6.6.1-13.1.1-19.7.1zm2.5-2.8h14c-.5-4.8-1-9.4-1.4-14.1h-14c.5 4.7.9 9.3 1.4 14.1zM186.1 369.3c-.7-6.6-1.4-13.2-2-19.8 6.6 0 13.1 0 19.7-.1.7 6.6 1.4 13.1 2 19.8-6.5.1-13.1.1-19.7.1zm16.5-2.8c-.5-4.7-1-9.4-1.4-14.1h-14c.5 4.8 1 9.4 1.4 14.1h14z" class="st2"/>
      <path d="M199.5 335.2c-.1-.9-.2-1.8-.3-2.8h5.7c.1.9.2 1.8.3 2.8h2.8c.1 1 .2 1.9.3 2.8h2.8c-.2-1.8-.4-3.6-.6-5.5h8.6c.1.9.2 1.8.3 2.8h-2.9c.2 2.1.4 3.9.6 5.7h-5.7c.1 1.1.2 1.9.3 2.8h-2.8c-.1-.9-.2-1.9-.3-2.9h-2.9c-.1-.9-.2-1.9-.3-2.9h-2.9c-.1-.9-.2-1.9-.3-2.9-.9.1-1.8.1-2.7.1z" class="st2"/>
      <path d="M204.9 332.4c-.4-3.7-.8-7.5-1.2-11.3H215c-.1-1.1-.2-2-.3-2.9h2.8c.2 1.8.4 3.6.6 5.6h-5.5c.2 1.9.4 3.7.6 5.6h-2.9c-.1-.8-.2-1.7-.3-2.7h-2.8c.2 1.8.4 3.6.6 5.6-1.1 0-2 0-2.9.1zM220.8 349.4c.1.9.2 1.8.3 2.8h-5.6c.1 1 .2 1.8.3 2.8H210c-.1-.9-.2-1.8-.3-2.8h2.8c-.1-1-.2-1.9-.3-2.7h-2.7c.1 1 .2 1.9.3 2.8H207c-.3-2.9-.6-5.8-.9-8.6h2.9c.1.9.2 1.9.3 2.9h5.7c.1.9.2 1.9.3 2.9 1.9-.1 3.7-.1 5.5-.1zM236.7 337.9c-.1-.9-.2-1.8-.3-2.8h-2.8c-.1-1-.2-1.8-.3-2.8h5.5c.1.8.2 1.7.3 2.7h2.8c.3 2.9.6 5.6.9 8.5h-5.6c-.1-.9-.2-1.8-.3-2.8h2.8c-.1-1.1-.2-1.9-.3-2.9-1 .1-1.8.1-2.7.1zM222.6 366.5H217c.1 1 .2 1.8.3 2.8h-2.9c-.2-1.9-.4-3.8-.6-5.6h2.9c-.1-1.1-.2-2-.3-2.9h2.8l.3 2.7c1.1.1 2 .1 3 .1-.1 1 0 1.9.1 2.9zM183.7 346.6c-.2-1.9-.4-3.7-.6-5.5h8.3c.2 1.8.4 3.6.6 5.5h-2.7c-.1-.9-.2-1.7-.3-2.7h-2.8c.1.8.2 1.7.3 2.7h-2.8zM182.3 332.5h5.5c.2 1.8.4 3.6.6 5.5h-5.5c-.2-1.8-.4-3.6-.6-5.5zM214.5 315.2c.1 1 .2 2 .3 2.9h-5.6c-.3-2.9-.6-5.7-.9-8.5h2.7c.2 1.8.4 3.6.6 5.7 1.1-.1 2-.1 2.9-.1zM210.9 363.6c.2 1.9.4 3.7.6 5.7h-2.6c-.2-1.8-.4-3.6-.6-5.7h2.6z" class="st2"/>
      <path d="M214.5 315.2c-.2-1.8-.4-3.7-.6-5.6h2.7c.2 1.8.4 3.6.6 5.6h-2.7zM202.9 312.4h2.7c.2 1.8.4 3.6.6 5.5h-2.7c-.2-1.7-.4-3.5-.6-5.5zM193.8 335.2h5.7c.1 1 .2 1.9.3 2.9h-5.7c-.1-1-.1-2-.3-2.9zM210.7 360.7h-2.8c-.1-.9-.2-1.7-.3-2.7h2.8c.1.9.2 1.9.3 2.7zM213.5 360.8c-.1-.9-.2-1.8-.3-2.8h2.8c.1.9.2 1.8.3 2.8h-2.8z" class="st2"/>
      <path d="M213.8 363.6h-2.9c-.1-1-.1-1.9-.2-2.9h2.8c.1 1.1.2 2 .3 2.9zM242.6 369.2H240l-.3-2.7h2.6l.3 2.7zM222.6 366.5h2.8l.3 2.7H223c-.2-.9-.3-1.8-.4-2.7zM228.6 369.2l-.3-2.7h2.7c.1.8.2 1.7.3 2.7h-2.7zM234.3 369.2l-.3-2.7h2.7c.1.8.2 1.7.3 2.7h-2.7zM203.2 343.7c.1.9.2 1.8.3 2.8h-2.7c-.1-.8-.2-1.7-.3-2.7.9 0 1.8 0 2.7-.1z" class="st2"/>
      <path d="M203.2 343.8c-.1-1-.2-1.9-.3-2.9h2.9c.1 1 .2 1.9.3 2.9-1-.1-1.9-.1-2.9 0zM203 340.9h-2.8c-.1-1-.2-1.9-.3-2.9h2.9c-.1 1 0 1.9.2 2.9zM193.9 335.2h-2.8l-.3-2.7h2.7c.1.9.2 1.8.4 2.7zM218.7 329.4H216c-.1-.9-.2-1.7-.3-2.7h2.7c.1.8.2 1.7.3 2.7zM214.9 346.6c-.1-.9-.2-1.8-.3-2.9h2.9c.1.9.2 1.8.3 2.9h-2.9zM195.4 323.7h-8.3c-.3-2.8-.6-5.5-.9-8.4h8.3l.9 8.4zM226.7 323.6c-.3-2.8-.6-5.5-.9-8.3h8.4c.3 2.7.6 5.5.9 8.3h-8.4zM191.1 363.6l-.9-8.4h8.3c.3 2.7.6 5.5.9 8.4h-8.3z" class="st2"/>
      <path fill="#fff" stroke="#fff" stroke-miterlimit="10" stroke-width="1.033" d="M86.5 282.7l153.2.3c3.8 0 7.3 3.1 7.7 7l.9 7.9-167.1-.3-.9-7.9c-.3-3.9 2.4-7 6.2-7z"/>
      <ellipse cx="105.4" cy="290.9" class="st16" rx="2.4" ry="2.7" transform="rotate(-45.506 105.446 290.943)"/>
      <ellipse cx="92.3" cy="290.9" class="st16" rx="2.4" ry="2.7" transform="rotate(-45.506 92.315 290.921)"/>
      <ellipse cx="119.9" cy="291" class="st16" rx="2.4" ry="2.7" transform="rotate(-45.506 119.92 290.967)"/>
    </g>
    <g>
      <defs>
        <path id="XMLID_706_" d="M31.6 432.1H38.9l374.1.6H420.3v7.3c0 3.8-3.1 6.8-6.8 6.8l-375.1-.6c-3.8 0-6.8-3.1-6.8-6.8v-7.3z"/>
      </defs>
      <use fill="#f7f7f7" overflow="visible" xlink:href="#XMLID_706_"/>
      <clipPath id="XMLID_730_">
        <use overflow="visible" xlink:href="#XMLID_706_"/>
      </clipPath>
      <g clip-path="url(#XMLID_730_)">
        <path d="M31.6 432.1l166.6.3v7.3c0 3.8-3.1 6.8-6.8 6.8l-153-.2c-3.8 0-6.8-3.1-6.8-6.8v-7.4m0-3c-.8 0-1.6.3-2.2.9-.6.6-.9 1.4-.9 2.2v7.3c0 5.5 4.4 9.9 9.9 9.9l153 .2c5.5 0 9.9-4.4 9.9-9.9v-7.3c0-.8-.3-1.6-.9-2.2-.6-.6-1.4-.9-2.2-.9l-166.6-.2z" class="st16"/>
      </g>
      <use fill="none" stroke="#f7f7f7" stroke-linejoin="round" stroke-miterlimit="10" stroke-width="2.067" overflow="visible" xlink:href="#XMLID_706_"/>
    </g>
    <ellipse cx="160.1" cy="257.4" class="st2" rx="2.5" ry="2.8" transform="rotate(-45.506 160.117 257.367)"/>
    <path id="GALZ_47_" fill="#f7f7f7" fill-opacity=".24" d="M42 436.6c-1.5-1.5-2.6-3.5-2.8-5.7L23.4 281l-1.1-10.1c-.5-4.9 3-8.8 7.8-8.8l256.6.4c2.2 0 4.3.8 6 2.2 2.1 1.6-249 173.6-250.7 171.9z"/>
    <g>
      <path id="XMLID_701_" d="M320.8 117.9l80.9-20.1c4.3-1.1 8.7 1.6 9.7 5.9l40.8 164.5c1 4.1-1.5 8.3-5.6 9.4l-81.5 20.2c-5.2 1.3-10.4-1.9-11.7-7L313.6 130c-1.4-5.3 1.9-10.7 7.2-12.1z" class="st2"/>
      <path id="XMLID_700_" d="M324.7 118.8L401 99.9c4.2-1 8.4 1.5 9.4 5.7l39.3 158.5c.6 2.5-.9 5.1-3.4 5.7L364 290.2c-2.5.6-5.1-.9-5.7-3.4L319 128.3c-1.1-4.2 1.5-8.4 5.7-9.5z" class="st0"/>
      <path d="M388.9 136.1l11.2-3 14.3 56.2-11.2 2.7M368.7 200.3l-11.5 2.7-14-55 11.4-3" class="st453"/>
      <path id="XMLID_699_" d="M428.5 243c-1.9-7.7-9.7-12.4-17.4-10.5-7.7 1.9-12.4 9.7-10.5 17.4 1.9 7.7 9.7 12.4 17.4 10.5 7.7-1.9 12.4-9.7 10.5-17.4" class="st454"/>
      <path d="M418.2 236.2l.9 3.8-3.8 1 .9 3.8-3.8.9-.9-3.8-3.8 1-1-3.8zM424.8 246.7l-3.8.9 1.8 7.5-3.8.9-2.8-11.2 3.8-1-.9-3.8 3.8-.9z" class="st2"/>
      <path d="M407.7 242.9l.9 3.8 3.8-1 2.8 11.3-3.8.9-1.8-7.4-3.9.9-1.8-7.6z" class="st2"/>
      <path d="M409.4 245.1h11.8v7.7h-11.8z" class="st2" transform="rotate(166.072 415.263 248.997)"/>
      <path d="M390.6 243.1l-26.2 6.5M391.9 248.3l-26.2 6.5M393.2 253.6l-13.1 3.3" class="st454"/>
      <circle cx="401.2" cy="106.3" r="2.3" fill="#fff" stroke="#50239f" stroke-linejoin="round" stroke-miterlimit="10" stroke-width="1.46"/>
      <path d="M317.7 139.6l2.9 11.6M321.3 153.9l2.9 11.7" class="st456"/>
      <path id="XMLID_674_" fill="#fff" fill-opacity=".24" d="M361.3 287.7L322 129.2c-1-4 1.4-8 5.4-9l72.9-18.1"/>
      <path fill="none" stroke="#fff" stroke-linecap="round" stroke-linejoin="round" stroke-miterlimit="10" stroke-width="2.727" d="M301 121.1l-26.3-3.1"/>
      <path d="M318.6 104.4l-21.1-16M306.5 150.4l-23.4 12.3" class="st458"/>
      <path d="M379.9 111.1l-24 5.9" class="st459"/>
    </g>
    <path d="M400.1 284.8l10.9-2.7" class="st459"/>
  </g>
</svg>
