<svg xmlns="http://www.w3.org/2000/svg" xmlns:xlink="http://www.w3.org/1999/xlink" viewBox="0 0 512 512"><defs><style>.cls-1,.cls-10,.cls-12,.cls-18{fill:#fff;}.cls-2{isolation:isolate;}.cls-3{fill:#f2aa2f;}.cls-4{opacity:0.11;mix-blend-mode:multiply;}.cls-11,.cls-5,.cls-8{fill:#00e8cc;}.cls-6{fill:#ececec;}.cls-7{clip-path:url(#clip-path);}.cls-11,.cls-12,.cls-17,.cls-18,.cls-8{stroke:#50239f;}.cls-11,.cls-16,.cls-17,.cls-8,.cls-9{stroke-linecap:round;}.cls-11,.cls-12,.cls-16,.cls-17,.cls-18,.cls-8,.cls-9{stroke-linejoin:round;}.cls-18,.cls-8{stroke-width:2.24px;}.cls-15,.cls-16,.cls-17,.cls-9{fill:none;}.cls-9{stroke:#00e8cc;stroke-width:2.59px;}.cls-10{fill-opacity:0.24;}.cls-11,.cls-12{stroke-width:1.89px;}.cls-13{clip-path:url(#clip-path-2);}.cls-14{fill:#50239f;}.cls-15,.cls-16{stroke:#fff;}.cls-15{stroke-miterlimit:10;stroke-width:2.09px;}.cls-16{stroke-width:2.18px;}.cls-17{stroke-width:3.07px;}</style><clipPath id="clip-path"><path class="cls-1" d="M441.57,145,342.94,120.6a10.07,10.07,0,0,0-12.2,7.35l-50.8,204.94a6.11,6.11,0,0,0,4.46,7.4l106.33,26.35a6.1,6.1,0,0,0,7.4-4.45l50.8-204.95A10.08,10.08,0,0,0,441.57,145Z"/></clipPath><clipPath id="clip-path-2"><path class="cls-1" d="M228.06,141.81,111,112.79a12,12,0,0,0-14.48,8.73L36.22,364.76a7.25,7.25,0,0,0,5.29,8.78l126.21,31.28a7.25,7.25,0,0,0,8.77-5.29l60.29-243.25A12,12,0,0,0,228.06,141.81Z"/></clipPath></defs><title>sign-two-device</title><g class="cls-2"><g id="_3" data-name="3"><path class="cls-3" d="M2.36,307.89l0,0a.07.07,0,0,1,0,0Z"/><path class="cls-3" d="M245.54,321.72l0,0a.1.1,0,0,1,0,0Z"/><g class="cls-4"><path class="cls-5" d="M470.39,175,365.73,149a10.4,10.4,0,0,0-12.6,7.59L300.41,369.32a10,10,0,0,0,7.31,12.12l105.42,26.13a12.48,12.48,0,0,0,15.12-9.11l51.53-207.91A12.87,12.87,0,0,0,470.39,175Z"/></g><path class="cls-6" d="M446.52,143.88,341.86,117.94a10.4,10.4,0,0,0-12.6,7.6l-52.72,212.7a10,10,0,0,0,7.31,12.12l105.42,26.13a12.48,12.48,0,0,0,15.12-9.11l51.53-207.9A12.89,12.89,0,0,0,446.52,143.88Z"/><path class="cls-1" d="M441.57,145,342.94,120.6a10.07,10.07,0,0,0-12.2,7.35l-50.8,204.94a6.11,6.11,0,0,0,4.46,7.4l106.33,26.35a6.1,6.1,0,0,0,7.4-4.45l50.8-204.95A10.08,10.08,0,0,0,441.57,145Z"/><g class="cls-7"><rect class="cls-5" x="294.36" y="124" width="148.74" height="238.89" transform="translate(69.4 -81.56) rotate(13.92)"/></g><path class="cls-1" d="M375.83,240.43l4.09,1,1-4,12.5,3.1-2,8.16-8.17-2-1,4,8.11,2,1-4,8.31,2.13,0-.08-1,4.2.07,0-4.12-1-1,4.09-12.29-3-3.08,12.44,4,1-1.05,4.26-4-1-1,3.92,16.28,4,2-8.12-12.3-3.05,1-4.11,8.23,2,1-4,4.16,1-1,3.9,4.09,1-3.08,12.42,4.11,1-2,8.15-4-1,1-3.86-4.09-1-1,3.88-4.15-1,1-3.83-4.16-1-1,3.86-4.08-1,1-3.88-4.16-1-1,4-8.3-2.06.05.07,2.05-8.26-4.11-1,1-4.16,8,2,2.07-8.38-4-1,0,.07,1.05-4.23,3.95,1,1-4-8.13-2,1.09-4.18-.07,0,8.17,2,1.05-4.24-4-1,1-4.09Z"/><path class="cls-1" d="M324.3,218.7,331.41,190l28.68,7.11L353,225.8Zm25.57,2,5.06-20.42-20.41-5.06-5.06,20.42Z"/><path class="cls-1" d="M382.18,233.07l7.1-28.66L418,211.53l-7.1,28.65Zm5.14-3.14L407.74,235l5.06-20.41-20.42-5.06Z"/><path class="cls-1" d="M310,276.56l7.1-28.66L345.8,255l-7.1,28.66Zm25.61,2,5.06-20.43-20.39-5-5.06,20.42Z"/><path class="cls-1" d="M347,233.27l1-4.12,8.26,2,0-.07-1,4.1,4.15,1-1,4.09,4.07,1,2-8,12.46,3.09-1,4,.07,0-4.2-1-2.06,8.32.07,0-8.36-2.07-1,4.13-4.1-1,0,.07,1-4.19-4.19-1,0,.07,1-4.19-4.19-1,.05.07,1-4.19-4.19-1Z"/><path class="cls-1" d="M356.23,231.19l4.08-16.45,16.47,4.08,1-4.2-.07,0,4.07,1-2,8.1-8-2-2,8.16-4.15-1,.95-3.86-4.09-1-2,8.14-4.26-1.06Z"/><path class="cls-1" d="M370.72,261l-1,4.12-8.17-2-1,4-8.38-2.08,1-4,4,1,1-4-4-1-1,4-4.12-1,3.09-12.46-.08,0,4.19,1,0-.07-1,4.13,8.33,2.06-1,4.19,8.26,2.05Z"/><path class="cls-1" d="M399.66,250.73l1-4.11-4.05-1,1-4,8.08,2-1,3.94,4.1,1-3,12.27-8.13-2,1-4-.07,0,4,1,1-4.19-4-1Z"/><path class="cls-1" d="M364.62,285.85l-8.2-2-1,4-4.19-1,2-8.16-.07,0,4.19,1,1-4.19-.08,0,4.05,1-1,4,4.3,1.29-.05-.07-1.1,4.1Z"/><path class="cls-1" d="M318.15,243.51l2-8,12.14,3-2,8-3.93-1,1-3.88-4.07-1-1,3.89Z"/><path class="cls-1" d="M323.28,223.08l8,2-2,8-8-2Z"/><path class="cls-1" d="M378.87,210.42c-.37,1.41-.74,2.83-1.12,4.25l.07,0-8.11-2,3.06-12.35,3.93,1-2,8.2,4.24,1.05Z"/><path class="cls-1" d="M349,277.52l-2.05,8.26-3.86-1,2-8.2,3.92,1Z"/><path class="cls-1" d="M378.91,210.49l2-8.15,4,1-2,8.09-4-1Z"/><path class="cls-1" d="M363.5,202.35l3.9,1-2,8-3.9-1Z"/><path class="cls-1" d="M338.63,231.22l8.32,2.05-.05-.07-1,4.19.08,0-8.27-2,1-4.13Z"/><path class="cls-1" d="M350.23,273.42l-4.13-1,.95-3.86,4.08,1c-.31,1.26-.64,2.59-1,3.93Z"/><path class="cls-1" d="M354.26,274.58l1-4,4.07,1-1,4,.08,0-4.2-1Z"/><path class="cls-1" d="M353.25,278.65c-1.42-.37-2.84-.74-4.26-1.13l.05.08c.39-1.39.79-2.78,1.19-4.17l-.08.05,4.11,1.1-.05-.07-1,4.18Z"/><path class="cls-1" d="M392.34,297.11l-3.81-.95,1-4,3.81.94Z"/><path class="cls-1" d="M364.55,285.9l4,1-1,4-4-1,1-4Z"/><path class="cls-1" d="M372,292l1-3.9,3.89,1-1,3.89Z"/><path class="cls-1" d="M380.23,294l1-3.9,3.89,1-1,3.89Z"/><path class="cls-1" d="M348,246.63l-1,4-4-1,1-3.95,4,1Z"/><path class="cls-1" d="M348,246.7l1.05-4.19-.08,0,4.19,1,0-.07-1,4.19.08,0-4.2-1Z"/><path class="cls-1" d="M349.05,242.51l-4.14-1,1-4.13-.08,0,4.2,1-.05-.07-1,4.19Z"/><path class="cls-1" d="M338.7,231.17l-4-1,1-4,4,1-1,4Z"/><path class="cls-1" d="M377.78,232l-3.87-1,1-3.88,3.87,1Z"/><path class="cls-1" d="M363.46,254.92l1-4.19,4.19,1-1,4.2Z"/><path class="cls-1" d="M346.76,215.55l-12.14-3,3-12.14,12.14,3Z"/><path class="cls-1" d="M392.45,226.79l3-12.07,12.22,3-3,12.07Z"/><path class="cls-1" d="M320.27,270.35l3-12.15,12.15,3-3,12.15Z"/><line class="cls-8" x1="344.35" y1="360.45" x2="330.18" y2="356.94"/><line class="cls-9" x1="450.52" y1="171.86" x2="446.79" y2="186.91"/><line class="cls-9" x1="445.91" y1="190.45" x2="442.18" y2="205.5"/><path class="cls-10" d="M394.19,363.49,445,158.41a9.63,9.63,0,0,0-7-11.66l-94.3-23.37"/><line class="cls-11" x1="376.47" y1="134.16" x2="407.45" y2="141.84"/><circle class="cls-12" cx="342.62" cy="128.85" r="2.99"/><g class="cls-4"><path class="cls-5" d="M398.54,126.71l-84.57-21c-6.62-1.64-106.86,39.62-106.86,39.62l-10.32,212a11.87,11.87,0,0,0,8.67,14.38l125.13,31A14.81,14.81,0,0,0,348.53,392l61.16-246.76A15.28,15.28,0,0,0,398.54,126.71Z"/></g><path class="cls-6" d="M233.93,140.43,109.71,109.64a12.35,12.35,0,0,0-15,9L32.18,371.11a11.88,11.88,0,0,0,8.67,14.38l125.13,31a14.82,14.82,0,0,0,17.94-10.82l61.16-246.76A15.27,15.27,0,0,0,233.93,140.43Z"/><path class="cls-1" d="M228.06,141.81,111,112.79a12,12,0,0,0-14.48,8.73L36.22,364.76a7.25,7.25,0,0,0,5.29,8.78l126.21,31.28a7.25,7.25,0,0,0,8.77-5.29l60.29-243.25A12,12,0,0,0,228.06,141.81Z"/><g class="cls-13"><rect class="cls-14" x="51.59" y="108.37" width="176.54" height="314.52" transform="translate(68.01 -25.84) rotate(13.92)"/><polyline class="cls-15" points="160.46 266.81 178.08 271.05 199.6 186.6 182.06 182.02"/><polyline class="cls-15" points="129.39 168.27 112.21 163.78 90.26 249.92 107.53 254.08"/></g><path class="cls-16" d="M68.7,332.4a22,22,0,1,1,16,26.64,22,22,0,0,1-16-26.64"/><polygon class="cls-1" points="84.53 322.01 83.08 327.85 88.93 329.3 87.49 335.12 93.34 336.56 94.78 330.75 100.63 332.2 102.07 326.36 84.53 322.01"/><polygon class="cls-1" points="74.35 338.04 80.2 339.49 77.35 350.98 83.2 352.43 87.49 335.12 81.64 333.67 83.08 327.85 77.23 326.4 74.35 338.04"/><polygon class="cls-1" points="100.63 332.2 99.18 338.02 93.33 336.57 89.05 353.87 94.89 355.32 97.74 343.83 103.59 345.28 106.47 333.65 100.63 332.2"/><rect class="cls-1" x="79.95" y="335.67" width="18.07" height="11.84" transform="translate(84.79 -11.38) rotate(13.92)"/><line class="cls-16" x1="126.86" y1="332.5" x2="167.02" y2="342.45"/><line class="cls-16" x1="124.85" y1="340.61" x2="165.01" y2="350.56"/><line class="cls-16" x1="122.84" y1="348.71" x2="142.92" y2="353.69"/><line class="cls-8" x1="112.66" y1="397.47" x2="95.84" y2="393.3"/><line class="cls-17" x1="238.67" y1="173.64" x2="234.24" y2="191.5"/><line class="cls-17" x1="233.2" y1="195.7" x2="228.78" y2="213.56"/><path class="cls-10" d="M171.82,401.07l60.32-243.4a11.42,11.42,0,0,0-8.34-13.84L111.87,116.09"/><line class="cls-8" x1="264.43" y1="145.37" x2="304.72" y2="140.59"/><line class="cls-8" x1="237.41" y1="119.63" x2="269.7" y2="95.06"/><line class="cls-8" x1="255.91" y1="190.22" x2="291.82" y2="209.11"/><line class="cls-8" x1="150.79" y1="128.89" x2="187.56" y2="138"/><circle class="cls-18" cx="110.61" cy="122.58" r="3.54"/></g></g></svg>