<?xml version="1.0" encoding="UTF-8"?><svg id="c" xmlns="http://www.w3.org/2000/svg" width="500" height="500" viewBox="0 0 500 500"><defs><style>.j,.k{stroke:#d2d2d2;}.j,.k,.l,.m,.n,.o,.p{fill:none;}.j,.k,.l,.m,.n,.p{stroke-linecap:round;}.j,.k,.l,.n,.p{stroke-linejoin:round;}.j,.l{stroke-width:3.0449px;}.k,.p{stroke-width:3.0449px;}.l,.n{stroke:#723bbb;}.q{fill:#fff;}.r{fill:#723bbb;}.m{stroke:#44433c;stroke-width:4.4588px;}.m,.o{stroke-miterlimit:10;}.n{stroke-width:2.9099px;}.o{stroke:#fff;stroke-width:11.8208px;}.p{stroke:#0aae95;}</style></defs><g><rect class="q" x="111.6222" y="178.5324" width="320.001" height="169.7927" rx="25.482" ry="25.482" transform="translate(-27.1684 495.587) rotate(-81.9695)"/><rect class="o" x="111.6222" y="178.5324" width="320.001" height="169.7927" rx="25.482" ry="25.482" transform="translate(-27.1684 495.587) rotate(-81.9695)"/><rect class="m" x="111.6222" y="178.5324" width="320.001" height="169.7927" rx="25.482" ry="25.482" transform="translate(-27.1684 495.587) rotate(-81.9695)"/></g><g><path class="k" d="M244.5891,195.6774l.0003-.0024,19.7987,11.2024c-.388,3.3208-.3889,10.2811-1.4328,17.2426-.3128,2.0891-.7192,4.1781-1.2579,6.1689-.5388,1.9909-1.2101,3.8846-2.0523,5.5813,0,0-6.192,14.104-23.0668,17.8883"/><path class="p" d="M228.5701,252.6147l-.0006,.0047c-15.143-8.222-17.2789-23.4184-17.2789-23.4184-.3515-1.8613-.4851-3.8661-.4638-5.9283,.0202-2.0624,.1945-4.1834,.4589-6.2791,.8795-6.9841,2.7618-13.685,3.2882-16.9867l21.9955-5.3828-.0002,.0013-1.5387,11.1239c-.3286,2.3828,1.2565,5.1613,3.6393,5.4899l4.1438,.5715c3.5361,.4877,6.0073,3.7496,5.5195,7.2857h0c-.4877,3.5361-3.7496,6.0073-7.2857,5.5196l-8.8995-1.2274c-3.5361-.4877-6.798,1.9835-7.2857,5.5195h0c-.4877,3.5361,1.9835,6.798,5.5195,7.2857l4.1438,.5715c2.3828,.3286,4.048,2.5267,3.7194,4.9095l-1.6666,12.0838,.0019-.0004"/></g><g><path class="j" d="M297.7868,345.1245l-.0006,.0047c-15.143-8.222-17.2789-23.4184-17.2789-23.4184-.3515-1.8613-.4851-3.8661-.4638-5.9283,.0202-2.0624,.1945-4.1834,.4589-6.2791,.8795-6.9841,2.7618-13.685,3.2882-16.9866l21.9955-5.3828-.0002,.0013"/><path class="l" d="M313.8059,288.1873l.0003-.0024,19.7987,11.2024c-.388,3.3208-.3889,10.2811-1.4328,17.2426-.3128,2.0891-.7192,4.1781-1.2579,6.1689-.5388,1.9909-1.2101,3.8846-2.0523,5.5813,0,0-6.192,14.104-23.0668,17.8883l1.6666-12.0838c.3286-2.3828-1.3366-4.5809-3.7194-4.9095l-4.1438-.5715c-3.5361-.4877-6.0073-3.7496-5.5195-7.2857h0c.4877-3.5361,3.7496-6.0073,7.2857-5.5196l8.8995,1.2274c3.5361,.4877,6.798-1.9835,7.2857-5.5195h0c.4877-3.5361-1.9835-6.798-5.5195-7.2857l-4.1438-.5715c-2.3828-.3286-4.048-2.5267-3.7194-4.9095l1.6142-11.7035-.0171,.0075"/></g><g><path class="n" d="M285.5878,224.0596c3.5353,.0322,7.1255,.6509,10.64,1.917,13.0156,4.689,21.1649,16.8833,21.3275,29.9473"/><polygon class="r" points="309.6477 252.4634 315.6389 267.253 325.4536 254.67 309.6477 252.4634"/></g><g><path class="n" d="M256.7472,319.8992c-3.5354-.032-7.1256-.6504-10.6401-1.9167-13.0155-4.6892-21.1648-16.8833-21.3275-29.9473"/><polygon class="r" points="232.6873 291.4959 226.6959 276.7061 216.8814 289.2891 232.6873 291.4959"/></g></svg>