<svg xmlns="http://www.w3.org/2000/svg" xmlns:xlink="http://www.w3.org/1999/xlink" width="512" height="512" viewBox="0 0 512 512"><defs><clipPath id="a1380d7d-0304-4367-92cd-048036295ae3"><rect x="6" y="265.88" width="276.69" height="78.26" rx="10.46" style="fill:#fff;stroke:#50239f;stroke-linejoin:round;stroke-width:2.636772295743229px"/></clipPath></defs><g style="isolation:isolate"><g id="eed384fc-4add-4056-a170-e5494cfee596" data-name="1"><path d="M23.83,188.45l0,0a.1.1,0,0,1,0,0Z" style="fill:#f2aa2f"/><circle cx="248.42" cy="256" r="229.32" style="fill:#00e8cc"/><path d="M498.55,235l-38.47-58.16a2.32,2.32,0,0,0-3.2-.65L275.6,296.16H33.87a9.94,9.94,0,0,0-9.93,9.94v54.47a9.93,9.93,0,0,0,9.93,9.93h243a10,10,0,0,0,3.37-.59,37,37,0,0,0,27.08-5.58L497.9,238.24A2.31,2.31,0,0,0,498.55,235Z" style="fill:#ebe6ff;mix-blend-mode:multiply"/><rect x="6" y="265.88" width="276.69" height="78.26" rx="10.46" style="fill:#fff"/><g style="clip-path:url(#a1380d7d-0304-4367-92cd-048036295ae3)"><path d="M498.31,202.58,297.68,335.31a39.12,39.12,0,0,1-54.22-11h0a39.12,39.12,0,0,1,11-54.22L455.13,137.31a2.43,2.43,0,0,1,3.37.69L499,199.21A2.43,2.43,0,0,1,498.31,202.58Z" style="fill:#d8caff"/></g><rect x="6" y="265.88" width="276.69" height="78.26" rx="10.46" style="fill:none;stroke:#50239f;stroke-linejoin:round;stroke-width:2.636772295743229px"/><rect x="84.53" y="277.58" width="145.54" height="54.87" rx="3.83" style="fill:#d8caff"/><path d="M504.91,204.91,304.28,337.65a39.14,39.14,0,0,1-54.23-11h0a39.12,39.12,0,0,1,11.05-54.22L461.73,139.65a2.42,2.42,0,0,1,3.37.68l40.5,61.22A2.42,2.42,0,0,1,504.91,204.91Z" style="fill:#fff;stroke:#50239f;stroke-linejoin:round;stroke-width:2.636772295743229px"/><circle cx="282.69" cy="305.01" r="21.26" style="fill:#d8caff"/><circle cx="41.36" cy="305.01" r="21.26" style="fill:#d8caff"/><path d="M20.1,305a21.26,21.26,0,1,1,21.26,21.27" style="fill:none;stroke:#50239f;stroke-linejoin:round;stroke-width:2.636772295743229px"/><path d="M261.42,305a21.27,21.27,0,1,1,21.27,21.27" style="fill:none;stroke:#50239f;stroke-linejoin:round;stroke-width:2.636772295743229px"/></g></g></svg>