<svg xmlns="http://www.w3.org/2000/svg" xmlns:xlink="http://www.w3.org/1999/xlink" width="512" height="512" viewBox="0 0 512 512"><defs><clipPath id="b2cd3319-f867-4f4e-9494-c299615f5abf"><path d="M402.45,271.67,320.59,252.3a8.34,8.34,0,0,0-10,6.2L270.32,428.59a5.06,5.06,0,0,0,3.76,6.08l88.25,20.87a5,5,0,0,0,6.08-3.75L408.65,281.7A8.34,8.34,0,0,0,402.45,271.67Z" style="fill:#fff"/></clipPath><clipPath id="ed49f590-dc5d-4b93-8a32-377b75aca80a"><rect x="297.96" y="297.99" width="69.95" height="61.93" rx="6.57" transform="translate(-63.8 577.27) rotate(-76.7)" style="fill:#fff"/></clipPath><clipPath id="b97732d7-9b58-4e8f-b9e6-ae265a3c8ea9"><path d="M287.67,49.81l-68.57-17a7,7,0,0,0-8.48,5.11L175.31,180.39a4.24,4.24,0,0,0,3.1,5.14l73.92,18.32a4.24,4.24,0,0,0,5.14-3.09L292.78,58.29A7,7,0,0,0,287.67,49.81Z" style="fill:#fff"/></clipPath><clipPath id="bc1d429e-b267-4135-89c1-bf1a373abe9b"><path d="M139.24,47.55,57.86,27.38a8.32,8.32,0,0,0-10.07,6.07L5.88,202.55a5,5,0,0,0,3.68,6.1l87.73,21.74a5,5,0,0,0,6.1-3.67l41.92-169.1A8.32,8.32,0,0,0,139.24,47.55Z" style="fill:#ececec"/></clipPath></defs><g style="isolation:isolate"><g id="f5f68fd1-36a6-43d8-a513-de3981120baa" data-name="1"><circle cx="256" cy="256" r="229.32" style="fill:#00e8cc"/></g><g id="bdb5d9a1-27ee-43d2-8544-ec31f0fba32f" data-name="3"><line x1="79.5" y1="403.5" x2="433.5" y2="109.5" style="fill:none;stroke:#fff;stroke-miterlimit:10;stroke-width:3px"/><path d="M54.36,296.32l0,0a.07.07,0,0,1,0,0Z" style="fill:#f2aa2f"/><path d="M410.89,381.78c37-19.66,20.79-51.06,20.79-51.06" style="fill:none;stroke:#fff;stroke-linecap:round;stroke-miterlimit:10;stroke-width:2.6756216303418796px"/><polygon points="423.95 386.74 424.56 384.13 411.71 381.14 415.63 368.54 413.08 367.75 408.3 383.09 423.95 386.74" style="fill:#fff"/><path d="M269.43,313.2c-37,19.66-20.79,51.06-20.79,51.06" style="fill:none;stroke:#fff;stroke-linecap:round;stroke-miterlimit:10;stroke-width:2.6756216303418796px"/><polygon points="256.37 308.24 255.76 310.85 268.61 313.84 264.69 326.44 267.24 327.23 272.02 311.89 256.37 308.24" style="fill:#fff"/><g style="opacity:0.4;mix-blend-mode:multiply"><path d="M426.57,296.18l-86.86-20.55A8.6,8.6,0,0,0,329.35,282L287.59,458.55a8.28,8.28,0,0,0,6.15,10l87.5,20.7a10.33,10.33,0,0,0,12.43-7.67L434.49,309A10.65,10.65,0,0,0,426.57,296.18Z" style="fill:#d8caff"/></g><path d="M406.54,270.67l-86.86-20.55a8.6,8.6,0,0,0-10.36,6.39L267.55,433a8.3,8.3,0,0,0,6.16,10l87.49,20.7A10.33,10.33,0,0,0,373.63,456l40.82-172.54A10.64,10.64,0,0,0,406.54,270.67Z" style="fill:#fff"/><path d="M402.45,271.67,320.59,252.3a8.34,8.34,0,0,0-10,6.2L270.32,428.59a5.06,5.06,0,0,0,3.76,6.08l88.25,20.87a5,5,0,0,0,6.08-3.75L408.65,281.7A8.34,8.34,0,0,0,402.45,271.67Z" style="fill:#fff"/><g style="clip-path:url(#b2cd3319-f867-4f4e-9494-c299615f5abf)"><rect x="280.88" y="249.07" width="123.13" height="214.34" transform="translate(91.21 -69.27) rotate(13.31)" style="fill:#50239f"/></g><circle cx="320.4" cy="259.13" r="2.47" style="fill:#fff;stroke:#50239f;stroke-linejoin:round;stroke-width:1.562798519578059px"/><rect x="313.7" y="334.58" width="65.24" height="65.24" rx="6.92" transform="translate(-90.72 619.74) rotate(-76.7)" style="fill:#b3b3b3;mix-blend-mode:multiply"/><line x1="323.87" y1="450.83" x2="312.11" y2="448.05" style="fill:#d5ebf6;stroke:#2f54a1;stroke-linecap:round;stroke-linejoin:round;stroke-width:1.562798519578059px"/><line x1="410.09" y1="293.79" x2="407.14" y2="306.28" style="fill:none;stroke:#50239f;stroke-linecap:round;stroke-linejoin:round;stroke-width:2.1398373234571695px"/><line x1="406.44" y1="309.21" x2="403.49" y2="321.7" style="fill:none;stroke:#50239f;stroke-linecap:round;stroke-linejoin:round;stroke-width:2.1398373234571695px"/><path d="M365.16,452.9l40.26-170.2a8,8,0,0,0-5.92-9.59L321.24,254.6Z" style="fill:#fff;fill-opacity:0.24"/><rect x="297.96" y="297.99" width="69.95" height="61.93" rx="6.57" transform="translate(-63.8 577.27) rotate(-76.7)" style="fill:#fff"/><g style="clip-path:url(#ed49f590-dc5d-4b93-8a32-377b75aca80a)"><path d="M340.25,325.82a2,2,0,0,1-2.46,1.52l-5.9-1.39h0l-2-.47a1.92,1.92,0,0,0-.88,3.74l2,.47h0l4.3,1a2.34,2.34,0,0,1-1.08,4.56l-3.07-.73a1.28,1.28,0,0,0-1.52.93l-.36,1.53-.36-.28a22.9,22.9,0,0,1-5.06-5,21.59,21.59,0,0,1-2.81-6.63,13.9,13.9,0,0,1-.2-5,58.36,58.36,0,0,1,1.9-7.91c.38-1.45.85-2.9,1.31-4.34a60.5,60.5,0,0,0,7.19-.41,41.93,41.93,0,0,0,5.27-1.13l-.61,2.6a1.29,1.29,0,0,0,.93,1.54l5.29,1.25a1.93,1.93,0,0,1-.88,3.75l-6.52-1.54h0l-1.88-.45a2.84,2.84,0,0,0-1.31,5.53l2.51.6a1.47,1.47,0,0,0,.31,2.72l4.37,1A2,2,0,0,1,340.25,325.82Z" style="fill:#fff"/><path d="M322.75,312.21a58.36,58.36,0,0,0-1.9,7.91,13.9,13.9,0,0,0,.2,5,21.59,21.59,0,0,0,2.81,6.63,22.9,22.9,0,0,0,5.06,5l.36.28-.15.62a.71.71,0,0,1-1.22.43,31.51,31.51,0,0,1-5.22-5.18,23.07,23.07,0,0,1-3.2-7.2,16.27,16.27,0,0,1-.24-5.65,68.56,68.56,0,0,1,2.14-8.87c.31-1.11.7-2.45,1.05-3.56a1.72,1.72,0,0,1,1.91-1.43,34.81,34.81,0,0,0,7.34-.47c1.79-.37,4.19-1.11,4.19-1.11.62-.19,1,.17.87.81l-.22.93h0a41.93,41.93,0,0,1-5.27,1.13,60.5,60.5,0,0,1-7.19.41C323.6,309.31,323.13,310.76,322.75,312.21Z" style="fill:#311b58"/><path d="M347.72,326.48a13.92,13.92,0,0,1-2.42,4.4,21.84,21.84,0,0,1-5.48,4.66,22.76,22.76,0,0,1-6.73,2.17l-.45.1-.1.42h0l.75-3.18.94.23a2.34,2.34,0,0,0,1.08-4.56l-.94-.23L329,329.23a1.92,1.92,0,0,1,.88-3.74l5.34,1.25,2.53.6a2,2,0,0,0,.95-4l-4.38-1a1.47,1.47,0,0,1-.31-2.72l-2.51-.6a2.84,2.84,0,0,1,1.31-5.53l5.25,1.24h0l3.15.75a1.93,1.93,0,0,0,.88-3.75L339,311l.91-3.84a40.05,40.05,0,0,0,4.2,3.35,59.34,59.34,0,0,0,6.24,3.6c-.24,1.48-.47,3-.77,4.46A58.47,58.47,0,0,1,347.72,326.48Z" style="fill:#50239f"/><path d="M349.17,327.12a15.51,15.51,0,0,1-2.74,4.93,22.76,22.76,0,0,1-6.07,5,32,32,0,0,1-7,2.29.7.7,0,0,1-.89-.92l.15-.63.45-.1a22.76,22.76,0,0,0,6.73-2.17,21.84,21.84,0,0,0,5.48-4.66,13.92,13.92,0,0,0,2.42-4.4,58.47,58.47,0,0,0,1.85-7.93c.3-1.47.53-3,.77-4.46a59.34,59.34,0,0,1-6.24-3.6,40.05,40.05,0,0,1-4.2-3.35l.22-.92a.63.63,0,0,1,1.14-.34s1.82,1.73,3.22,2.86a34.79,34.79,0,0,0,6.37,3.71,1.7,1.7,0,0,1,1.06,2.12c-.17,1.15-.44,2.53-.66,3.66A65.92,65.92,0,0,1,349.17,327.12Z" style="fill:#311b58"/><path d="M319,348.48l3.31-5.45,1.44.34-4.5,6.91L318,350l-.92-8.18,1.44.34Z" style="fill:#50239f"/><path d="M325.81,351.83a1.87,1.87,0,0,1,0-.56,2.06,2.06,0,0,1-1.62.28,2.08,2.08,0,0,1-1.27-.81,1.6,1.6,0,0,1-.25-1.32,1.64,1.64,0,0,1,1-1.22,3.4,3.4,0,0,1,2,0l.77.19.09-.37a1,1,0,0,0-.08-.76,1,1,0,0,0-.68-.43,1.14,1.14,0,0,0-.76,0,.69.69,0,0,0-.4.49l-1.26-.3a1.4,1.4,0,0,1,.51-.79,2.1,2.1,0,0,1,1-.44,3.22,3.22,0,0,1,1.23.05,2.43,2.43,0,0,1,1.45.87,1.78,1.78,0,0,1,.27,1.53l-.59,2.53a3,3,0,0,0-.08,1.26l0,.09Zm-1.17-1.24a1.54,1.54,0,0,0,.74,0,1.31,1.31,0,0,0,.61-.37l.25-1.06-.68-.16a2,2,0,0,0-1.11,0,.82.82,0,0,0-.51.61.76.76,0,0,0,.1.63A.93.93,0,0,0,324.64,350.59Z" style="fill:#50239f"/><path d="M331.73,352.64a2,2,0,0,1-1.73.28,1.81,1.81,0,0,1-1.26-.85,2.34,2.34,0,0,1-.1-1.66l.86-3.63,1.26.29-.86,3.62c-.17.71,0,1.14.64,1.28a1.28,1.28,0,0,0,1.39-.37l.95-4,1.26.29-1.33,5.61-1.18-.28Z" style="fill:#50239f"/><path d="M335.44,354.1l-1.26-.3,1.88-8,1.26.3Z" style="fill:#50239f"/><path d="M340,347.83l-.33,1.36,1,.24-.22.93-1-.24-.74,3.13a.74.74,0,0,0,0,.5.61.61,0,0,0,.42.25,2.22,2.22,0,0,0,.45.05l-.23,1a3.44,3.44,0,0,1-.86-.08c-1-.23-1.32-.88-1.07-1.95l.75-3.17-.92-.22.22-.93.92.21.33-1.36Z" style="fill:#50239f"/><rect x="313.23" y="330.39" width="62.63" height="62.63" rx="6.64" transform="translate(92.47 -69.57) rotate(13.3)" style="fill:#b3b3b3;mix-blend-mode:multiply"/></g><rect x="317.4" y="338.09" width="61.93" height="69.48" rx="6.57" transform="translate(95.13 -70.15) rotate(13.3)" style="fill:#fff"/><path d="M356.08,368a2,2,0,0,1-2.46,1.51l-5.89-1.39h0l-2-.47a1.92,1.92,0,0,0-.89,3.74l2,.47h0l4.3,1a2.34,2.34,0,0,1-1.07,4.56L347,376.7a1.29,1.29,0,0,0-1.53.93l-.36,1.53-.36-.28a23.12,23.12,0,0,1-5.06-5,21.89,21.89,0,0,1-2.81-6.62,14.18,14.18,0,0,1-.2-5,59.89,59.89,0,0,1,1.9-7.91c.39-1.45.86-2.9,1.31-4.34a60.5,60.5,0,0,0,7.19-.41,42,42,0,0,0,5.28-1.12l-.61,2.59a1.3,1.3,0,0,0,.93,1.55l5.29,1.25a1.92,1.92,0,0,1-.88,3.74l-6.52-1.54h0l-1.89-.45a2.84,2.84,0,0,0-1.31,5.53l2.52.6a1.4,1.4,0,0,0-.74.93,1.45,1.45,0,0,0,1.05,1.79l4.36,1A2,2,0,0,1,356.08,368Z" style="fill:#00e8cc"/><path d="M338.58,354.36a59.89,59.89,0,0,0-1.9,7.91,14.18,14.18,0,0,0,.2,5,21.89,21.89,0,0,0,2.81,6.62,23.12,23.12,0,0,0,5.06,5l.36.28-.15.63a.7.7,0,0,1-1.21.42,30.71,30.71,0,0,1-5.22-5.18,23.07,23.07,0,0,1-3.2-7.2,15.79,15.79,0,0,1-.24-5.65,65.42,65.42,0,0,1,2.14-8.87c.3-1.11.69-2.45,1-3.56a1.73,1.73,0,0,1,1.91-1.43,33.58,33.58,0,0,0,7.35-.47c1.79-.37,4.19-1.11,4.19-1.11.62-.19,1,.17.87.81l-.22.93h0a42,42,0,0,1-5.28,1.12,60.5,60.5,0,0,1-7.19.41C339.44,351.46,339,352.91,338.58,354.36Z" style="fill:#311b58"/><path d="M363.56,368.63a13.94,13.94,0,0,1-2.43,4.4,21.71,21.71,0,0,1-5.48,4.67,22.65,22.65,0,0,1-6.73,2.16l-.45.1-.1.42h0l.75-3.17.94.22a2.34,2.34,0,0,0,1.08-4.56l-.94-.22-5.33-1.27a1.92,1.92,0,0,1,.89-3.74l5.33,1.26,2.53.59a2,2,0,0,0,1-4l-4.38-1a1.45,1.45,0,0,1-1.05-1.79,1.4,1.4,0,0,1,.74-.93l-2.52-.6a2.84,2.84,0,0,1,1.31-5.53l5.26,1.25h0l3.15.75a1.92,1.92,0,0,0,.88-3.74l-3.15-.75.91-3.84a41.21,41.21,0,0,0,4.2,3.36,60.43,60.43,0,0,0,6.24,3.59c-.23,1.48-.46,3-.77,4.46A58.09,58.09,0,0,1,363.56,368.63Z" style="fill:#fff"/><path d="M365,369.27a15.9,15.9,0,0,1-2.74,4.93,23,23,0,0,1-6.08,5,31.39,31.39,0,0,1-7,2.29.71.71,0,0,1-.9-.92l.15-.63.45-.1a22.65,22.65,0,0,0,6.73-2.16,21.71,21.71,0,0,0,5.48-4.67,13.94,13.94,0,0,0,2.43-4.4,58.09,58.09,0,0,0,1.84-7.93c.31-1.47.54-3,.77-4.46a60.43,60.43,0,0,1-6.24-3.59,41.21,41.21,0,0,1-4.2-3.36l.22-.92a.63.63,0,0,1,1.14-.34s1.82,1.73,3.23,2.86a34.46,34.46,0,0,0,6.37,3.71,1.68,1.68,0,0,1,1.05,2.12c-.17,1.15-.44,2.53-.66,3.66A67.44,67.44,0,0,1,365,369.27Z" style="fill:#311b58"/><path d="M335.62,390.58l2.5-5.4,1.3.31-3.52,7.13-1.26-.3-.13-5.85-2.77,5.17-1.26-.3,0-8,1.3.31-.17,5.95,2.78-5.33,1.1.26Z" style="fill:#00e8cc"/><path d="M341.66,394a1.85,1.85,0,0,1,0-.56,2,2,0,0,1-1.62.28,2,2,0,0,1-1.27-.8,1.6,1.6,0,0,1-.25-1.32,1.62,1.62,0,0,1,1-1.22,3.25,3.25,0,0,1,2,0l.77.18.09-.37a1,1,0,0,0-.08-.75,1,1,0,0,0-.68-.44,1.14,1.14,0,0,0-.76.05.69.69,0,0,0-.4.48l-1.26-.3a1.43,1.43,0,0,1,.51-.79,2.09,2.09,0,0,1,1-.43,3,3,0,0,1,1.23.05,2.38,2.38,0,0,1,1.45.87,1.78,1.78,0,0,1,.27,1.53l-.59,2.53a3,3,0,0,0-.08,1.26l0,.09Zm-1.17-1.23a1.43,1.43,0,0,0,.74,0,1.23,1.23,0,0,0,.61-.37l.25-1.06-.68-.16a1.88,1.88,0,0,0-1.11,0,.82.82,0,0,0-.51.6.78.78,0,0,0,.1.64A1,1,0,0,0,340.49,392.75Z" style="fill:#00e8cc"/><path d="M345.39,394.86l-1.26-.29,1.88-8,1.26.29Z" style="fill:#00e8cc"/><path d="M348.1,395.5l-1.26-.29,1.88-8,1.26.29Z" style="fill:#00e8cc"/><path d="M351.92,396.52a2.71,2.71,0,0,1-1.77-1.22,2.86,2.86,0,0,1-.27-2.18l0-.16a3.42,3.42,0,0,1,.68-1.42,2.48,2.48,0,0,1,1.15-.81,2.38,2.38,0,0,1,1.4-.06,2.24,2.24,0,0,1,1.59,1.15,3.17,3.17,0,0,1,.14,2.21l-.12.51-3.67-.87a1.72,1.72,0,0,0,.21,1.21,1.44,1.44,0,0,0,.93.65,1.74,1.74,0,0,0,1.57-.37l.53.81a2.44,2.44,0,0,1-1.09.57A3,3,0,0,1,351.92,396.52Zm1-4.84a1.06,1.06,0,0,0-.92.16,1.93,1.93,0,0,0-.65.92l2.4.56,0-.09a1.57,1.57,0,0,0-.12-1A1.05,1.05,0,0,0,352.9,391.68Z" style="fill:#00e8cc"/><path d="M358.39,390.58l-.32,1.36,1,.24-.22.93-1-.24-.74,3.13a.74.74,0,0,0,0,.5.61.61,0,0,0,.42.25,2.14,2.14,0,0,0,.45.05l-.23,1a3.4,3.4,0,0,1-.86-.08c-1-.23-1.32-.88-1.07-1.95l.75-3.17-.92-.22.22-.93.92.21.32-1.36Z" style="fill:#00e8cc"/><line x1="347.61" y1="264.38" x2="373.32" y2="270.46" style="fill:none;stroke:#50239f;stroke-linecap:round;stroke-linejoin:round;stroke-width:1.562798519578059px"/><path d="M151.39,172.62h0a0,0,0,0,1,0,0Z" style="fill:#f2aa2f"/><g style="opacity:0.4;mix-blend-mode:multiply"><path d="M307.7,70.6l-72.76-18a7.22,7.22,0,0,0-8.75,5.28L189.54,205.71a7,7,0,0,0,5.08,8.43l73.29,18.16a8.66,8.66,0,0,0,10.5-6.33L314.24,81.44A9,9,0,0,0,307.7,70.6Z" style="fill:#d8caff"/></g><path d="M291.11,49,218.35,31a7.23,7.23,0,0,0-8.76,5.27L172.94,184.11a7,7,0,0,0,5.08,8.42l73.29,18.17a8.68,8.68,0,0,0,10.51-6.33L297.64,59.84A8.94,8.94,0,0,0,291.11,49Z" style="fill:#fff"/><path d="M287.67,49.81l-68.57-17a7,7,0,0,0-8.48,5.11L175.31,180.39a4.24,4.24,0,0,0,3.1,5.14l73.92,18.32a4.24,4.24,0,0,0,5.14-3.09L292.78,58.29A7,7,0,0,0,287.67,49.81Z" style="fill:#fff"/><g style="clip-path:url(#b97732d7-9b58-4e8f-b9e6-ae265a3c8ea9)"><rect x="185.33" y="35.17" width="103.4" height="166.07" transform="translate(35.4 -53.55) rotate(13.92)" style="fill:#50239f"/></g><path d="M242,116.12l2.85.7.69-2.81,8.7,2.16-1.41,5.67-5.68-1.4-.68,2.76,5.63,1.39.7-2.8,5.77,1.48,0,0-.72,2.92.05,0L255,125.4l-.71,2.84-8.54-2.12-2.14,8.65,2.78.69-.74,3-2.81-.7-.68,2.73,11.32,2.8,1.4-5.64-8.54-2.12.7-2.86,5.73,1.42.69-2.79,2.89.71-.67,2.72,2.84.7L256.35,144l2.86.71-1.41,5.67-2.76-.68.67-2.68-2.84-.71-.67,2.7-2.89-.71.66-2.67-2.89-.72-.66,2.69-2.84-.71.67-2.69-2.89-.72-.7,2.8-5.77-1.43,0,.06,1.42-5.75-2.86-.71.72-2.89,5.54,1.37,1.44-5.82-2.78-.69,0,.05.73-2.94,2.74.68.7-2.8L237,124c.26-1,.51-1.94.76-2.91l-.05,0,5.68,1.41.73-3-2.76-.68.7-2.84Z" style="fill:#fff"/><path d="M206.14,101l4.94-19.94L231,86,226.08,106Zm17.78,1.39,3.52-14.19L213.25,84.7l-3.52,14.19Z" style="fill:#fff"/><path d="M246.38,111l4.94-19.92L271.26,96l-4.93,19.92Zm3.58-2.18,14.19,3.51,3.51-14.18-14.19-3.52Z" style="fill:#fff"/><path d="M196.17,141.23l4.94-19.92,20,5-4.94,19.93Zm17.8,1.4,3.52-14.2-14.17-3.51-3.52,14.2Z" style="fill:#fff"/><path d="M221.89,111.14l.71-2.87,5.74,1.42,0,0-.71,2.85,2.89.72-.71,2.84,2.83.7,1.38-5.58,8.67,2.15-.7,2.8,0,0-2.91-.73-1.44,5.79.05,0-5.81-1.44-.71,2.87-2.85-.7,0,.05.72-2.92-2.91-.72,0,0,.72-2.91-2.91-.72,0,0,.72-2.91-2.91-.72Z" style="fill:#fff"/><path d="M228.34,109.69l2.84-11.43,11.45,2.83.72-2.92,0,0,2.83.7-1.4,5.63-5.58-1.38-1.41,5.67-2.89-.72.67-2.68-2.85-.71-1.4,5.66-3-.74Z" style="fill:#fff"/><path d="M238.41,130.44l-.71,2.86L232,131.9l-.69,2.79-5.83-1.44.69-2.78,2.8.7.69-2.76-2.77-.68-.69,2.79-2.87-.71,2.15-8.66,0,0,2.91.73,0-.05-.71,2.87,5.79,1.44-.72,2.91,5.74,1.42Z" style="fill:#fff"/><path d="M258.53,123.27l.71-2.85-2.82-.7.7-2.8,5.62,1.4-.68,2.74,2.85.71-2.11,8.52-5.66-1.4.69-2.78-.05,0,2.8.69.72-2.91-2.8-.7Z" style="fill:#fff"/><path d="M234.17,147.69l-5.7-1.41-.69,2.8-2.92-.72,1.41-5.67-.05,0,2.91.72.72-2.91,0,0,2.82.7-.69,2.76,3,.9,0,0c-.25.95-.51,1.9-.77,2.85Z" style="fill:#fff"/><path d="M201.87,118.26l1.38-5.58,8.44,2.09-1.38,5.57-2.73-.68.67-2.69-2.83-.7-.67,2.7Z" style="fill:#fff"/><path d="M205.43,104.05l5.56,1.38L209.61,111l-5.56-1.38Z" style="fill:#fff"/><path d="M244.08,95.25l-.78,3,0,0-5.64-1.39,2.13-8.59,2.73.68-1.41,5.7,3,.73Z" style="fill:#fff"/><path d="M223.31,141.9l-1.43,5.74L219.2,147l1.42-5.7,2.72.67Z" style="fill:#fff"/><path d="M244.11,95.3l1.4-5.66,2.77.68L246.88,96l-2.8-.7Z" style="fill:#fff"/><path d="M233.39,89.64l2.71.68-1.38,5.56L232,95.21Z" style="fill:#fff"/><path d="M216.1,109.71l5.79,1.43,0,0-.72,2.91,0,0-5.74-1.42.71-2.87Z" style="fill:#fff"/><path d="M224.17,139.05l-2.87-.71.66-2.68,2.83.7c-.21.87-.44,1.8-.67,2.73Z" style="fill:#fff"/><path d="M227,139.85l.7-2.79,2.83.7-.7,2.8,0,0-2.91-.73Z" style="fill:#fff"/><path d="M226.27,142.69l-3-.79,0,0,.83-2.9,0,0,2.85.76,0,0-.72,2.92Z" style="fill:#fff"/><path d="M253.44,155.51l-2.64-.65.68-2.75,2.65.65Z" style="fill:#fff"/><path d="M234.12,147.72l2.8.7-.69,2.76-2.75-.69.69-2.8Z" style="fill:#fff"/><path d="M239.28,151.93l.67-2.71,2.7.67L242,152.6Z" style="fill:#fff"/><path d="M245,153.35l.67-2.7,2.7.67-.67,2.7Z" style="fill:#fff"/><path d="M222.59,120.43l-.69,2.79-2.76-.69.68-2.75,2.8.7Z" style="fill:#fff"/><path d="M222.62,120.48c.24-1,.49-2,.73-2.92l0,0,2.91.72,0,0-.72,2.91,0,0-2.92-.72Z" style="fill:#fff"/><path d="M223.35,117.56l-2.88-.71.71-2.88,0,0,2.91.72,0,0-.72,2.91Z" style="fill:#fff"/><path d="M216.15,109.68l-2.79-.69.68-2.77,2.76.69-.7,2.8Z" style="fill:#fff"/><path d="M243.32,110.27l-2.69-.67.67-2.7,2.69.67Z" style="fill:#fff"/><path d="M233.37,126.19l.72-2.92L237,124l-.72,2.92Z" style="fill:#fff"/><path d="M221.76,98.82l-8.44-2.09,2.09-8.45,8.44,2.1Z" style="fill:#fff"/><path d="M253.52,106.63l2.08-8.39,8.49,2.1-2.08,8.4Z" style="fill:#fff"/><path d="M203.34,136.92l2.1-8.45,8.44,2.09L211.79,139Z" style="fill:#fff"/><line x1="220.08" y1="199.55" x2="210.23" y2="197.11" style="fill:#d5ebf6;stroke:#2f54a1;stroke-linecap:round;stroke-linejoin:round;stroke-width:1.3124188483458223px"/><line x1="293.89" y1="68.45" x2="291.29" y2="78.91" style="fill:none;stroke:#50239f;stroke-linecap:round;stroke-linejoin:round;stroke-width:1.7970088917522795px"/><line x1="290.68" y1="81.37" x2="288.09" y2="91.83" style="fill:none;stroke:#50239f;stroke-linecap:round;stroke-linejoin:round;stroke-width:1.7970088917522795px"/><path d="M254.73,201.66,290.06,59.1A6.69,6.69,0,0,0,285.18,51L219.62,34.74" style="fill:#fff;fill-opacity:0.24"/><line x1="242.41" y1="42.24" x2="263.95" y2="47.58" style="fill:#00e8cc;stroke:#50239f;stroke-linecap:round;stroke-linejoin:round;stroke-width:1.3124188483458223px"/><circle cx="218.88" cy="38.55" r="2.08" style="fill:#fff;stroke:#50239f;stroke-linejoin:round;stroke-width:1.3124188483458223px"/><g style="opacity:0.3;mix-blend-mode:multiply"><path d="M257.75,37.06,199,22.49C194.36,21.35,124.68,50,124.68,50L117.5,197.42a8.26,8.26,0,0,0,6,10l87,21.56A10.3,10.3,0,0,0,223,221.46L265.5,49.93A10.62,10.62,0,0,0,257.75,37.06Z" style="fill:#d8caff"/></g><path d="M143.32,46.6,57,25.19a8.59,8.59,0,0,0-10.4,6.27L3.07,207a8.27,8.27,0,0,0,6,10l87,21.56A10.3,10.3,0,0,0,108.56,231L151.08,59.46A10.62,10.62,0,0,0,143.32,46.6Z" style="fill:#ececec"/><path d="M139.24,47.55,57.86,27.38a8.32,8.32,0,0,0-10.07,6.07L5.88,202.55a5,5,0,0,0,3.68,6.1l87.73,21.74a5,5,0,0,0,6.1-3.67l41.92-169.1A8.32,8.32,0,0,0,139.24,47.55Z" style="fill:#ececec"/><g style="clip-path:url(#bc1d429e-b267-4135-89c1-bf1a373abe9b)"><rect x="16.56" y="24.31" width="122.72" height="218.65" transform="translate(34.44 -14.82) rotate(13.92)" style="fill:#00e8cc"/><polyline points="92.25 134.45 104.5 137.4 119.46 78.69 107.27 75.51" style="fill:none;stroke:#fff;stroke-miterlimit:10;stroke-width:1.4550603748006536px"/><polyline points="70.65 65.95 58.7 62.83 43.45 122.71 55.45 125.6" style="fill:none;stroke:#fff;stroke-miterlimit:10;stroke-width:1.4550603748006536px"/></g><path d="M28.46,180.05a15.28,15.28,0,1,1,11.16,18.52,15.29,15.29,0,0,1-11.16-18.52" style="fill:none;stroke:#fff;stroke-linecap:round;stroke-linejoin:round;stroke-width:1.5169181752273047px"/><polygon points="39.47 172.82 38.46 176.89 42.52 177.9 41.52 181.94 45.59 182.94 46.59 178.9 50.65 179.91 51.66 175.85 39.47 172.82" style="fill:#fff"/><polygon points="32.39 183.97 36.45 184.97 34.47 192.96 38.54 193.97 41.52 181.94 37.46 180.93 38.46 176.89 34.39 175.88 32.39 183.97" style="fill:#fff"/><polygon points="50.65 179.91 49.65 183.96 45.59 182.95 42.6 194.98 46.67 195.99 48.65 188 52.72 189 54.72 180.92 50.65 179.91" style="fill:#fff"/><rect x="36.28" y="182.32" width="12.56" height="8.23" transform="translate(46.1 -4.76) rotate(13.92)" style="fill:#fff"/><line x1="68.89" y1="180.12" x2="96.81" y2="187.04" style="fill:none;stroke:#fff;stroke-linecap:round;stroke-linejoin:round;stroke-width:1.5169181752273047px"/><line x1="67.5" y1="185.75" x2="95.41" y2="192.67" style="fill:none;stroke:#fff;stroke-linecap:round;stroke-linejoin:round;stroke-width:1.5169181752273047px"/><line x1="66.1" y1="191.39" x2="80.06" y2="194.85" style="fill:none;stroke:#fff;stroke-linecap:round;stroke-linejoin:round;stroke-width:1.5169181752273047px"/><line x1="59.02" y1="225.28" x2="47.33" y2="222.39" style="fill:#d5ebf6;stroke:#2f54a1;stroke-linecap:round;stroke-linejoin:round;stroke-width:1.5576868702692483px"/><line x1="146.62" y1="69.68" x2="143.54" y2="82.1" style="fill:none;stroke:#00e8cc;stroke-linecap:round;stroke-linejoin:round;stroke-width:2.1328382779382564px"/><line x1="142.82" y1="85.02" x2="139.74" y2="97.43" style="fill:none;stroke:#00e8cc;stroke-linecap:round;stroke-linejoin:round;stroke-width:2.1328382779382564px"/><path d="M100.14,227.79l41.94-169.2a8,8,0,0,0-5.8-9.63L58.47,29.68" style="fill:#fff;fill-opacity:0.24"/><line x1="164.52" y1="50.03" x2="192.53" y2="46.71" style="fill:none;stroke:#fff;stroke-linecap:round;stroke-linejoin:round;stroke-width:2.9101208305477773px"/><line x1="145.74" y1="32.14" x2="168.19" y2="15.06" style="fill:none;stroke:#fff;stroke-linecap:round;stroke-linejoin:round;stroke-width:2.9101208305477773px"/><line x1="158.6" y1="81.21" x2="183.57" y2="94.34" style="fill:none;stroke:#fff;stroke-linecap:round;stroke-linejoin:round;stroke-width:2.9101208305477773px"/><line x1="85.53" y1="38.57" x2="111.09" y2="44.91" style="fill:#00e8cc;stroke:#2f54a1;stroke-linecap:round;stroke-linejoin:round;stroke-width:1.5576868702692483px"/><circle cx="57.59" cy="34.19" r="2.46" style="fill:#fff;stroke:#2f54a1;stroke-linejoin:round;stroke-width:1.5576868702692483px"/></g></g></svg>