<svg xmlns="http://www.w3.org/2000/svg" xmlns:xlink="http://www.w3.org/1999/xlink" viewBox="0 0 512 512">
  <style>
    .st0{fill:#50239f}.st2{fill:#fff}.st16{fill:#00e8cc}.st306{fill:#d8caff}.st432{fill:#00d2c4}.st438{fill:#3deed8}.st443{fill:#7a58b6}
  </style>
  <g id="_x33_">
    <path d="M485.3 256c0 126.7-102.7 229.3-229.3 229.3-126.7 0-229.3-102.6-229.3-229.3C26.7 129.3 129.3 26.7 256 26.7c126.7 0 229.3 102.6 229.3 229.3" class="st16"/>
    <path fill="#ebe6ff" d="M476.5 319.3c-6.7 23.5-17.1 45.5-30.5 65.2l49.9-33c.7-.5.9-1.5.4-2.2l-19.8-30"/>
    <path fill="#00d1cc" d="M468.6 308.6c-.3 0-.6.1-.9.3l-124.4 82.3h-166c-3.8 0-6.8 3.1-6.8 6.8v37.4c0 3.8 3.1 6.8 6.8 6.8h166.8c.8 0 1.6-.1 2.3-.4 1.5.3 3 .4 4.5.4 4.8 0 9.7-1.4 14-4.2l80.9-53.5c13.4-19.8 23.8-41.7 30.5-65.2l-6.6-9.9c-.1-.5-.6-.8-1.1-.8"/>
    <path d="M341 424.2H165.4c-4 0-7.2-3.2-7.2-7.2v-24.8-14.6c0-.5 0-3 2.1-5.1 1.3-1.3 3.1-2.1 5.1-2.1H341c4 0 7.2 3.2 7.2 7.2V417c-.1 3.9-3.3 7.2-7.2 7.2z" class="st2"/>
    <defs>
      <path id="SVGID_27_" d="M341 424.2H165.4c-4 0-7.2-3.2-7.2-7.2v-24.8-14.6c0-.5 0-3 2.1-5.1 1.3-1.3 3.1-2.1 5.1-2.1H341c4 0 7.2 3.2 7.2 7.2V417c-.1 3.9-3.3 7.2-7.2 7.2"/>
    </defs>
    <clipPath id="SVGID_2_">
      <use overflow="visible" xlink:href="#SVGID_27_"/>
    </clipPath>
    <path fill="#d8caff" d="M496.2 327l-137.7 91.1c-12.4 8.2-29 4.8-37.2-7.6-8.2-12.4-4.8-29 7.6-37.2l137.7-91.1c.8-.5 1.8-.3 2.3.5l27.8 42c.5.7.2 1.8-.5 2.3z" clip-path="url(#SVGID_2_)"/>
    <path d="M341 424.2v-.9H165.4c-1.7 0-3.3-.7-4.4-1.8-1.1-1.1-1.8-2.7-1.8-4.4v-24.8-14.6c0-.4 0-2.7 1.8-4.4 1.1-1.1 2.7-1.8 4.4-1.8H341c1.7 0 3.3.7 4.4 1.8 1.1 1.1 1.8 2.7 1.8 4.4V417c0 1.7-.7 3.3-1.8 4.4-1.1 1.1-2.7 1.8-4.4 1.8v1.9c4.5 0 8.1-3.6 8.1-8.1v-39.4c0-4.5-3.6-8.1-8.1-8.1H165.4c-2.2 0-4.3.9-5.7 2.4-2.3 2.3-2.4 5.2-2.4 5.7V417c0 4.5 3.6 8.1 8.1 8.1H341v-.9z" class="st0"/>
    <path d="M309.4 416.1h-94.6c-1.5 0-2.6-1.2-2.6-2.6v-32.4c0-1.5 1.2-2.6 2.6-2.6h94.6c1.5 0 2.6 1.2 2.6 2.6v32.4c0 1.5-1.2 2.6-2.6 2.6z" class="st306"/>
    <path d="M500.7 328.6L363 419.7c-12.4 8.2-29 4.8-37.2-7.6s-4.8-29 7.6-37.2l137.7-91.1c.8-.5 1.8-.3 2.3.5l27.8 42c.5.7.3 1.8-.5 2.3z" class="st2"/>
    <path d="M500.7 328.6l-.5-.8L362.5 419c-4.4 2.9-9.4 4.3-14.3 4.3-8.4 0-16.7-4.1-21.7-11.6-2.9-4.4-4.3-9.4-4.3-14.3 0-8.4 4.1-16.7 11.6-21.7l137.7-91.1c.1-.1.3-.1.4-.1.2 0 .5.1.6.3l27.8 42c.1.1.1.3.1.4 0 .2-.1.5-.3.6l.6.8.5.8c.7-.5 1.2-1.3 1.2-2.1 0-.5-.1-1-.4-1.4l-27.8-42c-.5-.7-1.3-1.2-2.1-1.2-.5 0-1 .1-1.4.4L333 374.2c-8.1 5.3-12.5 14.2-12.5 23.2 0 5.3 1.5 10.6 4.6 15.3 5.3 8.1 14.2 12.5 23.2 12.4 5.3 0 10.6-1.5 15.3-4.6l137.7-91.1-.6-.8z" class="st0"/>
    <path d="M360.3 389.2c4.4 6.7 2.6 15.8-4.1 20.2-6.7 4.4-15.8 2.6-20.2-4.1-4.4-6.7-2.6-15.8 4.1-20.2 6.7-4.4 15.8-2.6 20.2 4.1zM197.1 397.3c0 8.1-6.5 14.6-14.6 14.6s-14.6-6.5-14.6-14.6 6.5-14.6 14.6-14.6c8 0 14.6 6.5 14.6 14.6z" class="st306"/>
    <path d="M168.8 397.3c0-3.8 1.5-7.2 4-9.7 2.5-2.5 5.9-4 9.7-4 3.8 0 7.2 1.5 9.7 4 2.5 2.5 4 5.9 4 9.7 0 3.8-1.5 7.2-4 9.7-2.5 2.5-5.9 4-9.7 4v1.8c8.6 0 15.5-6.9 15.5-15.5s-6.9-15.5-15.5-15.5-15.5 6.9-15.5 15.5h1.8zM334.5 397.3c0-3.8 1.5-7.2 4-9.7 2.5-2.5 5.9-4 9.7-4 3.8 0 7.2 1.5 9.7 4 2.5 2.5 4 5.9 4 9.7 0 3.8-1.5 7.2-4 9.7-2.5 2.5-5.9 4-9.7 4v1.8c8.6 0 15.5-6.9 15.5-15.5s-6.9-15.5-15.5-15.5-15.5 6.9-15.5 15.5h1.8z" class="st0"/>
    <path fill="#f2aa2f" d="M54.4 296.3z"/>
    <path d="M169.3 187.1h-8.5c-3.7 0-7 3-7.5 6.8l-.8 7.7-12.4 100c-.4 3.5 2 6.3 5.4 6.5l-5.7 2.9-75.6.1.4 9.4c0 2.8 2.2 5 5 5l274.2-.4c2.8 0 5-2.2 5-5v-4.6h-4.3c3.5-.1 6.5-3 6.9-6.5l.1-.7-183 .3h-4.7c-1.9 0-3.5-.7-4.7-1.9a6.42 6.42 0 01-1.9-4.6v-.8l12.1-114.2" class="st432"/>
    <path d="M375.5 172.5l-192.4.3c-3.7 0-7.1 3-7.5 6.7l-.8 7.7-12 114.1c-.4 3.6 2.2 6.5 5.8 6.5l192.9-.3c3.6 0 6.8-2.9 7.2-6.5l12-114.1.8-7.7c.4-3.7-2.3-6.7-6-6.7" class="st2"/>
    <path d="M375.5 172.5v-.8l-192.4.3c-2.1 0-4 .8-5.5 2.2-1.5 1.3-2.5 3.2-2.7 5.2l-.8 7.7-12 114.1v.8c0 1.8.7 3.5 1.9 4.6 1.2 1.2 2.8 1.9 4.7 1.9l192.9-.3c2 0 3.9-.8 5.3-2.1s2.4-3.1 2.6-5.1l12-114.1.8-7.7v-.8c0-1.9-.7-3.6-1.9-4.8-1.2-1.2-2.9-2-4.9-2V173.3c1.5 0 2.9.6 3.8 1.5.9.9 1.5 2.2 1.5 3.7v.7l-.8 7.7L368 301c-.2 1.6-1 3-2.1 4.1-1.2 1.1-2.7 1.7-4.3 1.7l-192.9.3c-1.5 0-2.7-.6-3.6-1.4-.9-.9-1.4-2.1-1.4-3.6v-.6l12-114.1.8-7.7c.2-1.7 1-3.2 2.2-4.3 1.2-1.1 2.8-1.8 4.5-1.8l192.4-.3-.1-.8" class="st2"/>
    <path d="M370.7 172.5l-192.4.3c-3.7 0-7.1 3-7.5 6.7l-.8 7.7-12 114.1c-.4 3.6 2.2 6.5 5.8 6.5l192.9-.3c3.6 0 6.8-2.9 7.2-6.5l12-114.1.8-7.7c.4-3.7-2.2-6.7-6-6.7" class="st16"/>
    <defs>
      <path id="SVGID_29_" d="M370.7 172.5l-192.4.3c-3.7 0-7.1 3-7.5 6.7l-.8 7.7-12 114.1c-.4 3.6 2.2 6.5 5.8 6.5l192.9-.3c3.6 0 6.8-2.9 7.2-6.5l12-114.1.8-7.7c.4-3.7-2.2-6.7-6-6.7"/>
    </defs>
    <clipPath id="SVGID_4_">
      <use overflow="visible" xlink:href="#SVGID_29_"/>
    </clipPath>
    <path fill="#00e8cc" d="M372.4 160.7L176 163.3c-3.7 0-12 12.6-12.4 16.3l-.8 4.9 216.3-.4 11.7-7.3c.4-3.7-14.7-16.1-18.4-16.1" clip-path="url(#SVGID_4_)"/>
    <path fill="#fff" d="M372.4 160.7v-.8L176 162.5v.8-.8c-.7 0-1.3.3-2 .7-1.1.7-2.3 1.8-3.5 3.2-1.8 2.1-3.6 4.7-5 7.1-.7 1.2-1.3 2.4-1.8 3.4s-.8 1.9-.8 2.7l.8.1-.8-.1-1 5.9 217.5-.4 12.2-7.7V176.8c0-.7-.3-1.4-.7-2.2-.8-1.3-2.1-2.9-3.6-4.4-2.4-2.4-5.3-4.9-8-6.8-1.4-1-2.6-1.8-3.8-2.4-.6-.3-1.1-.5-1.6-.7-.5-.2-.9-.3-1.4-.3l-.1.7v.8c.2 0 .8.1 1.5.5 1.2.6 2.9 1.6 4.7 2.8 2.7 1.9 5.6 4.4 7.8 6.6 1.1 1.1 2 2.2 2.7 3.2.3.5.6.9.7 1.2.2.4.2.6.2.8v.1l.8.1-.4-.7-11.5 7.2-215.1.3.7-4c0-.3.2-.9.4-1.6.9-2.3 3-6 5.3-8.9 1.1-1.5 2.3-2.8 3.4-3.7.5-.5 1-.8 1.5-1.1.4-.2.8-.3 1-.3l196.4-2.5-.1-.8v.8-.8" clip-path="url(#SVGID_4_)"/>
    <path fill="#00e8cc" d="M321.3 198.3l-112.5.2c-2.8 0-5.3 2.3-5.6 5.1l-.6 5.8-7.6 69.8c-.3 2.7 1.7 4.9 4.4 4.9l112.9-.2c2.7 0 5.1-2.2 5.4-4.9l7.6-69.8.6-5.8c.2-2.9-1.8-5.1-4.6-5.1" clip-path="url(#SVGID_4_)"/>
    <g clip-path="url(#SVGID_4_)">
      <defs>
        <path id="SVGID_31_" d="M321.3 198.3l-112.5.2c-2.8 0-5.3 2.3-5.6 5.1l-.6 5.8-7.6 69.8c-.3 2.7 1.7 4.9 4.4 4.9l112.9-.2c2.7 0 5.1-2.2 5.4-4.9l7.6-69.8.6-5.8c.2-2.9-1.8-5.1-4.6-5.1"/>
      </defs>
      <clipPath id="SVGID_6_">
        <use overflow="visible" xlink:href="#SVGID_31_"/>
      </clipPath>
      <path fill="#fff" d="M321.3 198.3l-112.5.2c-2.8 0-5.3 2.3-5.6 5.1l-.6 5.8 122.6-.2.6-5.8c.3-2.9-1.7-5.1-4.5-5.1" clip-path="url(#SVGID_6_)"/>
      <path fill="#fff" d="M321.3 198.3v-.4l-112.5.2c-3 0-5.7 2.4-6 5.4l-.7 6.2 123.4-.2.7-6.1v-.6c0-1.4-.5-2.6-1.4-3.5-.9-.9-2.1-1.4-3.5-1.4v.8c2.4 0 4.2 1.8 4.2 4.1v.5l-.6 5.5-122 .2.6-5.4c.3-2.6 2.7-4.8 5.3-4.7l112.5-.2v-.4" clip-path="url(#SVGID_6_)"/>
    </g>
    <path fill="#fff" d="M321.3 198.3v-.8l-112.5.2c-1.6 0-3.1.7-4.3 1.7-1.2 1-2 2.5-2.1 4.1l-.6 5.8-7.6 69.8v.6c0 1.4.5 2.7 1.5 3.7.9.9 2.2 1.5 3.7 1.5l112.9-.2c1.6 0 3-.6 4.1-1.6s1.9-2.4 2.1-4l7.6-69.8.6-5.8v-.6c0-1.5-.6-2.8-1.5-3.8-1-1-2.3-1.5-3.8-1.5v1.5c1.1 0 2 .4 2.7 1.1.7.7 1.1 1.6 1.1 2.6v.5l-.6 5.8-7.6 69.8c-.1 1.1-.7 2.2-1.5 3-.8.8-1.9 1.2-3.1 1.2l-112.9.2c-1.1 0-1.9-.4-2.6-1-.6-.6-1-1.5-1-2.5v-.4l7.6-69.8.6-5.8c.1-1.2.7-2.3 1.6-3.1.9-.8 2-1.3 3.2-1.3l112.5-.2-.1-.9" clip-path="url(#SVGID_4_)"/>
    <path fill="#00e8cc" d="M321.1 204.3c-.1 1-1 1.9-2.1 1.9s-1.8-.8-1.7-1.9c.1-1 1-1.9 2.1-1.9s1.8.8 1.7 1.9M283.2 217.5h11.1c1.5 0 2.3 1.2 2.1 2.8l-4.5 41.7c-.2 1.5-1.5 2.7-3 2.7h-10.8l5.1-47.2" clip-path="url(#SVGID_4_)"/>
    <path fill="#fff" d="M283.3 218.3h11.1c.5 0 .8.2 1 .4.2.2.3.6.3 1.2v.3l.8.1-.8-.1-4.5 41.7c-.1.5-.3 1-.7 1.4-.4.4-.9.6-1.5.6h-10.8c-.4 0-.8.4-.8.8s.4.8.8.8H289c1 0 1.9-.4 2.5-1 .7-.6 1.1-1.5 1.3-2.4l4.5-41.7v-.5c0-.8-.2-1.6-.7-2.2-.5-.6-1.3-1-2.2-1h-11.1c-.4 0-.8.4-.8.8 0 .5.3.8.8.8" clip-path="url(#SVGID_4_)"/>
    <path fill="#00e8cc" d="M237.5 264.8h-10.8c-1.5 0-2.6-1.2-2.4-2.7l4.5-41.7c.2-1.5 1.6-2.8 3.1-2.8h10.7l-5.1 47.2" clip-path="url(#SVGID_4_)"/>
    <path fill="#fff" d="M237.5 264h-10.8c-.5 0-.9-.2-1.2-.5-.3-.3-.5-.7-.5-1.1v-.2l4.5-41.7c.1-.6.3-1.1.8-1.5.4-.4 1-.6 1.5-.6h10.7c.4 0 .8-.4.8-.8s-.4-.8-.8-.8h-10.7c-1 0-1.9.4-2.6 1-.7.6-1.2 1.5-1.3 2.5l-4.5 41.7.8.1-.8-.1v.4c0 .9.3 1.7.9 2.3.6.6 1.4.9 2.3.9h10.8c.4 0 .8-.4.8-.8.1-.5-.3-.8-.7-.8" clip-path="url(#SVGID_4_)"/>
    <path fill="#00e8cc" d="M311.5 204.3c-.1 1-1 1.9-2.1 1.9-1 0-1.8-.8-1.7-1.9.1-1 1-1.9 2.1-1.9 1 0 1.8.8 1.7 1.9M300.8 204.3c-.1 1-1 1.9-2.1 1.9-1 0-1.8-.8-1.7-1.9.1-1 1-1.9 2.1-1.9s1.8.9 1.7 1.9" clip-path="url(#SVGID_4_)"/>
    <path d="M370.7 172.5v-.8l-192.4.3c-2.1 0-4 .8-5.5 2.2s-2.5 3.2-2.7 5.2l-.8 7.7-12 114.1v.8c0 1.8.7 3.5 1.9 4.6 1.2 1.2 2.8 1.9 4.7 1.9l192.9-.3c2 0 3.9-.8 5.3-2.1s2.4-3.1 2.6-5.1l12-114.1.8-7.7v-.8c0-1.9-.7-3.6-1.9-4.8-1.2-1.2-2.9-2-4.9-2V173.3c1.5 0 2.9.6 3.8 1.5.9.9 1.5 2.2 1.5 3.7v.7l-.8 7.7-12 114.1c-.2 1.6-1 3-2.1 4.1-1.2 1.1-2.7 1.7-4.3 1.7l-192.9.3c-1.5 0-2.7-.6-3.6-1.4-.9-.9-1.4-2.1-1.4-3.6v-.6l12-114.1.8-7.7c.2-1.7 1-3.2 2.2-4.3 1.2-1.1 2.8-1.8 4.5-1.8l192.4-.3-.1-.8" class="st2"/>
    <path d="M366 307.5H360.6L86 308H80.6v5.3c0 2.8 2.2 5 5 5l275.3-.4c2.8 0 5-2.2 5-5l.1-5.4z" class="st2"/>
    <defs>
      <path id="SVGID_33_" d="M366 307.5H360.6L86 308H80.6v5.3c0 2.8 2.2 5 5 5l275.3-.4c2.8 0 5-2.2 5-5l.1-5.4"/>
    </defs>
    <clipPath id="SVGID_8_">
      <use overflow="visible" xlink:href="#SVGID_33_"/>
    </clipPath>
    <path fill="#e8e8e8" d="M366 307.5v5.3c0 2.8-2.2 5-5 5l-112.3.2c-2.8 0-5-2.2-5-5v-5.3l122.3-.2m0-2.2l-122.3.2c-1.2 0-2.2 1-2.2 2.3v5.3c0 4 3.3 7.2 7.2 7.2l112.3-.2c1.9 0 3.8-.8 5.1-2.1s2.1-3.2 2.1-5.1v-5.3c0-.6-.2-1.2-.7-1.6-.4-.5-.9-.7-1.5-.7z" clip-path="url(#SVGID_8_)"/>
    <path d="M366 307.5v-.8h-5.1v.8-.8h-.3l-274.6.5h-.3v.8-.8h-5.1c-.4 0-.8.3-.8.8v5.3c0 3.2 2.6 5.7 5.8 5.7l275.3-.4c3.2 0 5.7-2.6 5.7-5.8h-.8v.8c.2 0 .4-.1.5-.2.1-.1.2-.3.2-.5v-5.3c0-.4-.3-.8-.8-.8l.3.7h-.8v5.3h.8v-.8c-.2 0-.4.1-.5.2-.1.2-.2.3-.2.6h.8-.8c0 2.3-1.9 4.2-4.2 4.2l-275.3.4c-2.3 0-4.2-1.9-4.2-4.2v-4.6h4.6l274.6-.4H366.2l-.2-.7h-.8.8z" class="st2"/>
    <path d="M372.4 185l-187.3.3c5.1 3.7 11.8 8.4 19.6 13.8 1.1-.9 2.5-1.5 4-1.5l112.5-.2v.8-.8c1.5 0 2.9.6 3.8 1.5 1 1 1.5 2.3 1.5 3.8v.6l-.6 5.8-7.4 67.7c22.6 15.1 38.8 25.8 39.7 25.8 1.1-1.1 1.9-2.6 2.1-4.2L372 189l.4-4M367.1 175.2l-188.4.3c-1.6 0-3.2.6-4.4 1.6-.2.2 3 2.6 8.6 6.7l189.7-.3.2-1.8c.4-3.7-2.2-6.5-5.7-6.5" class="st438"/>
    <path d="M372.6 183.4l-189.7.3c.7.5 1.4 1 2.2 1.6l187.3-.3.2-1.6" class="st2"/>
    <path d="M324.3 209.5l-104.3.2c3.4 2.4 7 4.8 10.7 7.4.4-.2.8-.2 1.3-.2h10.7c.4 0 .8.4.8.8s-.4.8-.8.8h-.1l-.7 6.4c12.3 8.4 25.2 17.3 37.8 25.8l3.5-32.3c-.4 0-.7-.4-.7-.8s.4-.8.8-.8h11.1c.9 0 1.7.4 2.2 1 .5.6.7 1.4.7 2.2v.5l-4.3 39.3c8.5 5.8 16.6 11.3 24.1 16.3l7.2-66.6" class="st438"/>
    <path d="M298.8 206.2c-1 0-1.8-.8-1.7-1.9.1-1 1-1.9 2.1-1.9 1 0 1.8.8 1.7 1.9-.2 1-1.1 1.9-2.1 1.9m10.6-.1c-1 0-1.8-.8-1.7-1.9.1-1 1-1.9 2.1-1.9 1 0 1.8.8 1.7 1.9-.2 1.1-1.1 1.9-2.1 1.9m9.6 0c-1 0-1.8-.8-1.7-1.9.1-1 1-1.9 2.1-1.9 1 0 1.8.8 1.7 1.9-.1 1.1-1 1.9-2.1 1.9m2.3-7l-112.5.2c-.9 0-1.9.3-2.6.8 4 2.8 8.3 5.8 12.7 8.9l105.5-.2.6-5.5v-.5c0-1.1-.4-2-1.1-2.6-.6-.7-1.5-1.1-2.6-1.1" class="st2"/>
    <path d="M324.4 208.8l-105.5.2c.4.3.7.5 1.1.8l104.3-.2.1-.5v-.3" class="st2"/>
    <path d="M321.3 197.5v.8-.8l-112.5.2c-1.5 0-2.9.6-4 1.5.5.3.9.6 1.4 1 .8-.5 1.7-.8 2.6-.8l112.5-.2c1.1 0 2 .4 2.7 1.1.7.7 1.1 1.6 1.1 2.6v.5l-.6 5.5v.3l-.1.5-7.2 66.4c.5.3 1 .7 1.5 1l7.4-67.7.6-5.8v-.6c0-1.5-.6-2.8-1.5-3.8-1.1-1.2-2.4-1.7-3.9-1.7" class="st2"/>
    <path d="M319.4 202.4c-1 0-2 .8-2.1 1.9-.1 1 .6 1.9 1.7 1.9 1 0 2-.8 2.1-1.9.1-1.1-.6-1.9-1.7-1.9M294.3 218.3h-11.1-.1l-3.5 32.3c4 2.7 7.9 5.4 11.8 8l4.2-38.4v-.3c0-.5-.1-.9-.3-1.2-.2-.2-.5-.4-1-.4" class="st438"/>
    <path d="M294.4 216.7s-.1 0 0 0h-11.1c-.4 0-.8.4-.8.8s.3.8.7.8h11.2c.5 0 .8.2 1 .4.2.2.3.6.3 1.2v.3l-4.2 38.4c.5.3 1 .7 1.5 1l4.3-39.3v-.5c0-.8-.2-1.6-.7-2.2-.6-.5-1.4-.9-2.2-.9" class="st2"/>
    <path d="M242.5 218.4h-9.9c3 2.1 6.1 4.2 9.2 6.4l.7-6.4" class="st438"/>
    <path d="M242.6 216.8h-10.7c-.5 0-.9.1-1.3.2.7.5 1.3.9 2 1.4h10c.4 0 .8-.4.8-.8 0-.5-.3-.8-.8-.8" class="st2"/>
    <path d="M309.8 202.4c-1 0-2 .8-2.1 1.9-.1 1 .6 1.9 1.7 1.9 1 0 2-.8 2.1-1.9.1-1.1-.7-1.9-1.7-1.9M299.2 202.4c-1 0-2 .8-2.1 1.9-.1 1 .6 1.9 1.7 1.9 1 0 2-.8 2.1-1.9 0-1-.7-1.9-1.7-1.9" class="st438"/>
    <path d="M273.6 179.7c-.1 1.1-1.1 1.9-2.1 1.9s-1.8-.9-1.7-1.9c.1-1.1 1.1-1.9 2.1-1.9s1.8.9 1.7 1.9zM258 163.7l-23.8-18.1c-.7-.5-1.6-.4-2.1.3s-.4 1.6.3 2.1l23.8 18.1c.7.5 1.6.4 2.1-.3s.3-1.6-.3-2.1M270.9 161.1L260.6 135c-.3-.8-1.2-1.2-2-.9-.8.3-1.2 1.2-.9 2l10.3 26.1c.3.8 1.2 1.2 2 .9.8-.3 1.2-1.2.9-2M252.1 178.3h-29.5c-.8 0-1.5.7-1.5 1.5s.7 1.5 1.5 1.5h29.5c.8 0 1.5-.7 1.5-1.5s-.6-1.5-1.5-1.5" class="st0"/>
    <path fill="#ece7f4" d="M35 48.7l-12.4 3.1c-5 1.2-8 6.3-6.8 11.2l26.9 108.6c4.3-10.7 9.3-21.1 15.1-31L35 48.7"/>
    <path d="M57.8 140.6c-5.8 9.9-10.8 20.2-15.1 31l10.2 41.1c1 4.1 4.7 6.8 8.7 6.8.7 0 1.4-.1 2.2-.3l75.9-18.8c3.9-1 6.2-4.9 5.3-8.7l-2.5-10.1L81 196.9c-.7.2-1.5.3-2.2.3-4 0-7.7-2.7-8.7-6.8l-12.3-49.8" class="st432"/>
    <path d="M39.8 29.4l75.4-18.7c4-1 8.1 1.5 9.1 5.5l38 153.1c1 3.9-1.4 7.8-5.3 8.7l-76 18.9a8.97 8.97 0 01-10.9-6.6L33 40.6c-1.2-4.9 1.8-10 6.8-11.2" class="st2"/>
    <path d="M43.3 30.2l71-17.6c3.9-1 7.8 1.4 8.8 5.3l36.6 147.5c.6 2.4-.9 4.7-3.2 5.3l-76.6 19c-2.4.6-4.7-.9-5.3-3.2L38 39c-.9-3.9 1.4-7.8 5.3-8.8" class="st2"/>
    <defs>
      <path id="SVGID_35_" d="M43.3 30.2l71-17.6c3.9-1 7.8 1.4 8.8 5.3l36.6 147.5c.6 2.4-.9 4.7-3.2 5.3l-76.6 19c-2.4.6-4.7-.9-5.3-3.2L38 39c-.9-3.9 1.4-7.8 5.3-8.8"/>
    </defs>
    <clipPath id="SVGID_10_">
      <use overflow="visible" xlink:href="#SVGID_35_"/>
    </clipPath>
    <path fill="#50239f" d="M23.1 30.5l104-25.8 41.3 167-103.9 25.7L23.1 30.5" clip-path="url(#SVGID_10_)"/>
    <path fill="#50239f" d="M23.1 30.5l104-25.8 41.3 167-103.9 25.7L23.1 30.5l41.4 166.9 103.9-25.7-41.3-167z" clip-path="url(#SVGID_10_)"/>
    <path d="M90.7 98.9c-.9.2-1.9.5-2.9.7-.2-1-.5-1.9-.7-2.9-3 .8-5.9 1.5-9 2.2.5 2 1 3.9 1.5 5.9 2-.5 3.9-1 5.9-1.5.3 1.1.5 2 .7 2.9-2 .5-3.9 1-5.8 1.4-.3-1-.5-2-.7-2.9l-6 1.5v-.1c.2 1 .5 2 .7 3h-.1c.9-.2 1.9-.5 3-.7.3 1 .5 1.9.7 2.9 3-.7 5.9-1.5 8.8-2.2.7 3 1.5 5.9 2.2 9-.9.2-1.9.5-2.9.7.2 1 .5 1.9.8 3.1 1.1-.3 2-.5 2.9-.7.3 1 .5 1.9.7 2.8-4 1-7.8 1.9-11.7 2.9-.5-2-1-3.9-1.4-5.8 3-.7 5.9-1.5 8.9-2.2-.2-.9-.5-1.9-.7-3-2 .5-3.9 1-5.9 1.5-.3-1-.5-1.9-.7-2.9-1 .3-1.9.5-3 .7.2.9.4 1.8.7 2.8-1 .3-1.9.5-2.9.7.7 3 1.5 5.9 2.2 8.9-1.1.3-2 .5-3 .7.5 2 1 3.9 1.5 5.9.9-.2 1.8-.4 2.9-.7-.2-.9-.4-1.8-.7-2.8 1-.3 1.9-.5 2.9-.7.2.9.4 1.8.7 2.8 1.1-.3 2-.5 3-.7-.2-.9-.4-1.8-.7-2.8 1-.3 1.9-.5 3-.7.2.9.4 1.8.7 2.8 1-.3 1.9-.5 2.9-.7-.2-.9-.4-1.8-.7-2.8 1.1-.3 2-.5 3-.7.2.9.4 1.8.7 2.9 2.1-.5 4-1 6-1.5v.1c-.5-1.9-1-3.9-1.5-5.9 1-.3 2-.5 3-.7-.3-1.1-.5-2-.7-3-1.9.5-3.8.9-5.7 1.4-.5-2-1-3.9-1.5-6 .9-.2 1.9-.5 2.9-.7v.1c-.2-1-.5-1.9-.8-3-1.1.3-2 .5-2.8.7-.3-1.1-.5-2-.7-2.9 2-.5 3.9-1 5.9-1.5-.3-1-.5-2-.8-3h.1c-2 .5-3.9 1-5.9 1.5-.3-1.1-.5-2-.8-3.1 1-.2 1.9-.5 2.9-.7-.7-1.2-1-2.1-1.1-3M107.1 88.4c-1.7-7-3.4-13.8-5.1-20.6 6.9-1.7 13.8-3.4 20.6-5.1 1.7 6.9 3.4 13.7 5.1 20.6-6.9 1.7-13.8 3.4-20.6 5.1m16.9-7.3c-1.2-4.9-2.4-9.7-3.6-14.7-4.8 1.2-9.7 2.4-14.7 3.6 1.2 4.8 2.4 9.7 3.6 14.7 5-1.2 9.8-2.4 14.7-3.6M65.4 98.7c-1.7-6.9-3.4-13.8-5.1-20.6 7-1.7 13.8-3.4 20.7-5.1 1.7 6.9 3.4 13.8 5.1 20.6l-20.7 5.1m13.3-22c-4.9 1.2-9.7 2.4-14.7 3.6 1.2 4.8 2.4 9.7 3.6 14.7 4.8-1.2 9.7-2.4 14.7-3.6-1.1-5-2.3-9.8-3.6-14.7M117.4 130c-1.7-6.9-3.4-13.8-5.1-20.6l20.7-5.1c1.7 6.9 3.4 13.7 5.1 20.6-7 1.8-13.9 3.5-20.7 5.1zm16.9-7.3c-1.2-4.9-2.4-9.7-3.6-14.7-4.8 1.2-9.7 2.4-14.7 3.6l3.6 14.7c4.9-1.1 9.8-2.3 14.7-3.6z" class="st2"/>
    <path d="M111.5 93.8c-.2-.9-.5-1.9-.7-3-2 .5-4 1-5.9 1.5v-.1c.2.9.5 1.9.7 3-1 .3-1.9.5-3 .7.3 1.1.5 2 .7 2.9-1 .3-1.9.5-2.9.7-.5-1.9-.9-3.8-1.4-5.8-3 .8-5.9 1.5-9 2.2.2 1 .5 1.9.7 2.9h-.1c1-.2 1.9-.5 3-.7.5 2.1 1 4.1 1.5 6H95c2-.5 3.9-1 6-1.5.3 1.1.5 2 .7 3 1.1-.3 2-.5 3-.7v.1c-.2-1-.5-1.9-.7-3 1.1-.3 2.1-.5 3-.7v.1c-.2-1-.5-1.9-.7-3 1.1-.3 2.1-.5 3-.7-.2-1-.5-1.9-.7-3 1-.5 2-.8 2.9-.9" class="st2"/>
    <path d="M104.8 92.3c-1-3.9-1.9-7.8-2.9-11.8-3.9 1-7.8 1.9-11.9 2.9-.3-1.1-.5-2.1-.8-3h.1c-.9.2-1.9.5-2.9.7.5 1.9.9 3.8 1.4 5.8 1.9-.5 3.8-.9 5.8-1.4.5 2 1 3.9 1.5 5.9 1-.3 1.9-.5 3-.7-.2-.9-.4-1.8-.7-2.8 1-.3 1.9-.5 2.9-.7.5 1.9.9 3.8 1.5 5.9 1.1-.4 2-.7 3-.8M94.3 113.7c.2.9.5 1.9.7 3 2-.5 3.9-1 5.9-1.5.3 1 .5 1.9.7 2.9 2-.5 3.9-1 6-1.5-.2-.9-.5-1.9-.7-2.9-1 .2-1.9.5-2.9.7-.3-1.1-.5-2-.7-2.9 1-.2 1.9-.5 2.9-.7.3 1 .5 2 .7 2.9.9-.2 1.9-.5 3-.7-.8-3.1-1.5-6-2.2-9h.1c-1 .2-2 .5-3 .7v-.1c.2 1 .5 1.9.7 3-2.1.5-4.1 1-6 1.5.2 1 .5 1.9.7 3-2 .7-4 1.2-5.9 1.6zM73.5 106.3c-.2-.9-.5-1.9-.7-3 1-.3 1.9-.5 2.9-.7-.3-1-.5-1.9-.7-2.9-1.9.5-3.8.9-5.8 1.4.2.9.4 1.8.7 2.8-1.1.3-2 .5-3 .7.7 3 1.5 5.9 2.2 8.8 1.9-.5 3.8-.9 5.9-1.5-.2-.9-.5-1.9-.7-2.9h.1c-1 .2-1.9.5-2.9.7-.3-1.1-.5-2-.7-3 .9 0 1.8-.2 2.7-.4M98.7 131.6c1.9-.5 3.8-1 5.9-1.5.2 1 .5 1.9.7 2.9 1.1-.3 2-.5 3-.7-.5-2-1-3.9-1.5-5.9h.1c-1 .2-1.9.5-3 .7-.3-1.1-.5-2.1-.7-3h.1c-.9.2-1.8.5-2.9.7.2.9.5 1.8.7 2.9-1.1.3-2.1.6-3.1.9v-.1c.3 1.2.5 2.2.7 3.1zM132.2 101.1c-.5-2-1-3.8-1.4-5.8-2.9.7-5.8 1.4-8.7 2.2.5 1.9.9 3.8 1.4 5.8.9-.2 1.8-.4 2.8-.7-.2-.9-.4-1.8-.7-2.8 1-.3 1.9-.5 2.9-.7.2.9.4 1.8.7 2.8 1.1-.3 2-.5 3-.8zM128.5 86.4c-2 .5-3.8.9-5.8 1.4.5 1.9.9 3.8 1.4 5.8 1.9-.5 3.8-.9 5.8-1.4-.4-1.9-.9-3.8-1.4-5.8zM88.5 77.3c.3 1 .5 2 .8 3.1h-.1c1.9-.5 3.8-.9 5.8-1.4-.8-3-1.5-5.9-2.2-8.9-.9.2-1.8.4-2.8.7.5 1.9.9 3.8 1.5 5.9-1.1.2-2.1.4-3 .6M110 125.6c.5 2 1 3.9 1.5 5.9.9-.2 1.8-.4 2.8-.7-.5-1.9-.9-3.8-1.5-5.9-.9.3-1.9.5-2.8.7zM88.4 77.3c-.5-1.9-1-3.8-1.5-5.9-1 .2-1.9.5-2.9.7.5 1.9.9 3.8 1.4 5.8 1.1-.1 2.1-.4 3-.6M99.5 71.5c-1 .2-1.9.5-2.8.7.5 1.9.9 3.8 1.4 5.8.9-.2 1.8-.4 2.8-.7-.4-1.9-.9-3.8-1.4-5.8M117.4 92.3l-6 1.5c.2 1 .5 2 .7 3h-.1c1.9-.5 3.8-1 5.9-1.5 0-1.1-.3-2.1-.5-3zM109.1 122.7c1-.2 1.9-.5 3-.7-.2-.9-.4-1.8-.7-2.8-.9.2-1.8.4-2.9.7.2.9.4 1.8.6 2.8z" class="st2"/>
    <path d="M106.2 123.5c-.2-.9-.5-1.9-.7-2.9-1 .2-1.9.5-2.9.7.2 1 .5 1.9.7 2.9h-.1c1-.3 2-.5 3-.7z" class="st2"/>
    <path d="M106.9 126.4c1-.3 2-.5 3.1-.8v.1l-.9-3h.1c-1 .3-2 .5-3 .8v-.1c.3 1 .5 2 .7 3zM78.8 139.7c1-.2 1.8-.4 2.7-.7-.2-.9-.5-1.8-.7-2.8-.9.2-1.8.4-2.7.7.2.9.4 1.9.7 2.8M98.8 131.6c-.9.2-1.9.5-2.9.7.2 1 .5 1.9.7 2.9.9-.2 1.8-.4 2.9-.7-.3-1-.5-1.9-.7-2.9zM93.4 136c-.2-1-.5-1.9-.7-2.8-.9.2-1.8.4-2.8.7.2.9.4 1.8.7 2.8.9-.2 1.8-.5 2.8-.7zM87.5 137.5c-.2-1-.5-1.9-.7-2.8-.9.2-1.8.4-2.8.7.2.9.4 1.8.7 2.8.9-.3 1.8-.5 2.8-.7M110.7 103.4c.2.9.5 1.9.7 2.9 1-.2 1.9-.5 2.9-.7-.2-.9-.4-1.8-.7-2.8-1 .1-1.9.4-2.9.6zM110.7 103.4c-.3-1-.5-2-.8-3h.1c-1 .2-2 .5-3 .7v-.1c.2 1 .5 2 .7 3h-.1c1.1-.1 2.1-.4 3.1-.6zM109.9 100.4c.9-.2 1.9-.5 3-.7-.3-1-.5-2-.7-3h.1c-1 .2-2 .5-3 .7v-.1c.2 1.1.4 2.1.6 3.1zM117.4 92.2c.9-.2 1.9-.5 2.9-.7-.2-1-.5-1.9-.7-2.9-.9.2-1.8.4-2.9.7.3 1 .5 2 .7 2.9zM89.3 92.9c1-.2 1.8-.5 2.8-.7-.2-.9-.4-1.8-.7-2.8-.9.2-1.8.4-2.8.7.2.8.4 1.7.7 2.8M99.6 109.3c-.2-.9-.5-1.9-.7-3-1.1.3-2 .5-3 .7.2.9.5 1.9.7 3 1-.2 2-.4 3-.7zM111.6 81c3-.7 5.8-1.4 8.7-2.2-.7-2.9-1.4-5.8-2.2-8.7-2.9.7-5.7 1.4-8.7 2.2.7 2.8 1.4 5.7 2.2 8.7zM78.7 89.1c-.7-2.9-1.4-5.8-2.2-8.7-2.9.7-5.8 1.4-8.8 2.2.7 2.9 1.4 5.8 2.2 8.7 2.9-.8 5.9-1.5 8.8-2.2M130.7 120.4c-.7-3-1.4-5.8-2.2-8.7-2.9.7-5.8 1.4-8.7 2.2.7 2.9 1.4 5.8 2.2 8.7 2.8-.7 5.7-1.4 8.7-2.2zM112.5 19.1c.3 1.2 1.5 1.9 2.6 1.6 1.2-.3 1.9-1.5 1.6-2.6-.3-1.2-1.5-1.9-2.6-1.6-1.2.3-1.9 1.4-1.6 2.6" class="st2"/>
    <path d="M112.5 19.1l-.7.2c.3 1.3 1.5 2.1 2.7 2.1.2 0 .5 0 .7-.1 1.3-.3 2.1-1.5 2.1-2.7 0-.2 0-.5-.1-.7-.3-1.3-1.5-2.2-2.7-2.1-.2 0-.5 0-.7.1-1.3.3-2.1 1.5-2.1 2.7 0 .2 0 .5.1.7l.7-.2.7-.2v-.4c0-.7.4-1.3 1.1-1.4h.4c.7 0 1.3.4 1.4 1.1v.4c0 .7-.4 1.3-1.1 1.4h-.4c-.7 0-1.3-.4-1.4-1.1l-.7.2" class="st0"/>
    <path fill="#d5ebf6" d="M113.3 185.3l10.2-2.5"/>
    <path fill="#2f54a1" d="M113.5 186l10.2-2.5c.4-.1.6-.5.5-.8-.1-.4-.5-.6-.8-.5l-10.2 2.5c-.4.1-.6.5-.5.8.1.3.4.6.8.5"/>
    <path d="M36 49.8l2.7 10.8c.1.5.6.8 1.1.7s.8-.6.7-1.1l-2.7-10.8c-.1-.5-.6-.8-1.1-.7s-.8.6-.7 1.1M39.3 63.1L42 74c.1.5.6.8 1.1.7s.8-.6.7-1.1l-2.7-10.8c-.1-.6-.6-.9-1.1-.8s-.8.6-.7 1.1" class="st0"/>
    <path d="M86.1 119c-2.9.7-5.8 1.4-8.8 2.2.5 2 1 3.9 1.4 5.8 3.9-1 7.8-1.9 11.7-2.9-.2-.9-.4-1.8-.7-2.8-.9.2-1.8.4-2.9.7-.2-1.1-.4-2.1-.7-3m6.8-4.9c-.5.1-1 .2-1.4.4.3 1 .5 2 .7 2.9l.7-3.3m1.4-6.6c-1.4.3-2.8.7-4.3 1.1.2.9.5 1.8.7 2.9.9-.2 1.8-.4 2.8-.7v.1l.8-3.4m-9-4.1c-2 .5-3.9 1-5.8 1.4.2.9.5 1.8.7 2.9 1.9-.5 3.8-1 5.8-1.4-.2-1-.4-1.9-.7-2.9m-6.5 36.3c-.2-1-.5-1.9-.7-2.8 1-.2 1.9-.5 2.7-.7.3 1 .5 1.9.7 2.8-.9.3-1.8.5-2.7.7m5.9-1.5c-.3-1-.5-1.9-.7-2.8 1-.2 1.9-.5 2.8-.7.2.9.5 1.8.7 2.8-1 .2-1.9.4-2.8.7m4.6-45.3c-.3-1-.5-1.9-.7-2.8 1-.3 1.9-.5 2.8-.7.2 1 .5 1.9.7 2.8-1 .2-1.9.4-2.8.7m-23.9 5.8c-1.7-6.9-3.4-13.8-5.1-20.6 7-1.7 13.8-3.4 20.7-5.1 1.7 6.9 3.4 13.8 5.1 20.6l-20.7 5.1m23.1-21.4c1-.2 1.9-.5 3-.7-.5-2.1-1-4-1.5-5.9 1-.3 1.9-.5 2.8-.7.7 3 1.4 5.8 2.2 8.9-2 .5-3.9 1-5.8 1.4h-.1c-.1-1-.4-2-.6-3-.1 0-.1 0 0 0-1 .2-2 .4-2.9.7-.5-2.1-1-4-1.4-5.8 1-.2 1.9-.5 2.9-.7.4 2 .9 3.9 1.4 5.8-.1 0 0 0 0 0m25.3-62.7L45.9 31.5c-3.7.9-6 4.7-5.1 8.4l36.6 147.6L90 127.6c-.6.1-1.1.3-1.7.4.3 1 .5 1.9.7 2.8-1 .3-1.9.5-2.9.7-.2-1-.5-1.9-.7-2.8-1.1.3-2 .5-3 .7.2 1 .5 1.9.7 2.8-1 .3-1.9.5-3 .7-.2-1-.5-1.9-.7-2.8-1 .3-1.9.5-2.9.7.2 1 .5 1.9.7 2.8-1.1.3-2 .5-2.9.7-.5-2-1-3.8-1.5-5.9 1-.2 1.9-.5 3-.7-.8-3.1-1.5-5.9-2.2-8.9 1-.3 1.9-.5 2.9-.7-.3-1-.5-1.9-.7-2.8 1.1-.3 2-.5 3-.7.2 1 .5 1.9.7 2.9 2-.5 3.9-1 5.9-1.5.3 1.1.5 2 .7 2.9 1-.2 1.9-.5 2.8-.7-.8-3.1-1.5-6-2.2-9-3 .7-5.8 1.4-8.8 2.2-.3-1-.5-1.9-.7-2.9-1.1.3-2 .5-2.9.7.2 1 .5 1.9.7 2.8-2.1.5-4 1-5.9 1.5-.7-3-1.4-5.8-2.2-8.8 1-.2 1.9-.5 3-.7-.3-1.1-.5-2-.7-2.8 2.1-.5 4-1 5.8-1.4.2 1 .5 1.9.7 2.9-1 .2-1.9.5-2.9.7.3 1.1.5 2 .7 2.9v.1c-.9.2-1.8.5-2.9.7.2 1 .5 1.9.7 3 .9-.2 1.9-.5 2.9-.7-.2-1-.5-2-.7-2.9v-.1c2-.5 3.9-1 5.9-1.5-.5-1.9-1-3.9-1.4-5.8 3.1-.8 6-1.5 9-2.2.2 1 .5 1.9.7 2.9 1.1-.3 2-.5 2.9-.7h.1c.2.9.5 1.8.7 2.9-1 .2-1.9.5-2.9.7.3 1.1.5 2 .8 3.1 1.9-.5 3.8-.9 5.7-1.4l.1-.3c-.5-1.8-.9-3.7-1.4-5.7-1.1.3-2 .5-3 .7h-.1c-.2-1-.5-1.9-.7-2.9 2.4-.6 4.7-1.2 7.1-1.8l.8-3.6c-1 .2-1.8.5-2.8.7-.5-2-1-3.8-1.5-5.9-2 .5-3.9 1-5.8 1.4-.5-2.1-1-4-1.4-5.8 1-.3 2-.5 2.9-.7h.1c.2.9.5 1.9.7 3 3.4-.8 6.6-1.6 9.9-2.5l.7-3.6c-.9.2-1.7.4-2.5.6-.5-2-1-3.8-1.4-5.8.9-.2 1.8-.4 2.8-.7.4 1.7.8 3.4 1.2 5l1.6-7.4c-.1-.5-.2-.9-.3-1.4.2-.1.4-.1.7-.2l9.9-47c-.3-.3-.6-.8-.7-1.3-.1-.2-.1-.5-.1-.7 0-1.1.7-2.2 1.8-2.6l.2-1.3" class="st443"/>
    <path d="M74.3 109.2s-.1 0 0 0c0 .1 0 .1 0 0m16.3-10.3s.1 0 0 0M78.8 127c-.5-2-1-3.9-1.4-5.8 3-.7 5.9-1.5 8.8-2.2.2 1 .5 1.9.8 3 1.1-.3 2-.5 2.9-.7.3 1 .5 1.9.7 2.8-4.1 1-7.9 1.9-11.8 2.9m.7-22.2c1.9-.5 3.9-1 5.8-1.4.3 1.1.5 2 .7 2.9-2 .5-3.9 1-5.8 1.4-.2-1-.5-2-.7-2.9m7.5-8.1c-3 .8-5.9 1.5-9 2.2.5 2 1 3.9 1.4 5.8-2 .5-3.9 1-5.9 1.5.2 1 .5 2 .7 2.9.9-.2 1.8-.5 2.9-.7.3 1 .5 1.9.7 2.9 3-.7 5.9-1.5 8.8-2.2.7 3 1.5 5.9 2.2 9-.9.2-1.9.5-2.8.7-.2-.9-.5-1.8-.7-2.9-2 .5-3.9 1-5.9 1.5-.3-1-.5-1.9-.7-2.9-1 .3-1.9.5-3 .7.2.9.4 1.8.7 2.8-1 .3-1.9.5-2.9.7.7 3 1.5 5.9 2.2 8.9-1.1.3-2 .5-3 .7.5 2 1 3.9 1.5 5.9.9-.2 1.8-.4 2.9-.7-.2-.9-.4-1.8-.7-2.8 1-.3 1.9-.5 2.9-.7.2.9.4 1.8.7 2.8 1.1-.3 2-.5 3-.7-.2-.9-.4-1.8-.7-2.8 1-.3 1.9-.5 3-.7.2.9.4 1.8.7 2.8 1-.3 1.9-.5 2.9-.7-.2-.9-.4-1.8-.7-2.8.6-.2 1.2-.3 1.7-.4l2.1-10.2c-.2-.9-.5-1.9-.7-2.9.5-.1.9-.2 1.4-.4l.7-3.3v-.1c-1.1.3-2 .5-2.8.7-.3-1.1-.5-2-.7-2.9 1.5-.4 2.9-.7 4.3-1.1l.7-3.3c-1.9.5-3.8.9-5.7 1.4-.3-1.1-.5-2-.8-3.1 1-.2 1.9-.5 2.9-.7-.3-1.1-.5-2-.7-2.9-.9.2-1.8.5-2.9.7-.2-.8-.5-1.7-.7-2.7" class="st2"/>
    <path d="M98.5 87.6c-.4.1-.7.2-1.1.3.2.8.4 1.6.6 2.3l.5-2.6m-28.6 3.7c-.7-2.9-1.4-5.8-2.2-8.7 3-.7 5.9-1.5 8.8-2.2.7 2.9 1.4 5.7 2.2 8.7-2.9.7-5.9 1.4-8.8 2.2m8.8-14.6c-4.9 1.2-9.7 2.4-14.7 3.6 1.2 4.8 2.4 9.7 3.6 14.7 4.8-1.2 9.7-2.4 14.7-3.6-1.1-5-2.3-9.8-3.6-14.7m33.1-57.4" class="st443"/>
    <path d="M102.7 67.6c-.2.1-.4.1-.7.2.1.5.2.9.3 1.4l.4-1.6M67.7 95c-1.2-5-2.4-9.9-3.6-14.7 5-1.2 9.8-2.4 14.7-3.6l3.6 14.7c-5 1.2-9.9 2.4-14.7 3.6M81 73c-6.8 1.7-13.7 3.4-20.7 5.1 1.7 6.8 3.4 13.7 5.1 20.6 6.9-1.7 13.7-3.4 20.7-5.1-1.7-6.9-3.4-13.7-5.1-20.6M90.7 98.9c-.1 0-.1 0 0 0m6.4-4.7c-2.4.6-4.7 1.2-7.1 1.8.2.9.5 1.9.7 2.9 1-.2 1.9-.5 3-.7.5 2 1 3.9 1.4 5.7l2-9.7M89.2 80.4c-.9.2-1.9.5-2.9.7.5 1.9.9 3.8 1.4 5.8 1.9-.5 3.8-.9 5.8-1.4.5 2 1 3.9 1.5 5.9.9-.2 1.8-.4 2.8-.7l.1-.5c-.2-.7-.4-1.5-.6-2.3.4-.1.8-.2 1.1-.3l1.4-6.7c-3.2.8-6.5 1.6-9.9 2.5-.2-1.1-.4-2.1-.7-3m0-.1s0 .1 0 0c.1.1.1.1 0 0M74.2 109.3c.1 0 .1 0 0 0m.8-9.6c-1.9.5-3.8.9-5.8 1.4.2.9.4 1.8.7 2.8-1.1.3-2 .5-3 .7.7 3 1.5 5.9 2.2 8.8 1.9-.5 3.8-.9 5.9-1.5-.2-.9-.5-1.9-.7-2.8-1 .2-1.9.5-2.9.7-.3-1.1-.5-2-.7-3 1-.3 1.9-.5 2.9-.7-.2-.9-.5-1.8-.7-2.9 1-.3 1.9-.5 2.9-.7-.4-.9-.6-1.8-.8-2.8M89.3 80.3s-.1 0 0 0M92.9 70c-.9.2-1.8.4-2.8.7.5 1.9.9 3.8 1.5 5.9-1.1.3-2.1.5-3 .7.3 1 .5 2 .8 3 1.9-.5 3.8-.9 5.8-1.4-.9-3.1-1.6-6-2.3-8.9M88.5 77.3s-.1 0 0 0c-.1 0-.1 0 0 0M87 71.5c-1 .2-1.9.5-2.9.7.5 1.9.9 3.8 1.4 5.8 1-.2 1.9-.5 2.9-.7-.4-1.9-.9-3.8-1.4-5.8M99.5 71.5c-1 .2-1.9.5-2.8.7.5 1.9.9 3.8 1.4 5.8.8-.2 1.6-.4 2.5-.6l.2-.8c-.4-1.7-.8-3.4-1.3-5.1M80.8 136.2c-.9.2-1.8.4-2.7.7.2 1 .5 1.9.7 2.8 1-.2 1.8-.4 2.7-.7-.2-.9-.4-1.8-.7-2.8M86.8 134.7c-.9.2-1.8.4-2.8.7.2.9.4 1.8.7 2.8.9-.2 1.8-.4 2.8-.7-.2-1-.5-1.9-.7-2.8M91.4 89.4c-.9.2-1.8.4-2.8.7.2.9.4 1.8.7 2.8 1-.2 1.8-.5 2.8-.7-.3-1-.5-1.8-.7-2.8" class="st2"/>
    <path d="M76.5 80.4c-2.9.7-5.8 1.4-8.8 2.2.7 2.9 1.4 5.8 2.2 8.7 2.9-.7 5.9-1.5 8.8-2.2-.7-3-1.4-5.8-2.2-8.7" class="st2"/>
    <path d="M112.89999999999999 19l-.4.1-.7.2c.1.5.4 1 .7 1.3l.4-1.6m.6-3.1c-1.1.4-1.8 1.5-1.8 2.6 0 .2 0 .5.1.7l.7-.2.4-.1.6-3" class="st443"/>
    <path d="M94.5 23L68 29.6c-.4.1-.7.5-.6 1 .1.4.5.7 1 .6l26.5-6.6c.4-.1.7-.5.6-1-.1-.4-.5-.7-1-.6" class="st0"/>
  </g>
</svg>
