<?xml version="1.0" encoding="UTF-8"?><svg xmlns="http://www.w3.org/2000/svg" width="500" height="500" viewBox="0 0 500 500"><defs><style>.k{fill:#fff;}.l{stroke:#000;stroke-width:4.4588px;}.l,.m,.n,.o,.p,.q,.r,.s{fill:none;stroke-linecap:round;}.l,.m,.n,.s{stroke-miterlimit:10;}.m{stroke-width:18.2769px;}.m,.s{stroke:#fff;}.n{stroke-width:2.7906px;}.n,.p,.r{stroke:#d2d2d2;}.o{stroke:#0aae95;}.o,.p{stroke-width:2.6891px;}.o,.p,.q,.r{stroke-linejoin:round;}.q{stroke:#723bbb;}.q,.r{stroke-width:2.6785px;}.s{stroke-width:11.8208px;}</style></defs><g id="c"><g><g><rect class="k" x="117.0452" y="92.5293" width="150.1739" height="269.064" rx="22.7148" ry="22.7148" transform="translate(-22.1085 20.7301) rotate(-5.8406)"/><rect class="s" x="117.0452" y="92.5293" width="150.1739" height="269.064" rx="22.7148" ry="22.7148" transform="translate(-22.1085 20.7301) rotate(-5.8406)"/><rect class="l" x="117.0452" y="92.5293" width="150.1739" height="269.064" rx="22.7148" ry="22.7148" transform="translate(-22.1085 20.7301) rotate(-5.8406)"/></g><g><rect class="k" x="172.0189" y="217.6814" width="269.064" height="150.1739" rx="22.7148" ry="22.7148" transform="translate(-29.419 551.2465) rotate(-81.2554)"/><rect class="s" x="172.0189" y="217.6814" width="269.064" height="150.1739" rx="22.7148" ry="22.7148" transform="translate(-29.419 551.2465) rotate(-81.2554)"/><rect class="l" x="172.0189" y="217.6814" width="269.064" height="150.1739" rx="22.7148" ry="22.7148" transform="translate(-29.419 551.2465) rotate(-81.2554)"/></g><g><rect class="k" x="189.5092" y="216.3192" width="89.4996" height="89.1416" rx="44.5708" ry="44.5708"/><rect class="m" x="189.5092" y="216.3192" width="89.4996" height="89.1416" rx="44.5708" ry="44.5708"/><rect class="n" x="189.5092" y="216.3192" width="89.4996" height="89.1416" rx="44.5708" ry="44.5708"/></g><g><path class="r" d="M190.5542,171.547l-.0002-.0021,19.2587,5.4361c.3623,2.9187,1.8157,8.8666,2.3781,15.0333,.1692,1.8505,.2583,3.7205,.2139,5.5342-.0445,1.8138-.2224,3.5723-.5876,5.198,0,0-2.3444,13.3456-15.9735,20.105"/><path class="q" d="M188.7614,223.5472l.0004,.0041c-14.6576-3.8621-19.6577-16.4013-19.6577-16.4013-.6892-1.5171-1.2222-3.2022-1.6349-4.9689-.4136-1.7665-.7078-3.6154-.9197-5.4614-.7076-6.1517-.4991-12.271-.7392-15.2022l17.6708-9.1951v.0011s1.0094,9.8269,1.0094,9.8269c.217,2.1048,2.152,4.1478,4.2568,3.9308l3.6603-.3774c3.1235-.322,5.9166,1.949,6.2387,5.0725h0c.322,3.1235-1.949,5.9167-5.0725,6.2387l-7.8612,.8105c-3.1235,.322-5.3945,3.1152-5.0725,6.2387h0c.322,3.1235,3.1152,5.3946,6.2387,5.0725l3.6603-.3774c2.1048-.217,3.987,1.3134,4.204,3.4181l1.1005,10.6739,.0015-.0007"/></g><g><path class="p" d="M318.9041,241.0448l.0003-.0021,17.3048,10.2058c-.3953,2.9261-.5064,9.0722-1.5386,15.2026-.3093,1.8397-.7013,3.6779-1.2086,5.4273-.5073,1.7494-1.1301,3.411-1.9007,4.8958,0,0-5.6913,12.3558-20.6519,15.4297"/><path class="o" d="M303.856,291.067l-.0006,.0041c-13.241-7.5003-14.886-20.9528-14.886-20.9528-.2808-1.6491-.367-3.4215-.3156-5.2421,.0506-1.8208,.2381-3.6909,.5048-5.5372,.8874-6.1531,2.6558-12.0402,3.1729-14.9472l19.5076-4.4042-.0002,.0011-1.5351,9.7981c-.328,2.0988,1.0277,4.5774,3.1265,4.9054l3.65,.5704c3.1147,.4867,5.245,3.4062,4.7583,6.5209h0c-.4867,3.1147-3.4062,5.245-6.5209,4.7583l-7.8389-1.225c-3.1147-.4867-6.0341,1.6436-6.5209,4.7583h0c-.4867,3.1147,1.6436,6.0342,4.7583,6.5209l3.65,.5704c2.0988,.328,3.5344,2.2953,3.2064,4.3941l-1.6633,10.6437,.0017-.0003"/></g></g></g><g id="g"><g id="h"><g><path d="M208.7802,235.4061v20.1899h20.02v-20.1899h-20.02Zm1.79,2.8901s0-.0103,.01-.02h.02c-.01,.0098-.02,.0098-.03,.02Zm14.75,13.7h-13.75v-13.72h13.75v13.72Z"/><path d="M239.4401,235.5262v20.0098h20.1902v-20.0098h-20.1902Zm17.3,16.46h-13.75v-13.73h13.75v13.73Z"/><path d="M252.5891,259.2534v3.2685h-9.5967v6.9804h-3.4372v-10.2489h13.0339Z"/><path d="M246.4406,269.6154v-3.2787h10.4015v-7.0761h2.6181v10.3549h-13.0196Z"/><path d="M232.5181,242.4484h3.2647v13.0202h-3.2647v-13.0202Z"/><path d="M228.7939,262.5794h-13.0246v-3.4274c4.216-.0202,8.5594-.0032,13.0246-.0107v3.4382Z"/><path d="M235.781,279.33h-3.2611v-13.204h3.2611v13.204Z"/><path d="M232.4639,262.5181v-3.2596h3.2542v3.2596h-3.2542Z"/><path d="M256.2719,276.5124v-3.2596h3.2542v3.2596h-3.2542Z"/><polygon points="259.5306 279.6812 259.5306 286.2012 239.5106 286.2012 239.5106 279.6812 242.7606 279.6812 242.7606 282.9412 246.4408 282.9412 246.4408 279.6812 252.5907 279.6812 252.5907 282.9412 256.2709 282.9412 256.2709 279.6812 259.5306 279.6812"/><rect x="232.4608" y="282.9412" width="3.26" height="3.26"/><path d="M208.7806,286.3013h20.02v-20.1799h-20.02v20.1799Zm2.6902-16.5801h13.8899v13.72h-13.8999c0-3.8398,0-9.8101,.01-13.72Z"/><path d="M239.5552,276.5124v-3.2596h13.0339v3.2596h-13.0339Z"/><path d="M208.7708,262.5181v-3.2596h3.2542v3.2596h-3.2542Z"/><path d="M232.4639,238.6648v-3.2596h3.2542v3.2596h-3.2542Z"/><path d="M215.7658,242.4446h6.05v6.1648c-1.8856,.1385-3.9101,.023-6.05,.0707v-6.2355Z"/><path d="M246.4297,248.5572v-6.0572h6.0476v6.0572h-6.0476Z"/><path d="M215.767,273.1628h6.0476v6.1954c-1.8843,.0814-3.907-.0007-6.0476,.0436v-6.2389Z"/></g></g></g></svg>