<svg xmlns="http://www.w3.org/2000/svg" xmlns:xlink="http://www.w3.org/1999/xlink" width="512" height="512" viewBox="0 0 512 512"><defs><clipPath id="f7748b3c-2856-403a-9875-3ceca3ba3cde"><path d="M459.66,121.83,350.17,94.7a11.18,11.18,0,0,0-13.54,8.16L280.24,330.35a6.78,6.78,0,0,0,4.95,8.21l118,29.26a6.78,6.78,0,0,0,8.21-4.95l56.39-227.49A11.19,11.19,0,0,0,459.66,121.83Z" style="fill:#fff"/></clipPath><clipPath id="b6c0a0d5-b043-4efd-a8ef-08f0fd46e001"><path d="M222.65,118.24,92.7,86a13.27,13.27,0,0,0-16.07,9.69L9.7,365.73a8,8,0,0,0,5.87,9.74l140.1,34.72a8,8,0,0,0,9.74-5.87l66.92-270A13.26,13.26,0,0,0,222.65,118.24Z" style="fill:#ececec"/></clipPath></defs><g style="isolation:isolate"><g id="b8ba7941-49a0-421e-89c7-24fad28c44fb" data-name="1"><circle cx="256" cy="256" r="229.32" style="fill:#00e8cc"/></g><g id="a356d1ab-d28e-4c5e-8d99-44dddcb8ee72" data-name="3"><path d="M54.36,296.32l0,0a.07.07,0,0,1,0,0Z" style="fill:#f2aa2f"/><path d="M242.05,318l0,0a.07.07,0,0,1,0,0Z" style="fill:#f2aa2f"/><g style="opacity:0.4;mix-blend-mode:multiply"><path d="M491.65,155.05l-116.18-28.8a11.56,11.56,0,0,0-14,8.43L303,370.78a11.12,11.12,0,0,0,8.11,13.46l117,29a13.85,13.85,0,0,0,16.78-10.11l57.2-230.78A14.28,14.28,0,0,0,491.65,155.05Z" style="fill:#d8caff"/></g><path d="M465.15,120.55,349,91.75a11.54,11.54,0,0,0-14,8.43L276.47,336.29a11.1,11.1,0,0,0,8.1,13.45l117,29a13.86,13.86,0,0,0,16.78-10.11l57.2-230.79A14.28,14.28,0,0,0,465.15,120.55Z" style="fill:#fff"/><path d="M459.66,121.83,350.17,94.7a11.18,11.18,0,0,0-13.54,8.16L280.24,330.35a6.78,6.78,0,0,0,4.95,8.21l118,29.26a6.78,6.78,0,0,0,8.21-4.95l56.39-227.49A11.19,11.19,0,0,0,459.66,121.83Z" style="fill:#fff"/><g style="clip-path:url(#f7748b3c-2856-403a-9875-3ceca3ba3cde)"><rect x="296.25" y="98.47" width="165.11" height="265.17" transform="translate(66.71 -84.35) rotate(13.92)" style="fill:#50239f"/></g><path d="M386.67,227.72l4.55,1.13,1.11-4.49,13.88,3.44L404,236.87l-9.06-2.25-1.09,4.4,9,2.23,1.11-4.47,9.22,2.37-.05-.08-1.15,4.65.08-.05-4.57-1.13-1.12,4.54-13.64-3.38-3.42,13.81,4.43,1.1-1.17,4.72-4.5-1.11-1.08,4.35L405,271.05l2.23-9-13.64-3.39,1.13-4.56,9.14,2.26,1.1-4.46L409.6,253l-1.07,4.33,4.53,1.12-3.42,13.79,4.57,1.13L412,282.47l-4.41-1.1,1.06-4.28L404.09,276,403,280.28l-4.61-1.14,1-4.26-4.61-1.15L393.79,278l-4.54-1.13,1.07-4.3-4.61-1.15-1.12,4.48-9.21-2.29.06.09,2.27-9.17-4.56-1.13,1.14-4.62,8.85,2.19,2.3-9.3-4.43-1.1,0,.09,1.17-4.7,4.38,1.09,1.11-4.48-9-2.24,1.22-4.64-.08,0,9.06,2.24,1.17-4.7-4.41-1.09,1.12-4.54Z" style="fill:#fff"/><path d="M329.48,203.59l7.89-31.83,31.83,7.89-7.89,31.83Zm28.39,2.23,5.61-22.65-22.66-5.62-5.61,22.66Z" style="fill:#fff"/><path d="M393.72,219.55l7.89-31.81,31.85,7.89-7.88,31.81Zm5.72-3.49,22.66,5.62L427.71,199l-22.66-5.61Z" style="fill:#fff"/><path d="M313.55,267.82,321.43,236l31.92,7.91-7.89,31.81ZM342,270.06l5.62-22.67L325,241.78l-5.62,22.67Z" style="fill:#fff"/><path d="M354.62,219.77l1.13-4.58,9.17,2.27,0-.08-1.13,4.56,4.6,1.14-1.12,4.54,4.51,1.12,2.21-8.92,13.83,3.43-1.11,4.47.08-.05-4.65-1.15-2.29,9.24.08,0-9.28-2.3L369.47,238l-4.55-1.13.05.08,1.15-4.65-4.65-1.15,0,.07,1.15-4.65L358,225.42l.05.08,1.15-4.65-4.65-1.16Z" style="fill:#fff"/><path d="M364.92,217.46l4.53-18.26,18.28,4.53c.42-1.7.79-3.18,1.16-4.66l-.08.06,4.52,1.12-2.23,9L382.18,207l-2.25,9.05-4.61-1.14,1.06-4.29-4.54-1.12-2.24,9-4.72-1.18Z" style="fill:#fff"/><path d="M381,250.59l-1.14,4.57-9.06-2.24-1.11,4.46-9.3-2.3,1.1-4.44,4.48,1.11,1.09-4.4-4.41-1.09-1.11,4.46L357,249.59l3.43-13.84-.08.05L365,237l-.05-.08-1.14,4.59,9.25,2.29-1.15,4.65,9.17,2.28Z" style="fill:#fff"/><path d="M413.13,239.15l1.13-4.56-4.49-1.12,1.1-4.46,9,2.22-1.09,4.38,4.56,1.13-3.38,13.62-9-2.24,1.1-4.45-.08.05,4.46,1.11,1.16-4.66-4.47-1.1Z" style="fill:#fff"/><path d="M374.24,278.14l-9.11-2.26L364,280.36l-4.65-1.16,2.25-9.05-.09,0,4.66,1.16,1.15-4.66-.08.06,4.49,1.11-1.09,4.42,4.78,1.44-.06-.09c-.41,1.53-.81,3-1.23,4.56Z" style="fill:#fff"/><path d="M322.66,231.14l2.2-8.91,13.48,3.34-2.21,8.9-4.36-1.09,1.07-4.3L328.32,228l-1.07,4.32Z" style="fill:#fff"/><path d="M328.34,208.46l8.88,2.2-2.2,8.89-8.88-2.2Z" style="fill:#fff"/><path d="M390.05,194.4c-.41,1.57-.82,3.15-1.24,4.73l.08-.06-9-2.23,3.4-13.71,4.36,1.08-2.26,9.1,4.71,1.17Z" style="fill:#fff"/><path d="M356.88,268.89l-2.27,9.17L350.33,277l2.26-9.1,4.35,1.08Z" style="fill:#fff"/><path d="M390.1,194.48l2.24-9,4.42,1.09-2.23,9-4.47-1.11Z" style="fill:#fff"/><path d="M373,185.45l4.33,1.07-2.21,8.89-4.32-1.07Z" style="fill:#fff"/><path d="M345.38,217.49l9.24,2.28-.05-.08-1.15,4.65.08-.05L344.33,222l1.13-4.58Z" style="fill:#fff"/><path d="M358.26,264.34l-4.58-1.14,1.06-4.28,4.52,1.12c-.35,1.4-.71,2.88-1.08,4.36Z" style="fill:#fff"/><path d="M362.74,265.62l1.1-4.46,4.53,1.12-1.11,4.47.08-.06-4.65-1.15Z" style="fill:#fff"/><path d="M361.62,270.15l-4.73-1.26.05.08,1.32-4.63-.08.06,4.56,1.22-.05-.08-1.16,4.65Z" style="fill:#fff"/><path d="M405,290.63l-4.23-1.05,1.09-4.39,4.23,1.05Z" style="fill:#fff"/><path d="M374.15,278.19l4.47,1.1-1.09,4.41-4.4-1.09,1.11-4.47Z" style="fill:#fff"/><path d="M382.38,284.9l1.07-4.32,4.31,1.07L386.69,286Z" style="fill:#fff"/><path d="M391.56,287.18l1.07-4.32,4.31,1.06-1.07,4.33Z" style="fill:#fff"/><path d="M355.74,234.6l-1.11,4.46-4.4-1.1,1.09-4.39,4.47,1.11Z" style="fill:#fff"/><path d="M355.79,234.68c.38-1.55.77-3.1,1.16-4.66l-.08,0,4.65,1.15,0-.07-1.15,4.65.08-.05-4.66-1.15Z" style="fill:#fff"/><path d="M357,230l-4.59-1.13,1.14-4.6-.08.05,4.65,1.16-.05-.08-1.15,4.65Z" style="fill:#fff"/><path d="M345.46,217.44,341,216.33l1.09-4.41,4.4,1.09-1.11,4.48Z" style="fill:#fff"/><path d="M388.85,218.38l-4.3-1.06,1.06-4.31,4.3,1.06Z" style="fill:#fff"/><path d="M373,243.8l1.15-4.66,4.65,1.16L377.6,245Z" style="fill:#fff"/><path d="M354.41,200.1l-13.48-3.34,3.35-13.48,13.47,3.34Z" style="fill:#fff"/><path d="M405.13,212.57l3.32-13.4L422,202.54l-3.32,13.39Z" style="fill:#fff"/><path d="M325,260.93l3.34-13.48,13.48,3.34-3.34,13.48Z" style="fill:#fff"/><line x1="351.73" y1="360.95" x2="336" y2="357.05" style="fill:#d5ebf6;stroke:#2f54a1;stroke-linecap:round;stroke-linejoin:round;stroke-width:2.09565033650096px"/><line x1="469.58" y1="151.61" x2="465.44" y2="168.31" style="fill:none;stroke:#50239f;stroke-linecap:round;stroke-linejoin:round;stroke-width:2.8694363033893078px"/><line x1="464.47" y1="172.24" x2="460.33" y2="188.94" style="fill:none;stroke:#50239f;stroke-linecap:round;stroke-linejoin:round;stroke-width:2.8694363033893078px"/><path d="M407.06,364.31l56.42-227.63a10.69,10.69,0,0,0-7.8-13L351,97.78" style="fill:#fff;fill-opacity:0.24"/><line x1="387.39" y1="109.75" x2="421.78" y2="118.28" style="fill:#00e8cc;stroke:#50239f;stroke-linecap:round;stroke-linejoin:round;stroke-width:2.09565033650096px"/><circle cx="349.82" cy="103.86" r="3.32" style="fill:#fff;stroke:#50239f;stroke-linejoin:round;stroke-width:2.09565033650096px"/><g style="opacity:0.30000000000000004;mix-blend-mode:multiply"><path d="M411.89,101.49,318,78.22c-7.34-1.82-118.62,44-118.62,44L187.94,357.54a13.19,13.19,0,0,0,9.62,16l138.9,34.43a16.44,16.44,0,0,0,19.91-12L424.27,122A17,17,0,0,0,411.89,101.49Z" style="fill:#d8caff"/></g><path d="M229.17,116.71,91.27,82.54a13.69,13.69,0,0,0-16.59,10L5.22,372.77a13.19,13.19,0,0,0,9.62,16l138.9,34.43a16.45,16.45,0,0,0,19.92-12l67.89-273.91A17,17,0,0,0,229.17,116.71Z" style="fill:#ececec"/><path d="M222.65,118.24,92.7,86a13.27,13.27,0,0,0-16.07,9.69L9.7,365.73a8,8,0,0,0,5.87,9.74l140.1,34.72a8,8,0,0,0,9.74-5.87l66.92-270A13.26,13.26,0,0,0,222.65,118.24Z" style="fill:#ececec"/><g style="clip-path:url(#b6c0a0d5-b043-4efd-a8ef-08f0fd46e001)"><rect x="26.76" y="81.13" width="195.96" height="349.13" transform="translate(65.18 -22.5) rotate(13.92)" style="fill:#00e8cc"/><polyline points="147.61 257 167.17 261.71 191.06 167.96 171.59 162.88" style="fill:none;stroke:#fff;stroke-miterlimit:10;stroke-width:2.3234181434711543px"/><polyline points="113.12 147.62 94.05 142.64 69.69 238.25 88.86 242.87" style="fill:none;stroke:#fff;stroke-miterlimit:10;stroke-width:2.3234181434711543px"/></g><path d="M45.75,329.81a24.41,24.41,0,1,1,17.82,29.56,24.42,24.42,0,0,1-17.82-29.56" style="fill:none;stroke:#fff;stroke-linecap:round;stroke-linejoin:round;stroke-width:2.4221917327431366px"/><polygon points="63.33 318.27 61.72 324.76 68.21 326.37 66.61 332.82 73.1 334.43 74.7 327.98 81.19 329.59 82.8 323.1 63.33 318.27" style="fill:#fff"/><polygon points="52.03 336.06 58.52 337.67 55.36 350.43 61.85 352.03 66.61 332.82 60.12 331.22 61.72 324.76 55.23 323.15 52.03 336.06" style="fill:#fff"/><polygon points="81.19 329.59 79.59 336.04 73.1 334.43 68.34 353.64 74.83 355.25 77.99 342.5 84.48 344.11 87.69 331.19 81.19 329.59" style="fill:#fff"/><rect x="58.25" y="333.44" width="20.06" height="13.14" transform="translate(83.8 -6.44) rotate(13.92)" style="fill:#fff"/><line x1="110.32" y1="329.92" x2="154.9" y2="340.97" style="fill:none;stroke:#fff;stroke-linecap:round;stroke-linejoin:round;stroke-width:2.4221917327431366px"/><line x1="108.09" y1="338.91" x2="152.67" y2="349.96" style="fill:none;stroke:#fff;stroke-linecap:round;stroke-linejoin:round;stroke-width:2.4221917327431366px"/><line x1="105.86" y1="347.91" x2="128.15" y2="353.44" style="fill:none;stroke:#fff;stroke-linecap:round;stroke-linejoin:round;stroke-width:2.4221917327431366px"/><line x1="94.55" y1="402.04" x2="75.88" y2="397.41" style="fill:#d5ebf6;stroke:#2f54a1;stroke-linecap:round;stroke-linejoin:round;stroke-width:2.487290561208647px"/><line x1="234.43" y1="153.57" x2="229.52" y2="173.4" style="fill:none;stroke:#00e8cc;stroke-linecap:round;stroke-linejoin:round;stroke-width:3.405683528926041px"/><line x1="228.36" y1="178.06" x2="223.45" y2="197.89" style="fill:none;stroke:#00e8cc;stroke-linecap:round;stroke-linejoin:round;stroke-width:3.405683528926041px"/><path d="M160.22,406l67-270.18a12.67,12.67,0,0,0-9.26-15.36L93.68,89.69" style="fill:#fff;fill-opacity:0.24"/><line x1="263.02" y1="122.2" x2="307.74" y2="116.89" style="fill:none;stroke:#fff;stroke-linecap:round;stroke-linejoin:round;stroke-width:4.646836416196408px"/><line x1="233.03" y1="93.62" x2="268.87" y2="66.35" style="fill:none;stroke:#fff;stroke-linecap:round;stroke-linejoin:round;stroke-width:4.646836416196408px"/><line x1="253.57" y1="171.98" x2="293.43" y2="192.95" style="fill:none;stroke:#fff;stroke-linecap:round;stroke-linejoin:round;stroke-width:4.646836416196408px"/><line x1="136.88" y1="103.9" x2="177.69" y2="114.02" style="fill:#00e8cc;stroke:#2f54a1;stroke-linecap:round;stroke-linejoin:round;stroke-width:2.487290561208647px"/><circle cx="92.28" cy="96.9" r="3.93" style="fill:#fff;stroke:#2f54a1;stroke-linejoin:round;stroke-width:2.487290561208647px"/></g></g></svg>