<svg id="a9337002-8847-4e3e-bf88-c04b129a4ee3" data-name="Layer 1" xmlns="http://www.w3.org/2000/svg" width="248" height="96" viewBox="0 0 248 96"><g id="ae52d6a5-6316-40b0-a828-7f359af02911" data-name="g10"><g id="e1a3dfeb-5c92-48ee-8c6f-4cbc3319ae43" data-name="g12"><path id="a736b28c-679d-4b38-b5d6-73b7338ef101" data-name="path14" d="M54.75,56.36V54.87h4.54v1.91c0,3.66,2.68,5.72,6.6,5.72,3.77,0,6.35-2.16,6.35-5.77,0-9-16.72-6.25-16.72-18C55.52,33,59.13,29,65.79,29s10.47,3.81,10.47,9.59v2H71.72V38.26c0-3-2.32-4.9-5.93-4.9s-5.68,1.91-5.68,5.11c0,7.94,16.67,5.36,16.72,17.84,0,6.19-4.08,10.42-11,10.42s-11-4.12-11-10.37" style="fill:#040606"/><path id="f482738e-5ff3-481a-92a1-bd4b3918140c" data-name="path16" d="M97.93,52.65V66.06H93.39V52.7L84.05,29.64h4.8L95.71,47l6.81-17.39h4.74l-9.33,23" style="fill:#040606"/><path id="efa495f4-f367-4058-bfd6-bf6ff3efb8d8" data-name="path18" d="M132.39,42.39v-3c0-3.92-2.43-6.08-6.66-6.08s-6.7,2.16-6.7,6.08V56.31c0,3.87,2.42,6.09,6.65,6.09s6.71-2.22,6.71-6.09V51.26h-6.55V47h11v9.44c0,6.19-4.24,10.31-11.15,10.31s-11.24-4.12-11.24-10.31V39.29c0-6.19,4.28-10.26,11.19-10.26s11.2,4.07,11.2,10.26v3.1h-4.49" style="fill:#040606"/><path id="a4a4ced3-c2d8-4041-9e51-fbc821457b61" data-name="path20" d="M169.53,29.7V66.06h-4L152.4,38.72V66.06h-4V29.7h4l13.11,27.49V29.7h4" style="fill:#040606"/><path id="e4df50bd-20a7-430e-915f-2961c6243f2a" data-name="path22" d="M180.68,56.42V29.7h4.54V56.31c0,3.87,2,6.09,6.29,6.09s6.34-2.22,6.34-6.09V29.7h4.54V56.42c0,6.19-4.07,10.31-10.83,10.31s-10.88-4.12-10.88-10.31" style="fill:#040606"/><path id="b5715494-a78c-417c-af74-d2bc46605bf8" data-name="path24" d="M240,66.06h-3.92V36.61L228,66.06h-3.4l-8.1-29.45V66.06h-3.92V29.7h5.31l8.41,27.9,8.46-27.9H240V66.06" style="fill:#040606"/><path id="ae74518e-e6c2-4a8a-8907-e3071cea5aeb" data-name="path26" d="M27.57,33.4,5.49,47.74" style="fill:none;stroke:#ef3064;stroke-miterlimit:1.3333332737286874;stroke-width:1.9106854705279663px"/><path id="a25f3932-845f-4150-97ee-f044356711e2" data-name="path28" d="M27.59,62.14,5.49,47.83" style="fill:none;stroke:#ef3064;stroke-miterlimit:1.3333332737286874;stroke-width:1.9106854705279663px"/><path id="f8bc6eda-47f8-45a1-aae2-9441e9bde84d" data-name="path30" d="M22.56,63.78V60.85c0-2.41,1.91-3.85,5.33-3.85s5.33,1.44,5.33,3.85v2.93c0,2.41-1.9,3.87-5.33,3.87s-5.33-1.46-5.33-3.87" style="fill:#ef3064"/><path id="bcc3ecf5-4e97-4803-b8e4-d15478dfa0be" data-name="path32" d="M22.56,35V32c0-2.41,1.91-3.85,5.33-3.85s5.33,1.44,5.33,3.85V35c0,2.41-1.9,3.87-5.33,3.87S22.56,37.36,22.56,35" style="fill:#ef3064"/><path id="f746fc22-5a4f-4624-90a4-e17f034baee8" data-name="path34" d="M0,49.36V46.43c0-2.4,1.9-3.85,5.33-3.85s5.33,1.45,5.33,3.85v2.93c0,2.41-1.91,3.88-5.33,3.88S0,51.77,0,49.36" style="fill:#ef3064"/></g></g></svg>