<svg xmlns="http://www.w3.org/2000/svg" xmlns:xlink="http://www.w3.org/1999/xlink" viewBox="0 0 512 512"><defs><style>.cls-1,.cls-11,.cls-17,.cls-8{fill:#fff;}.cls-2{isolation:isolate;}.cls-3{fill:#f2aa2f;}.cls-4{opacity:0.11;mix-blend-mode:multiply;}.cls-5{fill:#50239f;}.cls-6{clip-path:url(#clip-path);}.cls-13,.cls-15,.cls-7{fill:#00e8cc;}.cls-15,.cls-17,.cls-18,.cls-7,.cls-8,.cls-9{stroke:#2f54a1;}.cls-10,.cls-15,.cls-16,.cls-18,.cls-19,.cls-20,.cls-7,.cls-9{stroke-linecap:round;}.cls-10,.cls-15,.cls-16,.cls-17,.cls-18,.cls-19,.cls-20,.cls-7,.cls-8,.cls-9{stroke-linejoin:round;}.cls-7,.cls-8,.cls-9{stroke-width:1.62px;}.cls-18,.cls-9{fill:#d5ebf6;}.cls-10,.cls-14,.cls-16,.cls-19,.cls-20{fill:none;}.cls-10{stroke:#50239f;stroke-width:2.21px;}.cls-11{fill-opacity:0.24;}.cls-12{clip-path:url(#clip-path-2);}.cls-14,.cls-16,.cls-20{stroke:#fff;}.cls-14{stroke-miterlimit:10;stroke-width:1.79px;}.cls-15,.cls-17,.cls-18{stroke-width:1.92px;}.cls-16{stroke-width:1.87px;}.cls-19{stroke:#00e8cc;stroke-width:2.62px;}.cls-20{stroke-width:3.58px;}</style><clipPath id="clip-path"><path id="_Clipping_Path_" data-name="&lt;Clipping Path&gt;" class="cls-1" d="M434.67,161.08l-84.38-20.91a8.62,8.62,0,0,0-10.44,6.29L296.4,321.78a5.22,5.22,0,0,0,3.81,6.33l91,22.55a5.22,5.22,0,0,0,6.33-3.81L441,171.51A8.62,8.62,0,0,0,434.67,161.08Z"/></clipPath><clipPath id="clip-path-2"><path id="_Clipping_Path_2" data-name="&lt;Clipping Path&gt;" class="cls-1" d="M252,158.31,151.86,133.48a10.23,10.23,0,0,0-12.39,7.47L87.9,349a6.2,6.2,0,0,0,4.53,7.51l108,26.76a6.2,6.2,0,0,0,7.51-4.53l51.58-208.1A10.23,10.23,0,0,0,252,158.31Z"/></clipPath></defs><title>scan_confirmation_onboarding</title><g class="cls-2"><g id="Layer_1" data-name="Layer 1"><path class="cls-3" d="M44.31,312.22h0a.06.06,0,0,1,0,0Z"/><path class="cls-3" d="M267,312.22h0a.06.06,0,0,1,0,0Z"/><g id="_Group_" data-name="&lt;Group&gt;" class="cls-4"><path class="cls-5" d="M459.33,186.67l-89.54-22.19A8.9,8.9,0,0,0,359,171l-45.1,182a8.56,8.56,0,0,0,6.25,10.37l90.19,22.36a10.67,10.67,0,0,0,12.93-7.79L467.37,200A11,11,0,0,0,459.33,186.67Z"/></g><path id="_Path_" data-name="&lt;Path&gt;" class="cls-1" d="M438.91,160.09l-89.54-22.19a8.9,8.9,0,0,0-10.78,6.5l-45.1,182a8.56,8.56,0,0,0,6.25,10.37l90.19,22.36a10.67,10.67,0,0,0,12.93-7.79l44.08-177.86A11,11,0,0,0,438.91,160.09Z"/><path id="_Clipping_Path_3" data-name="&lt;Clipping Path&gt;" class="cls-1" d="M434.67,161.08l-84.38-20.91a8.62,8.62,0,0,0-10.44,6.29L296.4,321.78a5.22,5.22,0,0,0,3.81,6.33l91,22.55a5.22,5.22,0,0,0,6.33-3.81L441,171.51A8.62,8.62,0,0,0,434.67,161.08Z"/><g class="cls-6"><rect class="cls-5" x="308.73" y="143.07" width="127.25" height="204.37" transform="translate(69.94 -82.38) rotate(13.92)"/></g><line class="cls-7" x1="378.98" y1="151.77" x2="405.48" y2="158.34"/><path class="cls-1" d="M378.43,242.68l3.5.87.86-3.46,10.7,2.65-1.73,7-7-1.73-.84,3.39,6.93,1.72.85-3.44,7.11,1.82,0-.06-.89,3.59.06,0-3.52-.87-.87,3.5L383.05,255l-2.64,10.64,3.42.85-.9,3.64-3.47-.86-.83,3.35,13.93,3.45,1.72-6.95-10.52-2.61.87-3.52,7,1.75.85-3.44,3.56.88-.83,3.34,3.49.87L396.13,277l3.52.87-1.73,7-3.4-.84.82-3.3-3.49-.87-.82,3.32-3.55-.88.81-3.28-3.56-.88-.82,3.3-3.49-.87.82-3.32-3.56-.88-.86,3.45-7.1-1.76,0,.07,1.75-7.07L368,270.2l.88-3.56,6.81,1.69,1.78-7.16-3.42-.85,0,.06.9-3.62,3.38.84.86-3.45-7-1.73.94-3.58-.06,0,7,1.73L381,247l-3.4-.84.87-3.5Z"/><path class="cls-1" d="M334.34,224.09l6.08-24.53L365,205.63l-6.08,24.53Zm21.88,1.72,4.33-17.46L343.09,204l-4.33,17.46Z"/><path class="cls-1" d="M383.86,236.38l6.08-24.52L414.48,218l-6.08,24.52Zm4.4-2.69L405.73,238l4.33-17.46-17.46-4.33Z"/><path class="cls-1" d="M322.07,273.59l6.08-24.52,24.6,6.1-6.08,24.52ZM344,275.31l4.33-17.47-17.44-4.32L326.53,271Z"/><path class="cls-1" d="M353.72,236.56l.88-3.53,7.07,1.75,0-.06-.87,3.51,3.55.88-.87,3.5,3.48.86,1.7-6.87,10.66,2.64-.85,3.44.06,0-3.59-.89-1.77,7.12.06,0L366,247.07l-.88,3.54-3.51-.87,0,.06.89-3.58-3.59-.89,0,.06.89-3.59-3.59-.89,0,.06.89-3.58-3.59-.89Z"/><path class="cls-1" d="M361.66,234.78l3.49-14.08,14.09,3.49.89-3.6-.06,0,3.48.86-1.72,6.93-6.87-1.7-1.73,7-3.55-.88.82-3.3-3.5-.87-1.72,7-3.64-.9Z"/><path class="cls-1" d="M374.06,260.31l-.87,3.52-7-1.73-.85,3.44-7.17-1.78.85-3.42,3.45.86.84-3.39-3.4-.84-.85,3.44-3.53-.87,2.64-10.66-.06,0,3.59.89,0-.06-.88,3.54,7.13,1.77-.89,3.58,7.07,1.75Z"/><path class="cls-1" d="M398.82,251.49l.87-3.51-3.46-.86.85-3.44,6.92,1.71-.84,3.38,3.51.87-2.6,10.49-7-1.73L398,255l-.06,0,3.44.85.89-3.59-3.44-.85Z"/><path class="cls-1" d="M368.84,281.54l-7-1.74-.86,3.45-3.59-.89,1.73-7-.06,0,3.59.89.89-3.58-.06,0,3.46.86-.84,3.41,3.68,1.11,0-.06-.95,3.51Z"/><path class="cls-1" d="M329.09,245.32l1.7-6.86L341.17,241l-1.7,6.86-3.36-.83.82-3.32-3.48-.86-.82,3.33Z"/><path class="cls-1" d="M333.47,227.84l6.85,1.7-1.7,6.85-6.85-1.7Z"/><path class="cls-1" d="M381,217q-.47,1.82-1,3.64l.06,0-6.94-1.72,2.62-10.57,3.36.83-1.74,7,3.63.9Z"/><path class="cls-1" d="M355.47,274.41l-1.75,7.06-3.3-.82,1.74-7,3.36.83Z"/><path class="cls-1" d="M381.07,217.07l1.73-7,3.4.84-1.72,6.92L381,217Z"/><path class="cls-1" d="M367.88,210.1l3.34.83-1.7,6.85-3.34-.83Z"/><path class="cls-1" d="M346.6,234.8l7.12,1.76,0-.06-.89,3.58.06,0-7.07-1.75.88-3.53Z"/><path class="cls-1" d="M356.53,270.9,353,270l.82-3.3,3.49.86-.83,3.36Z"/><path class="cls-1" d="M360,271.89l.85-3.44,3.49.86-.85,3.44.06,0-3.59-.89Z"/><path class="cls-1" d="M359.11,275.38l-3.65-1,0,.06q.5-1.79,1-3.57l-.06,0,3.51.94,0-.06-.89,3.58Z"/><path class="cls-1" d="M392.56,291.17l-3.26-.81.84-3.38,3.26.81Z"/><path class="cls-1" d="M368.78,281.58l3.44.85-.84,3.4L368,285l.86-3.45Z"/><path class="cls-1" d="M375.12,286.75l.83-3.33,3.32.82-.83,3.33Z"/><path class="cls-1" d="M382.19,288.51l.83-3.33,3.32.82-.83,3.33Z"/><path class="cls-1" d="M354.58,248l-.85,3.43-3.39-.84.84-3.38,3.44.85Z"/><path class="cls-1" d="M354.62,248l.9-3.59-.06,0,3.59.89,0-.06-.89,3.58.06,0-3.59-.88Z"/><path class="cls-1" d="M355.52,244.46l-3.54-.88.88-3.54-.06,0,3.59.89,0-.06-.89,3.59Z"/><path class="cls-1" d="M346.66,234.76l-3.44-.85.84-3.4,3.39.84-.85,3.45Z"/><path class="cls-1" d="M380.1,235.49l-3.31-.82.82-3.32,3.31.82Z"/><path class="cls-1" d="M367.85,255.07l.89-3.59,3.59.89-.89,3.59Z"/><path class="cls-1" d="M353.56,221.39l-10.39-2.57,2.57-10.39L356.14,211Z"/><path class="cls-1" d="M392.65,231l2.56-10.33,10.45,2.59L403.1,233.6Z"/><path class="cls-1" d="M330.9,268.28l2.58-10.39,10.39,2.58-2.58,10.39Z"/><circle class="cls-8" cx="350.02" cy="147.22" r="2.56" transform="translate(122.91 451.54) rotate(-76.08)"/><line class="cls-9" x1="351.5" y1="345.36" x2="339.37" y2="342.35"/><line class="cls-10" x1="442.32" y1="184.02" x2="439.13" y2="196.89"/><line class="cls-10" x1="438.38" y1="199.92" x2="435.19" y2="212.79"/><path id="_Path_2" data-name="&lt;Path&gt;" class="cls-11" d="M394.14,348l43.48-175.44a8.24,8.24,0,0,0-6-10l-80.68-20"/><g id="_Group_2" data-name="&lt;Group&gt;" class="cls-4"><path class="cls-5" d="M397.86,145.4l-72.35-17.93c-5.66-1.4-91.42,33.89-91.42,33.89l-8.83,181.38A10.16,10.16,0,0,0,232.68,355l107,26.53a12.67,12.67,0,0,0,15.35-9.25l52.32-211.1A13.07,13.07,0,0,0,397.86,145.4Z"/></g><path id="_Path_3" data-name="&lt;Path&gt;" class="cls-1" d="M257,157.13,150.76,130.79A10.56,10.56,0,0,0,138,138.5l-53.53,216a10.16,10.16,0,0,0,7.42,12.31l107,26.53a12.67,12.67,0,0,0,15.35-9.25L266.58,173A13.07,13.07,0,0,0,257,157.13Z"/><path id="_Clipping_Path_4" data-name="&lt;Clipping Path&gt;" class="cls-1" d="M252,158.31,151.86,133.48a10.23,10.23,0,0,0-12.39,7.47L87.9,349a6.2,6.2,0,0,0,4.53,7.51l108,26.76a6.2,6.2,0,0,0,7.51-4.53l51.58-208.1A10.23,10.23,0,0,0,252,158.31Z"/><g class="cls-12"><rect class="cls-13" x="101.04" y="129.71" width="151.03" height="269.07" transform="translate(68.76 -34.72) rotate(13.92)"/><polyline class="cls-14" points="194.18 265.25 209.26 268.88 227.67 196.63 212.66 192.71"/><polyline class="cls-14" points="167.6 180.95 152.9 177.11 134.13 250.8 148.9 254.35"/></g><line class="cls-15" x1="185.91" y1="147.26" x2="217.37" y2="155.05"/><path id="_Path_4" data-name="&lt;Path&gt;" class="cls-16" d="M115.68,321.36a18.81,18.81,0,1,1,13.73,22.78,18.81,18.81,0,0,1-13.73-22.78"/><polygon class="cls-1" points="129.23 312.47 127.99 317.47 132.99 318.71 131.76 323.68 136.76 324.92 137.99 319.95 143 321.19 144.23 316.19 129.23 312.47"/><polygon class="cls-1" points="120.52 326.18 125.52 327.42 123.08 337.25 128.09 338.49 131.76 323.69 126.75 322.45 127.99 317.47 122.98 316.23 120.52 326.18"/><polygon class="cls-1" points="143 321.19 141.76 326.17 136.76 324.93 133.09 339.73 138.09 340.97 140.53 331.14 145.53 332.38 148 322.43 143 321.19"/><rect class="cls-1" x="125.31" y="324.16" width="15.46" height="10.13" transform="translate(83.11 -22.34) rotate(13.92)"/><line class="cls-16" x1="165.44" y1="321.44" x2="199.8" y2="329.96"/><line class="cls-16" x1="163.72" y1="328.38" x2="198.08" y2="336.89"/><line class="cls-16" x1="162" y1="335.31" x2="179.18" y2="339.57"/><circle class="cls-17" cx="151.54" cy="141.86" r="3.03" transform="translate(-22.61 254.82) rotate(-76.08)"/><line class="cls-18" x1="153.29" y1="377.03" x2="138.9" y2="373.46"/><line class="cls-19" x1="261.09" y1="185.54" x2="257.3" y2="200.82"/><line class="cls-19" x1="256.41" y1="204.41" x2="252.63" y2="219.69"/><path id="_Path_5" data-name="&lt;Path&gt;" class="cls-11" d="M203.9,380.11l51.61-208.22A9.78,9.78,0,0,0,248.37,160l-95.75-23.73"/><line class="cls-20" x1="283.13" y1="161.36" x2="317.59" y2="157.27"/><line class="cls-20" x1="260.01" y1="139.34" x2="287.64" y2="118.31"/><line class="cls-20" x1="275.84" y1="199.72" x2="306.56" y2="215.88"/></g></g></svg>