<?xml version="1.0" encoding="UTF-8"?><svg id="d" xmlns="http://www.w3.org/2000/svg" width="600" height="600" viewBox="0 0 600 600"><defs><style>.g,.h,.i{stroke-width:0px;}.h{fill:#723bbb;}.i{fill:#0aae95;}</style></defs><path class="g" d="m218.0136,550.0359l31.4551-98.4942-17.2705-47.5471c-1.3418-3.6942.5645-7.7766,4.2588-9.1184,3.6924-1.3416,7.7773.5649,9.1182,4.2592l18.9287,52.1107-24.0186,75.2101c6.0205,1.0399,10.5449,3.2594,13.5049,6.6375,3.1406,3.583,3.8428,7.7617,3.4521,10.4777l-.8672,6.0365-38.5615.428Z"/><path class="g" d="m142.9784,551.109l6.0713-19.104c.0381-.1329.0801-.2644.126-.394l25.2451-79.4379-31.1748-85.8232c-1.3418-3.6941.5645-7.7766,4.2588-9.1185,3.6982-1.3433,7.7773.5661,9.1182,4.2591l32.8291,90.3766-24.0469,75.6676c6.0039,1.0405,10.5225,3.2537,13.4912,6.6188,3.1484,3.5695,3.873,7.7367,3.502,10.4463l-.834,6.0812-38.5859.4281Z"/><path class="g" d="m496.7109,550.0205h-36.8398v-190.6415c0-3.9302,3.1855-7.1163,7.1162-7.1163s7.1162,3.1861,7.1162,7.1163v166.7299c22.3311,1.9517,22.6074,16.1483,22.6074,16.7953v7.1163Z"/><path class="g" d="m416.497,550.0205h-36.8398v-7.1163c0-.647.2773-14.8436,22.6074-16.7954v-114.6364c0-3.9302,3.1855-7.1163,7.1162-7.1163s7.1162,3.1861,7.1162,7.1163v138.5482Zm-22.6826-6.3103h0Z"/><path class="i" d="m373.1786,430.0343l5.0957-77.4553c.2314-3.5298-.9248-6.9387-3.2559-9.5988-2.332-2.6601-5.5596-4.253-9.0889-4.4852l-19.5088-1.2835c-20.54-1.3513-36.1504-19.1589-34.7998-39.696.6543-9.9542,5.1455-19.0538,12.6455-25.6229,7.4971-6.5712,17.1123-9.8301,27.0537-9.1759l41.9023,2.7568c12.6992.8369,23.7246-8.8209,24.5605-21.5278.4043-6.1561-1.6123-12.0997-5.6777-16.735-4.0664-4.642-9.6943-7.4195-15.8496-7.8245l-19.5137-1.2838c-15.1152-.9944-26.6035-14.1022-25.6094-29.2195l5.1133-77.7171,145.7158,76.8886.1387,4.128c.0664,1.9786,1.5957,48.8362-.9512,81.6591v.0007c-.8613,11.09-2.1436,20.9014-3.9189,29.9949-2.0439,10.4437-4.7529,19.8307-8.0537,27.9067-.7422,2.019-7.2324,18.9711-22.8203,38.6693-14.9756,18.9242-41.5938,44.1173-83.3555,56.6689l-9.8223,2.9522Zm-24.3418-153.1666c-5.5977,0-10.9414,2.0048-15.1914,5.7296-4.6396,4.0646-7.418,9.6938-7.8232,15.8525-.835,12.7061,8.8242,23.7237,21.5322,24.5598l19.5088,1.2835c7.3232.4818,14.0205,3.7866,18.8584,9.3056,4.8379,5.519,7.2363,12.5916,6.7539,19.9148l-3.7246,56.6327c26.1836-9.745,48.3838-25.9022,66.1016-48.1331,14.959-18.7692,20.9268-35.0729,20.9854-35.2354l.1152-.3012c2.9736-7.2468,5.4326-15.7825,7.3096-25.3699,1.6455-8.4292,2.8896-17.9741,3.6973-28.3666,2.0576-26.522,1.3477-63.6805,1.0322-75.9642l-118.9844-62.7836-3.6738,55.8247c-.4785,7.2862,5.0576,13.6043,12.3418,14.0836l19.5137,1.2838c9.9512.6547,19.0498,5.1453,25.6191,12.6448,6.5703,7.4908,9.8301,17.0989,9.1758,27.0506-1.2969,19.7068-17.748,34.8756-37.2207,34.8773-.8203.0001-1.6436-.0268-2.4746-.0815l-41.9023-2.7568c-.5186-.0341-1.0352-.051-1.5498-.051Zm145.2178-3.5765h.0098-.0098Z"/><path class="h" d="m261.7568,413.4927l-9.6543-1.916c-10.1035-2.0054-21.4316-4.4974-29.3359-6.277l.0186.142-10.1191-2.4293c-42.2275-10.2247-70.125-33.8237-86.0908-51.8203-16.6191-18.7319-24.0391-35.2256-24.8926-37.1935-3.7686-7.8959-7.0078-17.115-9.6299-27.4052-2.2686-8.885-4.1611-18.8859-5.625-29.7224-4.418-32.6216-5.5615-79.4913-5.6074-81.4705l-.0977-4.1317,105.2119-63.3549,7.4375,60.2665c.4336,3.5114,2.207,6.6436,4.9951,8.8196,2.7891,2.1759,6.2529,3.1353,9.7666,2.7025l19.4082-2.395c9.8975-1.2216,19.6758,1.485,27.5342,7.6212,7.8584,6.1274,12.8604,14.9547,14.082,24.8527v.0002c2.5205,20.4267-12.0479,39.0957-32.4746,41.6163l-41.6758,5.1428c-6.125.7559-11.5869,3.8501-15.3789,8.7128-3.7969,4.8635-5.4707,10.9136-4.7158,17.0394.7559,6.1217,3.8496,11.5829,8.7139,15.3776,4.8633,3.7949,10.9141,5.4686,17.0371,4.713l19.4062-2.3945c7.2764-.8977,14.4805,1.0926,20.2656,5.6085,5.7842,4.5148,9.4648,11.0125,10.3633,18.2961l11.0576,89.5991Zm-47.1436-24.6592l1.3438.3112c.1748.0407,14.4805,3.3788,29.2549,6.4907l-8.6377-69.9986c-.4336-3.5113-2.208-6.6435-4.9951-8.8195-2.7891-2.176-6.2539-3.1356-9.7666-2.7025l-19.4053,2.3945c-9.8984,1.2211-19.6748-1.4843-27.5361-7.6174-7.8604-6.1335-12.8623-14.9609-14.083-24.8562-1.2217-9.9006,1.4854-19.6804,7.6201-27.538,6.1289-7.8582,14.957-12.8607,24.8574-14.0824l41.6758-5.1428c12.6367-1.5594,21.6494-13.1107,20.0918-25.7478h0c-.7559-6.123-3.8496-11.5834-8.7129-15.3751-4.8643-3.7982-10.9072-5.472-17.0361-4.7162l-19.4082,2.3949c-7.2715.8984-14.4795-1.0924-20.2656-5.6083-5.7842-4.5149-9.4648-11.0126-10.3633-18.2962l-4.752-38.5067-79.3281,47.7682c.3867,12.2849,1.7969,49.4298,5.3652,75.7786,1.3906,10.2969,3.1777,19.7543,5.3115,28.112,2.4072,9.446,5.3467,17.8256,8.7393,24.9089l.1367.3055c.0635.1472,6.9268,16.0244,22.8682,33.8677,20.8818,23.374,46.791,39.0726,77.0254,46.6755Z"/></svg>