<svg xmlns="http://www.w3.org/2000/svg" xmlns:xlink="http://www.w3.org/1999/xlink" viewBox="0 0 512 512"><defs><style>.cls-1,.cls-12,.cls-19,.cls-21,.cls-22,.cls-8{fill:#fff;}.cls-10,.cls-17,.cls-18,.cls-2,.cls-20{fill:none;}.cls-3{isolation:isolate;}.cls-4{opacity:0.11;mix-blend-mode:multiply;}.cls-5{fill:#3e3e3e;}.cls-11,.cls-6{fill:#00e8cc;}.cls-7{clip-path:url(#clip-path);}.cls-8{fill-opacity:0.24;}.cls-9{fill:#d5ebf6;}.cls-11,.cls-12,.cls-19,.cls-20,.cls-21,.cls-22,.cls-9{stroke:#50239f;}.cls-10,.cls-11,.cls-17,.cls-18,.cls-19,.cls-20,.cls-21,.cls-9{stroke-linecap:round;}.cls-10,.cls-11,.cls-12,.cls-17,.cls-18,.cls-20,.cls-21,.cls-22,.cls-9{stroke-linejoin:round;}.cls-12,.cls-9{stroke-width:2.11px;}.cls-10{stroke:#00e8cc;stroke-width:2.89px;}.cls-11,.cls-22{stroke-width:2.51px;}.cls-13{clip-path:url(#clip-path-2);}.cls-14{fill:#f2aa2f;}.cls-15{fill:#50239f;}.cls-16{clip-path:url(#clip-path-3);}.cls-17,.cls-18{stroke:#fff;}.cls-17{stroke-width:2.34px;}.cls-18{stroke-width:2.44px;}.cls-19{stroke-miterlimit:10;stroke-width:2.26px;}.cls-20{stroke-width:3.44px;}.cls-21{stroke-width:3.36px;}</style><clipPath id="clip-path"><path id="_Clipping_Path_" data-name="&lt;Clipping Path&gt;" class="cls-1" d="M465.47,112.33,355,84.95a11.28,11.28,0,0,0-13.66,8.23L284.46,322.7a6.84,6.84,0,0,0,5,8.28L408.53,360.5a6.84,6.84,0,0,0,8.28-5L473.7,126A11.28,11.28,0,0,0,465.47,112.33Z"/></clipPath><clipPath id="clip-path-2"><path class="cls-2" d="M472.6,109,353.31,79.41A11.85,11.85,0,0,0,339,88.07L278.87,330.49a11.4,11.4,0,0,0,8.33,13.81l120.16,29.78a14.22,14.22,0,0,0,17.22-10.38l58.73-237A14.67,14.67,0,0,0,472.6,109Z"/></clipPath><clipPath id="clip-path-3"><path id="_Clipping_Path_2" data-name="&lt;Clipping Path&gt;" class="cls-1" d="M226.35,108.7,95.25,76.21A13.39,13.39,0,0,0,79,86L11.52,358.39a8.11,8.11,0,0,0,5.92,9.83l141.34,35a8.11,8.11,0,0,0,9.83-5.92l67.52-272.41A13.39,13.39,0,0,0,226.35,108.7Z"/></clipPath></defs><title>sync_wallet_onboarding_1</title><g class="cls-3"><g id="Layer_1" data-name="Layer 1"><g id="_Group_" data-name="&lt;Group&gt;" class="cls-4"><path class="cls-5" d="M328.91,176.79,192.09,142.88a13.59,13.59,0,0,0-16.47,9.92l-68.92,278a13.08,13.08,0,0,0,9.55,15.84l137.82,34.16a16.31,16.31,0,0,0,19.76-11.91l67.36-271.77A16.83,16.83,0,0,0,328.91,176.79Z"/></g><g id="_Group_2" data-name="&lt;Group&gt;" class="cls-4"><path class="cls-5" d="M497.74,145.83,380.53,116.78a11.65,11.65,0,0,0-14.11,8.5l-59,238.2a11.21,11.21,0,0,0,8.18,13.57l118.07,29.26a14,14,0,0,0,16.93-10.2l57.71-232.83A14.41,14.41,0,0,0,497.74,145.83Z"/></g><g id="_Group_3" data-name="&lt;Group&gt;"><path class="cls-1" d="M410.79,375.64a15.42,15.42,0,0,1-3.71-.45L286.92,345.41a12.56,12.56,0,0,1-9.16-15.19L337.85,87.79a13,13,0,0,1,15.74-9.48l119.29,29.57A15.81,15.81,0,0,1,484.42,127L425.68,364a15.33,15.33,0,0,1-14.9,11.67Z"/><path class="cls-6" d="M350.45,79.06a11.88,11.88,0,0,1,2.86.35L472.6,109a14.67,14.67,0,0,1,10.71,17.77l-58.73,237a14.21,14.21,0,0,1-17.22,10.38L287.2,344.3a11.4,11.4,0,0,1-8.33-13.81L339,88.07a11.86,11.86,0,0,1,11.5-9m0-2.28a14.1,14.1,0,0,0-13.71,10.74L276.66,329.94a13.7,13.7,0,0,0,10,16.57l120.16,29.78a16.48,16.48,0,0,0,20-12l58.73-237a16.95,16.95,0,0,0-12.37-20.53L353.86,77.2a14.18,14.18,0,0,0-3.41-.42Z"/></g><path id="_Clipping_Path_3" data-name="&lt;Clipping Path&gt;" class="cls-1" d="M465.47,112.33,355,84.95a11.28,11.28,0,0,0-13.66,8.23L284.46,322.7a6.84,6.84,0,0,0,5,8.28L408.53,360.5a6.84,6.84,0,0,0,8.28-5L473.7,126A11.28,11.28,0,0,0,465.47,112.33Z"/><g class="cls-7"><rect class="cls-6" x="300.61" y="88.76" width="166.58" height="267.53" transform="translate(64.81 -85.82) rotate(13.92)"/><path id="_Path_" data-name="&lt;Path&gt;" class="cls-8" d="M414.55,371.38l61.09-246.46a11.57,11.57,0,0,0-8.45-14L353.86,82.8Z"/></g><path class="cls-1" d="M391.84,219.15l4.58,1.14,1.12-4.52,14,3.47-2.27,9.14-9.14-2.27-1.1,4.44,9.08,2.25,1.12-4.51,9.3,2.38,0-.08-1.16,4.69.08-.05-4.61-1.14-1.14,4.58-13.76-3.41-3.45,13.93,4.47,1.11-1.18,4.77L393.19,254l-1.09,4.39,18.24,4.52,2.25-9.09-13.77-3.41,1.14-4.61,9.22,2.29,1.11-4.5,4.66,1.15-1.08,4.37,4.57,1.13L415,264.11l4.61,1.14-2.26,9.13-4.45-1.1L414,269l-4.57-1.13-1.08,4.35L403.67,271l1.06-4.29-4.66-1.15L399,269.9l-4.57-1.13,1.08-4.35-4.66-1.15-1.12,4.52-9.29-2.31.05.09,2.29-9.25-4.6-1.14,1.16-4.66,8.92,2.21,2.32-9.38-4.48-1.11,0,.08,1.17-4.74,4.42,1.1,1.12-4.52-9.11-2.26,1.23-4.68-.08,0,9.15,2.27,1.18-4.74-4.45-1.1,1.13-4.58Z"/><path class="cls-1" d="M334.13,194.81l8-32.12,32.12,8-8,32.12Zm28.64,2.25,5.67-22.86-22.86-5.67-5.67,22.86Z"/><path class="cls-1" d="M398.95,210.91l8-32.09,32.14,8-8,32.09Zm5.77-3.52,22.86,5.67,5.66-22.85-22.86-5.67Z"/><path class="cls-1" d="M318.06,259.61l8-32.1,32.2,8-8,32.1Zm28.68,2.26L352.41,239l-22.83-5.66-5.67,22.87Z"/><path class="cls-1" d="M359.5,211.13l1.15-4.62,9.25,2.29-.05-.08-1.14,4.59,4.64,1.15L372.22,219l4.55,1.13,2.23-9,14,3.46-1.12,4.51.08-.05-4.7-1.16-2.31,9.32.08,0-9.36-2.32-1.15,4.63-4.59-1.14.05.08,1.16-4.69-4.69-1.16,0,.08,1.16-4.69-4.69-1.16.05.08,1.16-4.69-4.69-1.16Z"/><path class="cls-1" d="M369.89,208.8l4.57-18.43L392.9,195l1.17-4.71-.08.06,4.56,1.13-2.25,9.07-9-2.23L385,207.41l-4.65-1.15,1.07-4.32-4.58-1.14-2.26,9.11-4.77-1.18Z"/><path class="cls-1" d="M386.12,242.23,385,246.84l-9.14-2.27-1.12,4.5-9.39-2.33,1.11-4.48L371,243.4l1.1-4.44-4.45-1.1-1.12,4.5-4.62-1.15,3.46-14-.08,0,4.69,1.16-.05-.08L368.74,233l9.33,2.31L376.91,240l9.26,2.29Z"/><path class="cls-1" d="M418.53,230.68l1.14-4.6L415.13,225l1.12-4.51,9.05,2.24-1.1,4.42,4.6,1.14L425.4,242l-9.11-2.26,1.11-4.49-.08.05,4.5,1.12,1.16-4.69-4.5-1.12Z"/><path class="cls-1" d="M379.29,270l-9.18-2.28L369,272.26l-4.69-1.16,2.27-9.14-.08,0,4.69,1.16,1.16-4.69-.08.05,4.53,1.12-1.11,4.46,4.82,1.45-.06-.08c-.41,1.54-.82,3.06-1.24,4.59Z"/><path class="cls-1" d="M327.25,222.6l2.23-9L343.07,217l-2.22,9-4.4-1.09,1.08-4.34L333,219.39l-1.08,4.35Z"/><path class="cls-1" d="M333,199.72l9,2.22-2.22,9-9-2.22Z"/><path class="cls-1" d="M395.25,185.54q-.62,2.38-1.25,4.77l.08-.06L385,188l3.43-13.83,4.4,1.09-2.28,9.19,4.75,1.18Z"/><path class="cls-1" d="M361.78,260.69l-2.29,9.25-4.32-1.07,2.28-9.18,4.39,1.09Z"/><path class="cls-1" d="M395.29,185.62l2.26-9.13,4.45,1.1-2.25,9.06-4.52-1.12Z"/><path class="cls-1" d="M378,176.5l4.37,1.08-2.22,9-4.37-1.08Z"/><path class="cls-1" d="M350.18,208.83l9.32,2.3-.05-.08-1.16,4.69.08,0-9.25-2.29,1.15-4.62Z"/><path class="cls-1" d="M363.17,256.1,358.55,255l1.07-4.32,4.56,1.13-1.09,4.39Z"/><path class="cls-1" d="M367.69,257.39l1.12-4.5,4.56,1.13-1.12,4.51.08-.05-4.69-1.16Z"/><path class="cls-1" d="M366.56,262l-4.77-1.26.06.08q.66-2.34,1.33-4.67l-.08.06,4.6,1.23-.05-.08L366.47,262Z"/><path class="cls-1" d="M410.33,282.62l-4.26-1.06,1.1-4.43,4.26,1.06Z"/><path class="cls-1" d="M379.21,270.07l4.5,1.12-1.1,4.45-4.44-1.1,1.12-4.52Z"/><path class="cls-1" d="M387.51,276.84l1.08-4.36,4.35,1.08-1.08,4.36Z"/><path class="cls-1" d="M396.77,279.14l1.08-4.36,4.35,1.08-1.08,4.36Z"/><path class="cls-1" d="M360.63,226.1l-1.11,4.49-4.44-1.1,1.1-4.43,4.5,1.12Z"/><path class="cls-1" d="M360.67,226.18l1.17-4.7-.08,0,4.69,1.16,0-.08-1.16,4.69.08,0-4.7-1.16Z"/><path class="cls-1" d="M361.85,221.48l-4.63-1.15,1.15-4.63-.08,0,4.69,1.16-.05-.08-1.16,4.69Z"/><path class="cls-1" d="M350.26,208.78l-4.5-1.12,1.1-4.45,4.44,1.1-1.12,4.52Z"/><path class="cls-1" d="M394,209.73l-4.34-1.08,1.08-4.35,4.34,1.08Z"/><path class="cls-1" d="M378,235.37l1.16-4.69,4.69,1.16-1.16,4.69Z"/><path class="cls-1" d="M359.29,191.29l-13.6-3.37,3.37-13.6,13.6,3.37Z"/><path class="cls-1" d="M410.45,203.87l3.35-13.52,13.68,3.39-3.35,13.52Z"/><path class="cls-1" d="M329.62,252.66,333,239.05l13.6,3.37L343.22,256Z"/><line class="cls-9" x1="355.76" y1="355.62" x2="339.89" y2="351.69"/><line class="cls-10" x1="477.72" y1="143.48" x2="473.55" y2="160.33"/><line class="cls-10" x1="472.56" y1="164.3" x2="468.39" y2="181.15"/><line class="cls-11" x1="392.56" y1="100.14" x2="427.26" y2="108.74"/><circle class="cls-12" cx="354.65" cy="94.19" r="3.34" transform="translate(177.91 415.76) rotate(-76.08)"/><g class="cls-13"><g id="_Group_4" data-name="&lt;Group&gt;" class="cls-4"><path class="cls-5" d="M351.31,165.59,214.49,131.68A13.59,13.59,0,0,0,198,141.6l-68.92,278a13.08,13.08,0,0,0,9.55,15.84l137.82,34.16a16.31,16.31,0,0,0,19.76-11.91L363.59,186A16.83,16.83,0,0,0,351.31,165.59Z"/></g></g><path class="cls-14" d="M80,397l0,0a.08.08,0,0,1,0,0Z"/><path class="cls-14" d="M245.93,310.18l0,0a.08.08,0,0,1,0,0Z"/><g id="_Group_5" data-name="&lt;Group&gt;"><path class="cls-1" d="M163.08,417.29a18.52,18.52,0,0,1-4.45-.55L15.46,381.25a14.79,14.79,0,0,1-9.08-6.59,14.16,14.16,0,0,1-1.74-10.93L74.57,81.58A15,15,0,0,1,89.21,70.31a15.63,15.63,0,0,1,3.76.46L235.1,106a18.7,18.7,0,0,1,11.48,8.33,17.89,17.89,0,0,1,2.2,13.82L180.43,403.92a17.74,17.74,0,0,1-17.35,13.36Z"/><path class="cls-15" d="M89.21,71.44a14.47,14.47,0,0,1,3.48.43l142.13,35.23a17.28,17.28,0,0,1,12.86,20.78L179.33,403.65a16.63,16.63,0,0,1-16.25,12.5,17.37,17.37,0,0,1-4.18-.51L15.73,380.15A13.43,13.43,0,0,1,5.74,364L75.67,81.86A13.86,13.86,0,0,1,89.21,71.44m0-2.26A16.1,16.1,0,0,0,73.48,81.31L3.54,363.46a15.28,15.28,0,0,0,1.88,11.8,15.91,15.91,0,0,0,9.77,7.09l143.17,35.49a19.66,19.66,0,0,0,4.72.58,18.86,18.86,0,0,0,18.44-14.22l68.36-275.78a19.56,19.56,0,0,0-14.51-23.52L93.24,69.67a16.76,16.76,0,0,0-4-.49Z"/></g><path id="_Clipping_Path_4" data-name="&lt;Clipping Path&gt;" class="cls-1" d="M226.35,108.7,95.25,76.21A13.39,13.39,0,0,0,79,86L11.52,358.39a8.11,8.11,0,0,0,5.92,9.83l141.34,35a8.11,8.11,0,0,0,9.83-5.92l67.52-272.41A13.39,13.39,0,0,0,226.35,108.7Z"/><g class="cls-16"><rect class="cls-15" x="28.72" y="71.26" width="197.71" height="352.23" transform="translate(63.26 -23.43) rotate(13.92)"/><polyline class="cls-17" points="150.65 248.69 170.39 253.44 194.49 158.87 174.84 153.74"/><polyline class="cls-17" points="115.85 138.34 96.61 133.31 72.04 229.78 91.37 234.43"/><path id="_Path_2" data-name="&lt;Path&gt;" class="cls-8" d="M166.91,406.39l70-282.33A13.26,13.26,0,0,0,227.21,108L91.27,73.84Z"/></g><path id="_Path_3" data-name="&lt;Path&gt;" class="cls-18" d="M47.89,322.15a24.62,24.62,0,1,1,18,29.83,24.63,24.63,0,0,1-18-29.83"/><polygon class="cls-1" points="66.93 333.19 73.48 334.81 77.09 320.3 83.64 321.92 85.27 315.38 65.62 310.51 64 317.05 70.55 318.68 66.93 333.19"/><polygon class="cls-1" points="83.64 321.92 82.03 328.44 62.38 323.57 62.38 323.57 62.38 323.57 64 317.05 57.45 315.43 54.22 328.46 60.77 330.08 59.19 336.43 59.19 336.43 57.58 342.95 64.13 344.57 65.74 338.06 72.29 339.68 70.67 346.19 77.22 347.82 78.84 341.3 78.84 341.3 80.16 335.99 80.41 334.95 86.96 336.57 90.19 323.55 83.64 321.92"/><line class="cls-18" x1="120.02" y1="317.26" x2="165" y2="328.4"/><line class="cls-18" x1="117.78" y1="326.33" x2="162.75" y2="337.48"/><line class="cls-18" x1="115.53" y1="335.41" x2="138.01" y2="340.99"/><line class="cls-19" x1="97.12" y1="395.02" x2="78.28" y2="390.35"/><line class="cls-20" x1="240.48" y1="151.07" x2="235.52" y2="171.07"/><line class="cls-20" x1="234.36" y1="175.77" x2="229.4" y2="195.77"/><line class="cls-21" x1="267.08" y1="112.69" x2="312.2" y2="107.34"/><line class="cls-21" x1="236.83" y1="83.87" x2="272.99" y2="56.35"/><line class="cls-21" x1="257.55" y1="162.92" x2="297.76" y2="184.07"/><line class="cls-11" x1="139.82" y1="94.23" x2="181" y2="104.44"/><circle class="cls-22" cx="94.82" cy="87.17" r="3.97" transform="translate(-12.6 158.24) rotate(-76.08)"/></g></g></svg>