<svg id="Ebene_1" data-name="Ebene 1" xmlns="http://www.w3.org/2000/svg" xmlns:xlink="http://www.w3.org/1999/xlink" viewBox="0 0 700 700"><defs><style>.cls-1{fill:none;}.cls-2{fill:#00f3c7;}.cls-3{clip-path:url(#clip-path);}.cls-4{fill:#ea819c;}.cls-5{fill:#e04f75;}.cls-6{fill:#dc3f6b;}.cls-7{fill:#fff;}.cls-8{fill:#9c58cf;}.cls-9{clip-path:url(#clip-path-2);}.cls-10{fill:#8f4dc5;}.cls-11{fill:#a853d5;}.cls-12{fill:#341061;}.cls-13{clip-path:url(#clip-path-3);}.cls-14{fill:#220a47;}.cls-15{fill:#77eccf;}.cls-16{clip-path:url(#clip-path-4);}.cls-17{fill:#71cdc7;}.cls-18{fill:#d75991;}.cls-19{fill:#e35e99;}.cls-20{clip-path:url(#clip-path-5);}.cls-21{fill:#cf5192;}.cls-22{clip-path:url(#clip-path-6);}.cls-23{fill:#618bb5;}.cls-24{fill:#935bc8;}.cls-25{clip-path:url(#clip-path-7);}.cls-26{fill:#864fbf;}.cls-27{fill:#70568f;}.cls-28{clip-path:url(#clip-path-8);}.cls-29{clip-path:url(#clip-path-9);}</style><clipPath id="clip-path"><path class="cls-1" d="M24.69,444.18V597.76A18.24,18.24,0,0,0,34.83,614.1l63.61,31.45A41,41,0,0,0,122,649.43l160.27-26.28a18,18,0,0,0,15.59-17.79V455.74a10,10,0,0,0-6.53-9.42L211,414.23a11.7,11.7,0,0,0-5.24-.69l-173.3,22a8.65,8.65,0,0,0-7.8,8.61"/></clipPath><clipPath id="clip-path-2"><path class="cls-1" d="M227.78,298.3,186.67,418.93a4.41,4.41,0,0,1-5.59,2.75L114.52,399a4.41,4.41,0,0,1-2.75-5.6l41.11-120.63a4.41,4.41,0,0,1,5.59-2.75L225,292.7a4.42,4.42,0,0,1,2.75,5.6"/></clipPath><clipPath id="clip-path-3"><path class="cls-1" d="M405.43,339.44a162.32,162.32,0,1,0-14-229.12,162.31,162.31,0,0,0,14,229.12"/></clipPath><clipPath id="clip-path-4"><path class="cls-1" d="M583.07,158.68l2.66-3c-14-11.85-23.65-28.08-38.63-25.22-37.6,7.17-51.56,7.29-79.08,33.8a12.87,12.87,0,0,1,3.77,5.18c-12.34,16.28-13.53,37.5-6.08,54.48,43.91,100,56.37,168.8,54,171.89,0,0,49.64-6.4,89.6-39.78,21.65-18.09,33.38-17.71,40.09-17.33,5.18.29,7.38.59,8.85-7.63,7.54-42-75.17-172.36-75.17-172.36"/></clipPath><clipPath id="clip-path-5"><path class="cls-1" d="M514.3,195.23q-5-3.85-10.07-7.55c-1.69-1.23-3.39-2.44-5.1-3.65-1.47-1-2.94-2.07-4.35-3.21s-2.55-2.1-3.88-3.08c-9.07,3.06-18.8,6.51-28.08,9-32.68,8.94-123.6,33.72-125.34,34.2l0-.05c-6.22,2-28.17,8.94-50.51,13.61-26.41,5.51-44.51,6-60.28,9.26C223,243,218.72,242,214.51,241c-1.51,4.72-3.43,9.34-4.38,14.2,5.93,2.15,14.86,5.34,20.52,5.27,34.89-.44,110-2.58,115.79-5,20.59-2.86,47-8.15,61.19-10.58,38.09-6.5,83.87-26.3,105.52-47.1-1.42-1.14,2.6-1.45,1.15-2.57"/></clipPath><clipPath id="clip-path-6"><path class="cls-1" d="M511.69,187.62c-3.46-2.34-6.81-4.81-10.12-7.34s-6.58-5.15-9.85-7.76-6.59-5.26-9.93-7.84c-2.09-1.6-4.2-3.18-6.34-4.72a67,67,0,0,0-7.66,7.75c-13.35,15.77-44.69,28.26-57,32.06,1.76,6.53,3.1,10.2,5.16,16.67,3.14,9.88,6.06,19.84,9.1,29.75l.93,3c41-13.7,80.86-34.9,93.35-56.79-2.6-1.51-5.14-3.12-7.62-4.8"/></clipPath><clipPath id="clip-path-7"><path class="cls-1" d="M476.59,68.81c-8-9-15.14-13.74-21.67-15.67-3.74-1.1-6-.88-7.55-.23l.05-.07s-1.59-2.81-16.65-2.62c-10.4.12-14.88,4.78-32.88,11.13-5,1.77-11.87,9.08-11.29,7.25,0,0-1-17.83,2.26,3.22l-3.09-6S370.9,81.08,383.06,90c5,3.65,12.26.26,17.09-2a181.45,181.45,0,0,0,24.22-13.54c2.17,3.53,8.53,12,19.81,13.1,10,.92,9,9.32,9.07,13.36s-.07,13.33-.15,18.36a3.66,3.66,0,0,0,3.23,3.7l5.4.67a1.4,1.4,0,0,0,1.56-1.34l.7-20.81s2-9.67,7.92-6.57,3.35,11.23.4,14.66c-1,1.18-.55,3.77.25,6a8.14,8.14,0,0,0,3.61,4.3l5.08,2.66a37.69,37.69,0,0,1,.92-9.05c2.3-11.78,5.46-32.25-5.58-44.65"/></clipPath><clipPath id="clip-path-8"><path class="cls-1" d="M555.29,142.13c-4.43,4.63-8.75,9.35-13.12,14-2.55,2.73,6.68,8.42,3.94,11,8.46,9.1,7.29,16.3,16.06,26.45,23.4,27.11,49,55,49,55s-40.33,92.76-47.32,111.7c-9.87,10.38-13,7.18-15.76,14s7.67,5.75,14.06-1.76,20.33-6.16,25.67-13.83c8-11.44,18-27.22,43.54-69.21s18.52-53.69-10.4-94.71c-19.05-27-40.82-47.85-61.3-57.21-1.45,1.5-2.91,3-4.35,4.52"/></clipPath><clipPath id="clip-path-9"><path class="cls-1" d="M604,202q8.28-8.61,16.67-17.11c-22.42-24.54-59.11-62.12-74.93-53.45-29.62,16.26,38.54,91,38.71,91.26Q594.09,212.24,604,202"/></clipPath></defs><title>700</title><path class="cls-2" d="M24.69,444.18V597.76A18.24,18.24,0,0,0,34.83,614.1l63.61,31.45A41,41,0,0,0,122,649.43l160.27-26.28a18,18,0,0,0,15.59-17.79V455.74a10,10,0,0,0-6.53-9.42L211,414.23a11.7,11.7,0,0,0-5.24-.69l-173.3,22a8.65,8.65,0,0,0-7.8,8.61"/><g class="cls-3"><polygon class="cls-4" points="-38.83 435.09 -38.83 716.55 132.6 716.55 132.6 478.78 21.99 435.09 -38.83 435.09"/><polyline class="cls-5" points="310.24 431.8 239.95 399.82 32.15 430.56 24.78 436.28 117.12 472.65 130.63 477.98 365.86 452.52 310.24 431.8"/><path class="cls-6" d="M332.8,445.4V627.09L122.63,650.44a13.35,13.35,0,0,1-13-13.35V477.58a8.65,8.65,0,0,1,7.84-8.62Z"/><path class="cls-7" d="M168.55,524.32l5.26-.59a31.19,31.19,0,0,1,21.47,8.15c11.7,10.58,18.13,26.62,33,33.79,10.76,5.19,25.82-1.7,31.11-13.09,2.69-.35,5.39-.65,8.08-.93C263.79,563,253,572.1,241.2,574.47l-4.34.48A31.63,31.63,0,0,1,217,569.2c-8-5.65-13.1-14.05-19.3-21.35-5.34-6.47-10.78-13.81-19.61-16-10.9-2.74-24.22,4.93-28.2,15.87-3.49,9.05-.65,19.46,7.16,24.13a22.14,22.14,0,0,0,21.06,1.12c7.81-3.59,13.61-10.43,18.06-17.49,1.75,2.23,3.46,4.5,5.15,6.79-6.92,9.2-16.52,17.51-27.93,19.78l-4.68.52c-14.38.63-26.88-9.8-27.87-23.65v-4.57C141.81,540.27,154.15,526.93,168.55,524.32Zm68-7.57,4.36-.48c14.52-.71,26.87,10,28.06,23.81v7.17c-12,1.43-24,2.7-36,4,0-2.1,0-4.18,0-6.27,9.47-1.08,18.93-2.06,28.38-3.18-.67-3.63-1.54-7.32-3.81-10.21-5.53-7.56-17.23-9.6-26.58-5-7.46,3.51-13.07,10-17.4,16.73-1.66-2.13-3.32-4.29-4.92-6.48C215.54,527.55,225.08,519.1,236.57,516.75Z"/><polygon points="116.39 447.52 207.73 434.76 214.3 437.32 122.54 450.08 116.39 447.52"/></g><path class="cls-8" d="M227.78,298.3,186.67,418.93a4.41,4.41,0,0,1-5.59,2.75L114.52,399a4.41,4.41,0,0,1-2.75-5.6l41.11-120.63a4.41,4.41,0,0,1,5.59-2.75L225,292.7a4.42,4.42,0,0,1,2.75,5.6"/><g class="cls-9"><path class="cls-10" d="M196.24,390.85h-83.6l-.87,2.55a4.4,4.4,0,0,0,2.75,5.6l66.56,22.68a4.39,4.39,0,0,0,5.59-2.75l9.57-28.08"/><path class="cls-10" d="M181.67,277.93c-4.79,5.82-3.57,9.21-1.19,10.75a2.06,2.06,0,0,0,1.08.42c1.46,0,1.82-3.15,7.33-6.83.67-.45,1.32-.86,1.94-1.22l-9.16-3.12"/></g><rect class="cls-7" x="152.5" y="293.71" width="18" height="18" rx="4.22" transform="translate(-177.06 358.33) rotate(-71.25)"/><path class="cls-7" d="M163.13,312.77l.14-.41-9.06-3.07a3.81,3.81,0,0,1-2.57-3.59,3.67,3.67,0,0,1,.2-1.22l3.07-9.05a3.81,3.81,0,0,1,3.6-2.58,4,4,0,0,1,1.22.2l9.05,3.08a3.8,3.8,0,0,1,2.37,4.81L168.07,310a3.8,3.8,0,0,1-4.81,2.37l-.13.41-.14.4a4.57,4.57,0,0,0,1.49.25,4.66,4.66,0,0,0,4.41-3.16l3.07-9.05a4.57,4.57,0,0,0,.25-1.49,4.64,4.64,0,0,0-3.16-4.4L160,292.24a4.57,4.57,0,0,0-1.49-.25,4.67,4.67,0,0,0-4.41,3.16L151,304.2a4.64,4.64,0,0,0,2.91,5.9l9.05,3.07Z"/><line class="cls-7" x1="176.47" y1="304.68" x2="208.08" y2="315.41"/><path class="cls-7" d="M176.06,305.9l31.61,10.73a1.29,1.29,0,0,0,.82-2.44l-31.61-10.73a1.29,1.29,0,1,0-.82,2.44"/><line class="cls-7" x1="174.76" y1="309.82" x2="206.37" y2="320.56"/><path class="cls-7" d="M174.34,311,206,321.77a1.28,1.28,0,0,0,.83-2.43L175.17,308.6a1.3,1.3,0,0,0-1.63.81,1.28,1.28,0,0,0,.8,1.63"/><rect class="cls-7" x="139.64" y="330.99" width="18" height="18" rx="4.22" transform="translate(-221.09 371.46) rotate(-71.25)"/><path class="cls-7" d="M150.27,350.05l.14-.41-9-3.07a3.79,3.79,0,0,1-2.58-3.59,4,4,0,0,1,.2-1.22l3.08-9.05a3.8,3.8,0,0,1,4.81-2.37l9,3.07a3.79,3.79,0,0,1,2.57,3.59,3.67,3.67,0,0,1-.2,1.22l-3.07,9a3.8,3.8,0,0,1-3.59,2.58,3.68,3.68,0,0,1-1.22-.21l-.14.41-.14.41a4.9,4.9,0,0,0,1.5.24,4.65,4.65,0,0,0,4.4-3.15l3.07-9.05a4.64,4.64,0,0,0-2.91-5.9l-9.05-3.07a4.57,4.57,0,0,0-1.49-.25,4.64,4.64,0,0,0-4.4,3.16l-3.08,9.05a4.55,4.55,0,0,0-.24,1.49,4.64,4.64,0,0,0,3.15,4.4l9,3.08Z"/><line class="cls-7" x1="163.61" y1="341.96" x2="195.23" y2="352.7"/><path class="cls-7" d="M163.2,343.18l31.61,10.73a1.28,1.28,0,0,0,.83-2.43L164,340.75a1.28,1.28,0,1,0-.83,2.43"/><line class="cls-7" x1="161.9" y1="347.11" x2="193.51" y2="357.84"/><path class="cls-7" d="M161.48,348.32l31.62,10.74a1.29,1.29,0,0,0,.82-2.44l-31.61-10.73a1.28,1.28,0,1,0-.83,2.43"/><rect class="cls-7" x="126.78" y="368.28" width="18" height="18" rx="4.22" transform="translate(-265.12 384.58) rotate(-71.25)"/><path class="cls-7" d="M137.41,387.34l.14-.41-9.05-3.07a3.79,3.79,0,0,1-2.57-3.59,3.67,3.67,0,0,1,.2-1.22L129.2,370a3.8,3.8,0,0,1,3.59-2.58,4,4,0,0,1,1.22.2l9.05,3.08a3.76,3.76,0,0,1,2.37,4.81l-3.07,9.05a3.8,3.8,0,0,1-4.81,2.37l-.14.41-.13.4a4.53,4.53,0,0,0,1.49.25,4.64,4.64,0,0,0,4.4-3.16l3.08-9.05a4.84,4.84,0,0,0,.24-1.49,4.64,4.64,0,0,0-3.15-4.4l-9.05-3.08a4.64,4.64,0,0,0-5.9,2.91l-3.07,9a4.64,4.64,0,0,0,2.91,5.9l9.05,3.07Z"/><line class="cls-7" x1="150.76" y1="379.25" x2="182.37" y2="389.98"/><path class="cls-7" d="M150.34,380.47,182,391.2a1.29,1.29,0,0,0,.83-2.44L151.17,378a1.29,1.29,0,0,0-.83,2.44"/><line class="cls-7" x1="149.04" y1="384.39" x2="180.65" y2="395.13"/><path class="cls-7" d="M148.63,385.61l31.61,10.73a1.28,1.28,0,0,0,.83-2.43l-31.62-10.74a1.29,1.29,0,1,0-.82,2.44"/><path class="cls-11" d="M157,294.43,165,310.87a.86.86,0,1,0,1.54-.75l-7.93-16.43a.85.85,0,1,0-1.54.74"/><path class="cls-11" d="M153.93,307l16.44-7.94a.86.86,0,1,0-.75-1.54l-16.44,7.93a.87.87,0,0,0-.4,1.15.87.87,0,0,0,1.15.4"/><path class="cls-12" d="M405.43,339.44a162.32,162.32,0,1,0-14-229.12,162.31,162.31,0,0,0,14,229.12"/><g class="cls-13"><path class="cls-14" d="M469.06,231.58c-7.33,3.65-15.07,7.09-23,10.28a151.91,151.91,0,0,0,19.76,131.36,162.62,162.62,0,0,0,47.15,7c1.74,0,3.48,0,5.22-.08-4.71-25.17-19.11-78.78-49.09-148.53m121.71-95.94a152.73,152.73,0,0,0-21.68,1.55c11.58,7.43,24.78,19.73,36.58,31.81,1.52,1.56,3,3.12,4.48,4.66,1,1,1.89,2,2.82,3,1.51,1.6,3,3.19,4.41,4.73l3.25,3.54-4,4c1.44,1.93,2.86,3.9,4.27,5.89q2.34,3.31,4.48,6.39c20.06,28.75,27.27,42.58,17,67.25a292,292,0,0,1,11.38,30.17A161.35,161.35,0,0,0,675.31,218,162.73,162.73,0,0,0,662,153.41a151.22,151.22,0,0,0-71.23-17.77"/><path class="cls-15" d="M583.07,158.68l2.66-3c-14-11.85-23.65-28.08-38.63-25.22-37.6,7.17-51.56,7.29-79.08,33.8a12.87,12.87,0,0,1,3.77,5.18c-12.34,16.28-13.53,37.5-6.08,54.48,43.91,100,56.37,168.8,54,171.89,0,0,49.64-6.4,89.6-39.78,21.65-18.09,33.38-17.71,40.09-17.33,5.18.29,7.38.59,8.85-7.63,7.54-42-75.17-172.36-75.17-172.36"/><g class="cls-16"><path class="cls-17" d="M642.45,268.46a158.51,158.51,0,0,1-11.11,21.07c-25.54,42-35.53,57.77-43.54,69.21-5.34,7.67-19.28,6.31-25.67,13.83l0,0q5.4-1.71,10.7-3.8a163,163,0,0,0,81-70.18,292,292,0,0,0-11.38-30.17M555,184.81q.11.58.21,1.23c1.69,10,12,27.2,16.71,33.94,12.93,18.35,14.58,41.89,6,62.63-12.85,31-40.82,62.54-64.9,74.74,2.31,9.1,4,16.74,5.12,22.76a163.42,163.42,0,0,0,29.46-3.64,5.43,5.43,0,0,1,.46-2.14c2.81-6.84,5.89-3.64,15.76-14,7-18.94,47.32-111.7,47.32-111.7s-10.93-11.92-25-27.74l-1.71,1.84a358.5,358.5,0,0,1-29.4-37.9"/></g></g><path class="cls-18" d="M213.55,240.72c-8-1.95-15.81-3.71-19.53-3.07-2.89.5-12.22,6.8-20.31,12.78s-13.61,15.95-13.61,15.95c2.09,7.63,18.47-9.56,18.47-9.56s9.53-6.45,12.22-6c2.38.41,6.08,2.06,13.52,2.43a31.55,31.55,0,0,1,4.87,1.56C210.15,250,212.05,245.42,213.55,240.72Z"/><path class="cls-18" d="M192.3,238.24c-1.65.13-3.3.26-5,.43-9.37,4.37-38.42,19.45-38.42,19.45-.14,11.45,29.65-7.57,37.07-7.79.58,0,3.22-3.48,5-3Z"/><path class="cls-19" d="M514.3,195.23q-5-3.85-10.07-7.55c-1.69-1.23-3.39-2.44-5.1-3.65-1.47-1-2.94-2.07-4.35-3.21s-2.55-2.1-3.88-3.08c-9.07,3.06-18.8,6.51-28.08,9-32.68,8.94-123.6,33.72-125.34,34.2l0-.05c-6.22,2-28.17,8.94-50.51,13.61-26.41,5.51-44.51,6-60.28,9.26C223,243,218.72,242,214.51,241c-1.51,4.72-3.43,9.34-4.38,14.2,5.93,2.15,14.86,5.34,20.52,5.27,34.89-.44,110-2.58,115.79-5,20.59-2.86,47-8.15,61.19-10.58,38.09-6.5,83.87-26.3,105.52-47.1-1.42-1.14,2.6-1.45,1.15-2.57"/><g class="cls-20"><path class="cls-21" d="M411.09,200.91l-33.66,9.18,37.82,33.35q4.14-.87,8.36-1.92c-2.54-8.36-5-16.75-7.68-25.08-1.93-6.09-3.24-9.69-4.84-15.53"/></g><path class="cls-19" d="M208.49,254.73c2.42,1.8,1-2.52,1.08.54a11.61,11.61,0,0,1-.19,2.43l19-14.17c-12.36-2.69-26.47-5.69-32-6.44S151,235.3,151,235.3c-5.66,9.94,29.62,7.72,36.21,11.11.52.27,10.64,4,12,5.31C203.75,248.63,203.65,251.12,208.49,254.73Z"/><path class="cls-15" d="M511.69,187.62c-3.46-2.34-6.81-4.81-10.12-7.34s-6.58-5.15-9.85-7.76-6.59-5.26-9.93-7.84c-2.09-1.6-4.2-3.18-6.34-4.72a67,67,0,0,0-7.66,7.75c-13.35,15.77-44.69,28.26-57,32.06,1.76,6.53,3.1,10.2,5.16,16.67,3.14,9.88,6.06,19.84,9.1,29.75l.93,3c41-13.7,80.86-34.9,93.35-56.79-2.6-1.51-5.14-3.12-7.62-4.8"/><g class="cls-22"><path class="cls-23" d="M430.41,192.25q-3.07,1.37-6,2.54l17.7,48.59q3-1.17,6-2.38l-17.75-48.75"/><path class="cls-23" d="M420.66,196.3c-2.2.84-4.24,1.59-6.07,2.22L432.27,247c2-.72,4.05-1.45,6.07-2.21L420.66,196.3"/></g><path class="cls-19" d="M395.57,135.14c-.1-.38-.21-.73-.32-1.07-.4-.66-.79-1.32-1.17-2-13.95-24.4-8.19-54.28,12.86-66.73l1-.56a38.73,38.73,0,0,1,11.94-8.27c22.35-9.93,50.42-2.41,62.07,21.41,3.75,7.67,1.05,26.64-.81,36.24a19.36,19.36,0,0,0,3.13,14.74c9,12.89,8.57,9.83,12,13.42a3.77,3.77,0,0,1,1,3.33s-2.66,41.55-11.08,44c-3.29.95-23.12-9.91-24.47-12.45-3.89-7.28-6.58-13-11.35-17.16-2.83-2.44-2.7-2.22-2.7-2.22s-13.32,8.09-19.48,6.89c-9.87-1.92-19.17-11.47-26.35-20.92-1.4.29-6,1.13-7.71-.14-1.26-1,3.14-2,1.51-8.51"/><path class="cls-24" d="M476.59,68.81c-8-9-15.14-13.74-21.67-15.67-3.74-1.1-6-.88-7.55-.23l.05-.07s-1.59-2.81-16.65-2.62c-10.4.12-14.88,4.78-32.88,11.13-5,1.77-11.87,9.08-11.29,7.25,0,0-1-17.83,2.26,3.22l-3.09-6S370.9,81.08,383.06,90c5,3.65,12.26.26,17.09-2a181.45,181.45,0,0,0,24.22-13.54c2.17,3.53,8.53,12,19.81,13.1,10,.92,9,9.32,9.07,13.36s-.07,13.33-.15,18.36a3.66,3.66,0,0,0,3.23,3.7l5.4.67a1.4,1.4,0,0,0,1.56-1.34l.7-20.81s2-9.67,7.92-6.57,3.35,11.23.4,14.66c-1,1.18-.55,3.77.25,6a8.14,8.14,0,0,0,3.61,4.3l5.08,2.66a37.69,37.69,0,0,1,.92-9.05c2.3-11.78,5.46-32.25-5.58-44.65"/><g class="cls-25"><path class="cls-26" d="M386.54,67.32h0m45.62-17.11h-1.39c-10.4.12-14.88,4.78-32.88,11.13a19.6,19.6,0,0,0-4.33,2.39c0,.54.07,1.1.12,1.67l-.59-1.34c-1.89,1.35-3.65,2.85-4.87,3.81.19,1.13.4,2.43.64,3.94l-1.65-3.19a1.25,1.25,0,0,1-.55.26l-.09-.11,0-.18s0-.52-.06-1.28l-.77-1.49s-.24.25-.64.71c-2.89,4.94-4.57,11.48,1.69,16.64a9,9,0,0,0,5.94,1.94c3.86,0,8.06-1.67,11.23-2.94A410.56,410.56,0,0,0,441.4,63.7c2,3.64,14.5,1.75,20.2,13.42,4.41,9-5.19,17.07-5.36,21.1s-.86,13.31-1.24,18.32a3.68,3.68,0,0,0,3,3.89l5.31,1,.67-20s1.39-6.78,5.33-7.17a4.75,4.75,0,0,1,3.42-1.7,4.81,4.81,0,0,1,2.49.76c5.75,3.45,2.67,11.42-.48,14.66-1.09,1.12-.77,3.73-.1,6a8.16,8.16,0,0,0,3.35,4.52l3.26,2a49.77,49.77,0,0,1,.91-7,104,104,0,0,0,2.25-19.8A46.16,46.16,0,0,0,482,78.15a28.06,28.06,0,0,0-5.44-9.34,76.85,76.85,0,0,0-7.31-7.28c-5.13-4.44-9.88-7.06-14.36-8.39a16.46,16.46,0,0,0-4.6-.77,7.62,7.62,0,0,0-2.95.54l.05-.07s-1.49-2.63-15.26-2.63"/><path class="cls-26" d="M387.34,63.28c-.29.37-.59.78-.89,1.19,0,1,.05,2,.09,2.85l.67,1.31c.27-.18.61-.44,1-.75-.36-2.12-.65-3.61-.88-4.6"/></g><path class="cls-27" d="M419.52,153.06l7.61-9.08a1.21,1.21,0,0,0-1.85-1.55l-7.61,9.08a1.21,1.21,0,0,0,1.85,1.55"/><path class="cls-27" d="M392.21,127.43l1-.52c-.17-.31-.33-.57-.43-.77l-.06-.1a10.1,10.1,0,0,0-.68-.9,6,6,0,0,0-2-1.56,5.26,5.26,0,0,0-2.25-.5,6,6,0,0,0-.74,0h0a7.43,7.43,0,0,0-1.91.5,7.11,7.11,0,0,0-2.51,1.59,5.06,5.06,0,0,0-1.46,3,6.27,6.27,0,0,0-.05.74,8.8,8.8,0,0,0,1.19,4.06,48.75,48.75,0,0,0,3.22,5.61,19.14,19.14,0,0,0,2.48,3,8.28,8.28,0,0,0,3,1.94,5,5,0,0,0,1.49.24,4.55,4.55,0,0,0,1.6-.3h0a4.24,4.24,0,0,0,2.34-2.2,6.46,6.46,0,0,0,.54-2.77v-.31h0a16,16,0,0,0-.52-3.3,36.08,36.08,0,0,0-2.63-6.8h0q-.25-.53-.54-1.05h0l0-.08h0l-1,.52-.95.51.05.08h0c.18.33.35.67.52,1h0a33.84,33.84,0,0,1,2.47,6.38,14,14,0,0,1,.45,2.83h0v.25a4.34,4.34,0,0,1-.34,1.86,2.06,2.06,0,0,1-1.17,1.1h0a2.17,2.17,0,0,1-.81.16,2.55,2.55,0,0,1-.81-.14,6.18,6.18,0,0,1-2.18-1.44,17.58,17.58,0,0,1-2.2-2.64,48.09,48.09,0,0,1-3.07-5.37,6.9,6.9,0,0,1-1-3.07,3.83,3.83,0,0,1,0-.47,3,3,0,0,1,.85-1.72,5.11,5.11,0,0,1,1.77-1.1,5.24,5.24,0,0,1,1.37-.36h0a3.59,3.59,0,0,1,.47,0,3,3,0,0,1,1.34.3,4,4,0,0,1,1.31,1,6.3,6.3,0,0,1,.5.68l.9-.6-1,.5c.17.32.34.59.47.82h0Z"/><path class="cls-19" d="M414.41,148.85c-1.58-3-3.17-6-4.9-8.86-.87-1.44-1.77-2.86-2.68-4.27a48.42,48.42,0,0,1-2.55-4.26,27.24,27.24,0,0,1-1.76-4.63c-.36-1.19-.72-2.37-1.14-3.54a17.67,17.67,0,0,1-.93-3.11,7,7,0,0,1-.1-.92l-.29-.11c-2.35-.89-4.75-1.65-7.18-2.33a40.51,40.51,0,0,0-5.15-1.19c1.22,5.59,2.2,9.27,5.23,14.57.38.66-.16,12.48,1.1,13.45,1.74,1.27,6.31.43,7.71.14a63,63,0,0,0,13.41,13.43,26.6,26.6,0,0,0,2.27-2.72C416.42,152.63,415.42,150.74,414.41,148.85Z"/><path class="cls-27" d="M393.74,123.86,389.62,126a1.2,1.2,0,0,0,1.09,2.14l4.13-2.11a1.21,1.21,0,0,0-1.1-2.15"/><path class="cls-27" d="M472.11,92.81l-56.77,20.62a1.2,1.2,0,0,0,.82,2.26l56.77-20.62a1.19,1.19,0,0,0,.72-1.54,1.21,1.21,0,0,0-1.54-.72"/><path class="cls-27" d="M415.4,115.59l1-.61c-.22-.37-.41-.62-.47-.75l-.14-.21a5.71,5.71,0,0,0-1-1h0a6.77,6.77,0,0,0-3.27-1.18,10.32,10.32,0,0,0-1.11-.06,15.93,15.93,0,0,0-3.93.56,30,30,0,0,0-3.61,1.2,21.73,21.73,0,0,0-7.6,4.53,8.81,8.81,0,0,0-1.47,1.91,6,6,0,0,0-.79,2.45c0,.15,0,.31,0,.48a5.07,5.07,0,0,0,.5,2.22,26.08,26.08,0,0,0,4.09,6.45,13.22,13.22,0,0,0,3.6,2.81,11,11,0,0,0,4.86,1.23h.14a13.9,13.9,0,0,0,5-1,14.3,14.3,0,0,0,4.72-3,10.14,10.14,0,0,0,2.43-3.82,11.35,11.35,0,0,0,.62-3.81v-.2a18.69,18.69,0,0,0-1.94-7.64c-.18-.37-.37-.75-.57-1.11l0,0-.05-.08h0l-1,.61-1,.6.05.09,1-.61-1.05.58.51,1a16.27,16.27,0,0,1,1.71,6.64h0v.17a9.09,9.09,0,0,1-.49,3,7.67,7.67,0,0,1-1.86,2.91,11.62,11.62,0,0,1-3.91,2.43,11.29,11.29,0,0,1-4.15.86h-.11a8.37,8.37,0,0,1-3.78-.95,11,11,0,0,1-2.94-2.32,23.35,23.35,0,0,1-3.69-5.85,2.65,2.65,0,0,1-.27-1.18l0-.27a3.59,3.59,0,0,1,.49-1.49,6.6,6.6,0,0,1,1.08-1.39,19.49,19.49,0,0,1,6.77-4,28.83,28.83,0,0,1,3.33-1.1,13.81,13.81,0,0,1,3.33-.48,8.38,8.38,0,0,1,.86,0,4.5,4.5,0,0,1,2.11.73h0a2.9,2.9,0,0,1,.57.54l.93-.77-1.07.55c.22.42.44.69.54.87h0Z"/><path class="cls-19" d="M463.55,104l-.23,16.49a1.79,1.79,0,0,0,3.31,1l8.25-9.45c3.82-4.43,7.19-15-.51-19-4.05-2.1-6.81.28-8.53,3C465.84,96,463.73,98.7,463.55,104Z"/><path class="cls-19" d="M555.29,142.13c-4.43,4.63-8.75,9.35-13.12,14-2.55,2.73,6.68,8.42,3.94,11,8.46,9.1,7.29,16.3,16.06,26.45,23.4,27.11,49,55,49,55s-40.33,92.76-47.32,111.7c-9.87,10.38-13,7.18-15.76,14s7.67,5.75,14.06-1.76,20.33-6.16,25.67-13.83c8-11.44,18-27.22,43.54-69.21s18.52-53.69-10.4-94.71c-19.05-27-40.82-47.85-61.3-57.21-1.45,1.5-2.91,3-4.35,4.52"/><g class="cls-28"><path class="cls-21" d="M616.67,188.93Q610.28,195.44,604,202q-9,9.35-17.84,18.86l3.08,3.45,36.22-23.11q-2.14-3.08-4.48-6.39c-1.41-2-2.83-4-4.27-5.89"/></g><path class="cls-15" d="M604,202q8.28-8.61,16.67-17.11c-22.42-24.54-59.11-62.12-74.93-53.45-29.62,16.26,38.54,91,38.71,91.26Q594.09,212.24,604,202"/><g class="cls-29"><path class="cls-23" d="M613,176.63l-35.81,37.66c1.63,2,3.06,3.63,4.21,5l36-37.88c-1.43-1.54-2.9-3.13-4.41-4.73"/><path class="cls-23" d="M605.67,169l-35.22,37.05c1.43,1.8,2.8,3.5,4.09,5.08l35.61-37.47c-1.46-1.54-3-3.1-4.48-4.66"/></g><path class="cls-19" d="M387.61,85.18s-7.92,3.48-5.07-13.62"/><path class="cls-18" d="M553.78,360.39c-1.27,4-10.75,8.8-14,10.77-2.59,1.57-12.37,3.64-12.37,3.64a3.32,3.32,0,0,0-.3,1.63c.24,3.49,9.11,3.1,14.54,1.08,2.15-.81,9.36-3.4,12.17-5.08,1.12-.67,2.21.63,3.45-.07,3.39-1.91,5.59-4,5.13-7.27-.06-.37-.26-.36-.26-1.07,0-2.13,2.61-3.17,4-5.23C561.28,360.41,558.76,358.61,553.78,360.39Z"/><path class="cls-19" d="M572.5,350.09c-3.46,4.28-8.25,6.92-10,12.75-1.53,5.13-2.24,19.54-2.24,19.54s11.65,21.24,14.85,25.52c4.44-1.39,3.45-6.9,1.73-10.77-1.07-2.38-5.82-15-6.07-16.45-.65-3.77-1.9-6.31,1.26-9.74s14.28-5.55,18.25-10.95c.69-.94,1.74-6.27,2.83-7.86C586.29,350.88,579.42,351.6,572.5,350.09Z"/><path class="cls-19" d="M576.36,352.76c-7.75,4.75-22.58,7.63-22.58,7.63l-15.24,17.52a3,3,0,0,0-.54,2.21c.63,4,2.89,22.4,4.07,29.79,5.63-2.13,6.09-5.11,6.79-10.25.93-6.81-.9-19,4.63-25.06.76-.83,4-1.91,5.07-2.4.94-5.34,11-5.29,16-7.87C573,360.09,577.81,357.08,576.36,352.76Z"/><path class="cls-19" d="M557.23,360.19c-.94,3-2.76,10.07-3.27,11.24-.57,6.54,1.15,20,1.15,20s4.76,19.49,7.44,25.69c3.06-1.43,4.65-2.39,4.54-7.87-.07-3.1-3.65-22.41-3.65-22.41s-.06-8.7.57-11.07c.19-.71,10.16-20.75,11.22-21.71-2.37-1.4-14.15,8.37-16.48,5.81A.89.89,0,0,0,557.23,360.19Z"/><path class="cls-19" d="M555.65,377.58l-9.48.26c0,5.28.18,10.13.18,10.13s3.2,19.81,5.38,26.21c3.16-1.19,4.82-2,5.14-7.49.18-3.09-1.85-22.63-1.85-22.63S555.26,380.68,555.65,377.58Z"/><path class="cls-23" d="M551.33,204.77a1.93,1.93,0,0,0-1.05.3c-15.58,9.58-27.51,10.45-31.43,10.46-.47,0-.83,0-1.06,0h-.51a2,2,0,0,0-.21,4h0a17,17,0,0,0,1.78.07h0c4.53,0,17.25-1.06,33.5-11.06a2,2,0,0,0-1-3.7"/><path class="cls-24" d="M449.05,74l8.77-.94a124.6,124.6,0,0,0-6.53-11.6C439,42,424.52,56.29,424.52,56.29c-9,7.89-17.41,7.34-17.41,7.34s-19.81-8.06-35.76,2.76,3.32,27.32,3.32,27.32a22,22,0,0,0,20.16,6.72,49.4,49.4,0,0,0,10.09-3.06c13.93-5.88,16.49-19.26,28.95-28.62C438.94,65,444.38,68.45,449.05,74Z"/><path class="cls-19" d="M408.27,88s-23.35,3.28-26.92-13.53"/><path class="cls-19" d="M398.49,92.22s-23.36,3.29-26.93-13.53"/><path class="cls-19" d="M212.12,250.22l-1.26-.85c-3.65-2.42-7.87-1.31-11.44,1.23-1.29.93.48,2.46-.87,3.44a43.85,43.85,0,0,0-9.41,8.66c-6.63,8.72-4.73,13.06-1.52,14.7s1.81-2.52,8.95-8.49c10.55-8.85,15.58-5.26,22.6-7.13,4.92-1.31,11.56-8.63,13.91-11.08C230.73,249,214.53,251.86,212.12,250.22Z"/></svg>