<?xml version="1.0" encoding="UTF-8" standalone="no"?>
<!DOCTYPE svg PUBLIC "-//W3C//DTD SVG 1.1//EN" "http://www.w3.org/Graphics/SVG/1.1/DTD/svg11.dtd">
<svg width="100%" height="100%" viewBox="0 0 289 288" version="1.1" xmlns="http://www.w3.org/2000/svg" xmlns:xlink="http://www.w3.org/1999/xlink" xml:space="preserve" xmlns:serif="http://www.serif.com/" style="fill-rule:evenodd;clip-rule:evenodd;stroke-linejoin:round;stroke-miterlimit:2;">
    <g transform="matrix(1,0,0,1,-934,0)">
        <g id="AirGap-Wallet-288x288-C-192_DARK" serif:id="AirGap Wallet 288x288 C-192_DARK" transform="matrix(0.322342,0,0,0.381756,866.507,-915.023)">
            <rect x="209.982" y="2396.88" width="893.46" height="754.409" style="fill:none;"/>
            <g transform="matrix(3.23602,0,0,2.75044,194.438,2445.35)">
                <ellipse cx="142.853" cy="119.519" rx="92.033" ry="91.429" style="fill:none;"/>
            </g>
            <g transform="matrix(0.432398,0,0,0.365883,-6.45915,3439.88)">
                <g transform="matrix(4.16667,0,0,4.16667,1453.96,-2212.87)">
                    <path d="M0,200.331C-18.183,193.83 -35.481,181.562 -48.735,165.76C-62.099,149.829 -70.479,131.273 -72.333,113.51C-75.608,82.124 -73.703,40.285 -72.695,23.246C-64.565,20.727 -51.414,16.42 -40.342,11.721C-31.036,7.77 -21.81,3.265 -14.304,-0.593L-14.304,-26.163C-21.77,-22.1 -35.541,-14.867 -49.173,-9.08C-64.939,-2.387 -86.346,3.753 -86.559,3.814L-94.124,5.973L-94.724,13.817C-94.909,16.241 -99.212,73.657 -94.808,115.856C-92.492,138.054 -82.278,160.935 -66.048,180.283C-50.172,199.209 -29.297,213.929 -7.266,221.731L4.653,225.95C6.191,226.494 7.804,225.354 7.804,223.723L7.804,211.078C7.804,206.057 4.53,201.802 0,200.331" style="fill:rgb(107,108,110);fill-rule:nonzero;"/>
                </g>
                <g transform="matrix(4.16667,0,0,4.16667,1394.36,-1513.86)">
                    <path d="M0,-146.988C0,-128.465 15.069,-113.396 33.592,-113.396L51.224,-113.499C59.345,-113.482 65.919,-106.747 65.67,-98.566C65.431,-90.693 58.763,-84.532 50.886,-84.532L15.357,-84.532C-5.211,-84.532 -21.922,-67.699 -21.722,-47.086C-21.524,-26.672 -4.585,-10.371 15.83,-10.371L33.764,-10.371C39.826,-10.371 44.759,-5.438 44.759,0.609C44.759,0.609 44.71,36.051 44.71,43.423L44.71,56.067C44.71,57.698 46.323,58.839 47.86,58.294L59.78,54.073C105.861,37.754 142.743,-7.02 147.477,-52.389C151.884,-94.626 147.23,-151.617 147.03,-154.022L146.381,-161.81L138.865,-163.951C138.648,-164.013 117.027,-170.198 101.349,-176.887C81.495,-185.358 61.417,-196.989 61.217,-197.104L47.789,-204.911C46.215,-205.827 44.24,-204.691 44.24,-202.869L44.24,-187.327C44.24,-183.005 46.667,-179.251 50.233,-177.353C53.235,-175.623 72.6,-164.585 92.482,-156.102C103.563,-151.374 116.871,-147.026 125.058,-144.496C126.161,-127.598 128.276,-86.114 125.001,-54.735C123.144,-36.931 114.728,-18.262 101.306,-2.166C91.664,9.396 79.937,19.064 67.323,25.983C67.338,13.974 67.356,0.634 67.356,0.624C67.356,-17.899 52.286,-32.968 33.764,-32.968L15.357,-32.968C7.225,-32.968 0.637,-39.704 0.88,-47.89C1.114,-55.767 7.784,-61.935 15.665,-61.935L50.721,-61.935C71.135,-61.935 88.074,-78.236 88.272,-98.65C88.473,-119.263 71.762,-136.097 51.194,-136.097L33.563,-135.993C27.514,-136.009 22.597,-140.935 22.597,-146.988L22.597,-202.701C22.597,-204.516 20.635,-205.653 19.06,-204.75L5.678,-197.077C5.614,-197.04 3.498,-195.831 0,-193.927L0,-146.988Z" style="fill:white;fill-rule:nonzero;"/>
                </g>
            </g>
        </g>
    </g>
</svg>
