<?xml version="1.0" encoding="UTF-8" standalone="no"?><!DOCTYPE svg PUBLIC "-//W3C//DTD SVG 1.1//EN" "http://www.w3.org/Graphics/SVG/1.1/DTD/svg11.dtd"><svg width="100%" height="100%" viewBox="0 0 4267 4267" version="1.1" xmlns="http://www.w3.org/2000/svg" xmlns:xlink="http://www.w3.org/1999/xlink" xml:space="preserve" xmlns:serif="http://www.serif.com/" style="fill-rule:evenodd;clip-rule:evenodd;stroke-linejoin:round;stroke-miterlimit:2;"><rect id="Page-4" serif:id="Page 4" x="0" y="0" width="4266.67" height="4266.67" style="fill:none;"/><g id="Logo"><rect x="0" y="0" width="4266.67" height="4266.67" style="fill:#fff;"/></g><g id="WALLET"><path d="M1890.24,3479.31c-230.95,-82.575 -450.667,-238.4 -619.017,-439.1c-169.742,-202.354 -276.188,-438.046 -299.729,-663.658c-41.596,-398.655 -17.396,-930.084 -4.592,-1146.51c103.258,-31.991 270.296,-86.691 410.925,-146.383c118.2,-50.179 235.392,-107.396 330.721,-156.4l0,-324.792c-94.825,51.621 -269.738,143.488 -442.879,216.988c-200.267,85.012 -472.159,163 -474.867,163.775l-96.083,27.425l-7.621,99.633c-2.354,30.779 -57.004,760.058 -1.075,1296.05c29.425,281.954 159.154,572.575 365.3,818.329c201.646,240.392 466.804,427.354 746.621,526.45l151.4,53.592c19.529,6.912 40.021,-7.571 40.021,-28.283l0,-160.617c0,-63.767 -41.588,-117.808 -99.125,-136.5" style="fill:#a4d5cd;fill-rule:nonzero;"/><path d="M1708.55,1198.67c0,235.266 191.404,426.671 426.675,426.671l223.95,-1.309c103.15,0.217 186.654,85.767 183.491,189.671c-3.041,100 -87.733,178.258 -187.783,178.258l-451.271,0c-261.25,0 -473.504,213.809 -470.962,475.63c2.512,259.287 217.666,466.337 476.966,466.337l227.788,0c77.004,0 139.654,62.65 139.654,139.454c0,0 -0.625,450.179 -0.625,543.804l0,160.613c0,20.717 20.496,35.2 40.021,28.283l151.396,-53.616c585.304,-207.275 1053.76,-775.975 1113.89,-1352.24c55.98,-536.475 -3.129,-1260.35 -5.675,-1290.9l-8.245,-98.921l-95.467,-27.192c-2.75,-0.783 -277.371,-79.35 -476.504,-164.308c-252.184,-107.592 -507.209,-255.321 -509.742,-256.787l-170.554,-99.167c-20.004,-11.629 -45.088,2.804 -45.088,25.942l0,197.408c0,54.9 30.83,102.575 76.121,126.692c38.138,21.975 284.092,162.175 536.629,269.912c140.755,60.054 309.784,115.283 413.775,147.417c14.009,214.633 40.867,741.546 -0.725,1140.12c-23.595,226.134 -130.483,463.263 -300.975,667.709c-122.466,146.858 -271.412,269.646 -431.633,357.529c0.188,-152.529 0.417,-321.967 0.417,-322.092c0,-235.271 -191.404,-426.675 -426.671,-426.675l-233.792,0c-103.287,0 -186.971,-85.562 -183.883,-189.529c2.967,-100.058 87.692,-178.396 187.796,-178.396l445.258,0c259.3,0 474.454,-207.054 476.967,-466.337c2.541,-261.825 -209.709,-475.634 -470.959,-475.634l-223.937,1.309c-76.838,-0.2 -139.283,-62.767 -139.283,-139.65l0,-707.642c0,-23.058 -24.93,-37.496 -44.934,-26.029l-169.962,97.458c-0.825,0.471 -27.696,15.829 -72.125,40.017l0,596.196Z" style="fill:#01b19e;fill-rule:nonzero;"/></g></svg>