<?xml version="1.0" encoding="UTF-8" standalone="no"?><!DOCTYPE svg PUBLIC "-//W3C//DTD SVG 1.1//EN" "http://www.w3.org/Graphics/SVG/1.1/DTD/svg11.dtd"><svg width="100%" height="100%" viewBox="0 0 11384 11384" version="1.1" xmlns="http://www.w3.org/2000/svg" xmlns:xlink="http://www.w3.org/1999/xlink" xml:space="preserve" xmlns:serif="http://www.serif.com/" style="fill-rule:evenodd;clip-rule:evenodd;stroke-linejoin:round;stroke-miterlimit:2;"><rect id="Page-2xy" serif:id="Page 2xy" x="0" y="0" width="11383.3" height="11383.3" style="fill:none;"/><g id="Logo"><rect x="0" y="0" width="11383.3" height="11383.3"/><path d="M4098.84,6495.13l120.941,0l-60.471,-170.708l-60.47,170.708Zm-108.1,136.459l138.066,-374.596l62.079,0l136.992,374.596l-59.933,0l-32.109,-91.509l-153.05,0l-32.108,91.509l-59.937,0Z" style="fill:#f9fffe;fill-rule:nonzero;"/><path d="M4371.23,6366.16l56.721,-0.001l0,265.43l-56.721,0l0,-265.43Zm28.363,-50.304c-10.705,0 -19.534,-3.291 -26.492,-9.9c-6.959,-6.596 -10.434,-14.891 -10.434,-24.883c0.001,-9.983 3.475,-18.279 10.434,-24.883c6.958,-6.596 15.787,-9.9 26.492,-9.9c10.699,0 19.533,3.304 26.487,9.9c6.954,6.604 10.433,14.9 10.433,24.883c0,9.992 -3.479,18.287 -10.433,24.883c-6.954,6.609 -15.788,9.9 -26.488,9.9" style="fill:#f9fffe;fill-rule:nonzero;"/><path d="M4492.16,6631.59l0,-265.43l50.838,0l4.816,50.305c9.271,-17.475 22.209,-31.305 38.8,-41.471c16.588,-10.171 36.655,-15.254 60.2,-15.254l0,59.4l-15.52,0c-15.7,0 -29.7,2.591 -42.009,7.762c-12.308,5.175 -22.125,13.913 -29.429,26.221c-7.316,12.308 -10.971,29.35 -10.971,51.104l0,127.363l-56.725,0Z" style="fill:#f9fffe;fill-rule:nonzero;"/><path d="M4860.33,6638.01c-35.316,0 -66.179,-8.029 -92.579,-24.084c-26.404,-16.05 -46.917,-38.529 -61.542,-67.425c-14.629,-28.895 -21.937,-62.612 -21.937,-101.141c0,-38.171 7.492,-71.884 22.475,-101.138c14.983,-29.25 36.3,-52.179 63.95,-68.766c27.642,-16.592 60.379,-24.884 98.196,-24.884c42.812,0 78.479,10.35 107.025,31.038c28.541,20.696 47.096,49.233 55.658,85.62l-64.217,0.001c-5.712,-19.975 -16.95,-35.671 -33.716,-47.092c-16.771,-11.413 -38.354,-17.125 -64.75,-17.125c-39.25,0 -70.104,12.667 -92.579,37.996c-22.475,25.333 -33.713,60.296 -33.713,104.887c0,44.6 11.054,79.383 33.179,104.35c22.117,24.975 51.546,37.458 88.296,37.458c37.1,0.001 65.021,-10.516 83.75,-31.57c18.729,-21.046 29.7,-49.05 32.913,-84.017l-101.68,0l0,-43.883l158.938,0l0,203.354l-51.908,0l-4.817,-55.121c-12.492,19.625 -28.188,34.783 -47.092,45.487c-18.916,10.705 -43.529,16.055 -73.85,16.055" style="fill:#f9fffe;fill-rule:nonzero;"/><path d="M5225.29,6588.78c24.258,0 44.15,-8.379 59.666,-25.15c15.521,-16.767 23.279,-38.346 23.279,-64.754c0,-26.755 -7.758,-48.43 -23.279,-65.017c-15.516,-16.592 -35.408,-24.883 -59.666,-24.883c-24.267,0 -44.242,8.291 -59.938,24.883c-15.7,16.587 -23.546,38.262 -23.546,65.017c0,17.487 3.563,33.004 10.704,46.558c7.134,13.562 17.034,24.175 29.7,31.842c12.659,7.675 27.025,11.504 43.08,11.504m-10.167,49.233c-25.688,0 -48.346,-6.071 -67.963,-18.196c-19.625,-12.125 -34.97,-28.712 -46.025,-49.766c-11.058,-21.046 -16.587,-44.95 -16.587,-71.709c0,-26.758 5.529,-50.571 16.587,-71.441c11.055,-20.871 26.492,-37.275 46.292,-49.234c19.8,-11.946 42.542,-17.925 68.229,-17.925c21.046,0 39.509,4.104 55.388,12.309c15.871,8.208 28.271,19.8 37.191,34.783l3.213,-40.671l53.512,0l0,265.429l-52.979,0l-3.746,-41.208c-8.562,12.492 -20.337,23.546 -35.316,33.179c-14.988,9.633 -34.25,14.45 -57.796,14.45" style="fill:#f9fffe;fill-rule:nonzero;"/><path d="M5565.64,6588.78c24.258,0 44.233,-8.296 59.937,-24.884c15.692,-16.587 23.542,-38.262 23.542,-65.02c0,-17.475 -3.567,-32.992 -10.7,-46.555c-7.142,-13.554 -16.95,-24.166 -29.433,-31.841c-12.492,-7.667 -26.942,-11.504 -43.346,-11.504c-24.267,0 -44.15,8.383 -59.667,25.15c-15.521,16.775 -23.279,38.354 -23.279,64.75c0,26.758 7.758,48.433 23.279,65.02c15.517,16.588 35.4,24.884 59.667,24.884m-139.671,160.541l0,-383.158l50.838,0l5.887,41.204c8.563,-12.483 20.333,-23.546 35.317,-33.175c14.987,-9.633 34.25,-14.45 57.796,-14.45c25.687,0 48.337,6.071 67.962,18.196c19.617,12.129 35.05,28.721 46.292,49.767c11.233,21.054 16.854,44.95 16.854,71.708c0,26.754 -5.621,50.571 -16.854,71.442c-11.242,20.866 -26.675,37.283 -46.292,49.229c-19.625,11.95 -42.458,17.929 -68.496,17.929c-20.696,0 -38.983,-4.108 -54.854,-12.308c-15.875,-8.204 -28.454,-19.8 -37.725,-34.784l0,158.4l-56.725,0Z" style="fill:#f9fffe;fill-rule:nonzero;"/><path d="M5960.57,6632.12l-101.142,-375.129l61.004,0l74.388,310.379l85.621,-310.379l62.612,0l82.946,310.379l74.383,-310.379l61.005,0l-102.746,374.596l-66.359,0l-81.875,-293.792l-84.55,293.792l-65.287,0.533Z" style="fill:#8a8c8e;fill-rule:nonzero;"/><path d="M6503.73,6588.78c24.258,0 44.15,-8.379 59.666,-25.15c15.521,-16.767 23.28,-38.346 23.28,-64.754c0,-26.755 -7.759,-48.43 -23.28,-65.017c-15.516,-16.592 -35.408,-24.883 -59.666,-24.883c-24.263,0 -44.242,8.291 -59.938,24.883c-15.7,16.587 -23.546,38.262 -23.546,65.017c0,17.487 3.563,33.004 10.705,46.558c7.133,13.562 17.033,24.175 29.7,31.842c12.662,7.675 27.025,11.504 43.079,11.504m-10.167,49.233c-25.687,0 -48.346,-6.071 -67.962,-18.196c-19.625,-12.125 -34.967,-28.712 -46.025,-49.766c-11.059,-21.046 -16.588,-44.95 -16.588,-71.709c0,-26.758 5.529,-50.571 16.588,-71.441c11.058,-20.871 26.491,-37.275 46.291,-49.234c19.8,-11.946 42.542,-17.925 68.229,-17.925c21.046,0 39.509,4.104 55.388,12.309c15.871,8.208 28.271,19.8 37.192,34.783l3.212,-40.671l53.513,0l0,265.429l-52.98,0l-3.745,-41.208c-8.563,12.492 -20.338,23.546 -35.317,33.179c-14.988,9.633 -34.25,14.45 -57.796,14.45" style="fill:#8a8c8e;fill-rule:nonzero;"/><rect x="6704.41" y="6246.29" width="56.725" height="385.296" style="fill:#8a8c8e;"/><rect x="6822.13" y="6246.29" width="56.725" height="385.296" style="fill:#8a8c8e;"/><path d="M7064.01,6406.3c-18.912,-0.001 -35.679,5.62 -50.304,16.858c-14.633,11.237 -23.546,28.091 -26.754,50.571l149.833,0c-1.066,-20.688 -8.383,-37.1 -21.937,-49.234c-13.563,-12.125 -30.504,-18.195 -50.838,-18.195m0,231.712c-26.046,0 -49.15,-5.8 -69.3,-17.392c-20.158,-11.587 -35.946,-27.733 -47.362,-48.429c-11.421,-20.687 -17.121,-44.767 -17.121,-72.242c0,-27.829 5.617,-52.262 16.854,-73.316c11.242,-21.042 26.933,-37.459 47.092,-49.229c20.154,-11.775 43.612,-17.663 70.371,-17.663c26.037,0 48.7,5.804 67.962,17.392c19.267,11.6 34.25,27.025 44.954,46.291c10.704,19.267 16.05,40.496 16.05,63.68c0,3.57 -0.091,7.408 -0.266,11.508c-0.184,4.104 -0.45,8.654 -0.8,13.646l-206.563,0c1.779,25.687 10.25,45.216 25.417,58.596c15.162,13.379 32.725,20.066 52.712,20.066c16.054,0 29.517,-3.654 40.4,-10.966c10.879,-7.313 19,-17.209 24.35,-29.705l56.725,0c-7.141,24.98 -21.321,45.85 -42.546,62.613c-21.225,16.775 -47.541,25.15 -78.929,25.15" style="fill:#8a8c8e;fill-rule:nonzero;"/><path d="M7346.03,6631.59c-26.046,0 -46.741,-6.33 -62.075,-18.996c-15.346,-12.663 -23.012,-35.229 -23.012,-67.696l0,-131.108l-45.484,0l0,-47.63l45.484,0l6.958,-67.425l49.767,0l0,67.425l74.921,0l0,47.63l-74.921,0l0,131.108c0,14.633 3.121,24.708 9.366,30.233c6.238,5.538 17.034,8.296 32.375,8.296l30.505,0l0,48.163l-43.884,0Z" style="fill:#8a8c8e;fill-rule:nonzero;"/></g><g id="WALLET"><path d="M5611.92,5631.78c-75.763,-27.088 -147.838,-78.204 -203.063,-144.046c-55.683,-66.379 -90.6,-143.696 -98.325,-217.708c-13.645,-130.775 -5.708,-305.104 -1.508,-376.1c33.875,-10.496 88.671,-28.442 134.804,-48.021c38.775,-16.463 77.217,-35.233 108.492,-51.308l0,-106.542c-31.108,16.929 -88.488,47.067 -145.288,71.179c-65.691,27.888 -154.887,53.471 -155.775,53.725l-31.52,8.996l-2.5,32.683c-0.771,10.1 -18.7,249.334 -0.35,425.163c9.65,92.491 52.208,187.829 119.833,268.446c66.15,78.858 153.129,140.191 244.925,172.7l49.662,17.579c6.409,2.266 13.13,-2.484 13.13,-9.279l0,-52.688c0,-20.921 -13.642,-38.65 -32.517,-44.779" style="fill:#9d9fa2;fill-rule:nonzero;"/><path d="M5552.32,4883.64c0,77.179 62.787,139.966 139.966,139.966l73.467,-0.429c33.838,0.071 61.229,28.133 60.192,62.221c-0.996,32.804 -28.779,58.475 -61.6,58.475l-148.038,0c-85.7,0 -155.329,70.137 -154.496,156.025c0.825,85.058 71.405,152.979 156.467,152.979l74.725,0c25.258,0 45.813,20.554 45.813,45.75c0,0 -0.205,147.675 -0.205,178.392l0,52.683c0,6.796 6.721,11.55 13.125,9.279l49.667,-17.587c192.004,-67.996 345.679,-254.554 365.404,-443.592c18.363,-175.987 -1.029,-413.45 -1.862,-423.471l-2.704,-32.45l-31.317,-8.921c-0.904,-0.258 -90.992,-26.029 -156.317,-53.9c-82.725,-35.295 -166.383,-83.758 -167.216,-84.237l-55.95,-32.529c-6.559,-3.817 -14.788,0.916 -14.788,8.508l0,64.758c0,18.009 10.113,33.65 24.971,41.559c12.508,7.208 93.196,53.2 176.037,88.546c46.171,19.7 101.621,37.816 135.734,48.358c4.596,70.408 13.408,243.258 -0.238,374.004c-7.737,74.183 -42.804,151.971 -98.729,219.038c-40.175,48.175 -89.037,88.458 -141.596,117.287c0.063,-50.037 0.138,-105.621 0.138,-105.662c0,-77.18 -62.792,-139.967 -139.967,-139.967l-76.696,0c-33.883,0 -61.333,-28.067 -60.321,-62.175c0.975,-32.821 28.767,-58.521 61.605,-58.521l146.066,0c85.059,0 155.638,-67.921 156.463,-152.979c0.837,-85.888 -68.792,-156.029 -154.492,-156.029l-73.462,0.433c-25.205,-0.067 -45.692,-20.592 -45.692,-45.812l0,-232.138c0,-7.562 -8.175,-12.3 -14.738,-8.537l-55.758,31.97c-0.267,0.155 -9.083,5.192 -23.658,13.125l0,195.58Z" style="fill:#fff;fill-rule:nonzero;"/></g></svg>