<svg xmlns="http://www.w3.org/2000/svg" xmlns:xlink="http://www.w3.org/1999/xlink" width="200mm" height="200mm" viewBox="0 0 566.93 566.93"><defs><clipPath id="b16aa1f9-f361-4867-b004-aa7de6b2a3b0"><path d="M-123.85,283.47c0,132.09-107.08,239.17-239.17,239.17S-602.2,415.56-602.2,283.47-495.11,44.29-363,44.29s239.17,107.08,239.17,239.18" style="fill:none"/></clipPath><clipPath id="fdb5efd4-e588-479e-a19a-9e0f5f916b2b"><path d="M522.64,283.47c0,132.09-107.08,239.17-239.18,239.17S44.29,415.56,44.29,283.47,151.37,44.29,283.46,44.29,522.64,151.37,522.64,283.47" style="fill:none"/></clipPath><clipPath id="aaa7571c-fad7-4ca2-b0ac-a0ef0d3ef865"><path d="M114.18,322.66H100v4.67a3.61,3.61,0,0,0,3.61,3.61h10.56v-8.28m0-13.73H103.62a3.61,3.61,0,0,0-3.61,3.61V317h14.17v-8.06" style="fill:none"/></clipPath></defs><g id="a6a4d84b-1ef5-42f7-bf48-d018c58ac8fe" data-name="1"><g style="clip-path:url(#b16aa1f9-f361-4867-b004-aa7de6b2a3b0)"><path d="M49.56,326.7l-250.89-.12a40.81,40.81,0,0,1-40.79-40.83A40.81,40.81,0,0,1-201.29,245l250.9.12a2.54,2.54,0,0,1,2.53,2.54l0,76.54A2.54,2.54,0,0,1,49.56,326.7Z" style="fill:#fff"/><path d="M49.56,326.7v-1.38l-250.9-.12a39.44,39.44,0,0,1-39.42-39.43h0v0a39.44,39.44,0,0,1,39.44-39.42h0l0-1.26-.16,1.25a.69.69,0,0,0,.19,0l0-1.26-.16,1.25h.18l250.89.12a1.17,1.17,0,0,1,1.16,1.17l0,76.54a1.16,1.16,0,0,1-1.17,1.16v2.75a3.91,3.91,0,0,0,3.92-3.91l0-76.54a3.92,3.92,0,0,0-3.9-3.92l-250.9-.12V245l.18-1.37h-.22l0,1.06v-1.06h0l0,1.06v-1.06a42.2,42.2,0,0,0-42.19,42.17h1.38l-1.38,0v0A42.19,42.19,0,0,0-201.33,328l250.89.12Z" style="fill:#0477bc"/></g><path d="M283.46,44.29c-132.09,0-239.17,107.08-239.17,239.18S151.37,522.64,283.46,522.64,522.64,415.56,522.64,283.47h0a238.85,238.85,0,0,1-12.78,77.31l-79.78,0a40.9,40.9,0,0,1-7.31-.66,11,11,0,0,1-3.45.56H152.57a10.92,10.92,0,0,1-10.91-10.91v-8.08H121.3a7.12,7.12,0,0,1-7.12-7.12v-3.6H103.62a3.61,3.61,0,0,1-3.61-3.61v-4.67H47.49c-.31-1.89-.6-3.77-.87-5.67H100v-4.45a3.61,3.61,0,0,1,3.61-3.61h10.56v-3.59a7.12,7.12,0,0,1,7.12-7.12h20.36v-8.28A10.91,10.91,0,0,1,152.57,279H419.32a10.78,10.78,0,0,1,3.82.69,40.94,40.94,0,0,1,7-.59h0l92.48,0C520.31,149.06,414.12,44.29,283.46,44.29" style="fill:#dce2f0"/><g style="clip-path:url(#fdb5efd4-e588-479e-a19a-9e0f5f916b2b)"><polyline points="139.2 282.82 -23.21 282.82 -23.21 288.49 139.2 288.49" style="fill:#0477bc"/><g style="clip-path:url(#aaa7571c-fad7-4ca2-b0ac-a0ef0d3ef865)"><rect x="100.01" y="308.93" width="14.17" height="22.01" style="fill:#b8d1e8"/></g><path d="M141.66,298.22H121.3a7.12,7.12,0,0,0-7.12,7.12V317h9.94v5.67h-9.94v11.88a7.12,7.12,0,0,0,7.12,7.12h20.36V298.22" style="fill:#b8d1e8"/><path d="M419.32,279H152.57a10.91,10.91,0,0,0-10.91,10.91v59.8a10.92,10.92,0,0,0,10.91,10.91H419.32a11,11,0,0,0,3.45-.56,40.82,40.82,0,0,1,.37-80.37,10.78,10.78,0,0,0-3.82-.69" style="fill:#b8d1e8"/><path d="M430.1,279.13a40.81,40.81,0,1,0,0,81.62l79.78,0a238.85,238.85,0,0,0,12.78-77.31c0-1.44,0-2.87,0-4.3l-92.48,0h0" style="fill:#b8d1e8"/><path d="M124.12,317H46.62c.27,1.9.56,3.78.87,5.67h76.63V317" style="fill:#b8d1e8"/><path d="M188.69,264.05H136.38a7.12,7.12,0,0,0-7.12,7.12v3.6H118.7a3.6,3.6,0,0,0-3.61,3.6v14.8a3.6,3.6,0,0,0,3.61,3.6h10.56v3.6a7.12,7.12,0,0,0,7.12,7.12h52.31a7.12,7.12,0,0,0,7.12-7.12v-29.2A7.12,7.12,0,0,0,188.69,264.05Z" style="fill:#d5ecf7"/><path d="M188.69,264.05v-1.38H136.38a8.5,8.5,0,0,0-8.5,8.5v2.22H118.7a5,5,0,0,0-5,5v14.8a5,5,0,0,0,5,5h9.18v2.22a8.51,8.51,0,0,0,8.5,8.5h52.31a8.5,8.5,0,0,0,8.5-8.5v-29.2a8.5,8.5,0,0,0-8.5-8.5v2.75a5.74,5.74,0,0,1,5.75,5.75v29.2a5.75,5.75,0,0,1-5.75,5.75H136.38a5.75,5.75,0,0,1-5.75-5.75v-3.6a1.37,1.37,0,0,0-1.37-1.37H118.7a2.24,2.24,0,0,1-2.24-2.23v-14.8a2.24,2.24,0,0,1,2.24-2.23h10.56a1.37,1.37,0,0,0,1.37-1.37v-3.6a5.75,5.75,0,0,1,5.75-5.75h52.31Z" style="fill:#0477bc"/><rect x="156.74" y="244.86" width="288.57" height="81.62" rx="10.91" style="fill:#fff"/><path d="M434.4,326.48V325.1H167.65a9.54,9.54,0,0,1-9.54-9.53v-59.8a9.56,9.56,0,0,1,9.54-9.54H434.4a9.54,9.54,0,0,1,9.53,9.54v59.8a9.53,9.53,0,0,1-9.53,9.53v2.75a12.28,12.28,0,0,0,12.28-12.28v-59.8a12.28,12.28,0,0,0-12.28-12.29H167.65a12.29,12.29,0,0,0-12.29,12.29v59.8a12.28,12.28,0,0,0,12.29,12.28H434.4Z" style="fill:#0477bc"/><rect x="238.64" y="257.06" width="151.79" height="57.22" rx="4" style="fill:#d5ecf7"/><path d="M696.05,326.7l-250.89-.12a40.81,40.81,0,1,1,0-81.62l250.89.12a2.54,2.54,0,0,1,2.54,2.54l0,76.54A2.54,2.54,0,0,1,696.05,326.7Z" style="fill:#fff"/><path d="M696.05,326.7v-1.38l-250.89-.12a39.44,39.44,0,0,1-39.42-39.43h-1.08l1.08,0v0h-1.08l1.08,0v-.05a39.44,39.44,0,0,1,39.43-39.42h0l0-1.16,0,1.16h0l0-1.16,0,1.16,0-1.3-.17,1.29h.14l0-1.3-.17,1.29h.18l250.89.12a1.17,1.17,0,0,1,1.16,1.17l0,76.54a1.18,1.18,0,0,1-1.17,1.16v2.75a3.92,3.92,0,0,0,3.92-3.91l0-76.54a3.92,3.92,0,0,0-3.91-3.92l-250.89-.12V245l.17-1.37h-.21v0h0v0A42.19,42.19,0,0,0,403,285.75h1.38L403,285.7v.06h0A42.18,42.18,0,0,0,445.16,328l250.89.12Z" style="fill:#0477bc"/><path d="M463.8,273.43a22.18,22.18,0,1,1-30.73-6.26A22.17,22.17,0,0,1,463.8,273.43Z" style="fill:#d5ecf7"/><path d="M458.11,277.2a15.35,15.35,0,1,1-21.27-4.34A15.35,15.35,0,0,1,458.11,277.2Z" style="fill:#0477bc"/><path d="M215.79,285.67a22.18,22.18,0,1,1-22.17-22.18A22.16,22.16,0,0,1,215.79,285.67Z" style="fill:#d5ecf7"/><path d="M424.51,285.67a20.8,20.8,0,1,1,20.8,20.8,1.38,1.38,0,1,0,0,2.75,23.55,23.55,0,1,0-23.55-23.55,1.38,1.38,0,0,0,2.75,0Z" style="fill:#0477bc"/><path d="M172.82,285.67a20.8,20.8,0,1,1,20.8,20.8,1.38,1.38,0,1,0,0,2.75,23.55,23.55,0,1,0-23.55-23.55,1.38,1.38,0,0,0,2.75,0Z" style="fill:#0477bc"/></g><line x1="258.35" y1="276.49" x2="278.9" y2="297.04" style="fill:#fff"/><path d="M257.75,277.09l20.54,20.55a.86.86,0,0,0,1.21-1.21L259,275.89a.85.85,0,0,0-1.2,1.2" style="fill:#0477bc"/><line x1="258.35" y1="297.04" x2="278.9" y2="276.49" style="fill:#fff"/><path d="M259,297.64l20.55-20.55a.85.85,0,0,0-1.21-1.2l-20.54,20.54a.85.85,0,0,0,1.2,1.21" style="fill:#0477bc"/><path d="M342.39,288.42l9.09,12.64a2.85,2.85,0,0,0,4.69-.13l18.91-29.46a2.83,2.83,0,0,0-4.77-3.06l-16.66,25.95L347,285.11a2.83,2.83,0,1,0-4.6,3.31Z" style="fill:#0477bc"/><path d="M296.56,113.64q-6.48-.49-13.1-.49a170.7,170.7,0,0,0-67,13.59,1.46,1.46,0,0,0,1.15,2.69,167.75,167.75,0,0,1,65.82-13.36q6.51,0,12.88.48a1.46,1.46,0,1,0,.22-2.91Zm144,102.61a171.59,171.59,0,0,0-110.29-96.62,1.46,1.46,0,1,0-.8,2.81,168.72,168.72,0,0,1,108.41,95,1.46,1.46,0,0,0,2.68-1.16Z" style="fill:#0477bc"/><path d="M444.17,193a1.46,1.46,0,0,0-1.67,1.21l-3.56,22.07-18.49-12.56a1.46,1.46,0,0,0-1.65,2.42l20.39,13.84a1.47,1.47,0,0,0,2.27-1l3.92-24.33a1.38,1.38,0,0,0-.1-.81A1.45,1.45,0,0,0,444.17,193Z" style="fill:#0477bc"/><path d="M130.63,296.77v-9.88a1.38,1.38,0,1,0-2.75,0v9.88a1.38,1.38,0,1,0,2.75,0" style="fill:#0477bc"/></g></svg>