<svg xmlns="http://www.w3.org/2000/svg" xmlns:xlink="http://www.w3.org/1999/xlink" viewBox="0 0 200 200"><defs><style>.cls-1,.cls-4,.cls-7,.cls-8{fill:#f3f4f4;}.cls-1,.cls-15,.cls-2,.cls-6{stroke:#00e8cc;}.cls-1,.cls-11,.cls-15,.cls-2,.cls-6{stroke-linejoin:round;}.cls-1,.cls-2,.cls-6{stroke-width:0.91px;}.cls-2,.cls-5{fill:#00e8cc;}.cls-3{isolation:isolate;}.cls-4{opacity:0.8;}.cls-4,.cls-7{mix-blend-mode:multiply;}.cls-11,.cls-6{fill:none;}.cls-9{clip-path:url(#clip-path);}.cls-10,.cls-13,.cls-16{fill:#fff;}.cls-11,.cls-12,.cls-13{stroke:#fff;}.cls-11,.cls-12{stroke-linecap:round;stroke-width:0.96px;}.cls-12,.cls-15{fill:#50239f;}.cls-12,.cls-13{stroke-miterlimit:10;}.cls-13{stroke-width:0.45px;}.cls-14{clip-path:url(#clip-path-2);}.cls-15{stroke-width:1.48px;}.cls-16{fill-opacity:0.24;}</style><clipPath id="clip-path"><path id="_Clipping_Path_" data-name="&lt;Clipping Path&gt;" class="cls-1" d="M13.77,54.75l115.51.19a4.63,4.63,0,0,1,4.48,4l.5,4.62,7.23,68.49A3.42,3.42,0,0,1,138,136l-115.82-.19a4.45,4.45,0,0,1-4.31-3.89L10.67,63.4l-.5-4.62A3.55,3.55,0,0,1,13.77,54.75Z"/></clipPath><clipPath id="clip-path-2"><path id="_Clipping_Path_2" data-name="&lt;Clipping Path&gt;" class="cls-2" d="M16.63,135.77h3.22l164.9.27H188v3.21h0a3,3,0,0,1-3,3L19.62,142a3,3,0,0,1-3-3h0Z"/></clipPath></defs><title>airgap_onboarding_wallet-notebook</title><g class="cls-3"><g id="Layer_1" data-name="Layer 1"><path class="cls-4" d="M140.33,139a3.41,3.41,0,0,0,3.2-3.87l-7.09-63.62-.5-4.62a4.63,4.63,0,0,0-4.48-4L16.65,62.61a3.55,3.55,0,0,0-3.6,4l.5,4.62,7.09,63.62c.23,2.08,1.18,3.78,3.25,3.89H21.35V142h0a3,3,0,0,0,3,3l165.35.27a3,3,0,0,0,3-3h0v-3.21Z"/><path id="_Clipping_Path_3" data-name="&lt;Clipping Path&gt;" class="cls-5" d="M10.93,54.74l115.51.19a4.63,4.63,0,0,1,4.48,4l.5,4.62,7.23,68.49a3.42,3.42,0,0,1-3.47,3.88l-115.82-.19a4.45,4.45,0,0,1-4.31-3.89L7.83,63.4l-.5-4.62A3.55,3.55,0,0,1,10.93,54.74Z"/><path id="_Clipping_Path_4" data-name="&lt;Clipping Path&gt;" class="cls-6" d="M10.93,54.74l115.51.19a4.63,4.63,0,0,1,4.48,4l.5,4.62,7.23,68.49a3.42,3.42,0,0,1-3.47,3.88l-115.82-.19a4.45,4.45,0,0,1-4.31-3.89L7.83,63.4l-.5-4.62A3.55,3.55,0,0,1,10.93,54.74Z"/><path id="_Path_" data-name="&lt;Path&gt;" class="cls-7" d="M10.93,54.74l115.51.19a4.63,4.63,0,0,1,4.48,4l.5,4.62,7.23,68.49a3.42,3.42,0,0,1-3.47,3.88l-115.82-.19a4.45,4.45,0,0,1-4.31-3.89L7.83,63.4l-.5-4.62A3.55,3.55,0,0,1,10.93,54.74Z"/><path id="_Clipping_Path_5" data-name="&lt;Clipping Path&gt;" class="cls-8" d="M13.77,54.75l115.51.19a4.63,4.63,0,0,1,4.48,4l.5,4.62,7.23,68.49A3.42,3.42,0,0,1,138,136l-115.82-.19a4.45,4.45,0,0,1-4.31-3.89L10.67,63.4l-.5-4.62A3.55,3.55,0,0,1,13.77,54.75Z"/><g class="cls-9"><rect class="cls-5" x="-0.83" y="49.31" width="141.6" height="13.37"/><path class="cls-10" d="M139.84,50.24V61.75H.1V50.24H139.84m1.86-1.86H-1.76V63.61H141.7V48.38Z"/><path id="_Path_2" data-name="&lt;Path&gt;" class="cls-7" d="M37.69,73.33l67.55.11a3.49,3.49,0,0,1,3.38,3.05L109,80l4.55,41.89a2.58,2.58,0,0,1-2.62,2.93l-67.78-.11a3.36,3.36,0,0,1-3.25-2.94L35.35,79.86,35,76.38A2.68,2.68,0,0,1,37.69,73.33Z"/></g><path id="_Clipping_Path_6" data-name="&lt;Clipping Path&gt;" class="cls-6" d="M13.77,54.75l115.51.19a4.63,4.63,0,0,1,4.48,4l.5,4.62,7.23,68.49A3.42,3.42,0,0,1,138,136l-115.82-.19a4.45,4.45,0,0,1-4.31-3.89L10.67,63.4l-.5-4.62A3.55,3.55,0,0,1,13.77,54.75Z"/><path id="_Path_3" data-name="&lt;Path&gt;" class="cls-5" d="M40.84,70.19l67.55.11a3.49,3.49,0,0,1,3.38,3.05l.38,3.49,4.55,41.89a2.58,2.58,0,0,1-2.62,2.93l-67.78-.11A3.36,3.36,0,0,1,43,118.61L38.5,76.72l-.38-3.49A2.68,2.68,0,0,1,40.84,70.19Z"/><line class="cls-11" x1="75.38" y1="103.55" x2="46.31" y2="103.5"/><line class="cls-11" x1="75.82" y1="107.63" x2="46.76" y2="107.58"/><line class="cls-11" x1="76.26" y1="111.71" x2="47.2" y2="111.66"/><line class="cls-12" x1="77.59" y1="78.64" x2="81.8" y2="117.42"/><path id="_Path_4" data-name="&lt;Path&gt;" class="cls-11" d="M69.94,89.51a11.09,11.09,0,0,0-10.72-9.71,8.49,8.49,0,0,0-8.64,9.64A11.09,11.09,0,0,0,61.3,99.15a8.49,8.49,0,0,0,8.64-9.64"/><polygon class="cls-10" points="63.62 83.38 63.9 86.03 61.25 86.02 61.53 88.65 58.88 88.64 58.6 86.01 55.95 86 55.66 83.35 63.62 83.38"/><polygon class="cls-10" points="67.12 91.31 64.47 91.3 65.03 96.51 62.38 96.5 61.53 88.66 64.19 88.66 63.9 86.03 66.55 86.04 67.12 91.31"/><polygon class="cls-10" points="55.95 86 56.23 88.64 58.88 88.65 59.73 96.49 57.08 96.48 56.52 91.27 53.86 91.27 53.3 85.99 55.95 86"/><polygon class="cls-10" points="56.23 88.64 64.19 88.66 64.75 93.87 56.79 93.84 56.23 88.64"/><path class="cls-10" d="M99.38,93.21h1.24L100.49,92h3.78l.26,2.47h-2.47l.12,1.2h2.45l-.13-1.22H107l0,0,.13,1.27,0,0h-1.25l.13,1.24h-3.72l.39,3.76h1.21l.13,1.29h-1.23l.12,1.19,4.93,0-.25-2.46h-3.72l-.13-1.25h2.49l-.13-1.22h1.26l.12,1.18h1.24l.39,3.76h1.25l.26,2.47h-1.2l-.12-1.17h-1.24l.12,1.18H107l-.12-1.16h-1.26l.12,1.17h-1.24l-.12-1.17h-1.26l.13,1.22H100.7l0,0-.26-2.5H99.22L99.09,102h2.41l-.26-2.53H100l0,0-.13-1.28h1.19L101,97H98.52l-.11-1.27,0,0h2.47l-.13-1.28h-1.2l-.13-1.24Z"/><path class="cls-10" d="M82.89,90.71,82,82l8.68,0,.9,8.68Zm7.31-1.26-.64-6.18-6.18,0L84,89.47Z"/><path class="cls-10" d="M100.41,90.66,99.51,82l8.68,0,.9,8.67Zm1.12-1.26,6.18,0-.64-6.17-6.18,0Z"/><path class="cls-10" d="M84.7,108.21l-.9-8.67,8.7,0,.9,8.67ZM92,107l-.64-6.18-6.17,0,.64,6.18Z"/><path class="cls-10" d="M90.64,93.24,90.52,92H93l0,0,.13,1.24h1.25l.13,1.24h1.23L95.49,92h3.77l.13,1.22,0,0H98.13l.26,2.52,0,0H95.88L96,97H94.76l0,0-.13-1.27H93.39l0,0-.13-1.27H92l0,0-.13-1.27H90.63Z"/><path class="cls-10" d="M93,92l-.51-5,5,0-.13-1.27,0,0h1.23l.25,2.45H96.39l.26,2.47H95.39l-.12-1.17H94L94.28,92H93Z"/><path class="cls-10" d="M100,99.44l.13,1.25H97.69l.13,1.22H95.28l-.13-1.21h1.22l-.12-1.2H95l.13,1.22H93.92L93.53,97l0,0h1.27l0,0,.13,1.25h2.52l.13,1.27H100Z"/><path class="cls-10" d="M107,94.43l-.13-1.24h-1.23L105.55,92H108l.12,1.19h1.24l.38,3.71h-2.46l-.13-1.21,0,0h1.22l-.13-1.27H107Z"/><path class="cls-10" d="M100.82,106.95H98.34l.13,1.22H97.19l-.26-2.47,0,0h1.27l-.13-1.27,0,0h1.23l.12,1.21,1.33.06,0,0,.1,1.25Z"/><path class="cls-10" d="M83.67,98.21l-.25-2.43h3.67l.25,2.42H86.16L86,97H84.8l.12,1.18Z"/><path class="cls-10" d="M83,92h2.42l.25,2.42H83.3Z"/><path class="cls-10" d="M97.22,84.44q.06.65.12,1.29v0H94.9L94.51,82H95.7L96,84.46h1.28Z"/><path class="cls-10" d="M95.64,105.69l.26,2.5H94.73l-.26-2.48h1.19Z"/><path class="cls-10" d="M97.24,84.46,97,82h1.2l.25,2.45H97.22Z"/><path class="cls-10" d="M92.15,83.24h1.18l.25,2.42H92.4Z"/><path class="cls-10" d="M88.13,93.25h2.52l0,0,.13,1.27,0,0h-2.5l-.13-1.25Z"/><path class="cls-10" d="M95.58,104.44H94.33l-.12-1.17h1.23l.12,1.19Z"/><path class="cls-10" d="M96.81,104.48l-.13-1.22h1.23l.13,1.22,0,0H96.79Z"/><path class="cls-10" d="M96.94,105.71l-1.3,0,0,0q0-.64-.09-1.27l0,0,1.25,0,0,0,.13,1.27Z"/><path class="cls-10" d="M109.64,108.17h-1.15l-.12-1.2h1.15Z"/><path class="cls-10" d="M100.8,107H102l.12,1.2h-1.2l-.13-1.22Z"/><path class="cls-10" d="M103.47,108.16l-.12-1.18h1.17l.12,1.18Z"/><path class="cls-10" d="M106,108.15l-.12-1.18H107l.12,1.18Z"/><path class="cls-10" d="M92.26,97l.13,1.21h-1.2L91.06,97h1.22Z"/><path class="cls-10" d="M92.28,97l-.13-1.27,0,0H93.4l0,0L93.52,97l0,0H92.26Z"/><path class="cls-10" d="M92.15,95.72H90.9l-.13-1.25,0,0H92l0,0,.13,1.27Z"/><path class="cls-10" d="M88.14,93.23H86.93L86.8,92H88l.13,1.22Z"/><path class="cls-10" d="M99.08,90.67H97.91l-.12-1.18H99Z"/><path class="cls-10" d="M97.4,98.22,97.27,97h1.27l.13,1.27Z"/><path class="cls-10" d="M88.82,88.2H85.14l-.38-3.67h3.67Z"/><path class="cls-10" d="M102.63,88.13l-.38-3.65H106l.38,3.65Z"/><path class="cls-10" d="M86.95,105.71,86.57,102h3.67l.38,3.68Z"/><path class="cls-13" d="M40.84,70.19l67.55.11a3.49,3.49,0,0,1,3.38,3.05l.38,3.49L38.5,76.72l-.38-3.49A2.68,2.68,0,0,1,40.84,70.19Z"/><path class="cls-5" d="M48,73.8a1.28,1.28,0,0,0,1.24,1.12,1,1,0,0,0,1-1.12A1.28,1.28,0,0,0,49,72.68,1,1,0,0,0,48,73.8Z"/><path class="cls-5" d="M42.26,73.79a1.28,1.28,0,0,0,1.24,1.12,1,1,0,0,0,1-1.12,1.28,1.28,0,0,0-1.24-1.12A1,1,0,0,0,42.26,73.79Z"/><path class="cls-5" d="M54.43,73.81a1.28,1.28,0,0,0,1.24,1.12,1,1,0,0,0,1-1.12,1.28,1.28,0,0,0-1.24-1.12A1,1,0,0,0,54.43,73.81Z"/><path id="_Clipping_Path_7" data-name="&lt;Clipping Path&gt;" class="cls-5" d="M16.63,135.77h3.22l164.9.27H188v3.21h0a3,3,0,0,1-3,3L19.62,142a3,3,0,0,1-3-3h0Z"/><g class="cls-14"><path class="cls-7" d="M90.06,135.89v3.21h0a3,3,0,0,1-3,3L19.62,142a3,3,0,0,1-3-3h0v-3.21Z"/></g><path id="_Clipping_Path_8" data-name="&lt;Clipping Path&gt;" class="cls-6" d="M16.63,135.77h3.22l164.9.27H188v3.21h0a3,3,0,0,1-3,3L19.62,142a3,3,0,0,1-3-3h0Z"/><path class="cls-15" d="M71.36,58.49a2.19,2.19,0,0,0,2.12,1.91,1.68,1.68,0,0,0,1.7-1.91,2.19,2.19,0,0,0-2.12-1.91A1.68,1.68,0,0,0,71.36,58.49Z"/><path class="cls-7" d="M155.6,135.62v1.08h0a1,1,0,0,1-1,1l-30.87,0a1,1,0,0,1-1-1h0v-1.08Z"/><path id="GALZ" class="cls-16" d="M20.21,132.1A4.18,4.18,0,0,1,19,129.59L11.54,59.39A3.41,3.41,0,0,1,15,55.52l114.25.18a4.29,4.29,0,0,1,2.65,1C132.79,57.37,21,132.85,20.21,132.1Z"/></g></g></svg>