<svg xmlns="http://www.w3.org/2000/svg" xmlns:xlink="http://www.w3.org/1999/xlink" width="512" height="512" viewBox="0 0 512 512"><defs><clipPath id="e1aa7d79-c387-48e9-82aa-a3cf98fcc459"><path d="M343.7,22.9H148.51a19.49,19.49,0,0,0-19.35,19.61v411.1a11.81,11.81,0,0,0,11.73,11.89H351.32a11.81,11.81,0,0,0,11.73-11.89V42.51A19.48,19.48,0,0,0,343.7,22.9Z" style="fill:#fff"/></clipPath></defs><title> onboarding_airgap_vault</title><g id="b38f90ed-00bf-4912-8600-5ffb5c400277" data-name="1"><path d="M361.23,31.37H162.43a24.14,24.14,0,0,0-24.14,24.14V476.78A19.21,19.21,0,0,0,157.51,496H366.15a24,24,0,0,0,24-24V60.26A28.89,28.89,0,0,0,361.23,31.37Z" style="opacity:0.06"/><path d="M344.82,16H146a24.14,24.14,0,0,0-24.15,24.14V461.41a19.22,19.22,0,0,0,19.22,19.22H349.74a24,24,0,0,0,24-24V44.89A28.89,28.89,0,0,0,344.82,16Z" style="fill:#fff"/><path d="M344.82,16H146a24.14,24.14,0,0,0-24.15,24.14V461.41a19.22,19.22,0,0,0,19.22,19.22H349.74a24,24,0,0,0,24-24V44.89A28.89,28.89,0,0,0,344.82,16Z" style="fill:none;stroke:#50239f;stroke-miterlimit:10;stroke-width:2.8984697498019245px"/><path d="M343.7,22.9H148.51a19.49,19.49,0,0,0-19.35,19.61v411.1a11.81,11.81,0,0,0,11.73,11.89H351.32a11.81,11.81,0,0,0,11.73-11.89V42.51A19.48,19.48,0,0,0,343.7,22.9Z" style="fill:#fff"/><g style="clip-path:url(#e1aa7d79-c387-48e9-82aa-a3cf98fcc459)"><rect x="110.51" y="-3.1" width="285.71" height="478.63" style="fill:#50239f"/></g><line x1="197.96" y1="453.47" x2="300.14" y2="453.47" style="fill:#00e8cc;stroke:#fff;stroke-linecap:round;stroke-linejoin:round;stroke-width:2.921963985500931px"/><path d="M167.5,21.88h160a0,0,0,0,1,0,0v4.25a11,11,0,0,1-11,11h-138a11,11,0,0,1-11-11V21.88A0,0,0,0,1,167.5,21.88Z" style="fill:#fff"/><path d="M168.43,166.46a79.84,79.84,0,1,1,79.83,79.84,79.83,79.83,0,0,1-79.83-79.84" style="fill:none;stroke:#fff;stroke-linecap:round;stroke-linejoin:round;stroke-width:2.061450983695212px"/><polygon points="215.15 115.99 215.15 137.86 237.02 137.86 237.02 159.6 258.89 159.6 258.89 137.86 280.77 137.86 280.77 115.99 215.15 115.99" style="fill:#fff"/><polygon points="193.28 181.37 215.15 181.37 215.15 224.35 237.02 224.35 237.02 159.62 215.15 159.62 215.15 137.86 193.28 137.86 193.28 181.37" style="fill:#fff"/><polygon points="280.77 137.86 280.77 159.62 258.89 159.62 258.89 224.35 280.77 224.35 280.77 181.37 302.64 181.37 302.64 137.86 280.77 137.86" style="fill:#fff"/><rect x="215.15" y="159.62" width="65.62" height="42.98" style="fill:#fff"/><line x1="174.53" y1="320.16" x2="322" y2="320.16" style="fill:none;stroke:#fff;stroke-linecap:round;stroke-linejoin:round;stroke-width:2.061450983695212px"/><line x1="174.53" y1="340.09" x2="322" y2="340.09" style="fill:none;stroke:#fff;stroke-linecap:round;stroke-linejoin:round;stroke-width:2.061450983695212px"/><line x1="174.53" y1="360.01" x2="248.26" y2="360.01" style="fill:none;stroke:#fff;stroke-linecap:round;stroke-linejoin:round;stroke-width:2.061450983695212px"/><line x1="261.97" y1="469.45" x2="233.93" y2="469.45" style="fill:none;stroke:#fff;stroke-miterlimit:10;stroke-width:1.022515717291236px"/><line x1="374.65" y1="68.77" x2="374.65" y2="98.55" style="fill:none;stroke:#50239f;stroke-linecap:round;stroke-linejoin:round;stroke-width:2.898469830424314px"/><line x1="374.65" y1="105.55" x2="374.65" y2="135.33" style="fill:none;stroke:#50239f;stroke-linecap:round;stroke-linejoin:round;stroke-width:2.898469830424314px"/></g></svg>