<svg xmlns="http://www.w3.org/2000/svg" xmlns:xlink="http://www.w3.org/1999/xlink" viewBox="0 0 386.65 386.65"><defs><style>.cls-1,.cls-7{fill:#8c5ec3;}.cls-2{fill:#95ead1;}.cls-3{fill:#5d247d;}.cls-4{isolation:isolate;}.cls-5{fill:#d46698;}.cls-6{clip-path:url(#clip-path);}.cls-7{opacity:0.51;}.cls-10,.cls-7,.cls-8{mix-blend-mode:multiply;}.cls-12,.cls-8{fill:none;stroke:#8c5ec3;}.cls-8{stroke-miterlimit:10;stroke-width:3.54px;opacity:0.2;}.cls-9{clip-path:url(#clip-path-2);}.cls-10{fill:#76edcf;}.cls-11{fill:#8e67d2;}.cls-12{stroke-linecap:round;stroke-linejoin:round;stroke-width:2.13px;stroke-dasharray:12;}.cls-13{fill:#fff;}.cls-14{clip-path:url(#clip-path-3);}.cls-15{clip-path:url(#clip-path-4);}.cls-16{clip-path:url(#clip-path-5);}.cls-17{clip-path:url(#clip-path-6);}.cls-18{fill:#8cdcc4;}.cls-19{clip-path:url(#clip-path-7);}</style><clipPath id="clip-path"><path class="cls-1" d="M191.09,138.58l12,14.38a1.43,1.43,0,0,1,.3,1.21l-12.33,73.55c-1.82,8.23-10.74,54.36-10.74,54.36L150.67,232.2s34.71-81.43,37.91-93.08A1.45,1.45,0,0,1,191.09,138.58Z"/></clipPath><clipPath id="clip-path-2"><rect class="cls-2" x="179.18" y="75.43" width="57.59" height="40.6" rx="2.26" transform="translate(398.66 -30.99) rotate(121.68)"/></clipPath><clipPath id="clip-path-3"><path d="M160.38,346.87s49.12-17.45,57.43-16.93,9.95,3.1,13.1,6.9,7.31,21.44-33.64,38.05c-31.22,5.25-82.42,6.75-82.42,6.75h0l0,0a24,24,0,0,1-2.91-11.76l.18-13.43Z"/></clipPath><clipPath id="clip-path-4"><path class="cls-1" d="M78.53,323.73a14.57,14.57,0,0,0-9.77.31c-3.18,1.27-6.74,3.57-8.23,7.7-3,8.24-3.78,14.31,8.39,20.28,10.92,5.35,90.91,30.5,101.93,34.48a2.32,2.32,0,0,0,2.87-1.17l9.06-25.17c.63-1.28-1.6-5.39-2.95-5.82Z"/></clipPath><clipPath id="clip-path-5"><path class="cls-3" d="M137.33,233.08s-37.29,12.25-49,34c-8.79,16.32-4.68,36.23-.75,51.9A20.8,20.8,0,0,0,97,331.75l18.31,11a16.93,16.93,0,0,0,3.46,1.59l29,9.54H169.3l30.15-15.07-20.12-59.76c-1.26-15.14-1-16-7-32-2.16-5.77-4-10-13-15.32C149.62,226.07,137.33,233.08,137.33,233.08Z"/></clipPath><clipPath id="clip-path-6"><path class="cls-1" d="M89.87,252.26c.12.06,17.39-4.19,20.23,17.29,1.9,14.4,6.12,25.65,9.45,35.72a63,63,0,0,0,7.39,15.16l5.64,8.25s-12,1.43-15,13.24c-.24,1,.75,1.94.5,2.25C113,350.68,79,328.8,79,328.8L65.6,261.88Z"/></clipPath><clipPath id="clip-path-7"><path class="cls-2" d="M234,358.6H168.58l-28.45-3.5a3.53,3.53,0,0,1-3.54-3.54v-.23a.93.93,0,0,1,.93-.93l30.89,3.5h68.14a.93.93,0,0,1,.93.93v.23A3.54,3.54,0,0,1,234,358.6Z"/></clipPath></defs><title>Artboard 23 copy 3</title><g class="cls-4"><g id="REST"><path class="cls-5" d="M163.42,238.84c6.51,4.94,12.49,10.54,18.6,15.95l.18.15c3.56-8.8,13.33-67,15-76.95,5.25-30.66,6-34.85,6.9-43.64.64-5.88-4.61-17.44-4.63-19.35-.07-6.24,11.85-21.69,2.23-21.18,0,0-11.45,17.63-13,22.06s1.13,13.23,1.56,22.2c-4.54,11.95-3.63,18.16-11.26,38.18C173.65,190.49,166.85,225.35,163.42,238.84Z"/><path class="cls-1" d="M191.09,138.58l12,14.38a1.43,1.43,0,0,1,.3,1.21l-12.33,73.55c-1.82,8.23-10.74,54.36-10.74,54.36L150.67,232.2s34.71-81.43,37.91-93.08A1.45,1.45,0,0,1,191.09,138.58Z"/><g class="cls-6"><path class="cls-7" d="M175,212.67a4.13,4.13,0,0,0-1.41-3.92l-1.79-1.48s4.08-10.46-4.4-11.36-14.53,6.38-14.53,6.38-3.18,2-8.34.76c0,0-8.63-2.56-9.38,7.59s1.38,15,1.38,15l2,21.66,33.85,3.79.44-23.63a3.3,3.3,0,0,0-.2-4.83"/><line class="cls-8" x1="230.65" y1="204.38" x2="153.01" y2="139.77"/></g><rect class="cls-2" x="179.18" y="75.43" width="57.59" height="40.6" rx="2.26" transform="translate(398.66 -30.99) rotate(121.68)"/><g class="cls-9"><polygon class="cls-10" points="210.4 134.69 254.28 141.71 243.89 80.43 200.01 90.82 210.4 134.69"/><rect class="cls-11" x="166.84" y="61.71" width="45.09" height="45.09" rx="3.32" transform="translate(393.08 122.6) rotate(166.68)"/></g><path class="cls-5" d="M198.59,131c-.16-.3-.33-.57-.47-.85-1.23-2.38-2.54-4.22-1.3-6.09,1.59-2.4,6.7-7.34,7.7-9.13,1.8-3.23,4.8-8.08,7.59-5.69s-.68,6-1.57,8.92c-1.31,4.36-2.34,10-5,14.54a21.05,21.05,0,0,1-3.63,3.25A40.85,40.85,0,0,1,198.59,131Z"/><line class="cls-12" x1="258.7" y1="34.21" x2="241.55" y2="53.86"/><line class="cls-12" x1="258.7" y1="34.21" x2="241.55" y2="53.86"/><line class="cls-12" x1="195.12" y1="16.23" x2="199.73" y2="41.89"/><line class="cls-12" x1="139.51" y1="59.01" x2="163.09" y2="70.15"/><line class="cls-12" x1="137.17" y1="123.28" x2="161.33" y2="113.45"/><line class="cls-12" x1="271.26" y1="144.52" x2="250.58" y2="128.63"/><line class="cls-12" x1="289.61" y1="98.31" x2="263.54" y2="97.65"/><path class="cls-3" d="M59.58,337.8s-7.67,11.62,29.29,31.82c31.74,17.34,55.9,3.72,55.9,3.72l14.48-17Z"/><path d="M122.81,365.1a4.08,4.08,0,0,0-3.67-3.6c-4.81-.45-13.72,0-21.34,1.36-8.28,1.47-22.5,3.3-26.61,6.22-1,.75-.2,7,1,7.49,2.11.94,35.35,5.51,35.35,5.51L124,371.63Z"/><path class="cls-13" d="M106,372.47l.73-1.31a6.71,6.71,0,0,1,4.71-3.36l12.08-2.16a6.74,6.74,0,0,1,7.87,7.44l-.43,3.61a6.74,6.74,0,0,1-6.77,5.93l-12.38-.15A6.73,6.73,0,0,1,106,372.47Z"/><path d="M160.38,346.87s49.12-17.45,57.43-16.93,9.95,3.1,13.1,6.9,7.31,21.44-33.64,38.05c-31.22,5.25-82.42,6.75-82.42,6.75h0l0,0a24,24,0,0,1-2.91-11.76l.18-13.43Z"/><g class="cls-14"><path class="cls-3" d="M214.75,327s-13.81,6.21-33.46,14.75-70.51,27.08-70.51,27.08l.82,18.09,91.24-12.48,28.4-16.49c5.65-5.08,8.27-30.13.89-31.89Z"/></g><polygon class="cls-13" points="203.43 369.21 189.35 378.36 161.81 372.87 171.96 356.47 203.43 369.21"/><path d="M230.24,374.52c-1.91-1.07-31.31-9.42-34.42-10.15v0c-3.58-1-6.64-1.92-8.53-2.64a9.56,9.56,0,0,1,.69,2.88,9.72,9.72,0,0,1-8.86,10.52,9.5,9.5,0,0,1-3.29-.28c.29.28,5.85,7.4,6.77,8.17,0,0,0,0,0,0l.2,0,.15,0c4.89.86,43.25,1.44,47.62-1.09C231.65,381.42,231.36,375.15,230.24,374.52Z"/><path class="cls-1" d="M78.53,323.73a14.57,14.57,0,0,0-9.77.31c-3.18,1.27-6.74,3.57-8.23,7.7-3,8.24-3.78,14.31,8.39,20.28,10.92,5.35,90.91,30.5,101.93,34.48a2.32,2.32,0,0,0,2.87-1.17l9.06-25.17c.63-1.28-1.6-5.39-2.95-5.82Z"/><g class="cls-15"><path class="cls-7" d="M85.68,260.26c-8.8,16.32-2,49.79,1.9,65.47a19.42,19.42,0,0,0,5.79,10c15,13.22,43.88,23.52,62.48,25.06,2.47.2,5,.32,7.43.34a12.44,12.44,0,0,0,4.82-.62c3.24-1.29,3.89-5.65,5.22-8.51l2.22-4.8Z"/></g><path class="cls-3" d="M137.33,233.08s-37.29,12.25-49,34c-8.79,16.32-4.68,36.23-.75,51.9A20.8,20.8,0,0,0,97,331.75l18.31,11a16.93,16.93,0,0,0,3.46,1.59l29,9.54H169.3l30.15-15.07-20.12-59.76c-1.26-15.14-1-16-7-32-2.16-5.77-4-10-13-15.32C149.62,226.07,137.33,233.08,137.33,233.08Z"/><g class="cls-16"><path class="cls-5" d="M132,328.19l15.88,14.44a4.1,4.1,0,0,0,3.19,1l11.29-1.26a4.09,4.09,0,0,1,3.32,1.17l2.45,2.45a4.06,4.06,0,0,1,1.19,2.87h0a4.07,4.07,0,0,1-3.27,4l-12.35,2.47a4,4,0,0,1-2.17-.16l-32.76-11.74a4.07,4.07,0,0,1-2.67-4.28l1-8.43a4.07,4.07,0,0,1,4-3.61h8.18A4.06,4.06,0,0,1,132,328.19Z"/><path class="cls-1" d="M89.87,252.26c.12.06,17.39-4.19,20.23,17.29,1.9,14.4,6.12,25.65,9.45,35.72a63,63,0,0,0,7.39,15.16l5.64,8.25s-12,1.43-15,13.24c-.24,1,.75,1.94.5,2.25C113,350.68,79,328.8,79,328.8L65.6,261.88Z"/><g class="cls-17"><path class="cls-8" d="M100.74,335.5s-1.82-12.16,9.1-19.11,15.25-2.6,15.25-2.6"/></g></g><path class="cls-18" d="M236.2,354H170.74a2.48,2.48,0,0,1-2.62-2.85l6.26-40.93a3.57,3.57,0,0,1,3.49-2.85h65.45a2.48,2.48,0,0,1,2.62,2.85l-6.25,40.94A3.57,3.57,0,0,1,236.2,354Z"/><polygon class="cls-5" points="123.35 241.19 158.32 244.58 163.21 211.43 135.39 203.69 126.58 207.88 123.35 241.19"/><path class="cls-1" d="M137.54,198.86s-8-4.14-10.64,5.69-1.45,15-1.45,15l1.66.16s1.62-16.65,8.12-14.34,9.34,7.63,16,8.27a23.07,23.07,0,0,0,12-2.2L161.58,223l4.08-9a4.08,4.08,0,0,0-.65-4.11l-1.47-1.79s6-9.51-2.21-12-15.47,3.55-15.47,3.55S142.37,201,137.54,198.86Z"/><path class="cls-1" d="M125,224.54s.7,10.15,5.38,14,5.48-4.52,13.8-3.71a13.28,13.28,0,0,1,11,7.79l0,0a6.83,6.83,0,0,0,2.32-3.06l2.67-7.08-2.65,20.47s-.81,8.33-12.47,7.2-21.32-5.42-22.34-12.25S125,224.54,125,224.54Z"/><path class="cls-5" d="M140.11,240.81c.45,0,.9.12,1.35.19,1.86.29,3.74.48,5.61.7l2.19.28a6.46,6.46,0,0,0-5.16-4.17c-2.73-.27-3.88,1.93-5,2.8A3.48,3.48,0,0,0,140.11,240.81Z"/><circle class="cls-5" cx="124.63" cy="221.08" r="3.34"/><circle class="cls-5" cx="158.84" cy="225.39" r="3.34"/><path class="cls-5" d="M146.61,211.79s11.47-1.9,10.75-10"/><path class="cls-5" d="M151.83,212.3s11.47-1.9,10.75-10"/><path class="cls-2" d="M234,358.6H168.58l-28.45-3.5a3.53,3.53,0,0,1-3.54-3.54v-.23a.93.93,0,0,1,.93-.93l30.89,3.5h68.14a.93.93,0,0,1,.93.93v.23A3.54,3.54,0,0,1,234,358.6Z"/><g class="cls-19"><path class="cls-18" d="M166.92,358.47l-30.41-3.63a3.54,3.54,0,0,1-3.09-3.93l.14-1.16,36.28,4.34a1.16,1.16,0,0,1,1,1.29h0A3.53,3.53,0,0,1,166.92,358.47Z"/></g></g></g></svg>