<svg xmlns="http://www.w3.org/2000/svg" xmlns:xlink="http://www.w3.org/1999/xlink" width="512" height="512" viewBox="0 0 512 512"><defs><clipPath id="e46494ae-4065-40b1-8ff7-4b5d0a0ef8b7"><path d="M465.47,112.33,355,85a11.4,11.4,0,0,0-13.72,8.47L283.18,327.86a6.91,6.91,0,0,0,5,8.42L407.22,365.8a6.9,6.9,0,0,0,8.31-5.14l58.11-234.44A11.4,11.4,0,0,0,465.47,112.33Z" style="fill:#fff"/></clipPath><clipPath id="b439bff6-2d49-4bcc-80cf-27cf7869dc5a"><path d="M472.6,109,353.31,79.41A11.85,11.85,0,0,0,339,88.07L278.87,330.49a11.41,11.41,0,0,0,8.33,13.81l120.15,29.78a14.22,14.22,0,0,0,17.23-10.38l58.73-236.95A14.68,14.68,0,0,0,472.6,109Z" style="fill:none"/></clipPath><clipPath id="e49cda62-6218-44f4-a783-00f632d1585b"><path d="M226.35,108.7,95.25,76.21A13.37,13.37,0,0,0,79,86L11.52,358.39a8.11,8.11,0,0,0,5.92,9.83l141.34,35a8.12,8.12,0,0,0,9.83-5.93l67.51-272.41A13.38,13.38,0,0,0,226.35,108.7Z" style="fill:#fff"/></clipPath></defs><title>sync_wallet_onboarding_1</title><g style="isolation:isolate"><g id="b6a316bc-e8c4-443a-8155-a95b2f5a5998" data-name="1"><g style="opacity:0.11;mix-blend-mode:multiply"><path d="M328.91,176.79,192.09,142.88a13.58,13.58,0,0,0-16.46,9.92L106.71,430.85a13.08,13.08,0,0,0,9.55,15.84l137.81,34.16a16.32,16.32,0,0,0,19.76-11.91l67.36-271.77A16.82,16.82,0,0,0,328.91,176.79Z" style="fill:#3e3e3e"/></g><g style="opacity:0.11;mix-blend-mode:multiply"><path d="M497.74,145.83,380.53,116.78a11.65,11.65,0,0,0-14.11,8.5l-59,238.21a11.2,11.2,0,0,0,8.18,13.57l118.07,29.26a14,14,0,0,0,16.92-10.2l57.71-232.83A14.41,14.41,0,0,0,497.74,145.83Z" style="fill:#3e3e3e"/></g><path d="M410.79,375.64a15.5,15.5,0,0,1-3.71-.45L286.92,345.41a12.57,12.57,0,0,1-9.16-15.2L337.85,87.79a13,13,0,0,1,15.74-9.48l119.28,29.56A15.82,15.82,0,0,1,484.42,127L425.69,364a15.35,15.35,0,0,1-14.9,11.67Z" style="fill:#fff"/><path d="M350.45,79.06a12.16,12.16,0,0,1,2.86.35L472.6,109a14.68,14.68,0,0,1,10.71,17.77l-58.73,237a14.23,14.23,0,0,1-13.79,10.8,14,14,0,0,1-3.44-.42L287.2,344.3a11.41,11.41,0,0,1-8.33-13.81L339,88.07a11.85,11.85,0,0,1,11.49-9m0-2.28a14.12,14.12,0,0,0-13.71,10.74L276.66,329.94a13.68,13.68,0,0,0,10,16.57l120.16,29.78a16.19,16.19,0,0,0,4,.49,16.46,16.46,0,0,0,16-12.53L485.52,127.3a17,17,0,0,0-12.37-20.53L353.86,77.2a14,14,0,0,0-3.41-.42Z" style="fill:#00e6c8"/><path d="M465.47,112.33,355,85a11.4,11.4,0,0,0-13.72,8.47L283.18,327.86a6.91,6.91,0,0,0,5,8.42L407.22,365.8a6.9,6.9,0,0,0,8.31-5.14l58.11-234.44A11.4,11.4,0,0,0,465.47,112.33Z" style="fill:#fff"/><g style="clip-path:url(#e46494ae-4065-40b1-8ff7-4b5d0a0ef8b7)"><rect x="299.95" y="88.52" width="166.58" height="273.27" transform="translate(65.42 -85.59) rotate(13.92)" style="fill:#00e5c7"/><path d="M413.19,376.87l62.4-251.75a11.7,11.7,0,0,0-8.39-14.26L353.87,82.77Z" style="fill:#fff;fill-opacity:0.24"/></g><path d="M100.55,92.26h120a0,0,0,0,1,0,0v6.48a8,8,0,0,1-8,8h-104a8,8,0,0,1-8-8V92.26a0,0,0,0,1,0,0Z" transform="translate(28.63 -35.68) rotate(13.91)" style="fill:#fff"/><path d="M391.84,219.15l4.58,1.14,1.12-4.52,14,3.47-2.26,9.14-9.15-2.27-1.1,4.45,9.08,2.25,1.12-4.51,9.3,2.38,0-.08-1.16,4.69.08,0-4.61-1.14-1.14,4.58-13.76-3.41-3.45,13.94,4.47,1.1-1.18,4.77L393.19,254l-1.08,4.39,18.24,4.52,2.25-9.1-13.77-3.41,1.14-4.61,9.22,2.29,1.12-4.5,4.66,1.15-1.09,4.37,4.58,1.14L415,264.11l4.61,1.14-2.26,9.14-4.45-1.11L414,269l-4.58-1.13-1.07,4.35L403.67,271l1.07-4.29-4.66-1.15L399,269.9l-4.57-1.14,1.07-4.34-4.65-1.16-1.12,4.52c-3.2-.79-6.25-1.54-9.29-2.31l.05.09,2.29-9.25-4.6-1.14,1.16-4.66,8.92,2.21,2.32-9.38-4.47-1.11,0,.08,1.18-4.73,4.42,1.09,1.12-4.51-9.12-2.26,1.23-4.69-.08,0,9.15,2.27,1.17-4.75-4.45-1.1,1.14-4.58Z" style="fill:#fff"/><path d="M334.13,194.81l8-32.12,32.12,8-8,32.12Zm28.64,2.25,5.67-22.86-22.86-5.66-5.67,22.86Z" style="fill:#fff"/><path d="M399,210.91l7.95-32.1,32.14,8-8,32.09Zm5.76-3.52,22.86,5.67,5.67-22.86-22.86-5.66Z" style="fill:#fff"/><path d="M318.06,259.61l8-32.1,32.19,8-7.95,32.1Zm28.68,2.26L352.41,239l-22.83-5.66-5.67,22.88Z" style="fill:#fff"/><path d="M359.5,211.13l1.14-4.62,9.25,2.29-.05-.08-1.13,4.6,4.64,1.15-1.13,4.58,4.55,1.13,2.23-9L393,214.65l-1.11,4.5.08-.05-4.7-1.16-2.31,9.32.08,0-9.36-2.32-1.15,4.63-4.59-1.14.05.08,1.16-4.69-4.69-1.16,0,.08,1.16-4.7-4.69-1.16.05.08,1.16-4.69-4.69-1.16Z" style="fill:#fff"/><path d="M369.89,208.8l4.57-18.42L392.9,195c.43-1.71.8-3.21,1.17-4.71l-.08.07,4.56,1.12-2.25,9.08-9-2.23L385,207.41l-4.66-1.15,1.07-4.33-4.58-1.13-2.26,9.11-4.77-1.19Z" style="fill:#fff"/><path d="M386.12,242.23,385,246.84l-9.14-2.26-1.11,4.5-9.39-2.33,1.11-4.47L371,243.4l1.1-4.44-4.45-1.1-1.12,4.5-4.62-1.15,3.46-14-.08.05,4.69,1.16-.05-.08L368.74,233l9.33,2.32L376.91,240l9.25,2.29Z" style="fill:#fff"/><path d="M418.53,230.68l1.14-4.6L415.13,225l1.12-4.51,9.05,2.24-1.09,4.42,4.59,1.14L425.4,242l-9.12-2.26,1.12-4.49-.08,0,4.5,1.12,1.16-4.69-4.5-1.12Z" style="fill:#fff"/><path d="M379.29,270l-9.19-2.28L369,272.26l-4.69-1.17,2.27-9.14-.09.05,4.7,1.17,1.16-4.7-.08.06,4.53,1.12-1.1,4.46,4.82,1.45-.06-.09-1.23,4.6Z" style="fill:#fff"/><path d="M327.25,222.6l2.23-9L343.07,217l-2.22,9-4.4-1.09,1.07-4.35L333,219.39l-1.08,4.36Z" style="fill:#fff"/><path d="M333,199.72l9,2.22-2.23,9-9-2.22Z" style="fill:#fff"/><path d="M395.25,185.54,394,190.3l.08-.06L385,188l3.43-13.84,4.4,1.1-2.28,9.18,4.75,1.18Z" style="fill:#fff"/><path d="M361.78,260.69l-2.29,9.25-4.32-1.08,2.28-9.18,4.39,1.09Z" style="fill:#fff"/><path d="M395.29,185.62l2.27-9.13L402,177.6l-2.25,9.06-4.51-1.12Z" style="fill:#fff"/><path d="M378,176.5l4.37,1.09-2.23,9-4.36-1.09Z" style="fill:#fff"/><path d="M350.18,208.83l9.32,2.3-.05-.07-1.17,4.68.08,0-9.25-2.3,1.15-4.62Z" style="fill:#fff"/><path d="M363.17,256.1,358.55,255l1.07-4.32,4.56,1.13-1.09,4.4Z" style="fill:#fff"/><path d="M367.69,257.39l1.11-4.5,4.57,1.13-1.12,4.51.08-.06-4.69-1.16Z" style="fill:#fff"/><path d="M366.56,262l-4.78-1.26.06.08c.44-1.56.88-3.11,1.33-4.67l-.08.06,4.6,1.23-.05-.08L366.47,262Z" style="fill:#fff"/><path d="M410.33,282.62l-4.26-1.06,1.1-4.43,4.26,1.06Z" style="fill:#fff"/><path d="M379.21,270.07l4.5,1.11-1.1,4.45-4.44-1.1,1.12-4.51Z" style="fill:#fff"/><path d="M387.51,276.84l1.08-4.36,4.35,1.08-1.09,4.36Z" style="fill:#fff"/><path d="M396.77,279.14l1.08-4.36,4.35,1.08-1.09,4.36Z" style="fill:#fff"/><path d="M360.63,226.1l-1.12,4.49-4.44-1.1,1.1-4.43,4.5,1.12Z" style="fill:#fff"/><path d="M360.67,226.18c.39-1.57.79-3.14,1.18-4.7l-.09,0,4.7,1.17,0-.08-1.16,4.69.08-.05-4.7-1.15Z" style="fill:#fff"/><path d="M361.85,221.48l-4.64-1.15,1.15-4.63-.08,0,4.7,1.17-.05-.08-1.17,4.69Z" style="fill:#fff"/><path d="M350.26,208.78l-4.51-1.12,1.11-4.44,4.44,1.1-1.12,4.51Z" style="fill:#fff"/><path d="M394,209.73l-4.34-1.07,1.08-4.35,4.34,1.07Z" style="fill:#fff"/><path d="M378,235.37l1.16-4.69,4.69,1.16-1.16,4.7Z" style="fill:#fff"/><path d="M359.29,191.29l-13.6-3.38,3.37-13.59,13.6,3.37Z" style="fill:#fff"/><path d="M410.45,203.87l3.35-13.52,13.68,3.39-3.35,13.52Z" style="fill:#fff"/><path d="M329.62,252.66,333,239.05l13.61,3.38L343.22,256Z" style="fill:#fff"/><line x1="367.82" y1="348.61" x2="327.82" y2="338.7" style="fill:#c0e8f5;stroke:#fff;stroke-linecap:round;stroke-linejoin:round;stroke-width:2px"/><line x1="477.72" y1="143.48" x2="473.55" y2="160.33" style="fill:none;stroke:#00e5c7;stroke-linecap:round;stroke-linejoin:round;stroke-width:2.89492763728443px"/><line x1="472.56" y1="164.3" x2="468.39" y2="181.15" style="fill:none;stroke:#00e5c7;stroke-linecap:round;stroke-linejoin:round;stroke-width:2.89492763728443px"/><g style="clip-path:url(#b439bff6-2d49-4bcc-80cf-27cf7869dc5a)"><g style="opacity:0.11;mix-blend-mode:multiply"><path d="M351.31,165.59,214.49,131.68A13.6,13.6,0,0,0,198,141.6l-68.91,278a13.08,13.08,0,0,0,9.55,15.84l137.81,34.16a16.32,16.32,0,0,0,19.76-11.91L363.59,186A16.82,16.82,0,0,0,351.31,165.59Z" style="fill:#3e3e3e"/></g></g><path d="M80,397h0a.07.07,0,0,1,0,0Z" style="fill:#ff9c00"/><path d="M245.93,310.18h0a.07.07,0,0,1,0,0Z" style="fill:#ff9c00"/><path d="M163.08,417.29a18.63,18.63,0,0,1-4.45-.55L15.46,381.25a14.79,14.79,0,0,1-9.08-6.58,14.16,14.16,0,0,1-1.74-10.94L74.57,81.58A15,15,0,0,1,89.21,70.31a15.42,15.42,0,0,1,3.76.46L235.1,106a18.43,18.43,0,0,1,13.69,22.14L180.43,403.92a17.74,17.74,0,0,1-17.34,13.37Z" style="fill:#fff"/><path d="M89.21,71.44a15,15,0,0,1,3.49.42l142.13,35.23a17.29,17.29,0,0,1,12.86,20.78L179.33,403.65a16.63,16.63,0,0,1-16.25,12.5,17.12,17.12,0,0,1-4.17-.51L15.73,380.15A13.42,13.42,0,0,1,5.74,364L75.67,81.86A13.86,13.86,0,0,1,89.21,71.44m0-2.27A16.1,16.1,0,0,0,73.48,81.31L3.54,363.46a15.28,15.28,0,0,0,1.88,11.8,15.91,15.91,0,0,0,9.77,7.09l143.17,35.49a19.87,19.87,0,0,0,4.72.58,18.87,18.87,0,0,0,18.45-14.22l68.35-275.78a19,19,0,0,0-2.33-14.69,19.81,19.81,0,0,0-12.17-8.83L93.24,69.67a16.66,16.66,0,0,0-4-.5Z" style="fill:#4d2e9a"/><path d="M226.35,108.7,95.25,76.21A13.37,13.37,0,0,0,79,86L11.52,358.39a8.11,8.11,0,0,0,5.92,9.83l141.34,35a8.12,8.12,0,0,0,9.83-5.93l67.51-272.41A13.38,13.38,0,0,0,226.35,108.7Z" style="fill:#fff"/><g style="clip-path:url(#e49cda62-6218-44f4-a783-00f632d1585b)"><rect x="28.72" y="71.26" width="197.71" height="352.23" transform="translate(63.26 -23.43) rotate(13.92)" style="fill:#4d2e9a"/><polyline points="150.65 248.69 170.39 253.44 194.49 158.87 174.84 153.74" style="fill:none;stroke:#fff;stroke-linecap:round;stroke-linejoin:round;stroke-width:2.34405879250848px"/><polyline points="115.85 138.34 96.61 133.31 72.04 229.78 91.37 234.43" style="fill:none;stroke:#fff;stroke-linecap:round;stroke-linejoin:round;stroke-width:2.34405879250848px"/><path d="M166.91,406.39l70-282.33a13.25,13.25,0,0,0-9.67-16L91.27,73.84Z" style="fill:#fff;fill-opacity:0.24"/></g><path d="M106,91.9H216.15a0,0,0,0,1,0,0v5.48a9,9,0,0,1-9,9H115a9,9,0,0,1-9-9V91.9A0,0,0,0,1,106,91.9Z" transform="translate(28.56 -35.82) rotate(13.91)" style="fill:#fff"/><path d="M47.89,322.15a24.62,24.62,0,1,1,18,29.83,24.62,24.62,0,0,1-18-29.83" style="fill:none;stroke:#fff;stroke-linecap:round;stroke-linejoin:round;stroke-width:2.44370986093593px"/><polygon points="66.93 333.19 73.48 334.81 77.09 320.3 83.64 321.92 85.27 315.38 65.62 310.51 64 317.05 70.55 318.68 66.93 333.19" style="fill:#fff"/><polygon points="83.64 321.92 82.03 328.44 62.38 323.57 62.38 323.57 62.38 323.57 64 317.05 57.45 315.43 54.22 328.46 60.77 330.08 59.19 336.43 59.19 336.43 57.58 342.95 64.13 344.57 65.74 338.06 72.29 339.68 70.67 346.19 77.22 347.82 78.84 341.3 78.84 341.3 80.16 335.99 80.41 334.95 86.96 336.57 90.19 323.55 83.64 321.92" style="fill:#fff"/><line x1="120.02" y1="317.26" x2="165" y2="328.4" style="fill:none;stroke:#fff;stroke-linecap:round;stroke-linejoin:round;stroke-width:2.44370986093593px"/><line x1="117.78" y1="326.33" x2="162.75" y2="337.48" style="fill:none;stroke:#fff;stroke-linecap:round;stroke-linejoin:round;stroke-width:2.44370986093593px"/><line x1="115.53" y1="335.41" x2="138.01" y2="340.99" style="fill:none;stroke:#fff;stroke-linecap:round;stroke-linejoin:round;stroke-width:2.44370986093593px"/><line x1="97.12" y1="380.02" x2="78.28" y2="375.35" style="fill:#fff;stroke:#4d2e9a;stroke-linecap:round;stroke-miterlimit:10;stroke-width:2.2616228868834px"/><line x1="240.48" y1="151.07" x2="235.52" y2="171.07" style="fill:none;stroke:#4d2e9a;stroke-linecap:round;stroke-linejoin:round;stroke-width:3.43593874521169px"/><line x1="234.36" y1="175.77" x2="229.4" y2="195.77" style="fill:none;stroke:#4d2e9a;stroke-linecap:round;stroke-linejoin:round;stroke-width:3.43593874521169px"/><line x1="267.08" y1="112.69" x2="312.2" y2="107.34" style="fill:#fff;stroke:#4d2e9a;stroke-linecap:round;stroke-linejoin:round;stroke-width:3.35966629015991px"/><line x1="236.83" y1="83.87" x2="272.99" y2="56.35" style="fill:#fff;stroke:#4d2e9a;stroke-linecap:round;stroke-linejoin:round;stroke-width:3.35966629015991px"/><line x1="257.55" y1="162.92" x2="297.76" y2="184.07" style="fill:#fff;stroke:#4d2e9a;stroke-linecap:round;stroke-linejoin:round;stroke-width:3.35966629015991px"/><path d="M364.7,98.82h93.44a0,0,0,0,1,0,0v3.28a8,8,0,0,1-8,8H372.7a8,8,0,0,1-8-8V98.82A0,0,0,0,1,364.7,98.82Z" transform="translate(37.18 -95.85) rotate(13.91)" style="fill:#fff"/><line x1="114.08" y1="382.15" x2="63.82" y2="369.7" style="fill:#c0e8f5;stroke:#fff;stroke-linecap:round;stroke-linejoin:round;stroke-width:2.282866954803467px"/></g></g></svg>