<svg id="Layer_1" data-name="Layer 1" xmlns="http://www.w3.org/2000/svg" viewBox="0 0 1024 1024"><defs><style>.cls-1{fill:#ffa700;}.cls-2,.cls-6{fill:#50239f;}.cls-2{opacity:0.12;}.cls-3,.cls-5{fill:#00e8cc;}.cls-4{fill:none;}.cls-4,.cls-5{stroke:#50239f;stroke-linecap:round;stroke-linejoin:round;stroke-width:5.06px;}</style></defs><title>tezos-baking</title><path class="cls-1" d="M522.65,409.66h-.08l.15,0Z"/><path class="cls-2" d="M562.86,271.07,565.1,263c5.31-19.19-5-41.94-23-50.54L508.2,196.2c-5.08-18-19.61-32.7-37.63-35.89-23.84-4.22-63.35-4.94-87.8-1.59l-.34.06c-13.79-18-39.43-24.4-60.17-13.95L213,199.86c-22.86,11.52-37.76,35-33.1,52.27a87.09,87.09,0,0,0,2.95,8.7,45.74,45.74,0,0,0-5.34,5.35l-45.25,53.43a42.85,42.85,0,0,0,2.42,58.79A31.71,31.71,0,0,0,129,389.76l-9.32,33.05a35.11,35.11,0,0,0,25.28,43.7l23.27,5.88c19.31,4.87,41.67-6.06,49.7-24.28l.86-2a38.32,38.32,0,0,0,2.46-7.86c18.13,4.7,38.49-1.09,50.83-16.1l7.08-8.62A66.06,66.06,0,0,0,290,394.05c14.84,5.09,31.75,4.76,45.42-2.12L396.82,361c12.42-6.26,22.92-18.05,29.47-31.58a55,55,0,0,0,16.42,1.77l11.14-.56c18.36-.92,35.24-12.5,44.1-28.39l19.12,1.29C536.94,304.86,557.54,290.26,562.86,271.07Z"/><path class="cls-3" d="M520.13,264.08c19.87,1.35,40.48-13.26,45.79-32.45l2.24-8.07c5.32-19.19-5-41.93-23-50.54l-48-23c-18-8.6-32.93.65-33.26,20.56L463,224c-.34,19.91,15.65,37.3,35.51,38.65Z"/><path class="cls-4" d="M520.13,264.08c19.87,1.35,40.48-13.26,45.79-32.45l2.24-8.07c5.32-19.19-5-41.93-23-50.54l-48-23c-18-8.6-32.93.65-33.26,20.56L463,224c-.34,19.91,15.65,37.3,35.51,38.65Z"/><path class="cls-3" d="M456.91,291.18c25.57-1.29,48.26-23.21,50.42-48.72l5.72-67.52c2.15-25.51-15.58-49.84-39.42-54.06s-63.34-4.94-87.79-1.59-37.66,25.9-29.35,50.12l27.68,80.64c8.31,24.22,36,43,61.61,41.69Z"/><path class="cls-4" d="M456.91,291.18c25.57-1.29,48.26-23.21,50.42-48.72l5.72-67.52c2.15-25.51-15.58-49.84-39.42-54.06s-63.34-4.94-87.79-1.59-37.66,25.9-29.35,50.12l27.68,80.64c8.31,24.22,36,43,61.61,41.69Z"/><path class="cls-3" d="M338.45,352.5c-22.87,11.52-54.81,4.7-71-15.15l-46.62-57.24c-16.17-19.85-33.22-50.18-37.88-67.41s10.23-40.75,33.1-52.27l109.26-55c22.87-11.52,51.67-2.59,64,19.84L407.7,158.6c12.34,22.43,24.76,61.6,27.61,87l1,8.7c2.84,25.45-13.54,55.69-36.4,67.21Z"/><path class="cls-4" d="M338.45,352.5c-22.87,11.52-54.81,4.7-71-15.15l-46.62-57.24c-16.17-19.85-33.22-50.18-37.88-67.41s10.23-40.75,33.1-52.27l109.26-55c22.87-11.52,51.67-2.59,64,19.84L407.7,158.6c12.34,22.43,24.76,61.6,27.61,87l1,8.7c2.84,25.45-13.54,55.69-36.4,67.21Z"/><path class="cls-3" d="M275.11,382.76c-16.25,19.78-46.44,23.57-67.07,8.41l-65.28-47.92a42.94,42.94,0,0,1-7.44-63.07l45.25-53.43c16.55-19.54,43.82-20.1,60.6-1.24S280.7,277.43,291.72,299s6.73,55.38-9.53,75.16Z"/><path class="cls-4" d="M275.11,382.76c-16.25,19.78-46.44,23.57-67.07,8.41l-65.28-47.92a42.94,42.94,0,0,1-7.44-63.07l45.25-53.43c16.55-19.54,43.82-20.1,60.6-1.24S280.7,277.43,291.72,299s6.73,55.38-9.53,75.16Z"/><path class="cls-3" d="M221,408.68c-8,18.22-30.39,29.15-49.69,24.28L148,427.08a35.12,35.12,0,0,1-25.29-43.7L132,350.33c5.4-19.16,23.71-26.31,40.67-15.89l32.86,20.19c17,10.43,24.29,33.87,16.26,52.09Z"/><path class="cls-4" d="M221,408.68c-8,18.22-30.39,29.15-49.69,24.28L148,427.08a35.12,35.12,0,0,1-25.29-43.7L132,350.33c5.4-19.16,23.71-26.31,40.67-15.89l32.86,20.19c17,10.43,24.29,33.87,16.26,52.09Z"/><line class="cls-5" x1="333.06" y1="330.19" x2="402.01" y2="293.94"/><path class="cls-5" d="M447.9,266.4l24.7-3.4s22.21-.52,25-25.52"/><path class="cls-5" d="M237.85,386s18.32,7.66,41.25-26.14"/><path class="cls-5" d="M150.75,408.18l31.82,8s17.21,4.17,24.21-7.95"/><path class="cls-2" d="M960.38,737.07l2.24-8.08c5.31-19.19-5-41.94-23-50.54l-33.9-16.25c-5.09-18-19.61-32.7-37.64-35.89-23.84-4.22-63.34-4.94-87.8-1.59l-.34.06c-13.79-18-39.42-24.4-60.17-13.95l-109.25,55c-22.87,11.52-37.77,35-33.11,52.27a89.73,89.73,0,0,0,3,8.7,45.74,45.74,0,0,0-5.34,5.35l-45.25,53.43a42.85,42.85,0,0,0,2.42,58.79,31.71,31.71,0,0,0-5.71,11.36l-9.32,33a35.11,35.11,0,0,0,25.28,43.7l23.27,5.88c19.31,4.87,41.67-6.06,49.7-24.28l.86-2a37.71,37.71,0,0,0,2.46-7.86c18.13,4.7,38.49-1.09,50.83-16.1l7.08-8.62a66.06,66.06,0,0,0,10.83-19.52c14.84,5.09,31.75,4.76,45.42-2.12L794.34,827c12.43-6.26,22.92-18.05,29.47-31.58a55,55,0,0,0,16.42,1.77l11.14-.56c18.36-.92,35.24-12.5,44.1-28.39l19.12,1.29C934.46,770.86,955.06,756.26,960.38,737.07Z"/><path class="cls-3" d="M917.65,730.08c19.87,1.35,40.48-13.26,45.79-32.45l2.24-8.07c5.32-19.19-5-41.93-23-50.54l-48-23c-18-8.6-32.93.65-33.26,20.56l-.9,53.4c-.33,19.91,15.65,37.3,35.52,38.65Z"/><path class="cls-4" d="M917.65,730.08c19.87,1.35,40.48-13.26,45.79-32.45l2.24-8.07c5.32-19.19-5-41.93-23-50.54l-48-23c-18-8.6-32.93.65-33.26,20.56l-.9,53.4c-.33,19.91,15.65,37.3,35.52,38.65Z"/><path class="cls-3" d="M854.43,757.18c25.57-1.29,48.26-23.21,50.42-48.72l5.72-67.52c2.16-25.51-15.58-49.84-39.42-54.06s-63.34-4.94-87.79-1.59S745.7,611.19,754,635.41l27.68,80.64c8.31,24.22,36,43,61.61,41.69Z"/><path class="cls-4" d="M854.43,757.18c25.57-1.29,48.26-23.21,50.42-48.72l5.72-67.52c2.16-25.51-15.58-49.84-39.42-54.06s-63.34-4.94-87.79-1.59S745.7,611.19,754,635.41l27.68,80.64c8.31,24.22,36,43,61.61,41.69Z"/><path class="cls-3" d="M736,818.5c-22.87,11.52-54.81,4.7-71-15.15l-46.62-57.24c-16.17-19.85-33.22-50.18-37.88-67.41s10.23-40.75,33.1-52.27l109.26-55c22.87-11.52,51.67-2.59,64,19.84l18.36,33.36c12.34,22.43,24.77,61.6,27.61,87l1,8.7c2.84,25.45-13.54,55.69-36.4,67.21Z"/><path class="cls-4" d="M736,818.5c-22.87,11.52-54.81,4.7-71-15.15l-46.62-57.24c-16.17-19.85-33.22-50.18-37.88-67.41s10.23-40.75,33.1-52.27l109.26-55c22.87-11.52,51.67-2.59,64,19.84l18.36,33.36c12.34,22.43,24.77,61.6,27.61,87l1,8.7c2.84,25.45-13.54,55.69-36.4,67.21Z"/><path class="cls-3" d="M672.63,848.76c-16.25,19.78-46.43,23.57-67.07,8.41l-65.28-47.92a42.93,42.93,0,0,1-7.43-63.07l45.24-53.43c16.55-19.54,43.82-20.1,60.6-1.24s39.53,51.92,50.55,73.47,6.73,55.38-9.53,75.16Z"/><path class="cls-4" d="M672.63,848.76c-16.25,19.78-46.43,23.57-67.07,8.41l-65.28-47.92a42.93,42.93,0,0,1-7.43-63.07l45.24-53.43c16.55-19.54,43.82-20.1,60.6-1.24s39.53,51.92,50.55,73.47,6.73,55.38-9.53,75.16Z"/><path class="cls-3" d="M618.48,874.68c-8,18.22-30.38,29.15-49.69,24.28l-23.27-5.88a35.11,35.11,0,0,1-25.28-43.7l9.31-33c5.4-19.16,23.71-26.31,40.67-15.89l32.86,20.19c17,10.43,24.29,33.87,16.26,52.09Z"/><path class="cls-4" d="M618.48,874.68c-8,18.22-30.38,29.15-49.69,24.28l-23.27-5.88a35.11,35.11,0,0,1-25.28-43.7l9.31-33c5.4-19.16,23.71-26.31,40.67-15.89l32.86,20.19c17,10.43,24.29,33.87,16.26,52.09Z"/><line class="cls-5" x1="730.58" y1="796.19" x2="799.53" y2="759.94"/><path class="cls-5" d="M845.42,732.4l24.7-3.4s22.21-.52,25-25.52"/><path class="cls-5" d="M635.37,852s18.32,7.66,41.25-26.14"/><path class="cls-5" d="M548.27,874.18l31.82,8s17.21,4.17,24.21-8"/><path class="cls-1" d="M929.36,542.79h-.08l.15,0Z"/><path class="cls-2" d="M969.57,404.2l2.24-8.08c5.31-19.19-5-41.93-23-50.54l-33.9-16.25c-5.09-18-19.61-32.7-37.64-35.89-23.84-4.22-63.34-4.93-87.8-1.59l-.34.06c-13.79-18-39.42-24.4-60.17-14L619.71,333c-22.86,11.52-37.76,35-33.1,52.27a86.24,86.24,0,0,0,2.95,8.7,46.52,46.52,0,0,0-5.34,5.35L539,452.74c-15.09,17.83-13.62,43,2.42,58.79a31.71,31.71,0,0,0-5.71,11.36l-9.32,33.05a35.12,35.12,0,0,0,25.28,43.71l23.27,5.87c19.31,4.87,41.67-6.06,49.7-24.28l.86-2a38,38,0,0,0,2.46-7.87c18.13,4.7,38.49-1.08,50.83-16.1l7.08-8.62a66,66,0,0,0,10.83-19.51c14.84,5.08,31.75,4.76,45.42-2.13l61.44-30.95c12.43-6.26,22.92-18,29.47-31.58a54.71,54.71,0,0,0,16.42,1.77l11.14-.56c18.36-.92,35.24-12.49,44.1-28.39l19.12,1.29C943.65,438,964.25,423.39,969.57,404.2Z"/><path class="cls-3" d="M926.84,397.21c19.87,1.35,40.48-13.25,45.79-32.44l2.24-8.08c5.32-19.19-5-41.93-23-50.54l-48-23c-18-8.61-32.93.64-33.26,20.55l-.9,53.4c-.33,19.91,15.65,37.3,35.51,38.65Z"/><path class="cls-4" d="M926.84,397.21c19.87,1.35,40.48-13.25,45.79-32.44l2.24-8.08c5.32-19.19-5-41.93-23-50.54l-48-23c-18-8.61-32.93.64-33.26,20.55l-.9,53.4c-.33,19.91,15.65,37.3,35.51,38.65Z"/><path class="cls-3" d="M863.62,424.31C889.19,423,911.88,401.1,914,375.59l5.72-67.52c2.16-25.51-15.58-49.84-39.42-54.06s-63.34-4.94-87.79-1.59-37.66,25.9-29.35,50.12l27.68,80.64c8.31,24.22,36,43,61.61,41.69Z"/><path class="cls-4" d="M863.62,424.31C889.19,423,911.88,401.1,914,375.59l5.72-67.52c2.16-25.51-15.58-49.84-39.42-54.06s-63.34-4.94-87.79-1.59-37.66,25.9-29.35,50.12l27.68,80.64c8.31,24.22,36,43,61.61,41.69Z"/><path class="cls-3" d="M745.16,485.63c-22.87,11.52-54.81,4.7-71-15.15l-46.62-57.23c-16.17-19.85-33.22-50.19-37.88-67.42s10.23-40.75,33.1-52.27l109.26-55c22.87-11.52,51.67-2.59,64,19.84l18.36,33.36c12.34,22.43,24.77,61.6,27.61,87l1,8.7c2.84,25.45-13.54,55.69-36.4,67.21Z"/><path class="cls-4" d="M745.16,485.63c-22.87,11.52-54.81,4.7-71-15.15l-46.62-57.23c-16.17-19.85-33.22-50.19-37.88-67.42s10.23-40.75,33.1-52.27l109.26-55c22.87-11.52,51.67-2.59,64,19.84l18.36,33.36c12.34,22.43,24.77,61.6,27.61,87l1,8.7c2.84,25.45-13.54,55.69-36.4,67.21Z"/><path class="cls-3" d="M681.82,515.89c-16.25,19.78-46.44,23.57-67.07,8.42l-65.28-47.93A42.94,42.94,0,0,1,542,413.31l45.25-53.43c16.55-19.54,43.82-20.09,60.6-1.24s39.53,51.92,50.55,73.48,6.73,55.37-9.53,75.15Z"/><path class="cls-4" d="M681.82,515.89c-16.25,19.78-46.44,23.57-67.07,8.42l-65.28-47.93A42.94,42.94,0,0,1,542,413.31l45.25-53.43c16.55-19.54,43.82-20.09,60.6-1.24s39.53,51.92,50.55,73.48,6.73,55.37-9.53,75.15Z"/><path class="cls-3" d="M627.67,541.81C619.65,560,597.29,571,578,566.09l-23.27-5.87a35.13,35.13,0,0,1-25.29-43.71l9.32-33c5.4-19.17,23.71-26.32,40.67-15.9l32.86,20.19c17,10.43,24.29,33.87,16.26,52.1Z"/><path class="cls-4" d="M627.67,541.81C619.65,560,597.29,571,578,566.09l-23.27-5.87a35.13,35.13,0,0,1-25.29-43.71l9.32-33c5.4-19.17,23.71-26.32,40.67-15.9l32.86,20.19c17,10.43,24.29,33.87,16.26,52.1Z"/><line class="cls-5" x1="739.77" y1="463.32" x2="808.72" y2="427.07"/><path class="cls-5" d="M854.61,399.53l24.7-3.4s22.21-.51,25-25.51"/><path class="cls-5" d="M644.56,519.15s18.32,7.66,41.25-26.14"/><path class="cls-5" d="M557.46,541.31l31.82,8s17.21,4.17,24.21-8"/><path class="cls-1" d="M434.87,781.26h-.08l.15,0Z"/><path class="cls-2" d="M475.08,642.67l2.24-8.09c5.31-19.18-5-41.93-23-50.53l-33.9-16.25c-5.09-18-19.61-32.7-37.64-35.89C359,527.69,319.45,527,295,530.32l-.34.06c-13.79-18-39.42-24.4-60.17-14l-109.26,55c-22.86,11.52-37.76,35-33.1,52.27a87.09,87.09,0,0,0,2.95,8.7,45.74,45.74,0,0,0-5.34,5.35L44.48,691.21A42.85,42.85,0,0,0,46.9,750a31.62,31.62,0,0,0-5.71,11.36l-9.32,33a35.11,35.11,0,0,0,25.28,43.7L80.42,844c19.31,4.87,41.67-6.06,49.7-24.28l.86-2a37.71,37.71,0,0,0,2.46-7.86c18.13,4.7,38.49-1.09,50.83-16.1l7.08-8.62a66.06,66.06,0,0,0,10.83-19.52c14.84,5.09,31.75,4.76,45.42-2.12L309,732.58c12.43-6.26,22.92-18.05,29.47-31.58a55,55,0,0,0,16.42,1.77l11.14-.56c18.36-.92,35.24-12.5,44.1-28.4l19.12,1.3C449.16,676.46,469.76,661.86,475.08,642.67Z"/><path class="cls-3" d="M432.35,635.68c19.87,1.34,40.48-13.26,45.79-32.45l2.24-8.07c5.32-19.19-5-41.94-23-50.54l-48-23c-18-8.6-32.93.65-33.26,20.56l-.9,53.4c-.33,19.91,15.65,37.3,35.51,38.65Z"/><path class="cls-4" d="M432.35,635.68c19.87,1.34,40.48-13.26,45.79-32.45l2.24-8.07c5.32-19.19-5-41.94-23-50.54l-48-23c-18-8.6-32.93.65-33.26,20.56l-.9,53.4c-.33,19.91,15.65,37.3,35.51,38.65Z"/><path class="cls-3" d="M369.13,662.78c25.57-1.29,48.26-23.21,50.42-48.73l5.72-67.51c2.16-25.51-15.58-49.84-39.42-54.06s-63.34-4.94-87.79-1.59S260.4,516.79,268.71,541l27.68,80.64c8.31,24.22,36,43,61.61,41.69Z"/><path class="cls-4" d="M369.13,662.78c25.57-1.29,48.26-23.21,50.42-48.73l5.72-67.51c2.16-25.51-15.58-49.84-39.42-54.06s-63.34-4.94-87.79-1.59S260.4,516.79,268.71,541l27.68,80.64c8.31,24.22,36,43,61.61,41.69Z"/><path class="cls-3" d="M250.67,724.1c-22.87,11.51-54.81,4.7-71-15.15l-46.62-57.24c-16.17-19.85-33.22-50.18-37.88-67.41s10.23-40.75,33.1-52.27l109.26-55c22.87-11.51,51.67-2.58,64,19.85l18.36,33.35c12.34,22.44,24.77,61.61,27.61,87l1,8.7c2.84,25.45-13.54,55.69-36.4,67.21Z"/><path class="cls-4" d="M250.67,724.1c-22.87,11.51-54.81,4.7-71-15.15l-46.62-57.24c-16.17-19.85-33.22-50.18-37.88-67.41s10.23-40.75,33.1-52.27l109.26-55c22.87-11.51,51.67-2.58,64,19.85l18.36,33.35c12.34,22.44,24.77,61.61,27.61,87l1,8.7c2.84,25.45-13.54,55.69-36.4,67.21Z"/><path class="cls-3" d="M187.33,754.36c-16.25,19.78-46.44,23.57-67.07,8.41L55,714.85a42.94,42.94,0,0,1-7.44-63.07l45.25-53.43c16.55-19.54,43.82-20.1,60.6-1.24s39.53,51.92,50.55,73.47,6.73,55.38-9.53,75.16Z"/><path class="cls-4" d="M187.33,754.36c-16.25,19.78-46.44,23.57-67.07,8.41L55,714.85a42.94,42.94,0,0,1-7.44-63.07l45.25-53.43c16.55-19.54,43.82-20.1,60.6-1.24s39.53,51.92,50.55,73.47,6.73,55.38-9.53,75.16Z"/><path class="cls-3" d="M133.18,780.28c-8,18.22-30.38,29.15-49.69,24.28l-23.27-5.88A35.12,35.12,0,0,1,34.93,755l9.32-33.05C49.65,702.77,68,695.61,84.92,706l32.86,20.19c17,10.43,24.29,33.87,16.26,52.09Z"/><path class="cls-4" d="M133.18,780.28c-8,18.22-30.38,29.15-49.69,24.28l-23.27-5.88A35.12,35.12,0,0,1,34.93,755l9.32-33.05C49.65,702.77,68,695.61,84.92,706l32.86,20.19c17,10.43,24.29,33.87,16.26,52.09Z"/><line class="cls-5" x1="245.28" y1="701.79" x2="314.23" y2="665.54"/><path class="cls-5" d="M360.12,638l24.7-3.39s22.21-.52,25-25.52"/><path class="cls-5" d="M150.07,757.62s18.32,7.66,41.25-26.14"/><path class="cls-5" d="M63,779.78l31.82,8S112,792,119,779.86"/><path class="cls-6" d="M764.25,331.87a20.55,20.55,0,0,0-11.31-2.05,22.76,22.76,0,0,0-10.05,2.74,18.5,18.5,0,0,0-3.84,3.71L748.8,299l-6.08-1.48-38.43,23.07-9.73-16.31-4.85.34-9.88,5.9,1.62,2.71,5.4,1.33,7.24,12.13-14.89,8.88,3.18,5.34L697.27,332l17.1,28.65q3.74,6.28,9.55,7.78t15.26-4.15A14.59,14.59,0,0,0,745,358a16.27,16.27,0,0,0,1.38-9.05,14.82,14.82,0,0,0-.61-1.61,3.27,3.27,0,0,0-1.9-1.5,3,3,0,0,0-1.72.25,1.29,1.29,0,0,0-.54.68,1.87,1.87,0,0,0-.13,1,19.89,19.89,0,0,1-1.6,6.49,9.66,9.66,0,0,1-3.89,4.6,6.5,6.5,0,0,1-6.27.62,11.7,11.7,0,0,1-5.09-4.91l-17.1-28.66,29.14-17.39L732,348.68l1.37,2.3,3.31-5.09c1.72-2.92,3.43-4.88,5.13-5.9a16,16,0,0,1,8.44-2.28,14.62,14.62,0,0,1,8.8,3.26,30.4,30.4,0,0,1,7.78,9,32.65,32.65,0,0,1,4.21,10.68,14.83,14.83,0,0,1-1.08,9.43,15.58,15.58,0,0,1-6.18,6.68,25.37,25.37,0,0,1-6.46,2.71,8.85,8.85,0,0,1-6-.06,6.24,6.24,0,0,0,1.58-3.64,7.32,7.32,0,0,0-1.17-4.63,7.53,7.53,0,0,0-2.79-2.86,6.78,6.78,0,0,0-3.46-.85,8.09,8.09,0,0,0-3.88,1.25,7.89,7.89,0,0,0-2.93,2.82,6.77,6.77,0,0,0-.9,3.44,7.59,7.59,0,0,0,1.2,3.82q3.24,5.44,10.62,7.42t17.38-4h0a33.33,33.33,0,0,0,11-10.37,21.44,21.44,0,0,0,3.6-13.78,32,32,0,0,0-4.55-14.16,39,39,0,0,0-4.79-6.22A26.94,26.94,0,0,0,764.25,331.87Z"/><path class="cls-6" d="M764.25,659.87a20.55,20.55,0,0,0-11.31-2,22.76,22.76,0,0,0-10.05,2.74,18.5,18.5,0,0,0-3.84,3.71L748.8,627l-6.08-1.48-38.43,23.07-9.73-16.31-4.85.34-9.88,5.9,1.62,2.71,5.4,1.33,7.24,12.13-14.89,8.88,3.18,5.34L697.27,660l17.1,28.65q3.74,6.29,9.55,7.78t15.26-4.15A14.59,14.59,0,0,0,745,686a16.27,16.27,0,0,0,1.38-9,14.82,14.82,0,0,0-.61-1.61,3.27,3.27,0,0,0-1.9-1.5,3,3,0,0,0-1.72.25,1.29,1.29,0,0,0-.54.68,1.87,1.87,0,0,0-.13,1,19.89,19.89,0,0,1-1.6,6.49,9.66,9.66,0,0,1-3.89,4.6,6.5,6.5,0,0,1-6.27.62,11.7,11.7,0,0,1-5.09-4.91l-17.1-28.66,29.14-17.39L732,676.68l1.37,2.3,3.31-5.09c1.72-2.92,3.43-4.88,5.13-5.9a16,16,0,0,1,8.44-2.28,14.62,14.62,0,0,1,8.8,3.26,30.4,30.4,0,0,1,7.78,9,32.65,32.65,0,0,1,4.21,10.68,14.83,14.83,0,0,1-1.08,9.43,15.58,15.58,0,0,1-6.18,6.68,25.37,25.37,0,0,1-6.46,2.71,8.85,8.85,0,0,1-6-.06,6.24,6.24,0,0,0,1.58-3.64,7.32,7.32,0,0,0-1.17-4.63,7.53,7.53,0,0,0-2.79-2.86,6.78,6.78,0,0,0-3.46-.85,8.09,8.09,0,0,0-3.88,1.25,7.89,7.89,0,0,0-2.93,2.82,6.77,6.77,0,0,0-.9,3.44,7.59,7.59,0,0,0,1.2,3.82q3.24,5.45,10.62,7.42t17.38-4h0a33.33,33.33,0,0,0,11-10.37,21.44,21.44,0,0,0,3.6-13.78,32,32,0,0,0-4.55-14.16,39,39,0,0,0-4.79-6.22A26.94,26.94,0,0,0,764.25,659.87Z"/><path class="cls-6" d="M270.25,568.87a20.55,20.55,0,0,0-11.31-2,22.76,22.76,0,0,0-10.05,2.74,18.5,18.5,0,0,0-3.84,3.71L254.8,536l-6.08-1.48-38.43,23.07-9.73-16.31-4.85.34-9.88,5.9,1.62,2.71,5.4,1.33,7.24,12.13-14.89,8.88,3.18,5.34L203.27,569l17.1,28.65q3.74,6.29,9.55,7.78t15.26-4.15A14.59,14.59,0,0,0,251,595a16.27,16.27,0,0,0,1.38-9,14.82,14.82,0,0,0-.61-1.61,3.27,3.27,0,0,0-1.9-1.5,3,3,0,0,0-1.72.25,1.29,1.29,0,0,0-.54.68,1.87,1.87,0,0,0-.13,1,19.89,19.89,0,0,1-1.6,6.49,9.66,9.66,0,0,1-3.89,4.6,6.5,6.5,0,0,1-6.27.62,11.7,11.7,0,0,1-5.09-4.91l-17.1-28.66,29.14-17.39L238,585.68l1.37,2.3,3.31-5.09c1.72-2.92,3.43-4.88,5.13-5.9a16,16,0,0,1,8.44-2.28,14.62,14.62,0,0,1,8.8,3.26,30.4,30.4,0,0,1,7.78,9,32.65,32.65,0,0,1,4.21,10.68,14.83,14.83,0,0,1-1.08,9.43,15.58,15.58,0,0,1-6.18,6.68,25.37,25.37,0,0,1-6.46,2.71,8.85,8.85,0,0,1-5.95-.06,6.24,6.24,0,0,0,1.58-3.64,7.32,7.32,0,0,0-1.17-4.63,7.53,7.53,0,0,0-2.79-2.86,6.78,6.78,0,0,0-3.46-.85,8.09,8.09,0,0,0-3.88,1.25,7.89,7.89,0,0,0-2.93,2.82,6.77,6.77,0,0,0-.9,3.44,7.59,7.59,0,0,0,1.2,3.82q3.24,5.45,10.62,7.42t17.38-4h0a33.33,33.33,0,0,0,11-10.37,21.44,21.44,0,0,0,3.6-13.78,32,32,0,0,0-4.55-14.16,39,39,0,0,0-4.79-6.22A26.94,26.94,0,0,0,270.25,568.87Z"/><path class="cls-6" d="M354.25,195.87a20.55,20.55,0,0,0-11.31-2.05,22.76,22.76,0,0,0-10.05,2.74,18.5,18.5,0,0,0-3.84,3.71L338.8,163l-6.08-1.48-38.43,23.07-9.73-16.31-4.85.34-9.88,5.9,1.62,2.71,5.4,1.33,7.24,12.13-14.89,8.88,3.18,5.34L287.27,196l17.1,28.65q3.74,6.29,9.55,7.78t15.26-4.15A14.59,14.59,0,0,0,335,222a16.27,16.27,0,0,0,1.38-9.05,14.82,14.82,0,0,0-.61-1.61,3.27,3.27,0,0,0-1.9-1.5,3,3,0,0,0-1.72.25,1.29,1.29,0,0,0-.54.68,1.87,1.87,0,0,0-.13,1,19.89,19.89,0,0,1-1.6,6.49,9.66,9.66,0,0,1-3.89,4.6,6.5,6.5,0,0,1-6.27.62,11.7,11.7,0,0,1-5.09-4.91l-17.1-28.66,29.14-17.39L322,212.68l1.37,2.3,3.31-5.09c1.72-2.92,3.43-4.88,5.13-5.9a16,16,0,0,1,8.44-2.28,14.62,14.62,0,0,1,8.8,3.26,30.4,30.4,0,0,1,7.78,9.05,32.65,32.65,0,0,1,4.21,10.68,14.83,14.83,0,0,1-1.08,9.43,15.58,15.58,0,0,1-6.18,6.68,25.37,25.37,0,0,1-6.46,2.71,8.85,8.85,0,0,1-5.95-.06,6.24,6.24,0,0,0,1.58-3.64,7.32,7.32,0,0,0-1.17-4.63,7.53,7.53,0,0,0-2.79-2.86,6.78,6.78,0,0,0-3.46-.85,8.09,8.09,0,0,0-3.88,1.25,7.89,7.89,0,0,0-2.93,2.82,6.77,6.77,0,0,0-.9,3.44,7.59,7.59,0,0,0,1.2,3.82q3.24,5.44,10.62,7.42t17.38-4h0a33.33,33.33,0,0,0,11-10.37,21.44,21.44,0,0,0,3.6-13.78,32,32,0,0,0-4.55-14.16,39,39,0,0,0-4.79-6.22A26.94,26.94,0,0,0,354.25,195.87Z"/></svg>