<svg xmlns="http://www.w3.org/2000/svg" xmlns:xlink="http://www.w3.org/1999/xlink" viewBox="0 0 1024 1024"><defs><style>.cls-1{fill:#50239f;}.cls-2,.cls-7{fill:#00e8cc;}.cls-11,.cls-12,.cls-2{stroke:#50239f;}.cls-11,.cls-12,.cls-14,.cls-2,.cls-6{stroke-linecap:round;stroke-linejoin:round;}.cls-11,.cls-12,.cls-2,.cls-6{stroke-width:1.45px;}.cls-3{isolation:isolate;}.cls-4{mix-blend-mode:multiply;}.cls-5{clip-path:url(#clip-path);}.cls-11,.cls-14,.cls-6,.cls-8{fill:#fff;}.cls-14,.cls-6{stroke:#00e8cc;}.cls-8{fill-opacity:0.24;}.cls-9{opacity:0.12;}.cls-10{clip-path:url(#clip-path-2);}.cls-12{fill:none;}.cls-13{clip-path:url(#clip-path-3);}.cls-14{stroke-width:1.47px;}.cls-15{fill:#50229f;}.cls-16{clip-path:url(#clip-path-4);}</style><clipPath id="clip-path"><path class="cls-1" d="M758.49,236.51,733.23,261.4c-12.68,12.49-45.5,2.94-83.48-26.66C601.6,197.2,563.41,141.6,564.43,110.6c.21-6.57,2.17-11.49,5.56-14.85l25.28-24.89c-3.4,3.35-5.35,8.27-5.57,14.83-1,31,37.17,86.6,85.32,124.14C713,239.45,745.8,249,758.49,236.51Z"/></clipPath><clipPath id="clip-path-2"><path class="cls-2" d="M475.82,529.86c6,4.39,11.91,8.82,17.86,13.21l.93.7a77.21,77.21,0,0,0,26.57,12.57c51.69,13.42,113.13-23.82,137.25-83.18,19.45-47.88,8.67-95.53-23.35-119.22h0L616.29,340c32,23.69,42.8,71.36,23.35,119.22-24.11,59.36-85.56,96.6-137.25,83.18A76.68,76.68,0,0,1,475.82,529.86Z"/></clipPath><clipPath id="clip-path-3"><path class="cls-1" d="M474.8,530.73c6,4.45,12,8.93,18,13.38l.94.71a78.12,78.12,0,0,0,26.85,12.76c52.25,13.64,114.43-23.93,138.9-83.91,19.74-48.39,8.92-96.59-23.43-120.59h0q-9.5-7.05-19-14.09c32.34,24,43.17,72.22,23.44,120.59-24.47,60-86.66,97.56-138.91,83.91A77.58,77.58,0,0,1,474.8,530.73Z"/></clipPath><clipPath id="clip-path-4"><path class="cls-1" d="M215.76,305.3c4.16,6.22,8.3,12.48,12.45,18.7l.64,1a78.06,78.06,0,0,0,21,21.09c44.55,30.52,115.78,16.21,159.1-32,35-38.85,41.07-87.87,18.75-121.4h0c-4.36-6.57-8.74-13.11-13.09-19.68,22.31,33.53,16.19,82.57-18.75,121.41-43.32,48.17-114.56,62.48-159.1,32A77.5,77.5,0,0,1,215.76,305.3Z"/></clipPath></defs><title>tezos-coins</title><g class="cls-3"><g id="Layer_1" data-name="Layer 1"><g id="MUENZE"><g class="cls-4"><path class="cls-1" d="M758.49,236.51,733.23,261.4c-12.68,12.49-45.5,2.94-83.48-26.66C601.6,197.2,563.41,141.6,564.43,110.6c.21-6.57,2.17-11.49,5.56-14.85l25.28-24.89c-3.4,3.35-5.35,8.27-5.57,14.83-1,31,37.17,86.6,85.32,124.14C713,239.45,745.8,249,758.49,236.51Z"/><g class="cls-5"><line class="cls-6" x1="570.65" y1="120.6" x2="587.17" y2="104.97"/><line class="cls-6" x1="591.55" y1="164.92" x2="608.11" y2="149.12"/><line class="cls-6" x1="620.6" y1="201.72" x2="636.49" y2="186.43"/><line class="cls-6" x1="655.83" y1="232.73" x2="671.19" y2="217.83"/><line class="cls-6" x1="696.8" y1="258.23" x2="712.45" y2="242.91"/></g></g><path class="cls-7" d="M678.72,97.53c48.16,37.55,86.37,93.14,85.34,124.13s-40.91,25.73-89-11.83S588.67,116.7,589.7,85.69,630.59,60,678.72,97.53Z"/><path class="cls-1" d="M670.85,106.75c37.08,28.54,69.84,72.67,73.17,98.59s-24,23.8-61.12-4.73S613.06,128,609.73,102,633.77,78.22,670.85,106.75Z"/></g><path class="cls-8" d="M728.4,155.79c15.76,21.55,25.47,42.74,25,57.54-.9,27.22-35.9,22.58-78.13-10.38-22.74-17.73-43-40-56.63-61.12Z"/><g class="cls-9"><path class="cls-1" d="M747.89,924.51c37.09,8.31,69.84,21.16,73.18,28.71s-24,6.93-61.12-1.38-69.84-21.15-73.17-28.7S710.81,916.21,747.89,924.51Z"/></g><g id="MUENZE-2" data-name="MUENZE"><g id="MUENZE-3" data-name="MUENZE"><path class="cls-7" d="M475.82,529.86c6,4.39,11.91,8.82,17.86,13.21l.93.7a77.21,77.21,0,0,0,26.57,12.57c51.69,13.42,113.13-23.82,137.25-83.18,19.45-47.88,8.67-95.53-23.35-119.22h0L616.29,340c32,23.69,42.8,71.36,23.35,119.22-24.11,59.36-85.56,96.6-137.25,83.18A76.68,76.68,0,0,1,475.82,529.86Z"/><g class="cls-10"><line class="cls-11" x1="731.79" y1="416.45" x2="563.2" y2="323.35"/><line class="cls-11" x1="711.79" y1="441.24" x2="543.2" y2="348.15"/><line class="cls-11" x1="691.78" y1="466.04" x2="523.2" y2="372.94"/><line class="cls-11" x1="671.78" y1="490.83" x2="503.19" y2="397.74"/><line class="cls-11" x1="651.78" y1="515.63" x2="483.19" y2="422.53"/><line class="cls-11" x1="631.77" y1="540.43" x2="463.19" y2="447.32"/><line class="cls-11" x1="611.77" y1="565.22" x2="443.19" y2="472.12"/><line class="cls-11" x1="591.77" y1="590.02" x2="423.19" y2="496.91"/></g><path class="cls-12" d="M475.82,529.86c6,4.39,11.91,8.82,17.86,13.21l.93.7a77.21,77.21,0,0,0,26.57,12.57c51.69,13.42,113.13-23.82,137.25-83.18,19.45-47.88,8.67-95.53-23.35-119.22h0L616.29,340c32,23.69,42.8,71.36,23.35,119.22-24.11,59.36-85.56,96.6-137.25,83.18A76.68,76.68,0,0,1,475.82,529.86Z"/><path class="cls-7" d="M581,349.05c-41.31-10.74-90.41,19-109.69,66.47s-1.41,94.61,39.9,105.35,90.42-19,109.69-66.49S622.26,359.78,581,349.05Z"/><path class="cls-12" d="M581,349.05c-41.31-10.74-90.41,19-109.69,66.47s-1.41,94.61,39.9,105.35,90.42-19,109.69-66.49S622.26,359.78,581,349.05Z"/></g></g><g id="MUENZE-4" data-name="MUENZE"><g id="MUENZE-5" data-name="MUENZE"><path class="cls-1" d="M474.8,530.73c6,4.45,12,8.93,18,13.38l.94.71a78.12,78.12,0,0,0,26.85,12.76c52.25,13.64,114.43-23.93,138.9-83.91,19.74-48.39,8.92-96.59-23.43-120.59h0q-9.5-7.05-19-14.09c32.34,24,43.17,72.22,23.44,120.59-24.47,60-86.66,97.56-138.91,83.91A77.58,77.58,0,0,1,474.8,530.73Z"/><g class="cls-13"><line class="cls-14" x1="664.18" y1="403.97" x2="653.51" y2="395.82"/><line class="cls-14" x1="660.11" y1="461.28" x2="647.68" y2="452.08"/><line class="cls-14" x1="638.01" y1="504.55" x2="626.08" y2="495.98"/><line class="cls-14" x1="601.58" y1="536.69" x2="590.04" y2="528.66"/><line class="cls-14" x1="548.67" y1="558.46" x2="535.88" y2="549.84"/></g><path class="cls-7" d="M590.27,326.24c-52.24-13.66-114.43,23.91-138.9,83.89s-2,119.71,50.28,133.36,114.44-23.92,138.91-83.91S642.52,339.9,590.27,326.24Z"/><path class="cls-1" d="M581.38,348.05c-41.76-10.92-91.46,19.1-111,67.06s-1.57,95.66,40.19,106.58,91.45-19.12,111-67.07S623.13,359,581.38,348.05Z"/></g></g><path class="cls-8" d="M448.07,460.42c1.2,36.85,21.87,67.27,56.35,76.28,49,12.79,107.28-22.43,130.22-78.66,9-22,11.2-43.91,7.68-63.25Z"/><g id="MUENZE-6" data-name="MUENZE" class="cls-9"><g id="MUENZE-7" data-name="MUENZE"><path class="cls-15" d="M595,907.83c-41.31-3.12-90.41,5.54-109.69,19.36s-1.41,27.55,39.9,30.67,90.41-5.54,109.69-19.36S636.27,911,595,907.83Z"/></g></g><path class="cls-1" d="M215.76,305.3c4.16,6.22,8.3,12.48,12.45,18.7l.64,1a78.06,78.06,0,0,0,21,21.09c44.55,30.52,115.78,16.21,159.1-32,35-38.85,41.07-87.87,18.75-121.4h0c-4.36-6.57-8.74-13.11-13.09-19.68,22.31,33.53,16.19,82.57-18.75,121.41-43.32,48.17-114.56,62.48-159.1,32A77.5,77.5,0,0,1,215.76,305.3Z"/><g class="cls-16"><line class="cls-14" x1="436.85" y1="250.09" x2="429.58" y2="238.82"/><line class="cls-14" x1="413.64" y1="302.65" x2="405.05" y2="289.78"/><line class="cls-14" x1="378.2" y1="335.89" x2="369.87" y2="323.78"/><line class="cls-14" x1="333.05" y1="353.8" x2="324.91" y2="342.34"/><line class="cls-14" x1="275.89" y1="356.39" x2="266.77" y2="343.95"/></g><path class="cls-7" d="M393.61,151.94c-44.54-30.53-115.77-16.21-159.09,31.95s-42.35,112,2.19,142.5,115.78,16.21,159.1-32S438.15,182.47,393.61,151.94Z"/><path class="cls-1" d="M377.86,169.45c-35.6-24.4-92.53-13-127.16,25.54s-33.84,89.5,1.76,113.9S345,321.84,379.62,283.34,413.46,193.85,377.86,169.45Z"/><g class="cls-9"><path class="cls-1" d="M387.2,914.16c-35.6-7.1-92.53-3.77-127.17,7.44s-33.83,26.06,1.77,33.17,92.53,3.77,127.16-7.44S422.8,921.27,387.2,914.16Z"/></g><path class="cls-7" d="M331.23,269.76a20.67,20.67,0,0,0-1-11.45,22.85,22.85,0,0,0-5.29-9,19.08,19.08,0,0,0-4.6-2.73l38.56-.44-.18-6.26-32.4-31,13.17-13.7-1.61-4.58-8.3-8-2.2,2.28.16,5.56-9.79,10.19-12.5-12-4.31,4.49,12.5,12L290.3,229.25q-5.07,5.26-5,11.26t8,13.63a14.54,14.54,0,0,0,7.58,3.9A16.18,16.18,0,0,0,310,257a15.54,15.54,0,0,0,1.4-1,3.27,3.27,0,0,0,.94-2.23,3,3,0,0,0-.7-1.6,1.2,1.2,0,0,0-.79-.33,1.82,1.82,0,0,0-1,.14,20,20,0,0,1-6.68.16,9.67,9.67,0,0,1-5.46-2.54,6.48,6.48,0,0,1-2.25-5.88,11.7,11.7,0,0,1,3.39-6.21L322,213.42l24.47,23.52-40,6.19-1.86,1.93,5.79,1.85c3.27.89,5.61,2,7,3.39a15.89,15.89,0,0,1,4.43,7.54,14.6,14.6,0,0,1-.82,9.35,30.59,30.59,0,0,1-6.67,9.89,32.62,32.62,0,0,1-9.19,6.88,14.86,14.86,0,0,1-9.38,1.45,15.6,15.6,0,0,1-8.08-4.2,25.49,25.49,0,0,1-4.32-5.51,8.89,8.89,0,0,1-1.51-5.76,6.28,6.28,0,0,0,3.93.57,7.35,7.35,0,0,0,4.15-2.36,7.49,7.49,0,0,0,2-3.45,6.72,6.72,0,0,0-.09-3.56,9.1,9.1,0,0,0-5.72-5.49,6.72,6.72,0,0,0-3.56,0,7.48,7.48,0,0,0-3.37,2.16c-2.92,3-4.37,7.12-4.35,12.21s2.84,10.33,8.44,15.7h0a33.38,33.38,0,0,0,12.9,7.83,21.47,21.47,0,0,0,14.24-.16A32.07,32.07,0,0,0,323,285.32a38.6,38.6,0,0,0,4.73-6.27A26.77,26.77,0,0,0,331.23,269.76Z"/><path class="cls-8" d="M242.56,319.89c41.22,28.24,107.15,15,147.24-29.58s39.18-103.61-2-131.87Z"/><path class="cls-7" d="M573.82,458a20.64,20.64,0,0,0-5.05-10.33,22.66,22.66,0,0,0-8.16-6.48,18.78,18.78,0,0,0-5.26-.9l35.84-14.22-2.4-5.78L547.44,403l7.39-17.51-3.14-3.7-10.61-4.48-1.23,2.91,2.14,5.14-5.5,13-16-6.74-2.42,5.73,16,6.74-13,30.74q-2.85,6.74-.62,12.3T532.86,457a14.57,14.57,0,0,0,8.47.94,16.24,16.24,0,0,0,8.11-4.25,17.2,17.2,0,0,0,.95-1.45,3.31,3.31,0,0,0,.08-2.42,3,3,0,0,0-1.23-1.24,1.24,1.24,0,0,0-.85,0,1.91,1.91,0,0,0-.89.49,19.78,19.78,0,0,1-6.18,2.54,9.57,9.57,0,0,1-6-.41,6.48,6.48,0,0,1-4.21-4.69,11.61,11.61,0,0,1,.94-7l13-30.75,31.27,13.19L541.2,442l-1.05,2.47,6.07-.35c3.37-.34,6-.12,7.79.65a15.81,15.81,0,0,1,6.83,5.46,14.5,14.5,0,0,1,2.58,9,30.06,30.06,0,0,1-2.69,11.62,32.3,32.3,0,0,1-6.11,9.71,14.8,14.8,0,0,1-8.24,4.72,15.65,15.65,0,0,1-9-1,25.35,25.35,0,0,1-6-3.6,8.77,8.77,0,0,1-3.47-4.83,6.37,6.37,0,0,0,3.87-.88,7.33,7.33,0,0,0,3-3.69,7.43,7.43,0,0,0,.65-3.94,6.71,6.71,0,0,0-1.36-3.29,9,9,0,0,0-7.3-3.08,6.75,6.75,0,0,0-3.31,1.31,7.59,7.59,0,0,0-2.37,3.23q-2.48,5.84.31,13t13.49,11.65h0a33.24,33.24,0,0,0,14.85,2.7A21.5,21.5,0,0,0,563,487.51a32.11,32.11,0,0,0,8.72-12.05,38.11,38.11,0,0,0,2.17-7.55A26.71,26.71,0,0,0,573.82,458Z"/><path class="cls-7" d="M695.6,150.4a19.21,19.21,0,0,0-7.74-3.18,12.08,12.08,0,0,0-6.28.13,6.08,6.08,0,0,0-2,1.79L681,126.45l-4.22-2-22.3,8.74L645.84,121l-3.16-.57-5.74,2.22,1.44,2,3.74,1.74,6.42,9.08-8.65,3.35,2.82,4,8.64-3.35L666.5,161a19.49,19.49,0,0,0,7.36,6.62q4,1.93,9.53-.2a4.86,4.86,0,0,0,3-3.15,9.44,9.44,0,0,0-.31-5.66c-.19-.39-.39-.78-.62-1.16a4,4,0,0,0-1.45-1.28,1.79,1.79,0,0,0-1.11-.12.42.42,0,0,0-.26.35,1.08,1.08,0,0,0,0,.63,10.33,10.33,0,0,1-.19,4,3.24,3.24,0,0,1-2,2.36,4.4,4.4,0,0,1-4.06-.62,14.92,14.92,0,0,1-4-4l-15.15-21.46,16.92-6.55,2.37,25.41,1.22,1.72,1.5-2.78a5.4,5.4,0,0,1,2.6-3,8.6,8.6,0,0,1,5.27-.1,15.88,15.88,0,0,1,6.26,3.56,38.7,38.7,0,0,1,6.35,7.16,34.4,34.4,0,0,1,4.21,7.65,9,9,0,0,1,.56,6,5.15,5.15,0,0,1-3.19,3.34,11.53,11.53,0,0,1-3.9.71,6.79,6.79,0,0,1-3.94-1,2.57,2.57,0,0,0,.55-2.11,6.8,6.8,0,0,0-1.39-3.2,9.74,9.74,0,0,0-2.23-2.32,6.76,6.76,0,0,0-2.4-1.12,4,4,0,0,0-2.39.18,2.6,2.6,0,0,0-1.56,1.35,3.41,3.41,0,0,0-.14,2.1,7.67,7.67,0,0,0,1.31,2.69,20.54,20.54,0,0,0,8,6.56,13.18,13.18,0,0,0,10.94.25h0a11,11,0,0,0,5.85-5c1.26-2.19,1.45-5.15.53-8.39a32.49,32.49,0,0,0-4.91-10,46.79,46.79,0,0,0-4-4.83A33.42,33.42,0,0,0,695.6,150.4Z"/></g></g></svg>