<svg xmlns="http://www.w3.org/2000/svg" id="Layer_1" x="0px" y="0px" style="enable-background:new 0 0 32 32" version="1.1" viewBox="0 0 32 32" xml:space="preserve"><defs/><style type="text/css">.st0{fill-rule:evenodd;clip-rule:evenodd;fill:#F4F4F4;} .st1{fill:#53CBC8;} .st2{fill:#E1147B;}</style><path d="M16 32C7.2 32 0 24.8 0 16S7.2 0 16 0s16 7.2 16 16-7.2 16-16 16z" class="st0"/><path d="M18.288 5.761a7.504 7.504 0 00-7.504 7.504v.027a.37.37 0 00.37.348h14.267a.37.37 0 00.37-.348v-.012-.015a7.504 7.504 0 00-7.503-7.504z" class="st1"/><circle cx="5.3602" cy="21.6426" r="0.4567" class="st2"/><path d="M24.925 19.116H9.616a.45.45 0 00-.395.664l.007.014a.45.45 0 00.396.235h15.293a.45.45 0 00.396-.235l.008-.014a.45.45 0 00-.396-.664zM26.96 14.976H9.616a.45.45 0 00-.45.476l.002.014c.012.238.21.424.449.424h17.342a.449.449 0 00.45-.438.45.45 0 00-.45-.476zM20.429 25.326h-7.816c-.475 0-.625.638-.2.852l.028.014a.448.448 0 00.2.047h7.76c.069 0 .137-.016.2-.047l.028-.014c.424-.214.275-.852-.2-.852zM25.204 23.256h-7.816c-.474 0-.624.638-.2.852l.029.014a.448.448 0 00.2.047h7.759c.07 0 .138-.016.2-.047l.029-.014c.424-.214.274-.852-.2-.852zM14.547 21.956l-.014-.015a.45.45 0 01.33-.755H27.55a.45.45 0 01.33.755l-.014.015a.453.453 0 01-.33.143H14.876a.452.452 0 01-.33-.143zM6.991 21.186h6.058c.475 0 .624.638.2.852a.448.448 0 01-.23.061h-6a.448.448 0 01-.2-.047l-.028-.014c-.424-.214-.275-.852.2-.852z" class="st2"/><circle cx="7.985" cy="15.433" r="0.4567" class="st2"/><path d="M19.206 17.626l.004-.014a.45.45 0 00-.434-.566H6.088a.45.45 0 00-.434.566l.004.014a.45.45 0 00.434.333h12.68c.203 0 .38-.136.434-.333z" class="st2"/><circle cx="4.4567" cy="17.5028" r="0.4567" class="st2"/><circle cx="7.985" cy="19.5727" r="0.4567" class="st2"/><circle cx="15.7574" cy="23.7125" r="0.4567" class="st2"/><circle cx="10.9817" cy="25.7823" r="0.4567" class="st2"/></svg>