<svg id="ec8396f7-f2c4-4d6e-bf4c-b594edc82f3e" data-name="Layer 1" xmlns="http://www.w3.org/2000/svg" width="32" height="32" viewBox="0 0 32 32"><circle cx="16" cy="16" r="16" style="fill:#212529"/><path d="M23.87,9.55a2.63,2.63,0,0,0-1.29-.67,2.6,2.6,0,0,0-1.67.63c-.41.29-1.25,1-1.58,1.33s-1.17.46-2.54,1.29-6.71,4.25-6.71,4.25h1.38L5.25,19.59h.62L5,20.25a2,2,0,0,0,1.46-.2v.2s7.37-2.91,8.79-2.16l-.88.25,1.46.08a2,2,0,0,0,.92,1.42c.83.54.87.87.87.87s-.41.17-.41.42a3.84,3.84,0,0,1,2.37,0s0-.25-.63-.42a3.28,3.28,0,0,1-1.45-1.16A1.66,1.66,0,0,1,17.25,18c.21-.54.91-.83,2.37-1.58,1.71-.87,2.13-1.54,2.33-2.08s.63-1.54.8-2a2.74,2.74,0,0,1,.83-1.17A11.54,11.54,0,0,1,25,10.46C25.08,10.51,24.16,9.76,23.87,9.55Z" style="fill:#fff"/></svg>