<svg xmlns="http://www.w3.org/2000/svg" id="Layer_1" x="0" y="0" version="1.1" viewBox="0 0 32 32" xml:space="preserve">
  <defs/>
  <style>
    .st2{fill:#53cbc8}
  </style>
  <path fill="#f4f4f4" fill-rule="evenodd" d="M16 32C7.2 32 0 24.8 0 16S7.2 0 16 0s16 7.2 16 16-7.2 16-16 16z" clip-rule="evenodd"/>
  <path fill="#f2b705" d="M15.822 3.28a9.513 9.513 0 00-9.345 11.304l1.23-.842c2.16-1.482 5.664-1.482 7.824 0l1.29.883.699.48c1.947 1.335 5.102 1.335 7.048 0l.573-.392a9.52 9.52 0 00-9.316-11.43l-.003-.003z"/>
  <path d="M21.168 18.507c-1.434 0-2.804-.389-3.836-1.096l-1.987-1.362c-.951-.654-2.228-1.014-3.593-1.014s-2.643.359-3.594 1.014l-1.285.88a.558.558 0 11-.63-.921l1.284-.88c1.136-.779 2.636-1.207 4.225-1.207s3.088.428 4.224 1.207l1.987 1.362a6.14 6.14 0 006.41 0l.754-.516a.558.558 0 11.63.92l-.754.517c-1.037.71-2.402 1.096-3.835 1.096z" class="st2"/>
  <path d="M11.71 22.502v-5.374a2.14 2.14 0 01.015-.339.606.606 0 01.602-.537c.298.008.543.24.567.537.023.187.03.375.02.563v10.716c-.032.398-.281.66-.616.652-.335-.007-.577-.28-.579-.682v-3.573l-.009-1.963zM10.58 19.797v2.671c0 .457-.244.76-.59.749-.345-.01-.607-.32-.609-.754v-5.34c0-.468.273-.784.627-.766.355.018.567.301.568.769.006.89.004 1.78.004 2.67zM14.05 19.793v-1.877c0-.435.231-.717.575-.717s.61.29.613.7c.013 1.279.013 2.556 0 3.833 0 .435-.256.697-.61.693-.352-.004-.578-.27-.581-.717v-1.916l.003.001zM7.053 20.184v-1.878c0-.435.23-.716.575-.716s.609.29.612.7c.012 1.278.012 2.556 0 3.832 0 .436-.258.697-.609.694-.351-.004-.579-.271-.582-.717v-1.917l.003.002zM16.966 18.586h.002a.59.59 0 01.59.59v1.02a.59.59 0 01-.59.59h-.002a.59.59 0 01-.589-.59v-1.02a.59.59 0 01.59-.59zM19.303 19.48h.001a.59.59 0 01.59.59v5.727a.59.59 0 01-.59.589h-.001a.59.59 0 01-.59-.59V20.07a.59.59 0 01.59-.59zM21.622 19.702h.002a.59.59 0 01.59.59v4.867a.59.59 0 01-.59.59h-.002a.59.59 0 01-.589-.59V20.29a.59.59 0 01.59-.589zM23.975 19.147h.001a.59.59 0 01.59.589v2.1a.59.59 0 01-.59.589h-.001a.59.59 0 01-.59-.59v-2.099a.59.59 0 01.59-.59z" class="st2"/>
</svg>
