<svg xmlns="http://www.w3.org/2000/svg" xmlns:xlink="http://www.w3.org/1999/xlink" width="36.132mm" height="36.132mm" viewBox="0 0 102.4214 102.4214"><defs><style>.a{fill:none;}.b{fill:#143a3a;}.c{fill:#fff;}.d{clip-path:url(#a);}</style><clipPath id="a"><path class="a" d="M97.6679,11.6411v77.594H37.3226v-9.9c5.6751-1.589,9.9755-5.8517,12.7752-12.6871,1.0721-2.51,5.4356-15.7263,9.9884-29.6241.6937-2.1313,8.1231-24.2812,8.49-25.3826Z"/></clipPath></defs><circle class="b" cx="51.2107" cy="51.2107" r="51.2107"/><path class="c" d="M57.8035,31.3936c-1.16,3.4681-9.938,30.5069-11.325,33.7355C45.4316,67.6766,42.5436,74.26,35.38,75.76a20.905,20.905,0,0,1-4.0608.3784,28.9047,28.9047,0,0,1-7.4911-1.0721.7312.7312,0,0,1-.6937-.58l-2.5475-7.39a.8072.8072,0,0,1,.6937-.9459.3679.3679,0,0,1,.1133.0252A34.5694,34.5694,0,0,0,30.399,67.79c3.38,0,6.5831-1.0216,7.6422-4.6284H32.6059a1.42,1.42,0,0,1-1.6142-1.0342L20.2439,31.3822a.4275.4275,0,0,1,.4036-.5687h8.3767a3.2081,3.2081,0,0,1,3.115,2.1944l7.63,23.1166h.6937l6.4695-23.0033A3.1106,3.1106,0,0,1,50.0473,30.7h7.2894A.5134.5134,0,0,1,57.8035,31.3936Z"/><polygon class="c" points="54.502 76.248 63.628 76.248 66.941 66.21 57.865 66.21 54.502 76.248"/><polygon class="c" points="71.46 25.121 67.743 36.384 76.865 36.384 80.582 25.121 71.46 25.121"/><g class="d"><path class="c" d="M73.3539,47.023l-3.9932-.917a8.9034,8.9034,0,0,1-3.5947-1.3682,1.823,1.823,0,0,1-.5723-1.8593,4.46,4.46,0,0,1,1.9082-3.15A8.3753,8.3753,0,0,1,72.0082,38.51a10.7622,10.7622,0,0,1,4.5439.88,7.23,7.23,0,0,1,2.9463,2.4375l.3936.5664L87.69,36.8286l-.3349-.5429A10.7232,10.7232,0,0,0,81.88,32.1314a23.6147,23.6147,0,0,0-8.54-1.4473,28.3963,28.3963,0,0,0-7.2842.8858,19.416,19.416,0,0,0-5.8535,2.57,14.2756,14.2756,0,0,0-4.0664,4.0722,12.99,12.99,0,0,0-1.959,5.3409,8.7053,8.7053,0,0,0,1.4434,6.498C56.9232,51.8589,59.225,53.1,62.4574,53.74l4.1836.86a8.273,8.273,0,0,1,3.3525,1.292,2.1814,2.1814,0,0,1,.587,2.15,5.1,5.1,0,0,1-2.129,3.6094,8.782,8.782,0,0,1-5.2041,1.3506,15.4608,15.4608,0,0,1-5.48-1.0069,9.056,9.056,0,0,1-4.1221-2.9785l-.417-.5488-7.52,5.8535.3037.5156a11.1724,11.1724,0,0,0,6.0322,4.5489,28.08,28.08,0,0,0,9.7325,1.55,28.6888,28.6888,0,0,0,7.6787-.9668,20.0073,20.0073,0,0,0,6.0644-2.7637,14.6525,14.6525,0,0,0,4.1631-4.3193,14.1931,14.1931,0,0,0,1.9863-5.5723C82.4183,51.9,79.62,48.437,73.3539,47.023Z"/></g><path class="c" d="M28.5642,62.2438,25.56,53.9244a1.8745,1.8745,0,0,0-1.8487-1.271h-7.395A2.608,2.608,0,0,0,13.89,56.12c.6932,1.9643,1.04,3.0042,1.7332,4.853a3.231,3.231,0,0,0,3.0042,2.1953h9.3592A.6316.6316,0,0,0,28.5642,62.2438Z"/></svg>