<svg xmlns="http://www.w3.org/2000/svg" viewBox="0 0 32 32">
  <defs/>
  <path fill="#fff" fill-rule="evenodd" d="M16 32C7.2 32 0 24.8 0 16S7.2 0 16 0s16 7.2 16 16-7.2 16-16 16z" clip-rule="evenodd"/>
  <path fill="#0f62ff" fill-rule="evenodd" d="M16 32C7.2 32 0 24.8 0 16S7.2 0 16 0s16 7.2 16 16-7.2 16-16 16zm2.2-6c1 0 1.9-.2 2.8-.6.8-.4 1.5-1.1 1.9-1.9.4-.8.6-1.8.6-2.7 0-.5-.1-1-.2-1.5s-.4-1.1-.7-1.7c-.4-.6-.9-1.1-1.6-1.4-.7-.4-1.3-.5-1.9-.5-.3 0-.7.1-1 .2l5.2-5.1-.9-.8H14V6.4l-.8-.4H11v.6l.7.7V10H8.5v1.2h3.3v6.3c0 .9.3 1.6.8 2.2.5.5 1.5.8 2.9.8.6 0 1.1-.2 1.5-.5.5-.3.8-.7 1.1-1.3 0-.1 0-.2.1-.3 0-.2-.1-.3-.2-.4-.1-.1-.2-.1-.3-.1-.1 0-.1 0-.2.1-.1 0-.1.1-.1.1-.2.3-.5.6-.9.9-.3.2-.7.4-1.1.4-.5 0-.8-.2-1.1-.5s-.3-.9-.3-1.5v-6.3h6.4l-4.6 6v.5l1-.5c.6-.3 1-.5 1.4-.5.6 0 1.1.2 1.6.4.5.3.9.8 1.1 1.4.3.6.4 1.3.4 2.2 0 .8-.1 1.5-.4 2.1-.2.6-.6 1.1-1.1 1.4-.5.3-1.1.5-1.6.5-.4 0-.9-.1-1.3-.2s-.8-.3-1-.6c.2-.1.4-.2.6-.4.2-.2.3-.5.3-.9 0-.3-.1-.5-.2-.7-.1-.2-.3-.4-.5-.5-.2-.1-.5-.2-.7-.2-.3 0-.5.1-.7.2-.2.1-.4.3-.5.5-.1.2-.2.4-.2.7 0 .8.3 1.5 1 2.2.7 1 1.7 1.3 3.2 1.3z" clip-rule="evenodd"/>
</svg>
