<svg xmlns="http://www.w3.org/2000/svg" width="36.132mm" height="36.132mm" viewBox="0 0 102.4214 102.4214"><defs><style>.a{fill:#143a3a;}.b{fill:#fff;}</style></defs><circle class="a" cx="51.2107" cy="51.2107" r="51.2107"/><path class="b" d="M77.3311,26.6324c-1.469,4.39-12.5809,38.62-14.3369,42.7076-1.3253,3.225-4.9814,11.559-14.05,13.4587a26.4621,26.4621,0,0,1-5.1408.4791A36.59,36.59,0,0,1,34.32,81.9206a.9258.9258,0,0,1-.8782-.7344l-3.225-9.3557a1.0219,1.0219,0,0,1,.8781-1.1974.4669.4669,0,0,1,.1435.0319c1.9157.5268,6.7693,2.0437,11.3995,2.0437,4.2787,0,8.334-1.2933,9.6748-5.8594H45.4322A1.7976,1.7976,0,0,1,43.3886,65.54L29.7823,26.6179a.5413.5413,0,0,1,.511-.72H40.8979a4.0613,4.0613,0,0,1,3.9434,2.778l9.6592,29.2646h.8781l8.19-29.1212a3.9379,3.9379,0,0,1,3.9435-3.0652H76.74A.65.65,0,0,1,77.3311,26.6324Z"/><path class="b" d="M40.3156,65.6873,36.5124,55.1554a2.3731,2.3731,0,0,0-2.34-1.609H24.81a3.3018,3.3018,0,0,0-3.0719,4.3883c.8777,2.4867,1.3165,3.8032,2.1942,6.1436a4.09,4.09,0,0,0,3.8032,2.7792H39.5842A.8.8,0,0,0,40.3156,65.6873Z"/></svg>