<svg id="Layer_1" data-name="Layer 1" xmlns="http://www.w3.org/2000/svg" viewBox="0 0 32 32"><defs><style>.cls-1{fill:#fff;}.cls-2{fill:#de3f6b;}</style></defs><title>ae-erc20</title><circle class="cls-1" cx="16" cy="16" r="16"/><path class="cls-2" d="M9.75,11h.9a6,6,0,0,1,3.69,1.81c2,2,3.11,4.92,5.67,6.43a4,4,0,0,0,5.34-1.65h1.39A5.28,5.28,0,0,1,22.23,21h-.75a6,6,0,0,1-3.4-1.37,23.17,23.17,0,0,1-3.32-4c-.92-1.21-1.85-2.58-3.37-3.13a3.94,3.94,0,0,0-4.84,2.19,3.66,3.66,0,0,0,1.23,4.28,3.93,3.93,0,0,0,3.61.59,6.51,6.51,0,0,0,3.1-2.66c.3.42.59.84.88,1.27A7.26,7.26,0,0,1,10.59,21h-.8A5.18,5.18,0,0,1,5,16.41v-.78A5.17,5.17,0,0,1,9.75,11Zm11.68,0h.75A5.25,5.25,0,0,1,27,15.63v1.23c-2.06,0-4.12,0-6.17,0,0-.36,0-.72,0-1.08H25.7A4.36,4.36,0,0,0,25,14a4,4,0,0,0-4.57-1.37,6.44,6.44,0,0,0-3,2.54c-.29-.4-.57-.8-.84-1.21A7.2,7.2,0,0,1,21.43,11Z"/></svg>