<?xml version="1.0" encoding="utf-8"?>
<!-- Generator: Adobe Illustrator 21.0.0, SVG Export Plug-In . SVG Version: 6.00 Build 0)  -->
<svg version="1.1" id="Layer_1" xmlns="http://www.w3.org/2000/svg" xmlns:xlink="http://www.w3.org/1999/xlink" x="0px" y="0px"
	 viewBox="0 0 32 32" style="enable-background:new 0 0 32 32;" xml:space="preserve">
<style type="text/css">
	.st0{fill:#F7296E;}
	.st1{fill:#FFFFFF;}
</style>
<circle class="st0" cx="16" cy="16" r="16"/>
<g>
	<path class="st1" d="M21.7,10.8c-2.2,0-3.6,1.4-4.9,3l0.8,1.1c1.2-1.6,2.4-2.9,4.2-2.9c2,0,3.7,1.4,4,3.3h-5v1.3H27
		c0-0.2,0-0.4,0-0.6C27,13.1,24.6,10.8,21.7,10.8"/>
	<path class="st1" d="M21.7,20c-2.1,0-3.5-1.8-5.3-4.5c-1.8-2.7-3.5-4.7-6.1-4.7C7.4,10.8,5,13.1,5,16s2.4,5.2,5.3,5.2
		c2.2,0,3.6-1.3,4.9-3l-0.8-1.1C13.3,18.7,12,20,10.3,20c-2.2,0-4-1.8-4-4s1.8-4,4-4c2.1,0,3.5,1.7,5.3,4.5c1.9,2.8,3.5,4.7,6.1,4.7
		c2.2,0,4.1-1.3,4.9-3.3h-1.4C24.5,19.2,23.2,20,21.7,20"/>
</g>
</svg>
