<svg id="Layer_1" data-name="Layer 1" xmlns="http://www.w3.org/2000/svg" viewBox="0 0 32 32"><defs><style>.cls-1{fill:#50239f;}.cls-2{fill:#00e8cc;}</style></defs><title>generic-coin</title><circle class="cls-1" cx="16" cy="16" r="16"/><path class="cls-2" d="M19.13,7.25a12.26,12.26,0,0,0-4.87.91s-2,.82-2,2.22V11C9,11.16,6,12.38,6,14.13v7.49c0,1.73,3.08,3.13,6.88,3.13s6.87-1.4,6.87-3.13V21c3.5-.14,6.25-1.48,6.25-3.11V10.38C26,8.93,23.57,7.25,19.13,7.25ZM18.5,21.62c0,.55-2,1.88-5.62,1.88s-5.63-1.33-5.63-1.88V19.67A10.9,10.9,0,0,0,12.88,21a10.88,10.88,0,0,0,5.62-1.33Zm0-3.75c0,.55-2,1.88-5.62,1.88s-5.63-1.33-5.63-1.88v-2a10.9,10.9,0,0,0,5.63,1.33,10.88,10.88,0,0,0,5.62-1.33ZM12.88,16c-3.17,0-5.74-.84-5.74-1.87s2.57-1.88,5.74-1.88,5.73.84,5.73,1.88S16,16,12.88,16Zm11.87,1.87c0,.52-1.76,1.71-5,1.85v-2.5a10.47,10.47,0,0,0,5-1.3Zm0-3.74c0,.51-1.76,1.69-5,1.84V14.13a1.63,1.63,0,0,0-.16-.64,10.56,10.56,0,0,0,5.16-1.32Zm-5.62-1.88c-.29,0-.55,0-.82,0A10.68,10.68,0,0,0,13.79,11a.92.92,0,0,1-.39-.66c0-1,2.56-1.88,5.73-1.88s5.73.84,5.73,1.88S22.29,12.25,19.13,12.25Z"/></svg>