<?xml version="1.0" encoding="UTF-8"?>
<svg width="1000px" height="1000px" viewBox="0 0 1000 1000" version="1.1" xmlns="http://www.w3.org/2000/svg" xmlns:xlink="http://www.w3.org/1999/xlink">
    <!-- Generator: Sketch 59.1 (86144) - https://sketch.com -->
    <title>green_base_white_trim</title>
    <desc>Created with Sketch.</desc>
    <g id="green_base_white_trim" stroke="none" stroke-width="1" fill="none" fill-rule="evenodd">
        <circle id="Oval" fill="#189DA3" cx="500" cy="500" r="500"></circle>
        <circle id="Oval" fill="#FFFFFF" cx="500" cy="500" r="388.888889"></circle>
        <circle id="Oval" fill="#189DA3" cx="500" cy="500" r="333.333333"></circle>
        <rect id="Rectangle" fill="#189DA3" x="0" y="350" width="1000" height="300" rx="150"></rect>
        <path d="M348.679245,608.679245 L348.679245,567.924528 L412.830189,567.924528 L412.830189,592.830189 C412.830189,625.283019 458.113208,640.377358 500.377358,640.377358 C543.396226,640.377358 577.358491,623.018868 577.358491,591.320755 C577.358491,552.830189 535.09434,540.754717 482.264151,521.886792 L469.614062,517.100285 C416.723866,496.712995 363.018868,469.951083 363.018868,405.660377 C363.018868,331.446541 435.266038,301.018868 500.823655,300.025227 L504.150943,300 C557.735849,300 636.226415,321.132075 636.226415,376.981132 L636.226415,423.018868 L572.075472,423.018868 L572.075472,398.113208 C572.075472,374.716981 541.886792,358.867925 504.90566,358.867925 C468.679245,358.867925 436.981132,373.962264 436.981132,404.90566 C436.981132,441.132075 479.245283,456.226415 525.283019,472.075472 L534.977804,475.340217 C591.278715,494.552066 651.320755,520.473413 651.320755,587.54717 C651.320755,660 584.90566,700 498.113208,700 C428.679245,700 348.679245,669.056604 348.679245,608.679245 Z" id="s" fill="#FFFFFF" fill-rule="nonzero"></path>
        <g id="Group" transform="translate(464.500000, 241.500000)" fill="#FFFFFF">
            <rect id="Rectangle" x="0" y="0" width="71" height="74"></rect>
            <rect id="Rectangle" x="0" y="442" width="71" height="75"></rect>
        </g>
    </g>
</svg>