<?xml version="1.0" encoding="utf-8"?>
<!-- Generator: Adobe Illustrator 23.0.1, SVG Export Plug-In . SVG Version: 6.00 Build 0)  -->
<svg version="1.1" id="Layer_1" xmlns="http://www.w3.org/2000/svg" xmlns:xlink="http://www.w3.org/1999/xlink" x="0px" y="0px"
	 viewBox="0 0 32 32" style="enable-background:new 0 0 32 32;" xml:space="preserve">
<style type="text/css">
	.st0{fill-rule:evenodd;clip-rule:evenodd;fill:#FFFFFF;}
	.st1{fill-rule:evenodd;clip-rule:evenodd;fill:#2C7DF7;}
</style>
<path class="st0" d="M16,32L16,32C7.2,32,0,24.8,0,16v0C0,7.2,7.2,0,16,0h0c8.8,0,16,7.2,16,16v0C32,24.8,24.8,32,16,32z"/>
<path class="st1" d="M16,32C7.2,32,0,24.8,0,16S7.2,0,16,0s16,7.2,16,16S24.8,32,16,32z M18.2,26c1,0,1.9-0.2,2.8-0.6
	c0.8-0.4,1.5-1.1,1.9-1.9c0.4-0.8,0.6-1.8,0.6-2.7c0-0.5-0.1-1-0.2-1.5c-0.1-0.5-0.4-1.1-0.7-1.7c-0.4-0.6-0.9-1.1-1.6-1.4
	c-0.7-0.4-1.3-0.5-1.9-0.5c-0.3,0-0.7,0.1-1,0.2l5.2-5.1L22.4,10L14,10V6.4L13.2,6H11v0.6l0.7,0.7V10H8.5v1.2h3.3v6.3
	c0,0.9,0.3,1.6,0.8,2.2c0.5,0.5,1.5,0.8,2.9,0.8c0.6,0,1.1-0.2,1.5-0.5c0.5-0.3,0.8-0.7,1.1-1.3c0-0.1,0-0.2,0.1-0.3
	c0-0.2-0.1-0.3-0.2-0.4c-0.1-0.1-0.2-0.1-0.3-0.1c-0.1,0-0.1,0-0.2,0.1c-0.1,0-0.1,0.1-0.1,0.1c-0.2,0.3-0.5,0.6-0.9,0.9
	c-0.3,0.2-0.7,0.4-1.1,0.4c-0.5,0-0.8-0.2-1.1-0.5S14,18,14,17.4v-6.3h6.4l-4.6,6v0.5l1-0.5c0.6-0.3,1-0.5,1.4-0.5
	c0.6,0,1.1,0.2,1.6,0.4c0.5,0.3,0.9,0.8,1.1,1.4c0.3,0.6,0.4,1.3,0.4,2.2c0,0.8-0.1,1.5-0.4,2.1c-0.2,0.6-0.6,1.1-1.1,1.4
	c-0.5,0.3-1.1,0.5-1.6,0.5c-0.4,0-0.9-0.1-1.3-0.2c-0.4-0.1-0.8-0.3-1-0.6c0.2-0.1,0.4-0.2,0.6-0.4c0.2-0.2,0.3-0.5,0.3-0.9
	c0-0.3-0.1-0.5-0.2-0.7c-0.1-0.2-0.3-0.4-0.5-0.5c-0.2-0.1-0.5-0.2-0.7-0.2c-0.3,0-0.5,0.1-0.7,0.2c-0.2,0.1-0.4,0.3-0.5,0.5
	c-0.1,0.2-0.2,0.4-0.2,0.7c0,0.8,0.3,1.5,1,2.2C15.7,25.7,16.7,26,18.2,26L18.2,26z"/>
</svg>
